<svg id="Layer_1" xmlns="http://www.w3.org/2000/svg" viewBox="0 0 70 70"><style>.st0{fill:#222}.st1{fill:#477abd}</style><g id="XMLID_3_"><g id="black_2_"><g id="XMLID_6_"><path id="XMLID_7_" class="st0" d="M19.9 58.1c-3.3 0-5.9 2.6-5.9 5.9 0 3.3 2.6 5.9 5.9 5.9s5.9-2.6 5.9-5.9c.2-3.3-2.6-5.9-5.9-5.9zm34.2 0c-3.3 0-5.9 2.6-5.9 5.9 0 3.3 2.6 5.9 5.9 5.9 3.3 0 5.9-2.6 5.9-5.9.2-3.3-2.4-5.9-5.9-5.9z"/></g></g><g id="blue_2_"><g id="XMLID_4_"><path id="XMLID_1_" class="st1" d="M70.1 14H21.2l-5-14H.1v9H10l15.3 42 39.4-10.7s4.5-1.1 4.5-7.4V14h.9z"/></g></g></g></svg>