<svg xmlns="http://www.w3.org/2000/svg" width="60" height="36.014" viewBox="0 0 15.875053 9.5287687"><path d="M15.61 6.09H.265v3.174H15.61zM.265 4.766V.268M15.61 4.766V.268m-.529 2.382l-1.323-1.588m0 3.175l1.323-1.587m-1.323-1.588v3.175m0-1.587H2.117m0-1.588v3.175m0-3.175L.794 2.65m1.323 1.587L.794 2.65m13.494 3.44v.793M12.7 6.09v1.322m-1.587-.529v-.794m-1.588.001v1.322M7.938 6.09v.793M6.35 6.09v1.322M4.763 6.09v.793M3.175 6.09v1.322M1.588 6.09v.793" stroke-width=".529" stroke="#b0b3ba" fill="none" fill-rule="evenodd" stroke-linecap="round" stroke-linejoin="round"/></svg>