<svg xmlns="http://www.w3.org/2000/svg" viewBox="0 0 60 45"><title>086.Measure</title><path d="M1 35h58V23H1zm0-17V1m58 17V1m-2 9l-5-6m0 12l5-6m-5-6v12m0-6H8m0-6.001v12M8 4l-5 6m5 6l-5-6m51.002 13L54 26m-6-3v5m-6-2v-3m-6 0v5m-6-5v3m-6-3v5m-6-5v3m-6-3v5m-6-5v3" stroke="#000" stroke-width="2" fill="none" stroke-linecap="round" stroke-linejoin="round"/><text y="51" font-size="5" font-weight="bold" font-family="'Helvetica Neue', Helvetica, Arial-Unicode, Arial, Sans-serif">Created by Creaticca Creative Agency</text><text y="56" font-size="5" font-weight="bold" font-family="'Helvetica Neue', Helvetica, Arial-Unicode, Arial, Sans-serif">from the Noun Project</text></svg>