<svg xmlns="http://www.w3.org/2000/svg" viewBox="0 0 26 18" width="26" height="18"><style>tspan{white-space:pre}.shp0{fill:#b0b3ba;stroke:#00b3ba;stroke-width:.265}</style><g id="layer1"><g id="g4490"><g id="g4472"><path id="path4470" class="shp0" d="M23.48 4.42c.45.98 1.07 2.33 1.4 3.84.59 2.71-.36 8.04-.4 8.26v.01l-.03.09v.01c-.01.03-.03.06-.06.08l-.02.02c-.02.02-.04.03-.06.05-.01 0-.01.01-.02.01 0 0-.01 0-.01.01-.03.01-.05.03-.08.03-.49.14-.95.21-1.37.21-.65 0-1.21-.17-1.66-.5-1.08-.79-1.15-2.21-1.15-2.27-.01-.16.08-.31.23-.38l.59-.28c.38-.18.6-.58.55-.99l-.14-1.1a.396.396 0 0 0-.23-.31l-.25-.11a.432.432 0 0 1-.24-.3l-.03-.17-1.01-.29a.386.386 0 0 1-.28-.32l-.33-2h-.93c-.15 0-.29-.08-.35-.22-.05-.06-.57-.54-3.05-.66-1.78-.08-2.7-.87-3.15-1.51a3.23 3.23 0 0 1-.45-.89h-.54v.28a1.052 1.052 0 0 1 .62 1.22h.68c.22 0 .4.18.4.4 0 .22-.18.4-.4.4h-.26v7.97c0 .4-.28.74-.67.83l-1.71.37c-.06.01-.12.02-.18.02a.86.86 0 0 1-.53-.19c-.2-.16-.31-.4-.31-.66v-.48c0-.11.04-.21.12-.28l.26-.26c.1-.1.16-.24.16-.38V7.05h-.25c-.22 0-.4-.18-.4-.4 0-.22.18-.4.4-.4h.68a1.052 1.052 0 0 1 .62-1.22v-.28h-.41a.76.76 0 0 1-.76-.76v-.36c-.08.02-.17.04-.26.04s-.18-.01-.26-.04v.58c0 .22-.18.4-.4.4H6c-.67 0-1.26-.34-1.62-.85-.03 0-.05 0-.08-.01l-1.2-.38a.396.396 0 0 1-.28-.38v-.08H.44c-.22 0-.4-.18-.4-.4 0-.22.18-.4.4-.4h2.38v-.16c0-.17.11-.33.28-.38l1.2-.38c.03-.01.06-.01.08-.02C4.74.66 5.33.33 6 .33h1.55c.22 0 .4.18.4.4v.67c.08-.02.17-.04.26-.04s.18.01.26.04V.73c0-.42.34-.76.76-.76h6.93c.08 0 .16.03.23.07.17.12 1.19.34 3.21.44 3.26.15 3.86.44 3.91.98.03.33-.13.58-.27.79-.12.18-.24.38-.28.65-.03.19.28.88.56 1.48zM10.63 7.05H9.35v6.93c0 .35-.14.69-.39.94l-.15.14v.32c0 .02.01.03.02.04.01.01.03.01.04.01l1.71-.37c.02-.01.04-.03.04-.05zm-.63-.8c.14 0 .25-.11.25-.25s-.11-.25-.25-.25-.25.11-.25.25.11.25.25.25zm12.76-1.5c-.42-.91-.69-1.51-.63-1.94.01-.03.02-.06.02-.09h-8.79v.57c0 .43.27.83.68.98l4.37 1.32c.05.02.11.03.17.04l3.5.45c.18.02.33.17.34.36 0 .01.05.53.15.86.05.09.39.29.71.4.11.04.2.13.24.24.01.03.29.8.56 3.3.04.39.09.7.14.93.09-1.35.1-2.75-.11-3.73-.31-1.43-.88-2.68-1.34-3.68zM3.98 2.14l-.41.13v.45l.41.13zm1.59 1.62V1.23c-.46.16-.79.6-.79 1.12v.3c0 .52.33.95.79 1.12zm1.55-2.61h-.76v2.68h.76zm1.31 1.47v-.18c0-.14-.12-.26-.26-.26s-.26.12-.26.26v.18c0 .14.12.26.26.26s.26-.12.26-.26zm.8 1.34h1.58V.79H9.23zm11.12 5.82l-.28-1.74h-.4l.27 1.63zm1.29 6.12c.09.07.19.12.3.17.18-.38.52-.9 1.06-.95.34-.04.63.12.86.34.07-.49.16-1.13.24-1.84-.41-.24-.66-.96-.8-2.3-.19-1.76-.38-2.61-.46-2.94-.34-.14-.89-.43-1.02-.86-.06-.22-.11-.48-.14-.69l-3.19-.41c-.1-.01-.2-.03-.3-.06L13.8 5.03a1.84 1.84 0 0 1-1.22-1.73v-.97c0-.22.18-.4.4-.4h9.52c.01-.02.03-.05.04-.06.05-.07.09-.14.12-.2-.24-.1-.97-.26-3.13-.36-1.05-.05-2.83-.18-3.51-.51h-4.41v3.37c.02.2.33 2.09 2.97 2.21 2.34.11 3.23.54 3.56.87h2.27c.19 0 .36.14.39.33l.47 2.89.05.02c.38.16.66.53.71.94l.14 1.1c.09.76-.31 1.49-1 1.81l-.33.15c.07.36.26 1.02.8 1.41zm1.8.29c-.18-.22-.31-.29-.37-.28-.1.01-.22.15-.33.34.22.01.45-.01.7-.05zm-1.23-6.98c-.02.01-.05.02-.07.02-.03.01-.05.01-.08.01-.1 0-.21-.04-.28-.12-.02-.02-.03-.04-.05-.06a.161.161 0 0 1-.04-.07.185.185 0 0 1-.02-.07c-.01-.02-.01-.05-.01-.08s0-.05.01-.08.01-.05.02-.07c.01-.02.02-.05.04-.07.01-.02.03-.04.05-.06.09-.09.23-.13.36-.11.02.01.05.01.07.02.02.01.04.02.07.03.02.02.04.03.06.05.02.02.04.04.05.06.01.02.03.05.04.07.01.02.02.05.02.07.01.02.01.05.01.08s0 .05-.01.08-.01.05-.02.07c-.01.02-.02.05-.04.07-.01.02-.03.04-.05.06-.02.02-.04.03-.06.05-.02.01-.05.03-.07.04zm-.97-5.61c0 .22-.18.4-.4.4h-2.02c-.22 0-.4-.18-.4-.4 0-.22.18-.4.4-.4h2.02c.22 0 .4.18.4.4zm0 1.26c0 .22-.18.4-.4.4h-2.02c-.22 0-.4-.18-.4-.4 0-.22.18-.4.4-.4h2.02c.22 0 .4.18.4.4z"/></g></g></g></svg>