<svg xmlns="http://www.w3.org/2000/svg" viewBox="0 0 100 125"><path d="M91.364 34.504c-1.05-2.29-2.241-4.885-2.127-5.611.164-1.04.623-1.762 1.068-2.458.525-.826 1.12-1.76 1.008-3.002-.187-2.052-2.444-3.129-14.769-3.702-7.628-.355-11.495-1.204-12.14-1.656a1.503 1.503 0 0 0-.861-.271H37.351a2.865 2.865 0 0 0-2.862 2.862v2.525a3.938 3.938 0 0 0-.982-.137c-.34 0-.665.056-.981.137V20.66a1.5 1.5 0 0 0-1.5-1.5h-5.854a7.49 7.49 0 0 0-6.127 3.189c-.107.01-.214.027-.319.06l-4.544 1.42a1.5 1.5 0 0 0-1.053 1.432v.618h-9.01a1.5 1.5 0 1 0 0 3h9.01v.294a1.5 1.5 0 0 0 1.053 1.432l4.544 1.42c.101.031.205.037.31.047a7.49 7.49 0 0 0 6.136 3.202h5.854a1.5 1.5 0 0 0 1.5-1.5v-2.207c.316.08.64.137.981.137.341 0 .666-.057.982-.138v1.355a2.865 2.865 0 0 0 2.862 2.862h1.546v1.048a3.957 3.957 0 0 0-2.454 3.655c0 .33.053.647.13.955h-2.577a1.5 1.5 0 1 0 0 3h.96v26.194c0 .533-.217 1.054-.596 1.429l-.996.986a1.5 1.5 0 0 0-.445 1.066v1.83c0 .97.433 1.877 1.188 2.488a3.187 3.187 0 0 0 2.683.64l6.48-1.388a3.217 3.217 0 0 0 2.53-3.13V44.44h1a1.5 1.5 0 1 0 0-3h-2.577c.076-.308.13-.624.13-.955a3.958 3.958 0 0 0-2.456-3.655v-1.048h2.046c.315.963.836 2.163 1.697 3.375 1.73 2.437 5.203 5.407 11.918 5.72 9.396.437 11.342 2.278 11.535 2.49a1.5 1.5 0 0 0 1.333.813h3.51l1.239 7.572a1.501 1.501 0 0 0 1.074 1.202l3.832 1.08.102.626a1.5 1.5 0 0 0 .89 1.137l.94.404c.48.206.818.655.883 1.174l.52 4.154a3.633 3.633 0 0 1-2.07 3.75l-2.23 1.044a1.5 1.5 0 0 0-.864 1.418c.01.227.268 5.59 4.362 8.572 1.725 1.256 3.828 1.885 6.286 1.885 1.58 0 3.307-.26 5.174-.781.006-.002.01-.006.017-.007.105-.031.208-.071.308-.126.013-.007.023-.018.035-.025.027-.016.05-.035.077-.053.082-.056.157-.118.225-.188.023-.023.045-.044.066-.069.082-.094.154-.195.21-.305l.009-.024c.05-.106.085-.218.11-.333.004-.017.013-.031.016-.048.154-.85 3.742-20.96 1.502-31.22-1.247-5.717-3.58-10.802-5.285-14.515zM42.8 74.555a.199.199 0 0 1-.158.196l-6.48 1.389a.192.192 0 0 1-.168-.04.192.192 0 0 1-.074-.156v-1.203l.552-.547a5.041 5.041 0 0 0 1.485-3.56V44.44H42.8v30.115zm-3.356-34.07a.956.956 0 1 1 1.911.002.956.956 0 0 1-1.911-.002zm54.276 9.173c.813 3.726.779 9.007.428 14.105-.187-.89-.373-2.037-.533-3.528-1.017-9.454-2.057-12.341-2.1-12.46a1.505 1.505 0 0 0-.918-.897c-1.188-.41-2.494-1.164-2.677-1.514-.36-1.26-.552-3.24-.554-3.26a1.5 1.5 0 0 0-1.302-1.345l-13.216-1.704a3.932 3.932 0 0 1-.633-.136L55.7 33.925a3.94 3.94 0 0 1-2.574-3.686v-2.172h33.232c-.025.123-.064.229-.084.358-.256 1.62.786 3.892 2.364 7.33 1.738 3.788 3.903 8.504 5.08 13.903zM17.673 28.552l-1.544-.483v-1.706l1.544-.483v2.672zm3-.777v-1.118c0-1.952 1.258-3.6 2.999-4.222v9.562c-1.741-.621-2.999-2.27-2.999-4.222zm8.853 4.498h-2.854V22.16h2.854v10.113zm3.981-3.57a.995.995 0 0 1-.981-.982v-.685c0-.533.45-.982.981-.982s.982.45.982.982v.685c0 .532-.45.982-.982.982zm3.982-.982v-6.917h5.982v11.978h-5.982v-5.061zm40.492 26.604l-1.004-6.145h1.5l1.072 6.587-1.568-.442zm3.394 18.253l1.242-.581a6.624 6.624 0 0 0 3.775-6.84l-.52-4.155a4.492 4.492 0 0 0-2.677-3.558l-.183-.079-1.78-10.926a1.5 1.5 0 0 0-1.48-1.259h-8.59c-1.267-1.249-4.622-2.888-13.465-3.3-9.982-.464-11.134-7.608-11.226-8.35V20.804h16.68c2.554 1.25 9.294 1.74 13.254 1.925 8.157.378 10.895.978 11.813 1.348-.102.21-.266.466-.444.745-.047.075-.101.166-.151.245H51.626a1.5 1.5 0 0 0-1.5 1.5v3.672c0 2.892 1.825 5.506 4.623 6.53l16.597 5.022c.366.11.742.19 1.118.24l12.058 1.554c.108.773.278 1.782.512 2.603.464 1.622 2.563 2.716 3.843 3.246.325 1.24 1.04 4.481 1.754 11.121.545 5.063 1.485 7.784 3.023 8.702a178.315 178.315 0 0 1-.897 6.945c-.874-.812-1.964-1.412-3.244-1.271-2.032.21-3.313 2.154-3.992 3.598a6.262 6.262 0 0 1-1.123-.63c-2.053-1.483-2.774-3.965-3.023-5.321zm7.203 6.605c.412-.693.88-1.23 1.243-1.268.222-.025.723.227 1.407 1.07a13.39 13.39 0 0 1-2.65.198zM86.55 52.61c-.09.03-.19.06-.28.08a1.515 1.515 0 0 1-1.36-.41c-.07-.07-.13-.14-.18-.23a.934.934 0 0 1-.14-.26c-.04-.09-.07-.18-.09-.28a1.355 1.355 0 0 1 0-.58c.02-.1.05-.19.09-.28.03-.09.08-.18.14-.26.05-.08.11-.16.18-.23.35-.35.87-.51 1.36-.41.09.02.19.05.28.09.09.03.17.08.26.13.08.06.15.12.22.19s.14.15.19.23c.05.08.1.17.14.26s.06.18.08.28c.02.09.03.19.03.29s-.01.2-.03.29c-.02.1-.04.19-.08.28-.04.09-.09.18-.14.26-.05.09-.12.16-.19.23s-.14.13-.22.19c-.09.05-.17.1-.26.14zm-3.642-21.197a1.5 1.5 0 0 1-1.5 1.5h-7.62a1.5 1.5 0 1 1 0-3h7.62a1.5 1.5 0 0 1 1.5 1.5zm0 4.743a1.5 1.5 0 0 1-1.5 1.5h-7.62a1.5 1.5 0 1 1 0-3h7.62a1.5 1.5 0 0 1 1.5 1.5z"/></svg>