<svg xmlns="http://www.w3.org/2000/svg" viewBox="0 0 100 125"><path d="M15.685 55.078c.2 0 .4-.04.592-.122l14.28-6.141c.174-.075.324-.182.453-.308.004-.004.01-.005.014-.01l.02-.019.004-.004 23.72-23.72 1.204-1.204 3.842-3.842a4.055 4.055 0 0 0 0-5.729l-4.53-4.531a4.054 4.054 0 0 0-5.73 0l-3.842 3.842-1.204 1.204-23.721 23.722-.022.022c-.005.005-.006.011-.011.016a1.488 1.488 0 0 0-.307.452l-.012.028-6.129 14.251a1.5 1.5 0 0 0 1.379 2.093zm35.99-43.51a1.056 1.056 0 0 1 1.487 0l4.531 4.532c.199.199.308.462.308.743s-.11.545-.308.743l-2.781 2.782-6.018-6.017 2.782-2.782zm-5.046 5.047l.144-.143 6.018 6.017-.144.144-22.683 22.683-6.018-6.018L46.63 16.615zm-24.3 25.308l5.01 5.01-8.79 3.78 3.78-8.79zM12.056 91.74h75.888a1.5 1.5 0 0 0 1.5-1.5V14.35a1.5 1.5 0 0 0-2.56-1.061L10.995 89.178a1.5 1.5 0 0 0 1.06 2.56zm74.388-73.767V88.74h-5.888v-3.37a1.5 1.5 0 1 0-3 0v3.368h-7V85.37a1.5 1.5 0 1 0-3 0v3.368h-7V85.37a1.5 1.5 0 1 0-3 0v3.368h-7V85.37a1.5 1.5 0 1 0-3 0v3.368h-7V85.37a1.5 1.5 0 1 0-3 0v3.368h-7V85.37a1.5 1.5 0 1 0-3 0v3.368h-11.88l70.768-70.767zM39.205 80.9H77.15a1.5 1.5 0 0 0 1.5-1.5V41.457a1.5 1.5 0 0 0-2.56-1.061L38.145 78.34a1.5 1.5 0 0 0 1.06 2.56zM75.65 45.078V77.9H42.826L75.65 45.078z"/><text y="115" font-size="5" font-weight="bold" font-family="'Helvetica Neue', Helvetica, Arial-Unicode, Arial, Sans-serif">Created by Erman Tutan</text><text y="120" font-size="5" font-weight="bold" font-family="'Helvetica Neue', Helvetica, Arial-Unicode, Arial, Sans-serif">from the Noun Project</text></svg>