<svg xmlns="http://www.w3.org/2000/svg" width="78.889" height="83.476" viewBox="0 0 20.872658 22.086359"><path d="M1.357 12.387a.395.395 0 0 0 .157-.033l3.778-1.625a.394.394 0 0 0 .12-.08l.004-.004.005-.005 6.277-6.277.318-.318 1.017-1.017a1.073 1.073 0 0 0 0-1.516L11.834.314a1.073 1.073 0 0 0-1.515 0L9.302 1.33l-.319.319-6.276 6.276-.006.006-.003.004a.394.394 0 0 0-.08.12l-.004.007-1.622 3.77a.397.397 0 0 0 .365.555zM10.88.875a.279.279 0 0 1 .393 0l1.199 1.199a.277.277 0 0 1 0 .393l-.736.736-1.592-1.592zM9.545 2.21l.038-.038 1.592 1.592-.038.038-6.002 6.002L3.543 8.21zm-6.43 6.696l1.326 1.326-2.326 1zM.397 22.086h20.079a.397.397 0 0 0 .397-.397V1.611a.397.397 0 0 0-.678-.28L.116 21.408a.397.397 0 0 0 .28.677zM20.079 2.57v18.724H18.52V20.4a.397.397 0 1 0-.794 0v.892h-1.852V20.4a.397.397 0 1 0-.794 0v.892h-1.85V20.4a.397.397 0 1 0-.794 0v.892h-1.852V20.4a.397.397 0 1 0-.793 0v.892H7.938V20.4a.397.397 0 1 0-.794 0v.892H5.292V20.4a.397.397 0 1 0-.794 0v.892H1.355zM7.58 19.219h10.04a.397.397 0 0 0 .397-.397V8.782a.397.397 0 0 0-.678-.28l-10.04 10.04a.397.397 0 0 0 .281.677zm9.643-9.478v8.684H8.538z" stroke="b0b3ba" stroke-width=".265"/></svg>