<?xml version="1.0" standalone="no"?>
<!DOCTYPE svg PUBLIC "-//W3C//DTD SVG 1.1//EN" "http://www.w3.org/Graphics/SVG/1.1/DTD/svg11.dtd" >
<svg xmlns="http://www.w3.org/2000/svg" xmlns:xlink="http://www.w3.org/1999/xlink" version="1.1">
<metadata>
Created by FontForge 20170731 at Mon Nov 29 17:07:01 2010
 By Aleksey,,,
Copyright 2004 - 2010 by Robert Bosch GmbH
</metadata>
<defs>
<font id="BoschSans-Medium" horiz-adv-x="500" >
  <font-face 
    font-family="Bosch Sans Medium"
    font-weight="500"
    font-stretch="normal"
    units-per-em="1000"
    panose-1="0 0 6 0 0 0 0 0 0 0"
    ascent="753"
    descent="-247"
    x-height="523"
    cap-height="715"
    bbox="-187 -251 1244 1095"
    underline-thickness="84"
    underline-position="-323"
    unicode-range="U+0020-FB04"
  />
<missing-glyph horiz-adv-x="301" 
 />
    <glyph glyph-name="ff" unicode="ff" horiz-adv-x="698" 
d="M392 523v68q0 82 43 128t120 46q51 0 101 -27l-26 -77q-32 18 -64 18t-50.5 -22t-18.5 -60v-74h115v-84h-115v-439h-105v439h-180v-439h-105v439h-74v84h74v68q0 82 43 128t120 46q51 0 101 -27l-26 -77q-32 18 -64 18t-50.5 -22t-18.5 -60v-74h180z" />
    <glyph glyph-name="fi" unicode="fi" horiz-adv-x="624" 
d="M33 439v84h74v68q0 82 43 128t120 46q51 0 101 -27l-26 -77q-32 18 -64 18t-50.5 -22t-18.5 -60v-74h115v-84h-115v-439h-105v439h-74zM427 0v523h105v-523h-105zM480 732q25 0 42.5 -18t17.5 -43t-17.5 -42.5t-42.5 -17.5q-26 0 -43.5 17.5t-17.5 42.5q0 26 17.5 43.5
t43.5 17.5z" />
    <glyph glyph-name="fl" unicode="fl" horiz-adv-x="624" 
d="M33 439v84h74v68q0 82 43 128t120 46q51 0 101 -27l-26 -77q-32 18 -64 18t-50.5 -22t-18.5 -60v-74h115v-84h-115v-439h-105v439h-74zM428 0v753h105v-753h-105z" />
    <glyph glyph-name="ffi" unicode="ffi" horiz-adv-x="859" 
d="M392 523v68q0 82 43 128t120 46q51 0 101 -27l-26 -77q-32 18 -64 18t-50.5 -22t-18.5 -60v-74h115v-84h-115v-439h-105v439h-180v-439h-105v439h-74v84h74v68q0 82 43 128t120 46q51 0 101 -27l-26 -77q-32 18 -64 18t-50.5 -22t-18.5 -60v-74h180zM693 0v523h105v-523
h-105zM746 736q26 0 45 -19.5t19 -45.5t-19 -45t-45 -19q-27 0 -46 19t-19 45q0 27 19 46t46 19z" />
    <glyph glyph-name="ffl" unicode="ffl" horiz-adv-x="859" 
d="M392 523v68q0 82 43 128t120 46q51 0 101 -27l-26 -77q-32 18 -64 18t-50.5 -22t-18.5 -60v-74h115v-84h-115v-439h-105v439h-180v-439h-105v439h-74v84h74v68q0 82 43 128t120 46q51 0 101 -27l-26 -77q-32 18 -64 18t-50.5 -22t-18.5 -60v-74h180zM707 0v753h105v-753
h-105z" />
    <glyph glyph-name=".notdef" horiz-adv-x="301" 
 />
    <glyph glyph-name=".null" horiz-adv-x="0" 
 />
    <glyph glyph-name="nonmarkingreturn" horiz-adv-x="333" 
 />
    <glyph glyph-name="space" unicode=" " horiz-adv-x="301" 
 />
    <glyph glyph-name="exclam" unicode="!" horiz-adv-x="358" 
d="M170 222l-27 272v221h116v-221l-27 -272h-62zM200 139q29 0 50.5 -21.5t21.5 -51.5t-21.5 -51.5t-51.5 -21.5t-51.5 21.5t-21.5 51.5q0 31 21.5 52t52.5 21z" />
    <glyph glyph-name="quotedbl" unicode="&#x22;" horiz-adv-x="429" 
d="M85 446l-16 269h111l-16 -269h-79zM264 446l-15 269h110l-16 -269h-79z" />
    <glyph glyph-name="numbersign" unicode="#" horiz-adv-x="560" 
d="M64 481v86h106l15 148h72l-15 -148h107l16 148h71l-15 -148h96v-86h-105l-13 -118h97v-86h-106l-15 -150h-72l16 150h-108l-15 -150h-72l15 150h-96v86h105l13 118h-97zM233 481l-13 -118h108l12 118h-107z" />
    <glyph glyph-name="dollar" unicode="$" horiz-adv-x="602" 
d="M268 -135v126q-94 7 -159 57t-89 134l95 29q19 -62 55.5 -94t97.5 -40v249q-94 22 -141 53q-77 50 -77 148q0 92 69 146q55 43 149 52v88h65v-89q149 -16 210 -158l-89 -34q-22 50 -50 75t-71 32v-228q102 -24 149 -54q80 -50 80 -159q0 -78 -49 -132q-31 -33 -72 -49.5
t-108 -24.5v-127h-65zM333 313v-236q129 17 129 115q0 49 -27.5 75t-101.5 46zM268 425v217q-120 -13 -120 -105q0 -46 25 -69.5t95 -42.5z" />
    <glyph glyph-name="percent" unicode="%" horiz-adv-x="924" 
d="M222 722q75 0 122 -55.5t47 -144.5q0 -91 -47 -146.5t-124 -55.5t-124 55t-47 145t48 146t125 56zM706 394q75 0 122 -55.5t47 -143.5q0 -91 -47.5 -146.5t-124.5 -55.5q-76 0 -123 55t-47 144q0 91 47.5 146.5t125.5 55.5zM223 0l396 715h82l-395 -715h-83zM221 646
q-82 0 -82 -126q0 -123 80 -123q82 0 82 123q0 126 -80 126zM705 318q-82 0 -82 -125q0 -124 80 -124q82 0 82 124q0 125 -80 125z" />
    <glyph glyph-name="ampersand" unicode="&#x26;" horiz-adv-x="698" 
d="M649 87l11 -84q-33 -8 -54 -8q-67 0 -136 58q-82 -61 -183 -61q-108 0 -172 55t-64 147q0 74 39 125t130 97q-25 71 -25 130q0 79 45.5 127t121.5 48q63 0 104.5 -40.5t41.5 -102.5q0 -60 -40.5 -104.5t-131.5 -84.5q54 -107 141 -203q45 71 58 165h87q-13 -129 -83 -226
q48 -44 83 -44q13 0 27 6zM249 349q-47 -30 -68 -63.5t-21 -80.5q0 -59 37 -95.5t95 -36.5q59 0 118 41q-104 115 -161 235zM307 453q64 28 89 55.5t25 68.5q0 31 -16 48.5t-43 17.5q-34 0 -53.5 -25.5t-19.5 -70.5q0 -40 18 -94z" />
    <glyph glyph-name="quotesingle" unicode="'" horiz-adv-x="249" 
d="M85 446l-16 269h111l-16 -269h-79z" />
    <glyph glyph-name="parenleft" unicode="(" horiz-adv-x="424" 
d="M360 -148h-90q-87 108 -125.5 216t-38.5 245q0 136 39 245.5t125 217.5h90q-80 -123 -112.5 -226.5t-32.5 -235.5t32.5 -235.5t112.5 -226.5z" />
    <glyph glyph-name="parenright" unicode=")" horiz-adv-x="424" 
d="M64 776h90q87 -108 125.5 -216t38.5 -245q0 -136 -39 -245.5t-125 -217.5h-90q80 123 112.5 226.5t32.5 235.5t-32.5 235.5t-112.5 226.5z" />
    <glyph glyph-name="asterisk" unicode="*" horiz-adv-x="455" 
d="M152 401l-70 51l92 105l-126 29l28 84l115 -56l-15 139h89l-15 -139l115 56l27 -84l-126 -29l92 -105l-70 -51l-68 120z" />
    <glyph glyph-name="plus" unicode="+" horiz-adv-x="560" 
d="M56 299v86h179v197h90v-197h180v-86h-180v-198h-90v198h-179z" />
    <glyph glyph-name="comma" unicode="," horiz-adv-x="301" 
d="M87 -154v55q62 19 65 97q-75 3 -75 69q0 32 19.5 52t50.5 20q38 0 59.5 -28t21.5 -78q0 -87 -40 -136q-35 -42 -101 -51z" />
    <glyph glyph-name="hyphen" unicode="-" horiz-adv-x="301" 
d="M40 280v96h221v-96h-221z" />
    <glyph glyph-name="period" unicode="." horiz-adv-x="301" 
d="M152 139q30 0 51 -21.5t21 -51.5t-21.5 -51.5t-50.5 -21.5q-31 0 -52.5 21.5t-21.5 51.5q0 31 21.5 52t52.5 21z" />
    <glyph glyph-name="slash" unicode="/" horiz-adv-x="433" 
d="M11 -148l292 924h94l-291 -924h-95z" />
    <glyph glyph-name="zero" unicode="0" horiz-adv-x="602" 
d="M301 725q117 0 187 -100t70 -267t-70 -267.5t-186 -100.5q-119 0 -188.5 100.5t-69.5 271.5q0 163 70.5 263t186.5 100zM301 639q-68 0 -108 -75t-40 -203q0 -135 39.5 -210t110.5 -75q68 0 107 76t39 206q0 131 -39.5 206t-108.5 75z" />
    <glyph glyph-name="one" unicode="1" horiz-adv-x="602" 
d="M94 0v86h166v465q-54 -24 -154 -24v74q80 8 124 38.5t58 88.5h77v-642h153v-86h-424z" />
    <glyph glyph-name="two" unicode="2" horiz-adv-x="602" 
d="M62 0v88q199 139 278.5 234t79.5 193q0 56 -32 90t-86 34q-53 0 -86.5 -31t-51.5 -98l-98 23q22 94 82 143t154 49q103 0 165 -59t62 -157q0 -141 -143 -275q-63 -58 -193 -148h342v-86h-473z" />
    <glyph glyph-name="three" unicode="3" horiz-adv-x="602" 
d="M155 522l-89 24q25 82 84 129q64 50 159 50q98 0 160.5 -54t62.5 -139q0 -106 -113 -154q134 -43 134 -177q0 -97 -69 -154t-185 -57q-119 0 -193 63q-31 27 -48 57t-27 77l98 23q34 -134 172 -134q69 0 106 32.5t37 92.5q0 61 -39 94.5t-111 33.5h-70v86h65
q66 0 102.5 29.5t36.5 82.5q0 52 -32.5 82t-88.5 30q-57 0 -93.5 -28t-58.5 -89z" />
    <glyph glyph-name="four" unicode="4" horiz-adv-x="602" 
d="M381 0v147h-357v101l335 478h121v-493h97v-86h-97v-147h-99zM381 625l-260 -392h260v392z" />
    <glyph glyph-name="five" unicode="5" horiz-adv-x="602" 
d="M196 629l-20 -210q51 55 140 55q101 0 164.5 -66.5t63.5 -173.5q0 -111 -67.5 -177.5t-180.5 -66.5q-106 0 -175 54q-54 42 -77 120l99 27q34 -115 151 -115q67 0 104 41t37 115q0 72 -38.5 114t-103.5 42q-80 0 -125 -65h-90l37 392h391v-86h-310z" />
    <glyph glyph-name="six" unicode="6" horiz-adv-x="602" 
d="M529 579l-89 -37q-23 54 -49.5 75.5t-69.5 21.5q-149 0 -165 -274q61 93 172 93q100 0 163.5 -64t63.5 -165q0 -107 -66.5 -173t-175.5 -66q-128 0 -204 105q-59 82 -59 238q0 182 73.5 287t200.5 105q146 0 205 -146zM310 372q-64 0 -103 -40t-39 -105q0 -66 40 -108.5
t103 -42.5q61 0 98 41t37 108t-37 107t-99 40z" />
    <glyph glyph-name="seven" unicode="7" horiz-adv-x="602" 
d="M274 0h-113q15 186 87.5 350t190.5 279h-376v86h479v-90q-116 -112 -187 -278t-81 -347z" />
    <glyph glyph-name="eight" unicode="8" horiz-adv-x="602" 
d="M438 384q129 -56 129 -178q0 -96 -74 -156t-192 -60t-192 59.5t-74 154.5q0 125 133 181q-98 52 -98 150q0 83 65 136.5t167 53.5q101 0 165 -53t64 -137q0 -98 -93 -151zM305 342q-74 0 -117.5 -36t-43.5 -97t43 -97t115 -36t114 36.5t42 98.5q0 60 -41.5 95.5
t-111.5 35.5zM302 641q-58 0 -91.5 -29.5t-33.5 -79.5t34.5 -79.5t92.5 -29.5q56 0 88 28.5t32 80.5q0 49 -33.5 79t-88.5 30z" />
    <glyph glyph-name="nine" unicode="9" horiz-adv-x="602" 
d="M48 146l94 34q18 -56 47.5 -80t79.5 -24q85 0 124.5 68.5t44.5 223.5q-59 -92 -171 -92q-96 0 -157.5 61t-61.5 157q0 102 67 166.5t172 64.5q141 0 210 -111q48 -76 48 -222q0 -196 -70 -299t-204 -103q-106 0 -170 64q-35 35 -53 92zM289 639q-59 0 -95.5 -38.5
t-36.5 -101.5t35.5 -100t94.5 -37q62 0 101 38t39 99t-39 100.5t-99 39.5z" />
    <glyph glyph-name="colon" unicode=":" horiz-adv-x="301" 
d="M152 139q29 0 50.5 -21.5t21.5 -51.5t-21.5 -51.5t-51.5 -21.5t-51.5 21.5t-21.5 51.5q0 31 21.5 52t52.5 21zM152 434q29 0 50.5 -21.5t21.5 -51.5t-21.5 -51.5t-51.5 -21.5t-51.5 21.5t-21.5 51.5q0 31 21.5 52t52.5 21z" />
    <glyph glyph-name="semicolon" unicode=";" horiz-adv-x="301" 
d="M152 434q29 0 50.5 -21.5t21.5 -51.5t-21.5 -51.5t-51.5 -21.5t-51.5 21.5t-21.5 51.5q0 31 21.5 52t52.5 21zM85 -154v55q62 19 65 97q-75 3 -75 69q0 32 19.5 52t50.5 20q38 0 59.5 -28t21.5 -78q0 -87 -40 -136q-35 -42 -101 -51z" />
    <glyph glyph-name="less" unicode="&#x3c;" horiz-adv-x="560" 
d="M473 81l-396 198v86l396 198v-106l-289 -134l289 -138v-104z" />
    <glyph glyph-name="equal" unicode="=" horiz-adv-x="560" 
d="M74 378v86h412v-86h-412zM74 185v86h412v-86h-412z" />
    <glyph glyph-name="greater" unicode="&#x3e;" horiz-adv-x="560" 
d="M86 85v102l290 134l-290 139v99l396 -197v-80z" />
    <glyph glyph-name="question" unicode="?" horiz-adv-x="546" 
d="M213 222v46q0 56 20 89.5t75 72.5q43 30 59.5 54.5t16.5 58.5q0 43 -28.5 69.5t-75.5 26.5q-104 0 -128 -113l-95 18q18 84 71 129q61 52 157 52q94 0 151 -49t57 -129q0 -56 -25 -93t-94 -83q-40 -27 -53 -49t-13 -64v-36h-95zM259 139q29 0 50.5 -21.5t21.5 -51.5
t-21.5 -51.5t-51.5 -21.5t-51.5 21.5t-21.5 51.5t21.5 51.5t52.5 21.5z" />
    <glyph glyph-name="at" unicode="@" horiz-adv-x="919" 
d="M652 -27l39 -56q-64 -43 -119.5 -59.5t-132.5 -16.5q-170 0 -277.5 110.5t-107.5 284.5q0 179 121.5 301t299.5 122q170 0 279.5 -104.5t109.5 -265.5q0 -115 -54.5 -185t-143.5 -70q-98 0 -118 89q-31 -50 -66.5 -73t-83.5 -23q-67 0 -105.5 47t-38.5 128
q0 112 57.5 187t143.5 75q77 0 109 -67l12 56h90l-41 -244q-4 -21 -4 -44q0 -63 54 -63t86 50.5t32 136.5q0 137 -86.5 219.5t-230.5 82.5q-151 0 -247.5 -99t-96.5 -254q0 -151 84 -240t226 -89q62 0 107 13.5t103 50.5zM464 383q-52 0 -84 -50t-32 -131q0 -94 69 -94
q64 0 95 61q27 56 27 124q0 42 -20 66t-55 24z" />
    <glyph glyph-name="A" unicode="A" horiz-adv-x="655" 
d="M173 167l-57 -167h-102l259 715h112l255 -715h-111l-57 167h-299zM202 251h241l-120 352z" />
    <glyph glyph-name="B" unicode="B" horiz-adv-x="693" 
d="M92 0v715h286q114 0 173 -48t59 -141q0 -55 -22.5 -90t-75.5 -62q70 -23 102.5 -64t32.5 -107q0 -97 -64.5 -150t-182.5 -53h-308zM197 84h209q66 0 101.5 31.5t35.5 90.5q0 120 -145 120h-201v-242zM197 410h196q113 0 113 113q0 56 -31 82t-97 26h-181v-221z" />
    <glyph glyph-name="C" unicode="C" horiz-adv-x="728" 
d="M584 238l95 -37q-22 -58 -46 -93t-59 -62q-74 -56 -183 -56q-147 0 -236.5 100t-89.5 266q0 164 90.5 267t234.5 103q126 0 202 -73q45 -44 79 -131l-94 -36q-28 82 -71.5 118t-114.5 36q-101 0 -159 -75.5t-58 -207.5t58 -206.5t161 -74.5q74 0 119.5 38.5t71.5 123.5z
" />
    <glyph glyph-name="D" unicode="D" horiz-adv-x="743" 
d="M92 0v715h241q162 0 253 -94t91 -263q0 -172 -90.5 -265t-256.5 -93h-238zM197 86h141q112 0 171 69.5t59 202.5q0 131 -59.5 201t-171.5 70h-140v-543z" />
    <glyph glyph-name="E" unicode="E" horiz-adv-x="631" 
d="M92 0v715h470v-86h-365v-226h296v-84h-296v-233h383v-86h-488z" />
    <glyph glyph-name="F" unicode="F" horiz-adv-x="601" 
d="M92 0v715h461v-86h-356v-246h282v-84h-282v-299h-105z" />
    <glyph glyph-name="G" unicode="G" horiz-adv-x="778" 
d="M633 0l-19 123q-43 -70 -97.5 -101.5t-130.5 -31.5q-142 0 -231.5 102t-89.5 264q0 163 92.5 266.5t237.5 103.5q124 0 199 -72q45 -42 80 -123l-96 -37q-29 79 -71 112.5t-111 33.5q-103 0 -162.5 -76.5t-59.5 -207.5q0 -129 59 -204.5t161 -75.5q87 0 144 59t57 148v9
h-182v84h285v-376h-65z" />
    <glyph glyph-name="H" unicode="H" horiz-adv-x="731" 
d="M92 0v715h105v-315h337v315h105v-715h-105v314h-337v-314h-105z" />
    <glyph glyph-name="I" unicode="I" horiz-adv-x="313" 
d="M104 0v715h105v-715h-105z" />
    <glyph glyph-name="J" unicode="J" horiz-adv-x="579" 
d="M493 715v-473q0 -125 -55.5 -188.5t-164.5 -63.5q-104 0 -163.5 58.5t-59.5 160.5v48h105v-38q0 -145 114 -145q119 0 119 159v482h105z" />
    <glyph glyph-name="K" unicode="K" horiz-adv-x="659" 
d="M92 0v715h105v-347l296 347h120l-258 -299l272 -416h-118l-223 340l-89 -103v-237h-105z" />
    <glyph glyph-name="L" unicode="L" horiz-adv-x="570" 
d="M92 0v715h105v-629h345v-86h-450z" />
    <glyph glyph-name="M" unicode="M" horiz-adv-x="903" 
d="M92 715h161l201 -577l198 577h159v-715h-105v608l-210 -608h-90l-215 608v-608h-99v715z" />
    <glyph glyph-name="N" unicode="N" horiz-adv-x="731" 
d="M92 0v715h134l314 -585v585h99v-715h-136l-312 580v-580h-99z" />
    <glyph glyph-name="O" unicode="O" horiz-adv-x="801" 
d="M404 725q143 0 237.5 -104t94.5 -262q0 -161 -93.5 -265t-239.5 -104t-242 104.5t-96 263.5q0 160 95.5 263.5t243.5 103.5zM403 639q-104 0 -166.5 -76.5t-62.5 -205.5q0 -127 62.5 -204t165.5 -77q105 0 165 74.5t60 204.5q0 127 -61.5 205.5t-162.5 78.5z" />
    <glyph glyph-name="P" unicode="P" horiz-adv-x="663" 
d="M92 0v715h279q115 0 177.5 -56.5t62.5 -159.5q0 -100 -62.5 -155t-175.5 -55h-176v-289h-105zM197 373h176q65 0 99.5 33.5t34.5 97.5q0 127 -134 127h-176v-258z" />
    <glyph glyph-name="Q" unicode="Q" horiz-adv-x="801" 
d="M674 -57l-98 95q-80 -48 -173 -48q-146 0 -242 104.5t-96 263.5t95.5 263t241.5 104q145 0 239.5 -103.5t94.5 -262.5q0 -161 -93 -265l93 -90zM510 102l-89 86l61 61l93 -89q52 79 52 195q0 128 -62 206t-165 78q-102 0 -164 -77.5t-62 -204.5t63 -204t166 -77
q58 0 107 26z" />
    <glyph glyph-name="R" unicode="R" horiz-adv-x="676" 
d="M92 0v715h286q104 0 164.5 -53t60.5 -145q0 -143 -147 -180q63 -22 89 -58.5t42 -123.5q10 -45 27 -93t26 -57v-5h-107q-31 55 -53 168q-16 77 -49 106.5t-104 29.5h-130v-304h-105zM197 388h158q144 0 144 125q0 116 -124 116h-178v-241z" />
    <glyph glyph-name="S" unicode="S" horiz-adv-x="649" 
d="M40 182l97 27q22 -70 67 -102.5t119 -32.5q73 0 115 32.5t42 88.5q0 52 -35 78q-34 26 -139 52q-128 29 -176 68q-58 47 -58 132q0 92 63 145.5t171 53.5q97 0 158.5 -38t98.5 -120l-91 -32q-27 59 -63.5 82.5t-99.5 23.5t-98 -28t-35 -78q0 -45 33 -68.5t124 -43.5
q132 -29 183 -70q68 -54 68 -149q0 -99 -69.5 -156t-189.5 -57q-147 0 -226 85q-36 39 -59 107z" />
    <glyph glyph-name="T" unicode="T" horiz-adv-x="577" 
d="M236 0v629h-216v86h537v-86h-216v-629h-105z" />
    <glyph glyph-name="U" unicode="U" horiz-adv-x="709" 
d="M625 715v-440q0 -137 -71 -211t-204 -74q-129 0 -197.5 71t-68.5 205v449h105v-440q0 -105 38.5 -152t124.5 -47q91 0 131.5 49.5t40.5 160.5v429h101z" />
    <glyph glyph-name="V" unicode="V" horiz-adv-x="616" 
d="M259 0l-251 715h112l192 -573l193 573h103l-253 -715h-96z" />
    <glyph glyph-name="W" unicode="W" horiz-adv-x="962" 
d="M216 0l-190 715h111l137 -550l167 550h86l164 -553l144 553h101l-191 -715h-97l-165 549l-170 -549h-97z" />
    <glyph glyph-name="X" unicode="X" horiz-adv-x="646" 
d="M25 0l238 367l-221 348h123l165 -265l164 265h111l-220 -346l235 -369h-122l-180 288l-181 -288h-112z" />
    <glyph glyph-name="Y" unicode="Y" horiz-adv-x="569" 
d="M238 0v298l-250 417h119l186 -327l180 327h108l-238 -416v-299h-105z" />
    <glyph glyph-name="Z" unicode="Z" horiz-adv-x="608" 
d="M54 0v92l371 537h-351v86h466v-99l-365 -530h371v-86h-492z" />
    <glyph glyph-name="bracketleft" unicode="[" horiz-adv-x="424" 
d="M112 -148v924h240v-86h-135v-752h135v-86h-240z" />
    <glyph glyph-name="backslash" unicode="\" horiz-adv-x="433" 
d="M327 -148l-292 924h95l291 -924h-94z" />
    <glyph glyph-name="bracketright" unicode="]" horiz-adv-x="424" 
d="M313 776v-924h-240v86h135v752h-135v86h240z" />
    <glyph glyph-name="asciicircum" unicode="^" horiz-adv-x="547" 
d="M79 404l156 311h82l156 -311h-94l-105 201l-103 -201h-92z" />
    <glyph glyph-name="underscore" unicode="_" horiz-adv-x="440" 
d="M-20 -197v84h480v-84h-480z" />
    <glyph glyph-name="grave" unicode="`" 
d="M215 587l-109 166h128l53 -166h-72z" />
    <glyph glyph-name="a" unicode="a" horiz-adv-x="554" 
d="M524 75v-77q-27 -3 -37 -3q-89 0 -115 77q-63 -82 -160 -82q-73 0 -118.5 41t-45.5 107q0 116 135 155q66 18 182 21v27q0 56 -23.5 82t-74.5 26q-76 0 -149 -62l-54 68q89 78 210 78q95 0 145.5 -49t50.5 -141v-220q0 -49 42 -49q8 0 12 1zM365 177v66q-213 -1 -213 -99
q0 -35 22.5 -54t62.5 -19q56 0 92 29.5t36 76.5z" />
    <glyph glyph-name="b" unicode="b" horiz-adv-x="633" 
d="M193 753v-314q61 94 169 94q100 0 160.5 -74t60.5 -196q0 -124 -60 -198.5t-161 -74.5q-114 0 -169 93v-83h-105v753h105zM338 449q-70 0 -109 -49.5t-39 -138.5t38 -138t108 -49q140 0 140 185q0 90 -36.5 140t-101.5 50z" />
    <glyph glyph-name="c" unicode="c" horiz-adv-x="545" 
d="M438 163l81 -46q-72 -127 -219 -127q-111 0 -180.5 75t-69.5 195q0 122 68.5 197.5t179.5 75.5q139 0 210 -121l-84 -49q-29 49 -55.5 67.5t-67.5 18.5q-68 0 -106 -49.5t-38 -138.5q0 -90 38 -138.5t108 -48.5q46 0 76.5 20t58.5 69z" />
    <glyph glyph-name="d" unicode="d" horiz-adv-x="633" 
d="M439 0v84q-56 -94 -169 -94q-100 0 -160.5 74.5t-60.5 198.5q0 122 60.5 196t160.5 74q111 0 169 -93v313h105v-753h-105zM298 449q-68 0 -105 -49.5t-37 -140.5q0 -185 138 -185q71 0 110 49t39 138q0 87 -39 137.5t-106 50.5z" />
    <glyph glyph-name="e" unicode="e" horiz-adv-x="574" 
d="M435 153l83 -44q-69 -119 -213 -119q-113 0 -184 74.5t-71 194.5q0 121 68.5 197.5t177.5 76.5q108 0 169 -70t61 -194v-32h-370q8 -94 52 -132q37 -31 97 -31q46 0 75.5 18t54.5 61zM160 313h263q-8 74 -38 106.5t-89 32.5q-111 0 -136 -139z" />
    <glyph glyph-name="f" unicode="f" horiz-adv-x="362" 
d="M33 439v84h74v68q0 82 43 128t120 46q51 0 101 -27l-26 -77q-32 18 -64 18t-50.5 -22t-18.5 -60v-74h115v-84h-115v-439h-105v439h-74z" />
    <glyph glyph-name="g" unicode="g" horiz-adv-x="569" 
d="M389 507l145 25v-88h-71q26 -39 26 -85q0 -74 -58.5 -121.5t-149.5 -47.5q-46 0 -90 15q-26 -17 -26 -44q0 -22 15.5 -31t52.5 -9h93q102 0 147 -28q60 -38 60 -117q0 -81 -68 -127t-187 -46q-109 0 -172 38t-63 103q0 69 90 110q-54 29 -54 85q0 57 59 94
q-66 51 -66 128q0 75 57 123.5t145 48.5q60 0 115 -26zM280 458q-50 0 -78 -25.5t-28 -71.5q0 -44 29.5 -71t78.5 -27q48 0 76.5 26t28.5 70q0 46 -29 72.5t-78 26.5zM346 33h-113q-6 0 -34 2q-59 -32 -59 -77q0 -78 140 -78q154 0 154 89q0 64 -88 64z" />
    <glyph glyph-name="h" unicode="h" horiz-adv-x="604" 
d="M88 0v753h105v-311q48 91 157 91q82 0 127 -53.5t45 -151.5v-328h-105v323q0 63 -24 92.5t-76 29.5q-57 0 -90.5 -35.5t-33.5 -96.5v-313h-105z" />
    <glyph glyph-name="i" unicode="i" horiz-adv-x="285" 
d="M90 0v523h105v-523h-105zM143 736q26 0 45 -19.5t19 -45.5t-19 -45t-45 -19q-27 0 -46 19t-19 45q0 27 19 46t46 19z" />
    <glyph glyph-name="j" unicode="j" horiz-adv-x="284" 
d="M194 523v-560q0 -75 -37 -114t-108 -39q-43 0 -77 19l21 75q22 -10 39 -10q57 0 57 62v567h105zM142 736q26 0 45 -19.5t19 -45.5t-19 -45t-45 -19q-27 0 -46 19t-19 45q0 27 19 46t46 19z" />
    <glyph glyph-name="k" unicode="k" horiz-adv-x="557" 
d="M417 0l-153 242l-71 -82v-160h-105v753h105v-467l198 237h119l-178 -205l201 -318h-116z" />
    <glyph glyph-name="l" unicode="l" horiz-adv-x="286" 
d="M91 0v753h105v-753h-105z" />
    <glyph glyph-name="m" unicode="m" horiz-adv-x="893" 
d="M193 523v-79q48 89 145 89q101 0 145 -94q62 94 162 94q79 0 122.5 -54t43.5 -151v-328h-105v324q0 62 -21.5 91.5t-67.5 29.5q-52 0 -83.5 -36t-31.5 -95v-314h-105v324q0 121 -90 121q-52 0 -83 -36t-31 -95v-314h-105v523h105z" />
    <glyph glyph-name="n" unicode="n" horiz-adv-x="604" 
d="M88 0v523h105v-81q48 91 157 91q82 0 127 -53.5t45 -151.5v-328h-105v323q0 63 -24 92.5t-76 29.5q-57 0 -90.5 -35.5t-33.5 -96.5v-313h-105z" />
    <glyph glyph-name="o" unicode="o" horiz-adv-x="607" 
d="M306 533q109 0 180 -76.5t71 -193.5q0 -119 -71.5 -196t-182.5 -77q-110 0 -181.5 76t-71.5 194q0 120 71.5 196.5t184.5 76.5zM306 449q-70 0 -108.5 -49.5t-38.5 -138.5q0 -87 38.5 -137t104.5 -50q68 0 107 50t39 138q0 86 -38.5 136.5t-103.5 50.5z" />
    <glyph glyph-name="p" unicode="p" horiz-adv-x="633" 
d="M88 -182v705h105v-84q61 94 169 94q100 0 160.5 -74t60.5 -196q0 -124 -60 -198.5t-161 -74.5q-112 0 -169 92v-264h-105zM338 449q-70 0 -109 -49.5t-39 -138.5t38 -138t108 -49q140 0 140 185q0 90 -36.5 140t-101.5 50z" />
    <glyph glyph-name="q" unicode="q" horiz-adv-x="633" 
d="M439 -182v265q-56 -93 -169 -93q-100 0 -160.5 74.5t-60.5 198.5q0 122 60.5 196t160.5 74q111 0 169 -93v83h105v-705h-105zM298 449q-68 0 -105 -49.5t-37 -140.5q0 -185 138 -185q71 0 110 49t39 138q0 87 -39 137.5t-106 50.5z" />
    <glyph glyph-name="r" unicode="r" horiz-adv-x="413" 
d="M88 0v523h105v-86q49 96 138 96q41 0 83 -21l-35 -90q-30 15 -62 15q-57 0 -90.5 -42t-33.5 -115v-280h-105z" />
    <glyph glyph-name="s" unicode="s" horiz-adv-x="513" 
d="M443 462l-61 -68q-55 55 -128 55q-90 0 -90 -59q0 -32 23.5 -47.5t92.5 -29.5q80 -17 117 -40q65 -42 65 -122q0 -74 -55.5 -117.5t-150.5 -43.5q-137 0 -222 94l67 63q32 -41 65.5 -57t84.5 -16q111 0 111 71q0 32 -24.5 47.5t-103.5 33.5q-89 19 -128.5 56t-39.5 100
q0 70 51.5 110.5t139.5 40.5q61 0 104 -16.5t82 -54.5z" />
    <glyph glyph-name="t" unicode="t" horiz-adv-x="393" 
d="M33 439v84h78v127l105 30v-157h124v-84h-124v-293q0 -70 54 -70q32 0 66 23l33 -70q-51 -39 -112 -39q-68 0 -107 37.5t-39 102.5v309h-78z" />
    <glyph glyph-name="u" unicode="u" horiz-adv-x="599" 
d="M405 0v80q-49 -90 -156 -90q-80 0 -123.5 53.5t-43.5 151.5v328h105v-311q0 -74 21.5 -105t72.5 -31q57 0 90.5 36t33.5 97v314h105v-523h-105z" />
    <glyph glyph-name="v" unicode="v" horiz-adv-x="512" 
d="M198 0l-180 523h112l131 -415l129 415h104l-177 -523h-119z" />
    <glyph glyph-name="w" unicode="w" horiz-adv-x="831" 
d="M186 0l-155 523h111l105 -396l123 396h103l114 -396l109 396h104l-159 -523h-110l-112 391l-123 -391h-110z" />
    <glyph glyph-name="x" unicode="x" horiz-adv-x="541" 
d="M23 0l185 268l-173 255h120l118 -178l117 178h110l-172 -247l190 -276h-122l-130 198l-134 -198h-109z" />
    <glyph glyph-name="y" unicode="y" horiz-adv-x="518" 
d="M500 523l-213 -589q-44 -123 -154 -123q-59 0 -106 32l34 73q31 -21 65 -21q56 0 75 63l15 48l-198 517h112l137 -377l128 377h105z" />
    <glyph glyph-name="z" unicode="z" horiz-adv-x="501" 
d="M43 0v82l288 357h-275v84h392v-95l-280 -344h288v-84h-413z" />
    <glyph glyph-name="braceleft" unicode="{" horiz-adv-x="429" 
d="M374 -67v-83q-66 2 -105.5 15t-66.5 42q-41 44 -41 126v133q0 56 -27 80t-92 26v87q65 2 92 26.5t27 79.5v131q0 92 52 137q26 23 62.5 33t98.5 12v-83q-66 -7 -87 -28t-21 -80v-134q0 -106 -99 -137q99 -32 99 -136v-137q0 -59 21.5 -80.5t86.5 -29.5z" />
    <glyph glyph-name="bar" unicode="|" horiz-adv-x="286" 
d="M98 -148v924h90v-924h-90z" />
    <glyph glyph-name="braceright" unicode="}" horiz-adv-x="429" 
d="M55 695v83q66 -2 105.5 -15t66.5 -42q41 -44 41 -126v-133q0 -56 27 -80t92 -26v-87q-65 -2 -92 -26.5t-27 -79.5v-131q0 -92 -52 -137q-26 -23 -62.5 -33t-98.5 -12v83q66 7 87 28t21 80v134q0 106 99 137q-99 32 -99 136v137q0 59 -21.5 80.5t-86.5 29.5z" />
    <glyph glyph-name="asciitilde" unicode="~" horiz-adv-x="560" 
d="M154 260l-76 7q22 149 123 149q37 0 98 -39q42 -28 62 -28q35 0 46 70l76 -7q-22 -149 -122 -149q-39 0 -98 39q-41 28 -62 28q-20 0 -31 -16.5t-16 -53.5z" />
    <glyph glyph-name="uni00A0" unicode="&#xa0;" horiz-adv-x="301" 
 />
    <glyph glyph-name="exclamdown" unicode="&#xa1;" horiz-adv-x="358" 
d="M141 -182v221l27 272h62l27 -272v-221h-116zM199 541q30 0 51.5 -21.5t21.5 -51.5q0 -31 -21.5 -52t-51.5 -21q-31 0 -52 21t-21 52t21 52t52 21z" />
    <glyph glyph-name="cent" unicode="&#xa2;" horiz-adv-x="602" 
d="M286 -135v127q-97 16 -153 79q-65 74 -65 189q0 121 68 197q30 33 63.5 49.5t86.5 24.5v98h65v-98q116 -13 178 -112l-78 -49q-25 36 -47.5 53t-52.5 23v-372q68 13 109 87l79 -44q-62 -113 -188 -125v-127h-65zM286 75v371q-34 -9 -55.5 -26t-36.5 -48q-22 -44 -22 -111
q0 -96 43 -145q24 -29 71 -41z" />
    <glyph glyph-name="sterling" unicode="&#xa3;" horiz-adv-x="602" 
d="M47 315v72h74q-25 65 -25 127q0 96 60.5 153.5t161.5 57.5q96 0 157 -51q57 -46 81 -135l-97 -27q-19 68 -51.5 97.5t-87.5 29.5q-54 0 -84.5 -33.5t-30.5 -94.5q0 -52 29 -124h183v-72h-153q36 -93 36 -160q0 -18 -4 -35q66 -44 107 -44q35 0 53 20.5t25 69.5l91 -13
q-12 -86 -48.5 -124.5t-104.5 -38.5q-73 0 -156 61q-53 -60 -129 -60q-54 0 -87 28.5t-33 75.5q0 44 31 72t80 28q36 0 83 -22q-6 54 -53 142h-108zM198 100q-40 27 -67 27q-18 0 -28.5 -9t-10.5 -24q0 -35 43 -35q41 0 63 41z" />
    <glyph glyph-name="currency" unicode="&#xa4;" horiz-adv-x="602" 
d="M-8 395v67h81q16 69 36.5 110.5t56.5 78.5q74 75 187 75q90 0 145.5 -46t90.5 -149l-94 -26q-25 75 -57.5 105t-87.5 30q-69 0 -110 -43t-60 -135h204v-67h-211q-1 -12 -1 -42q0 -23 1 -36h211v-67h-203q20 -90 61 -132t110 -42q59 0 94 33t59 111l94 -29
q-26 -81 -65 -124q-69 -77 -185 -77q-99 0 -167 58q-42 34 -67 80.5t-42 121.5h-81v67h73q-1 9 -1 31q0 17 1 28v19h-73z" />
    <glyph glyph-name="yen" unicode="&#xa5;" horiz-adv-x="602" 
d="M58 332v67h144l-172 316h118l155 -310l164 310h106l-172 -316h145v-67h-182l-10 -19v-62h192v-67h-192v-184h-105v184h-191v67h191v62l-11 19h-180z" />
    <glyph glyph-name="brokenbar" unicode="&#xa6;" horiz-adv-x="286" 
d="M98 0v287h90v-287h-90zM98 428v287h90v-287h-90z" />
    <glyph glyph-name="section" unicode="&#xa7;" horiz-adv-x="569" 
d="M482 621l-67 -55q-50 75 -133 75q-44 0 -68.5 -20t-24.5 -55q0 -36 24.5 -56t94.5 -40q95 -27 138 -54q77 -49 77 -134q0 -49 -23.5 -81.5t-75.5 -54.5q55 -46 55 -118q0 -75 -53 -120.5t-140 -45.5q-136 0 -208 108l68 54q51 -78 138 -78q47 0 72 19.5t25 56.5
q0 35 -23 53t-101 44q-95 32 -136 58q-75 49 -75 130q0 93 98 133q-53 46 -53 118q0 75 52.5 121t138.5 46q132 0 200 -104zM345 189q80 22 80 83q0 41 -46 68.5t-161 55.5q-74 -20 -74 -80q0 -41 38 -65t163 -62z" />
    <glyph glyph-name="dieresis" unicode="&#xa8;" 
d="M154 733q25 0 43 -18t18 -43t-18 -43t-43 -18t-43 18t-18 43t18 43t43 18zM346 733q24 0 42.5 -18.5t18.5 -42.5q0 -25 -18 -43t-43 -18t-43 18t-18 43t18 43t43 18z" />
    <glyph glyph-name="copyright" unicode="&#xa9;" horiz-adv-x="856" 
d="M432 724q152 0 256.5 -106t104.5 -260q0 -155 -106 -261t-260 -106t-259.5 105.5t-105.5 259.5q0 156 106.5 262t263.5 106zM431 675q-135 0 -224 -91t-89 -228q0 -134 89 -225t220 -91t220.5 91.5t89.5 226.5q0 134 -88 225.5t-218 91.5zM533 297l80 -36
q-51 -121 -183 -121q-93 0 -149.5 60t-56.5 158t57.5 159t148.5 61q66 0 108.5 -28.5t68.5 -89.5l-78 -36q-16 41 -38 58.5t-59 17.5q-52 0 -81 -37t-29 -104t29.5 -104t82.5 -37q38 0 61 18.5t38 60.5z" />
    <glyph glyph-name="ordfeminine" unicode="&#xaa;" horiz-adv-x="490" 
d="M426 270h-92q-9 18 -13 56q-51 -64 -132 -64q-63 0 -101.5 34t-38.5 90q0 147 271 149v24q0 46 -19.5 67.5t-61.5 21.5q-73 0 -134 -60l-46 62q78 74 185 74q83 0 126 -42.5t43 -124.5v-208q0 -45 13 -74v-5zM320 421v53q-180 -1 -180 -83q0 -29 19 -45t54 -16
q47 0 77 25.5t30 65.5z" />
    <glyph glyph-name="guillemotleft" unicode="&#xab;" horiz-adv-x="528" 
d="M189 41l-125 200l125 200h96l-123 -200l123 -200h-96zM375 41l-125 200l125 200h95l-122 -200l122 -200h-95z" />
    <glyph glyph-name="logicalnot" unicode="&#xac;" horiz-adv-x="560" 
d="M345 169v148h-236v86h326v-234h-90z" />
    <glyph glyph-name="uni00AD" unicode="&#xad;" horiz-adv-x="301" 
d="M40 280v96h221v-96h-221z" />
    <glyph glyph-name="registered" unicode="&#xae;" horiz-adv-x="566" 
d="M286 724q98 0 166 -68.5t68 -167.5q0 -100 -68.5 -168t-169.5 -68q-100 0 -168 67.5t-68 167.5q0 101 69 169t171 68zM285 680q-83 0 -135 -53.5t-52 -138.5q0 -84 52 -138t132 -54q81 0 133.5 54t52.5 139q0 83 -51.5 137t-131.5 54zM191 376v230h107q39 0 60.5 -17.5
t21.5 -49.5q0 -45 -44 -57q19 -5 26.5 -16t14.5 -42l7 -27q2 -9 9 -19v-2h-57q-10 13 -16 49q-7 38 -39 38h-35v-87h-55zM246 503h43q39 0 39 32q0 29 -36 29h-46v-61z" />
    <glyph glyph-name="macron" unicode="&#xaf;" 
d="M126 632v76h248v-76h-248z" />
    <glyph glyph-name="degree" unicode="&#xb0;" horiz-adv-x="457" 
d="M230 725q70 0 117.5 -49t47.5 -121q0 -75 -47.5 -124.5t-119.5 -49.5q-71 0 -118.5 49t-47.5 122q0 74 48 123.5t120 49.5zM228 659q-40 0 -64 -28.5t-24 -75.5q0 -49 24 -78.5t64 -29.5q41 0 65 28.5t24 76.5q0 47 -25 77t-64 30z" />
    <glyph glyph-name="plusminus" unicode="&#xb1;" horiz-adv-x="560" 
d="M57 336v86h178v176h90v-176h179v-86h-179v-178h-90v178h-178zM57 0v86h445v-86h-445z" />
    <glyph glyph-name="twosuperior" unicode="&#xb2;" horiz-adv-x="451" 
d="M69 445v77q108 62 157 114t49 104q0 27 -14 43t-38 16q-49 0 -65 -62l-89 21q29 121 158 121q68 0 109.5 -37.5t41.5 -98.5q0 -125 -178 -219h181v-79h-312z" />
    <glyph glyph-name="threesuperior" unicode="&#xb3;" horiz-adv-x="451" 
d="M152 745l-81 21q38 114 163 114q67 0 108.5 -33t41.5 -87q0 -62 -68 -89q78 -24 78 -102q0 -60 -44.5 -95t-120.5 -35q-149 0 -176 121l87 21q17 -67 85 -67q69 0 69 59q0 57 -70 57h-39v68h36q32 0 49.5 14.5t17.5 39.5t-15.5 39t-42.5 14q-56 0 -78 -60z" />
    <glyph glyph-name="acute" unicode="&#xb4;" 
d="M213 587l53 166h128l-109 -166h-72z" />
    <glyph glyph-name="mu" unicode="&#xb5;" horiz-adv-x="602" 
d="M519 0h-104v80q-48 -89 -155 -89q-41 0 -72 16v-189h-104v705h104v-311q0 -73 22.5 -103.5t77.5 -30.5q58 0 92.5 35.5t34.5 94.5v315h104v-523z" />
    <glyph glyph-name="paragraph" unicode="&#xb6;" horiz-adv-x="617" 
d="M279 0v341h-13q-101 0 -157.5 49t-56.5 136q0 89 57.5 139t159.5 50h256v-715h-86v643h-74v-643h-86z" />
    <glyph glyph-name="periodcentered" unicode="&#xb7;" horiz-adv-x="301" 
d="M152 400q30 0 51 -21.5t21 -51.5t-21 -51.5t-51 -21.5q-31 0 -52.5 21t-21.5 52t21.5 52t52.5 21z" />
    <glyph glyph-name="cedilla" unicode="&#xb8;" 
d="M323 0l-44 -59q16 4 24 4q32 0 53 -21.5t21 -55.5q0 -40 -27.5 -62.5t-75.5 -22.5q-61 0 -101 46l47 32q18 -25 52 -25q40 0 40 34q0 32 -35 32q-20 0 -30 -13l-40 25l63 86h53z" />
    <glyph glyph-name="onesuperior" unicode="&#xb9;" horiz-adv-x="451" 
d="M101 445v74h83v221q-26 -12 -83 -12v68q85 12 101 77h81v-354h79v-74h-261z" />
    <glyph glyph-name="ordmasculine" unicode="&#xba;" horiz-adv-x="532" 
d="M268 724q94 0 154.5 -65t60.5 -165q0 -102 -61 -167t-157 -65q-95 0 -156 65t-61 165q0 102 61.5 167t158.5 65zM268 651q-58 0 -90 -42t-32 -116q0 -73 32 -115.5t87 -42.5q56 0 88 42.5t32 116.5q0 72 -31.5 114.5t-85.5 42.5z" />
    <glyph glyph-name="guillemotright" unicode="&#xbb;" horiz-adv-x="528" 
d="M58 41l122 200l-122 200h95l126 -200l-126 -200h-95zM244 41l122 200l-122 200h95l125 -200l-125 -200h-95z" />
    <glyph glyph-name="onequarter" unicode="&#xbc;" horiz-adv-x="920" 
d="M92 326v67h75v201q-22 -9 -75 -11v62q76 10 91 70h74v-322h72v-67h-237zM214 0l392 715h82l-392 -715h-82zM689 0v73h-185v76l181 240h94v-250h51v-66h-51v-73h-90zM693 291l-111 -152h111v152z" />
    <glyph glyph-name="onehalf" unicode="&#xbd;" horiz-adv-x="920" 
d="M92 326v67h75v201q-22 -9 -75 -11v62q76 10 91 70h74v-322h72v-67h-237zM211 0l392 715h82l-392 -715h-82zM560 0v70q98 57 142.5 104t44.5 94q0 25 -12.5 39.5t-34.5 14.5q-45 0 -59 -56l-81 19q26 110 143 110q62 0 100 -34t38 -90q0 -115 -162 -199h165v-72h-284z" />
    <glyph glyph-name="threequarters" unicode="&#xbe;" horiz-adv-x="920" 
d="M156 599l-74 19q35 103 149 103q61 0 98.5 -30t37.5 -78q0 -57 -62 -82q71 -23 71 -93q0 -54 -40.5 -86t-109.5 -32q-136 0 -160 110l79 19q16 -61 78 -61t62 54q0 52 -64 52h-35v62h33q29 0 45 13t16 36q0 22 -14 35t-39 13q-51 0 -71 -54zM241 0l392 715h82l-392 -715
h-82zM701 0v73h-185v76l181 240h94v-250h51v-66h-51v-73h-90zM705 291l-111 -152h111v152z" />
    <glyph glyph-name="questiondown" unicode="&#xbf;" horiz-adv-x="546" 
d="M353 311v-46q0 -56 -20 -89.5t-75 -72.5q-43 -30 -59.5 -54.5t-16.5 -58.5q0 -43 28.5 -69.5t75.5 -26.5q104 0 128 113l95 -18q-18 -84 -71 -129q-61 -52 -157 -52q-94 0 -151 49t-57 129q0 56 25 93t94 83q40 27 53 49t13 64v36h95zM308 540q30 0 51.5 -21.5
t21.5 -51.5t-21.5 -51.5t-52.5 -21.5q-29 0 -50.5 21.5t-21.5 51.5t21.5 51.5t51.5 21.5z" />
    <glyph glyph-name="Agrave" unicode="&#xc0;" horiz-adv-x="655" 
d="M377 779h-73l-110 166h130zM173 167l-57 -167h-102l259 715h112l255 -715h-111l-57 167h-299zM202 251h241l-120 352z" />
    <glyph glyph-name="Aacute" unicode="&#xc1;" horiz-adv-x="655" 
d="M289 779l53 166h129l-109 -166h-73zM173 167l-57 -167h-102l259 715h112l255 -715h-111l-57 167h-299zM202 251h241l-120 352z" />
    <glyph glyph-name="Acircumflex" unicode="&#xc2;" horiz-adv-x="655" 
d="M182 781l102 164h87l101 -164h-72l-74 84l-74 -84h-70zM173 167l-57 -167h-102l259 715h112l255 -715h-111l-57 167h-299zM202 251h241l-120 352z" />
    <glyph glyph-name="Atilde" unicode="&#xc3;" horiz-adv-x="655" 
d="M424 909l65 -6q-9 -52 -31 -81q-30 -37 -71 -37q-32 0 -75 26q-31 17 -49 17q-27 0 -35 -43l-63 6q9 56 35.5 87t64.5 31q30 0 76 -25q29 -18 49 -18q26 0 34 43zM173 167l-57 -167h-102l259 715h112l255 -715h-111l-57 167h-299zM202 251h241l-120 352z" />
    <glyph glyph-name="Adieresis" unicode="&#xc4;" horiz-adv-x="655" 
d="M421 898q23 0 40.5 -18t17.5 -41q0 -24 -17.5 -41.5t-41.5 -17.5t-41.5 17.5t-17.5 41.5t17.5 41.5t42.5 17.5zM234 898q23 0 40.5 -18t17.5 -41q0 -24 -17.5 -41.5t-41.5 -17.5t-41.5 17.5t-17.5 41.5t18 41.5t42 17.5zM173 167l-57 -167h-102l259 715h112l255 -715
h-111l-57 167h-299zM202 251h241l-120 352z" />
    <glyph glyph-name="Aring" unicode="&#xc5;" horiz-adv-x="655" 
d="M328 983q44 0 75.5 -31t31.5 -74q0 -44 -31.5 -75t-77.5 -31q-45 0 -76.5 30.5t-31.5 74.5q0 45 31.5 75.5t78.5 30.5zM327 930q-23 0 -38 -14.5t-15 -37.5t14.5 -38t37.5 -15t38 15t15 38q0 22 -15 37t-37 15zM173 167l-57 -167h-102l259 715h112l255 -715h-111l-57 167
h-299zM202 251h241l-120 352z" />
    <glyph glyph-name="AE" unicode="&#xc6;" horiz-adv-x="1001" 
d="M214 159l-91 -159h-107l421 715h495v-86h-349v-226h280v-84h-280v-233h367v-86h-472v159h-264zM263 243h215v375z" />
    <glyph glyph-name="Ccedilla" unicode="&#xc7;" horiz-adv-x="728" 
d="M395 -10l-36 -49q16 4 24 4q32 0 53 -21.5t21 -55.5q0 -40 -27.5 -62.5t-75.5 -22.5q-61 0 -101 46l47 32q18 -25 52 -25q40 0 40 34q0 32 -35 32q-20 0 -30 -13l-40 25l57 79q-67 11 -109.5 33t-80.5 64q-89 101 -89 266q0 164 90.5 267t234.5 103q126 0 202 -73
q45 -44 79 -131l-94 -36q-28 82 -72 118t-115 36q-101 0 -158.5 -75t-57.5 -207q0 -131 58 -205t161 -74q74 0 119.5 38t71.5 121l95 -37q-73 -208 -284 -211z" />
    <glyph glyph-name="Egrave" unicode="&#xc8;" horiz-adv-x="631" 
d="M92 0v715h470v-86h-365v-226h296v-84h-296v-233h383v-86h-488zM300 779l-109 166h128l53 -166h-72z" />
    <glyph glyph-name="Eacute" unicode="&#xc9;" horiz-adv-x="631" 
d="M92 0v715h470v-86h-365v-226h296v-84h-296v-233h383v-86h-488zM300 779l53 166h128l-109 -166h-72z" />
    <glyph glyph-name="Ecircumflex" unicode="&#xca;" horiz-adv-x="631" 
d="M92 0v715h470v-86h-365v-226h296v-84h-296v-233h383v-86h-488zM187 780l102 165h87l100 -165h-71l-74 85l-74 -85h-70z" />
    <glyph glyph-name="Edieresis" unicode="&#xcb;" horiz-adv-x="631" 
d="M92 0v715h470v-86h-365v-226h296v-84h-296v-233h383v-86h-488zM238 903q25 0 43 -18t18 -43t-18 -43t-43 -18t-43 18t-18 43t18 43t43 18zM430 903q24 0 42.5 -18.5t18.5 -42.5q0 -25 -18 -43t-43 -18t-43 18t-18 43t18 43t43 18z" />
    <glyph glyph-name="Igrave" unicode="&#xcc;" horiz-adv-x="313" 
d="M123 779l-109 166h128l53 -166h-72zM104 0v715h105v-715h-105z" />
    <glyph glyph-name="Iacute" unicode="&#xcd;" horiz-adv-x="313" 
d="M122 779l53 166h128l-109 -166h-72zM104 0v715h105v-715h-105z" />
    <glyph glyph-name="Icircumflex" unicode="&#xce;" horiz-adv-x="313" 
d="M14 780l102 165h87l100 -165h-71l-74 85l-74 -85h-70zM104 0v715h105v-715h-105z" />
    <glyph glyph-name="Idieresis" unicode="&#xcf;" horiz-adv-x="313" 
d="M60 903q25 0 43 -18t18 -43t-18 -43t-43 -18t-43 18t-18 43t18 43t43 18zM252 903q24 0 42.5 -18.5t18.5 -42.5q0 -25 -18 -43t-43 -18t-43 18t-18 43t18 43t43 18zM104 0v715h105v-715h-105z" />
    <glyph glyph-name="Eth" unicode="&#xd0;" horiz-adv-x="751" 
d="M20 312v84h80v319h241q163 0 253.5 -94t90.5 -263q0 -172 -90 -265t-256 -93h-239v312h-80zM205 86h142q112 0 170.5 69.5t58.5 202.5q0 132 -59 201.5t-172 69.5h-140v-233h137v-84h-137v-226z" />
    <glyph glyph-name="Ntilde" unicode="&#xd1;" horiz-adv-x="731" 
d="M480 909l64 -6q-9 -52 -31 -81q-29 -37 -71 -37q-32 0 -75 26q-31 17 -49 17q-27 0 -35 -43l-62 6q9 56 35 87t64 31q30 0 76 -25q29 -18 49 -18q26 0 35 43zM92 0v715h134l314 -585v585h99v-715h-136l-312 580v-580h-99z" />
    <glyph glyph-name="Ograve" unicode="&#xd2;" horiz-adv-x="801" 
d="M368 779l-109 166h128l53 -166h-72zM404 725q143 0 237.5 -104t94.5 -262q0 -161 -93.5 -265t-239.5 -104t-242 104.5t-96 263.5q0 160 95.5 263.5t243.5 103.5zM403 639q-104 0 -166.5 -76.5t-62.5 -205.5q0 -127 62.5 -204t165.5 -77q105 0 165 74.5t60 204.5
q0 127 -61.5 205.5t-162.5 78.5z" />
    <glyph glyph-name="Oacute" unicode="&#xd3;" horiz-adv-x="801" 
d="M367 779l53 166h128l-109 -166h-72zM404 725q143 0 237.5 -104t94.5 -262q0 -161 -93.5 -265t-239.5 -104t-242 104.5t-96 263.5q0 160 95.5 263.5t243.5 103.5zM403 639q-104 0 -166.5 -76.5t-62.5 -205.5q0 -127 62.5 -204t165.5 -77q105 0 165 74.5t60 204.5
q0 127 -61.5 205.5t-162.5 78.5z" />
    <glyph glyph-name="Ocircumflex" unicode="&#xd4;" horiz-adv-x="801" 
d="M256 780l102 165h87l100 -165h-71l-74 85l-74 -85h-70zM404 725q143 0 237.5 -104t94.5 -262q0 -161 -93.5 -265t-239.5 -104t-242 104.5t-96 263.5q0 160 95.5 263.5t243.5 103.5zM403 639q-104 0 -166.5 -76.5t-62.5 -205.5q0 -127 62.5 -204t165.5 -77q105 0 165 74.5
t60 204.5q0 127 -61.5 205.5t-162.5 78.5z" />
    <glyph glyph-name="Otilde" unicode="&#xd5;" horiz-adv-x="801" 
d="M301 785l-61 6q8 56 34 86.5t65 30.5q28 0 75 -26q32 -18 47 -18q28 0 37 45l63 -6q-9 -56 -35.5 -86.5t-65.5 -30.5q-28 0 -76 26q-31 18 -45 18q-31 0 -38 -45zM404 725q143 0 237.5 -104t94.5 -262q0 -161 -93.5 -265t-239.5 -104t-242 104.5t-96 263.5
q0 160 95.5 263.5t243.5 103.5zM403 639q-104 0 -166.5 -76.5t-62.5 -205.5q0 -127 62.5 -204t165.5 -77q105 0 165 74.5t60 204.5q0 127 -61.5 205.5t-162.5 78.5z" />
    <glyph glyph-name="Odieresis" unicode="&#xd6;" horiz-adv-x="801" 
d="M304 903q25 0 43 -18t18 -43t-18 -43t-43 -18t-43 18t-18 43t18 43t43 18zM496 903q24 0 42.5 -18.5t18.5 -42.5q0 -25 -18 -43t-43 -18t-43 18t-18 43t18 43t43 18zM404 725q143 0 237.5 -104t94.5 -262q0 -161 -93.5 -265t-239.5 -104t-242 104.5t-96 263.5
q0 160 95.5 263.5t243.5 103.5zM403 639q-104 0 -166.5 -76.5t-62.5 -205.5q0 -127 62.5 -204t165.5 -77q105 0 165 74.5t60 204.5q0 127 -61.5 205.5t-162.5 78.5z" />
    <glyph glyph-name="multiply" unicode="&#xd7;" horiz-adv-x="560" 
d="M130 128l-62 59l153 163l-153 162l62 59l150 -160l150 160l61 -59l-153 -162l153 -163l-61 -59l-150 160z" />
    <glyph glyph-name="Oslash" unicode="&#xd8;" horiz-adv-x="801" 
d="M23 0l114 124q-72 102 -72 234q0 159 95.5 263t241.5 104q123 0 215 -80l64 70h97l-113 -123q71 -98 71 -233q0 -161 -93.5 -265t-239.5 -104q-124 0 -216 80l-64 -70h-100zM205 198l349 379q-62 64 -153 64q-104 0 -166.5 -77.5t-62.5 -205.5q0 -90 33 -160zM596 516
l-348 -379q64 -63 154 -63q106 0 166.5 75t60.5 205q0 93 -33 162z" />
    <glyph glyph-name="Ugrave" unicode="&#xd9;" horiz-adv-x="709" 
d="M320 779l-109 166h128l53 -166h-72zM625 715v-440q0 -137 -71 -211t-204 -74q-129 0 -197.5 71t-68.5 205v449h105v-440q0 -105 38.5 -152t124.5 -47q91 0 131.5 49.5t40.5 160.5v429h101z" />
    <glyph glyph-name="Uacute" unicode="&#xda;" horiz-adv-x="709" 
d="M320 779l53 166h128l-109 -166h-72zM625 715v-440q0 -137 -71 -211t-204 -74q-129 0 -197.5 71t-68.5 205v449h105v-440q0 -105 38.5 -152t124.5 -47q91 0 131.5 49.5t40.5 160.5v429h101z" />
    <glyph glyph-name="Ucircumflex" unicode="&#xdb;" horiz-adv-x="709" 
d="M212 780l102 165h87l100 -165h-71l-74 85l-74 -85h-70zM625 715v-440q0 -137 -71 -211t-204 -74q-129 0 -197.5 71t-68.5 205v449h105v-440q0 -105 38.5 -152t124.5 -47q91 0 131.5 49.5t40.5 160.5v429h101z" />
    <glyph glyph-name="Udieresis" unicode="&#xdc;" horiz-adv-x="709" 
d="M260 903q25 0 43 -18t18 -43t-18 -43t-43 -18t-43 18t-18 43t18 43t43 18zM452 903q24 0 42.5 -18.5t18.5 -42.5q0 -25 -18 -43t-43 -18t-43 18t-18 43t18 43t43 18zM625 715v-440q0 -137 -71 -211t-204 -74q-129 0 -197.5 71t-68.5 205v449h105v-440q0 -105 38.5 -152
t124.5 -47q91 0 131.5 49.5t40.5 160.5v429h101z" />
    <glyph glyph-name="Yacute" unicode="&#xdd;" horiz-adv-x="569" 
d="M238 0v298l-250 417h119l186 -327l180 327h108l-238 -416v-299h-105zM257 779l53 166h128l-109 -166h-72z" />
    <glyph glyph-name="Thorn" unicode="&#xde;" horiz-adv-x="663" 
d="M92 0v715h105v-133h174q115 0 177.5 -56.5t62.5 -159.5q0 -99 -62.5 -154t-175.5 -55h-176v-157h-105zM197 241h176q65 0 99.5 33.5t34.5 96.5q0 125 -134 125h-176v-255z" />
    <glyph glyph-name="germandbls" unicode="&#xdf;" horiz-adv-x="618" 
d="M88 0v551q0 100 58 157t161 57q94 0 149.5 -49t55.5 -132q0 -108 -104 -148q76 -23 116 -74q44 -56 44 -143q0 -107 -54 -167.5t-151 -60.5q-53 0 -90 16v83h2q33 -15 72 -15q114 0 114 147q0 88 -50 131q-40 35 -122 35v82q66 1 95.5 27t29.5 82q0 105 -109 105
q-112 0 -112 -118v-566h-105z" />
    <glyph glyph-name="agrave" unicode="&#xe0;" horiz-adv-x="554" 
d="M256 587l-109 166h128l53 -166h-72zM524 75v-77q-27 -3 -37 -3q-89 0 -115 77q-63 -82 -160 -82q-73 0 -118.5 41t-45.5 107q0 116 135 155q66 18 182 21v27q0 56 -23.5 82t-74.5 26q-76 0 -149 -62l-54 68q89 78 210 78q95 0 145.5 -49t50.5 -141v-220q0 -49 42 -49
q8 0 12 1zM365 177v66q-213 -1 -213 -99q0 -35 22.5 -54t62.5 -19q56 0 92 29.5t36 76.5z" />
    <glyph glyph-name="aacute" unicode="&#xe1;" horiz-adv-x="554" 
d="M239 587l53 166h128l-109 -166h-72zM524 75v-77q-27 -3 -37 -3q-89 0 -115 77q-63 -82 -160 -82q-73 0 -118.5 41t-45.5 107q0 116 135 155q66 18 182 21v27q0 56 -23.5 82t-74.5 26q-76 0 -149 -62l-54 68q89 78 210 78q95 0 145.5 -49t50.5 -141v-220q0 -49 42 -49
q8 0 12 1zM365 177v66q-213 -1 -213 -99q0 -35 22.5 -54t62.5 -19q56 0 92 29.5t36 76.5z" />
    <glyph glyph-name="acircumflex" unicode="&#xe2;" horiz-adv-x="554" 
d="M131 588l102 165h87l100 -165h-71l-74 85l-74 -85h-70zM524 75v-77q-27 -3 -37 -3q-89 0 -115 77q-63 -82 -160 -82q-73 0 -118.5 41t-45.5 107q0 116 135 155q66 18 182 21v27q0 56 -23.5 82t-74.5 26q-76 0 -149 -62l-54 68q89 78 210 78q95 0 145.5 -49t50.5 -141
v-220q0 -49 42 -49q8 0 12 1zM365 177v66q-213 -1 -213 -99q0 -35 22.5 -54t62.5 -19q56 0 92 29.5t36 76.5z" />
    <glyph glyph-name="atilde" unicode="&#xe3;" horiz-adv-x="554" 
d="M164 611l-61 6q8 56 34 86.5t65 30.5q28 0 75 -26q32 -18 47 -18q28 0 37 45l63 -6q-9 -56 -35.5 -86.5t-65.5 -30.5q-28 0 -76 26q-31 18 -45 18q-30 0 -38 -45zM524 75v-77q-27 -3 -37 -3q-89 0 -115 77q-63 -82 -160 -82q-73 0 -118.5 41t-45.5 107q0 116 135 155
q66 18 182 21v27q0 56 -23.5 82t-74.5 26q-76 0 -149 -62l-54 68q89 78 210 78q95 0 145.5 -49t50.5 -141v-220q0 -49 42 -49q8 0 12 1zM365 177v66q-213 -1 -213 -99q0 -35 22.5 -54t62.5 -19q56 0 92 29.5t36 76.5z" />
    <glyph glyph-name="adieresis" unicode="&#xe4;" horiz-adv-x="554" 
d="M180 733q25 0 43 -18t18 -43t-18 -43t-43 -18t-43 18t-18 43t18 43t43 18zM372 733q24 0 42.5 -18.5t18.5 -42.5q0 -25 -18 -43t-43 -18t-43 18t-18 43t18 43t43 18zM524 75v-77q-27 -3 -37 -3q-89 0 -115 77q-63 -82 -160 -82q-73 0 -118.5 41t-45.5 107q0 116 135 155
q66 18 182 21v27q0 56 -23.5 82t-74.5 26q-76 0 -149 -62l-54 68q89 78 210 78q95 0 145.5 -49t50.5 -141v-220q0 -49 42 -49q8 0 12 1zM365 177v66q-213 -1 -213 -99q0 -35 22.5 -54t62.5 -19q56 0 92 29.5t36 76.5z" />
    <glyph glyph-name="aring" unicode="&#xe5;" horiz-adv-x="554" 
d="M277 790q44 0 75.5 -31t31.5 -74q0 -44 -31.5 -74.5t-76.5 -30.5t-76.5 30.5t-31.5 74.5t31.5 74.5t77.5 30.5zM277 741q-23 0 -38 -15.5t-15 -38.5t15 -38.5t37 -15.5q23 0 37.5 15t14.5 39q0 23 -14.5 38.5t-36.5 15.5zM524 75v-77q-27 -3 -37 -3q-89 0 -115 77
q-63 -82 -160 -82q-73 0 -118.5 41t-45.5 107q0 116 135 155q66 18 182 21v27q0 56 -23.5 82t-74.5 26q-76 0 -149 -62l-54 68q89 78 210 78q95 0 145.5 -49t50.5 -141v-220q0 -49 42 -49q8 0 12 1zM365 177v66q-213 -1 -213 -99q0 -35 22.5 -54t62.5 -19q56 0 92 29.5
t36 76.5z" />
    <glyph glyph-name="ae" unicode="&#xe6;" horiz-adv-x="879" 
d="M739 153l83 -44q-69 -119 -207 -119q-132 0 -203 103q-71 -103 -198 -103q-75 0 -120.5 40.5t-45.5 107.5q0 115 135 154q66 18 182 21v28q0 56 -23.5 82t-74.5 26q-76 0 -149 -62l-54 68q89 78 209 78q118 0 163 -81q64 81 170 81q103 0 164 -70.5t61 -190.5v-35h-361
q8 -95 52 -132q35 -31 93 -31q43 0 70.5 17.5t53.5 61.5zM365 177v65q-213 -2 -213 -98q0 -35 22.5 -54t62.5 -19q56 0 92 29.5t36 76.5zM474 313h253q-8 74 -36.5 106.5t-83.5 32.5q-108 0 -133 -139z" />
    <glyph glyph-name="ccedilla" unicode="&#xe7;" horiz-adv-x="545" 
d="M313 -9l-37 -50q16 4 24 4q32 0 53 -21.5t21 -55.5q0 -40 -27.5 -62.5t-75.5 -22.5q-61 0 -101 46l47 32q18 -25 52 -25q40 0 40 34q0 32 -35 32q-20 0 -30 -13l-40 25l57 79q-51 9 -84.5 26.5t-61.5 50.5q-65 74 -65 190q0 122 68.5 197.5t179.5 75.5q139 0 210 -121
l-84 -49q-29 49 -55.5 67.5t-67.5 18.5q-68 0 -105 -49.5t-37 -139.5t37.5 -138.5t107.5 -48.5q46 0 76 20.5t58 69.5l81 -46q-64 -118 -206 -126z" />
    <glyph glyph-name="egrave" unicode="&#xe8;" horiz-adv-x="574" 
d="M435 153l83 -44q-69 -119 -213 -119q-113 0 -184 74.5t-71 194.5q0 121 68.5 197.5t177.5 76.5q108 0 169 -70t61 -194v-32h-370q8 -94 52 -132q37 -31 97 -31q46 0 75.5 18t54.5 61zM160 313h263q-8 74 -38 106.5t-89 32.5q-111 0 -136 -139zM277 587l-109 166h128
l53 -166h-72z" />
    <glyph glyph-name="eacute" unicode="&#xe9;" horiz-adv-x="574" 
d="M435 153l83 -44q-69 -119 -213 -119q-113 0 -184 74.5t-71 194.5q0 121 68.5 197.5t177.5 76.5q108 0 169 -70t61 -194v-32h-370q8 -94 52 -132q37 -31 97 -31q46 0 75.5 18t54.5 61zM160 313h263q-8 74 -38 106.5t-89 32.5q-111 0 -136 -139zM259 587l53 166h128
l-109 -166h-72z" />
    <glyph glyph-name="ecircumflex" unicode="&#xea;" horiz-adv-x="574" 
d="M435 153l83 -44q-69 -119 -213 -119q-113 0 -184 74.5t-71 194.5q0 121 68.5 197.5t177.5 76.5q108 0 169 -70t61 -194v-32h-370q8 -94 52 -132q37 -31 97 -31q46 0 75.5 18t54.5 61zM160 313h263q-8 74 -38 106.5t-89 32.5q-111 0 -136 -139zM152 588l102 165h87
l100 -165h-71l-74 85l-74 -85h-70z" />
    <glyph glyph-name="edieresis" unicode="&#xeb;" horiz-adv-x="574" 
d="M435 153l83 -44q-69 -119 -213 -119q-113 0 -184 74.5t-71 194.5q0 121 68.5 197.5t177.5 76.5q108 0 169 -70t61 -194v-32h-370q8 -94 52 -132q37 -31 97 -31q46 0 75.5 18t54.5 61zM160 313h263q-8 74 -38 106.5t-89 32.5q-111 0 -136 -139zM200 733q25 0 43 -18
t18 -43t-18 -43t-43 -18t-43 18t-18 43t18 43t43 18zM392 733q24 0 42.5 -18.5t18.5 -42.5q0 -25 -18 -43t-43 -18t-43 18t-18 43t18 43t43 18z" />
    <glyph glyph-name="igrave" unicode="&#xec;" horiz-adv-x="285" 
d="M90 0v523h105v-523h-105zM118 587l-109 166h128l53 -166h-72z" />
    <glyph glyph-name="iacute" unicode="&#xed;" horiz-adv-x="285" 
d="M90 0v523h105v-523h-105zM96 587l53 166h128l-109 -166h-72z" />
    <glyph glyph-name="icircumflex" unicode="&#xee;" horiz-adv-x="285" 
d="M90 0v523h105v-523h-105zM-2 588l102 165h87l100 -165h-71l-74 85l-74 -85h-70z" />
    <glyph glyph-name="idieresis" unicode="&#xef;" horiz-adv-x="285" 
d="M90 0v523h105v-523h-105zM46 733q25 0 43 -18t18 -43t-18 -43t-43 -18t-43 18t-18 43t18 43t43 18zM238 733q24 0 42.5 -18.5t18.5 -42.5q0 -25 -18 -43t-43 -18t-43 18t-18 43t18 43t43 18z" />
    <glyph glyph-name="eth" unicode="&#xf0;" horiz-adv-x="610" 
d="M243 559l-43 47l63 56q-62 45 -70 50l47 69q52 -30 91 -58l64 57l42 -49l-56 -49q77 -73 115 -146q60 -112 60 -251q0 -137 -67.5 -216t-184.5 -79q-111 0 -182.5 76t-71.5 194q0 114 67 190t167 76q74 0 126 -48q-38 79 -99 141zM306 448q-70 0 -109.5 -49.5
t-39.5 -138.5q0 -86 39 -136t107 -50t107 50t39 137q0 85 -39 136t-104 51z" />
    <glyph glyph-name="ntilde" unicode="&#xf1;" horiz-adv-x="604" 
d="M199 593l-61 6q8 56 34 86.5t65 30.5q28 0 75 -26q32 -18 46 -18q29 0 38 45l63 -6q-10 -56 -36 -86.5t-65 -30.5q-28 0 -76 26q-32 18 -46 18q-30 0 -37 -45zM88 0v523h105v-81q48 91 157 91q82 0 127 -53.5t45 -151.5v-328h-105v323q0 63 -24 92.5t-76 29.5
q-57 0 -90.5 -35.5t-33.5 -96.5v-313h-105z" />
    <glyph glyph-name="ograve" unicode="&#xf2;" horiz-adv-x="607" 
d="M282 587l-109 166h128l53 -166h-72zM306 533q109 0 180 -76.5t71 -193.5q0 -119 -71.5 -196t-182.5 -77q-110 0 -181.5 76t-71.5 194q0 120 71.5 196.5t184.5 76.5zM306 449q-70 0 -108.5 -49.5t-38.5 -138.5q0 -87 38.5 -137t104.5 -50q68 0 107 50t39 138
q0 86 -38.5 136.5t-103.5 50.5z" />
    <glyph glyph-name="oacute" unicode="&#xf3;" horiz-adv-x="607" 
d="M271 587l53 166h128l-109 -166h-72zM306 533q109 0 180 -76.5t71 -193.5q0 -119 -71.5 -196t-182.5 -77q-110 0 -181.5 76t-71.5 194q0 120 71.5 196.5t184.5 76.5zM306 449q-70 0 -108.5 -49.5t-38.5 -138.5q0 -87 38.5 -137t104.5 -50q68 0 107 50t39 138
q0 86 -38.5 136.5t-103.5 50.5z" />
    <glyph glyph-name="ocircumflex" unicode="&#xf4;" horiz-adv-x="607" 
d="M159 588l102 165h87l100 -165h-71l-74 85l-74 -85h-70zM306 533q109 0 180 -76.5t71 -193.5q0 -119 -71.5 -196t-182.5 -77q-110 0 -181.5 76t-71.5 194q0 120 71.5 196.5t184.5 76.5zM306 449q-70 0 -108.5 -49.5t-38.5 -138.5q0 -87 38.5 -137t104.5 -50q68 0 107 50
t39 138q0 86 -38.5 136.5t-103.5 50.5z" />
    <glyph glyph-name="otilde" unicode="&#xf5;" horiz-adv-x="607" 
d="M204 611l-61 6q8 56 34 86.5t65 30.5q28 0 75 -26q32 -18 47 -18q28 0 37 45l63 -6q-9 -56 -35.5 -86.5t-65.5 -30.5q-28 0 -76 26q-31 18 -45 18q-30 0 -38 -45zM306 533q109 0 180 -76.5t71 -193.5q0 -119 -71.5 -196t-182.5 -77q-110 0 -181.5 76t-71.5 194
q0 120 71.5 196.5t184.5 76.5zM306 449q-70 0 -108.5 -49.5t-38.5 -138.5q0 -87 38.5 -137t104.5 -50q68 0 107 50t39 138q0 86 -38.5 136.5t-103.5 50.5z" />
    <glyph glyph-name="odieresis" unicode="&#xf6;" horiz-adv-x="607" 
d="M212 733q25 0 43 -18t18 -43t-18 -43t-43 -18t-43 18t-18 43t18 43t43 18zM404 733q24 0 42.5 -18.5t18.5 -42.5q0 -25 -18 -43t-43 -18t-43 18t-18 43t18 43t43 18zM306 533q109 0 180 -76.5t71 -193.5q0 -119 -71.5 -196t-182.5 -77q-110 0 -181.5 76t-71.5 194
q0 120 71.5 196.5t184.5 76.5zM306 449q-70 0 -108.5 -49.5t-38.5 -138.5q0 -87 38.5 -137t104.5 -50q68 0 107 50t39 138q0 86 -38.5 136.5t-103.5 50.5z" />
    <glyph glyph-name="divide" unicode="&#xf7;" horiz-adv-x="560" 
d="M56 299v86h449v-86h-449zM281 218q29 0 49.5 -21t20.5 -50q0 -30 -21 -50.5t-50 -20.5q-30 0 -50.5 20.5t-20.5 50.5q0 29 21 50t51 21zM281 608q29 0 49.5 -21t20.5 -50t-20.5 -50t-50.5 -21t-50.5 21t-20.5 50q0 30 21 50.5t51 20.5z" />
    <glyph glyph-name="oslash" unicode="&#xf8;" horiz-adv-x="601" 
d="M18 0l83 91q-48 74 -48 171q0 124 68.5 199.5t181.5 75.5q90 0 157 -53l35 39h91l-81 -89q46 -75 46 -170q0 -124 -68 -200t-180 -76q-89 0 -156 53l-37 -41h-92zM435 358l-229 -252q38 -37 95 -37q71 0 108.5 49.5t37.5 143.5q0 46 -12 96zM170 167l229 250
q-39 36 -95 36q-72 0 -109.5 -48.5t-37.5 -140.5q0 -54 13 -97z" />
    <glyph glyph-name="ugrave" unicode="&#xf9;" horiz-adv-x="599" 
d="M268 587l-109 166h128l53 -166h-72zM405 0v80q-49 -90 -156 -90q-80 0 -123.5 53.5t-43.5 151.5v328h105v-311q0 -74 21.5 -105t72.5 -31q57 0 90.5 36t33.5 97v314h105v-523h-105z" />
    <glyph glyph-name="uacute" unicode="&#xfa;" horiz-adv-x="599" 
d="M257 587l53 166h128l-109 -166h-72zM405 0v80q-49 -90 -156 -90q-80 0 -123.5 53.5t-43.5 151.5v328h105v-311q0 -74 21.5 -105t72.5 -31q57 0 90.5 36t33.5 97v314h105v-523h-105z" />
    <glyph glyph-name="ucircumflex" unicode="&#xfb;" horiz-adv-x="599" 
d="M151 588l102 165h87l100 -165h-71l-74 85l-74 -85h-70zM405 0v80q-49 -90 -156 -90q-80 0 -123.5 53.5t-43.5 151.5v328h105v-311q0 -74 21.5 -105t72.5 -31q57 0 90.5 36t33.5 97v314h105v-523h-105z" />
    <glyph glyph-name="udieresis" unicode="&#xfc;" horiz-adv-x="599" 
d="M200 733q25 0 43 -18t18 -43t-18 -43t-43 -18t-43 18t-18 43t18 43t43 18zM392 733q24 0 42.5 -18.5t18.5 -42.5q0 -25 -18 -43t-43 -18t-43 18t-18 43t18 43t43 18zM405 0v80q-49 -90 -156 -90q-80 0 -123.5 53.5t-43.5 151.5v328h105v-311q0 -74 21.5 -105t72.5 -31
q57 0 90.5 36t33.5 97v314h105v-523h-105z" />
    <glyph glyph-name="yacute" unicode="&#xfd;" horiz-adv-x="518" 
d="M500 523l-213 -589q-44 -123 -154 -123q-59 0 -106 32l34 73q31 -21 65 -21q56 0 75 63l15 48l-198 517h112l137 -377l128 377h105zM227 587l53 166h128l-109 -166h-72z" />
    <glyph glyph-name="thorn" unicode="&#xfe;" horiz-adv-x="633" 
d="M88 -182v935h105v-314q61 94 169 94q100 0 160.5 -74t60.5 -196q0 -124 -60 -198.5t-161 -74.5q-112 0 -169 92v-264h-105zM338 449q-70 0 -109 -49.5t-39 -138.5t38 -138t108 -49q140 0 140 185q0 90 -36.5 140t-101.5 50z" />
    <glyph glyph-name="ydieresis" unicode="&#xff;" horiz-adv-x="518" 
d="M500 523l-213 -589q-44 -123 -154 -123q-59 0 -106 32l34 73q31 -21 65 -21q56 0 75 63l15 48l-198 517h112l137 -377l128 377h105zM171 733q25 0 43 -18t18 -43t-18 -43t-43 -18t-43 18t-18 43t18 43t43 18zM363 733q24 0 42.5 -18.5t18.5 -42.5q0 -25 -18 -43t-43 -18
t-43 18t-18 43t18 43t43 18z" />
    <glyph glyph-name="Amacron" unicode="&#x100;" horiz-adv-x="655" 
d="M203 796v76h248v-76h-248zM173 167l-57 -167h-102l259 715h112l255 -715h-111l-57 167h-299zM202 251h241l-120 352z" />
    <glyph glyph-name="amacron" unicode="&#x101;" horiz-adv-x="554" 
d="M152 632v76h248v-76h-248zM524 75v-77q-27 -3 -37 -3q-89 0 -115 77q-63 -82 -160 -82q-73 0 -118.5 41t-45.5 107q0 116 135 155q66 18 182 21v27q0 56 -23.5 82t-74.5 26q-76 0 -149 -62l-54 68q89 78 210 78q95 0 145.5 -49t50.5 -141v-220q0 -49 42 -49q8 0 12 1z
M365 177v66q-213 -1 -213 -99q0 -35 22.5 -54t62.5 -19q56 0 92 29.5t36 76.5z" />
    <glyph glyph-name="Abreve" unicode="&#x102;" horiz-adv-x="655" 
d="M394 917h74q-5 -49 -29 -80q-41 -53 -114 -53q-71 0 -111 52q-22 28 -29 81h76q7 -32 22.5 -46t44.5 -14q28 0 43.5 14t22.5 46zM173 167l-57 -167h-102l259 715h112l255 -715h-111l-57 167h-299zM202 251h241l-120 352z" />
    <glyph glyph-name="abreve" unicode="&#x103;" horiz-adv-x="554" 
d="M343 740h74q-7 -63 -44 -97q-39 -37 -99 -37q-58 0 -96 36q-36 35 -43 98h75q7 -32 22.5 -46.5t44.5 -14.5q28 0 43.5 14.5t22.5 46.5zM524 75v-77q-27 -3 -37 -3q-89 0 -115 77q-63 -82 -160 -82q-73 0 -118.5 41t-45.5 107q0 116 135 155q66 18 182 21v27
q0 56 -23.5 82t-74.5 26q-76 0 -149 -62l-54 68q89 78 210 78q95 0 145.5 -49t50.5 -141v-220q0 -49 42 -49q8 0 12 1zM365 177v66q-213 -1 -213 -99q0 -35 22.5 -54t62.5 -19q56 0 92 29.5t36 76.5z" />
    <glyph glyph-name="Aogonek" unicode="&#x104;" horiz-adv-x="655" 
d="M385 715l250 -701q-101 -61 -101 -124q0 -49 40 -49q26 0 48 25l37 -42q-37 -36 -91 -36q-50 0 -77 23t-27 65q0 29 14 55t52 65l-58 171h-299l-57 -167h-102l259 715h112zM202 251h241l-120 352z" />
    <glyph glyph-name="aogonek" unicode="&#x105;" horiz-adv-x="554" 
d="M506 -134l37 -41q-37 -36 -95 -36q-48 0 -75.5 22.5t-27.5 61.5q0 70 89 131q-48 19 -62 68q-63 -82 -160 -82q-73 0 -118.5 41t-45.5 107q0 116 135 155q66 18 182 21v27q0 56 -23.5 82t-74.5 26q-76 0 -149 -62l-54 68q89 78 210 78q95 0 145.5 -49t50.5 -141v-220
q0 -49 42 -49q8 0 12 1v-59q-51 -33 -79.5 -69t-28.5 -68q0 -37 39 -37q27 0 51 24zM365 177v66q-213 -1 -213 -99q0 -35 22.5 -54t62.5 -19q56 0 92 29.5t36 76.5z" />
    <glyph glyph-name="Cacute" unicode="&#x106;" horiz-adv-x="728" 
d="M584 238l95 -37q-22 -58 -46 -93t-59 -62q-74 -56 -183 -56q-147 0 -236.5 100t-89.5 266q0 164 90.5 267t234.5 103q126 0 202 -73q45 -44 79 -131l-94 -36q-28 82 -71.5 118t-114.5 36q-101 0 -159 -75.5t-58 -207.5t58 -206.5t161 -74.5q74 0 119.5 38.5t71.5 123.5z
M350 779l53 166h128l-109 -166h-72z" />
    <glyph glyph-name="cacute" unicode="&#x107;" horiz-adv-x="545" 
d="M438 163l81 -46q-72 -127 -219 -127q-111 0 -180.5 75t-69.5 195q0 122 68.5 197.5t179.5 75.5q139 0 210 -121l-84 -49q-29 49 -55.5 67.5t-67.5 18.5q-67 0 -104.5 -49.5t-37.5 -138.5q0 -90 37.5 -138.5t107.5 -48.5q46 0 76.5 20t57.5 69zM252 587l53 166h128
l-109 -166h-72z" />
    <glyph glyph-name="Ccircumflex" unicode="&#x108;" horiz-adv-x="728" 
d="M584 238l95 -37q-22 -58 -46 -93t-59 -62q-74 -56 -183 -56q-147 0 -236.5 100t-89.5 266q0 164 90.5 267t234.5 103q126 0 202 -73q45 -44 79 -131l-94 -36q-28 82 -71.5 118t-114.5 36q-101 0 -159 -75.5t-58 -207.5t58 -206.5t161 -74.5q74 0 119.5 38.5t71.5 123.5z
M243 780l102 165h87l100 -165h-71l-74 85l-74 -85h-70z" />
    <glyph glyph-name="ccircumflex" unicode="&#x109;" horiz-adv-x="545" 
d="M438 163l81 -46q-72 -127 -219 -127q-111 0 -180.5 75t-69.5 195q0 122 68.5 197.5t179.5 75.5q139 0 210 -121l-84 -49q-29 49 -55.5 67.5t-67.5 18.5q-67 0 -104.5 -49.5t-37.5 -138.5q0 -90 37.5 -138.5t107.5 -48.5q46 0 76.5 20t57.5 69zM145 588l102 165h87
l100 -165h-71l-74 85l-74 -85h-70z" />
    <glyph glyph-name="Cdotaccent" unicode="&#x10a;" horiz-adv-x="728" 
d="M584 238l95 -37q-22 -58 -46 -93t-59 -62q-74 -56 -183 -56q-147 0 -236.5 100t-89.5 266q0 164 90.5 267t234.5 103q126 0 202 -73q45 -44 79 -131l-94 -36q-28 82 -71.5 118t-114.5 36q-101 0 -159 -75.5t-58 -207.5t58 -206.5t161 -74.5q74 0 119.5 38.5t71.5 123.5z
M387 901q25 0 43 -18t18 -43t-18 -43t-43 -18t-43 18t-18 43t18 43t43 18z" />
    <glyph glyph-name="cdotaccent" unicode="&#x10b;" horiz-adv-x="545" 
d="M438 163l81 -46q-72 -127 -219 -127q-111 0 -180.5 75t-69.5 195q0 122 68.5 197.5t179.5 75.5q139 0 210 -121l-84 -49q-29 49 -55.5 67.5t-67.5 18.5q-67 0 -104.5 -49.5t-37.5 -138.5q0 -90 37.5 -138.5t107.5 -48.5q46 0 76.5 20t57.5 69zM290 731q25 0 43 -18
t18 -43t-18 -43t-43 -18t-43 18t-18 43t18 43t43 18z" />
    <glyph glyph-name="Ccaron" unicode="&#x10c;" horiz-adv-x="728" 
d="M584 238l95 -37q-22 -58 -46 -93t-59 -62q-74 -56 -183 -56q-147 0 -236.5 100t-89.5 266q0 164 90.5 267t234.5 103q126 0 202 -73q45 -44 79 -131l-94 -36q-28 82 -71.5 118t-114.5 36q-101 0 -159 -75.5t-58 -207.5t58 -206.5t161 -74.5q74 0 119.5 38.5t71.5 123.5z
M346 780l-104 165h72l74 -89l74 89h69l-103 -165h-82z" />
    <glyph glyph-name="ccaron" unicode="&#x10d;" horiz-adv-x="545" 
d="M438 163l81 -46q-72 -127 -219 -127q-111 0 -180.5 75t-69.5 195q0 122 68.5 197.5t179.5 75.5q139 0 210 -121l-84 -49q-29 49 -55.5 67.5t-67.5 18.5q-67 0 -104.5 -49.5t-37.5 -138.5q0 -90 37.5 -138.5t107.5 -48.5q46 0 76.5 20t57.5 69zM248 588l-104 165h72
l74 -89l74 89h69l-103 -165h-82z" />
    <glyph glyph-name="Dcaron" unicode="&#x10e;" horiz-adv-x="743" 
d="M92 0v715h241q162 0 253 -94t91 -263q0 -172 -90.5 -265t-256.5 -93h-238zM197 86h141q112 0 171 69.5t59 202.5q0 131 -59.5 201t-171.5 70h-140v-543zM289 780l-104 165h72l74 -89l74 89h69l-103 -165h-82z" />
    <glyph glyph-name="dcaron" unicode="&#x10f;" horiz-adv-x="722" 
d="M622 552v48q55 8 57 51q-58 3 -58 54q0 23 16.5 38.5t41.5 15.5q29 0 46.5 -21.5t17.5 -57.5q0 -56 -31 -89t-90 -39zM439 0v84q-56 -94 -169 -94q-100 0 -160.5 74.5t-60.5 198.5q0 122 60.5 196t160.5 74q111 0 169 -93v313h105v-753h-105zM298 449q-68 0 -105 -49.5
t-37 -140.5q0 -185 138 -185q71 0 110 49t39 138q0 87 -39 137.5t-106 50.5z" />
    <glyph glyph-name="Dcroat" unicode="&#x110;" horiz-adv-x="751" 
d="M20 312v84h80v319h241q163 0 253.5 -94t90.5 -263q0 -172 -90 -265t-256 -93h-239v312h-80zM205 86h142q112 0 170.5 69.5t58.5 202.5q0 132 -59 201.5t-172 69.5h-140v-233h137v-84h-137v-226z" />
    <glyph glyph-name="dcroat" unicode="&#x111;" horiz-adv-x="633" 
d="M544 592v-592h-105v84q-56 -94 -169 -94q-100 0 -160.5 74.5t-60.5 198.5q0 122 60.5 196t160.5 74q111 0 169 -93v152h-100v76h100v85h105v-85h73v-76h-73zM298 449q-68 0 -105 -49.5t-37 -140.5q0 -185 138 -185q71 0 110 49t39 138q0 87 -39 137.5t-106 50.5z" />
    <glyph glyph-name="Emacron" unicode="&#x112;" horiz-adv-x="631" 
d="M92 0v715h470v-86h-365v-226h296v-84h-296v-233h383v-86h-488zM212 796v76h248v-76h-248z" />
    <glyph glyph-name="emacron" unicode="&#x113;" horiz-adv-x="574" 
d="M435 153l83 -44q-69 -119 -213 -119q-113 0 -184 74.5t-71 194.5q0 121 68.5 197.5t177.5 76.5q108 0 169 -70t61 -194v-32h-370q8 -94 52 -132q37 -31 97 -31q46 0 75.5 18t54.5 61zM160 313h263q-8 74 -38 106.5t-89 32.5q-111 0 -136 -139zM173 632v76h248v-76h-248z
" />
    <glyph glyph-name="Ebreve" unicode="&#x114;" horiz-adv-x="631" 
d="M92 0v715h470v-86h-365v-226h296v-84h-296v-233h383v-86h-488zM391 918h74q-7 -62 -43 -97q-40 -37 -99 -37t-97 36q-36 35 -43 98h75q7 -32 22.5 -46.5t44.5 -14.5q28 0 43.5 14.5t22.5 46.5z" />
    <glyph glyph-name="ebreve" unicode="&#x115;" horiz-adv-x="574" 
d="M435 153l83 -44q-69 -119 -213 -119q-113 0 -184 74.5t-71 194.5q0 121 68.5 197.5t177.5 76.5q108 0 169 -70t61 -194v-32h-370q8 -94 52 -132q37 -31 97 -31q46 0 75.5 18t54.5 61zM160 313h263q-8 74 -38 106.5t-89 32.5q-111 0 -136 -139zM140 750h75q5 -74 73 -74
q69 0 73 74h75q-5 -148 -148 -148t-148 148z" />
    <glyph glyph-name="Edotaccent" unicode="&#x116;" horiz-adv-x="631" 
d="M92 0v715h470v-86h-365v-226h296v-84h-296v-233h383v-86h-488zM335 901q25 0 43 -18t18 -43t-18 -43t-43 -18t-43 18t-18 43t18 43t43 18z" />
    <glyph glyph-name="edotaccent" unicode="&#x117;" horiz-adv-x="574" 
d="M435 153l83 -44q-69 -119 -213 -119q-113 0 -184 74.5t-71 194.5q0 121 68.5 197.5t177.5 76.5q108 0 169 -70t61 -194v-32h-370q8 -94 52 -132q37 -31 97 -31q46 0 75.5 18t54.5 61zM160 313h263q-8 74 -38 106.5t-89 32.5q-111 0 -136 -139zM297 731q25 0 43 -18
t18 -43t-18 -43t-43 -18t-43 18t-18 43t18 43t43 18z" />
    <glyph glyph-name="Eogonek" unicode="&#x118;" horiz-adv-x="631" 
d="M92 0v715h470v-86h-365v-226h296v-84h-296v-233h383v-86h-38q-81 -66 -81 -121q0 -37 37 -37q27 0 51 24l37 -41q-39 -36 -93 -36q-48 0 -75.5 22.5t-27.5 62.5q0 67 87 126h-385z" />
    <glyph glyph-name="eogonek" unicode="&#x119;" horiz-adv-x="574" 
d="M375 -135l37 -41q-37 -36 -94 -36q-47 0 -74.5 22.5t-27.5 61.5q0 61 73 118q-59 6 -97.5 23t-71.5 51q-70 75 -70 195q0 121 68.5 197.5t177.5 76.5q108 0 169 -70t61 -194v-32h-370q8 -95 52 -133q38 -32 97 -32q46 0 75 18.5t55 62.5l83 -45q-50 -93 -156 -113
q-75 -65 -75 -116q0 -38 37 -38q27 0 51 24zM160 313h263q-8 74 -38 106.5t-89 32.5q-111 0 -136 -139z" />
    <glyph glyph-name="Ecaron" unicode="&#x11a;" horiz-adv-x="631" 
d="M92 0v715h470v-86h-365v-226h296v-84h-296v-233h383v-86h-488zM294 780l-104 165h72l74 -89l74 89h69l-103 -165h-82z" />
    <glyph glyph-name="ecaron" unicode="&#x11b;" horiz-adv-x="574" 
d="M435 153l83 -44q-69 -119 -213 -119q-113 0 -184 74.5t-71 194.5q0 121 68.5 197.5t177.5 76.5q108 0 169 -70t61 -194v-32h-370q8 -94 52 -132q37 -31 97 -31q46 0 75.5 18t54.5 61zM160 313h263q-8 74 -38 106.5t-89 32.5q-111 0 -136 -139zM255 588l-104 165h72
l74 -89l74 89h69l-103 -165h-82z" />
    <glyph glyph-name="Gcircumflex" unicode="&#x11c;" horiz-adv-x="778" 
d="M633 0l-19 123q-43 -70 -97.5 -101.5t-130.5 -31.5q-142 0 -231.5 102t-89.5 264q0 163 92.5 266.5t237.5 103.5q124 0 199 -72q45 -42 80 -123l-96 -37q-29 79 -71 112.5t-111 33.5q-103 0 -162.5 -76.5t-59.5 -207.5q0 -129 59 -204.5t161 -75.5q87 0 144 59t57 148v9
h-182v84h285v-376h-65zM247 780l102 165h87l100 -165h-71l-74 85l-74 -85h-70z" />
    <glyph glyph-name="gcircumflex" unicode="&#x11d;" horiz-adv-x="569" 
d="M389 507l145 25v-88h-71q26 -39 26 -85q0 -74 -58.5 -121.5t-149.5 -47.5q-46 0 -90 15q-26 -17 -26 -44q0 -22 15.5 -31t52.5 -9h93q102 0 147 -28q60 -38 60 -117q0 -81 -68 -127t-187 -46q-109 0 -172 38t-63 103q0 69 90 110q-54 29 -54 85q0 57 59 94
q-66 51 -66 128q0 75 57 123.5t145 48.5q60 0 115 -26zM280 458q-50 0 -78 -25.5t-28 -71.5q0 -44 29.5 -71t78.5 -27q48 0 76.5 26t28.5 70q0 46 -29 72.5t-78 26.5zM346 33h-113q-6 0 -34 2q-59 -32 -59 -77q0 -78 140 -78q154 0 154 89q0 64 -88 64zM140 588l102 165h87
l100 -165h-71l-74 85l-74 -85h-70z" />
    <glyph glyph-name="Gbreve" unicode="&#x11e;" horiz-adv-x="778" 
d="M633 0l-19 123q-43 -70 -97.5 -101.5t-130.5 -31.5q-142 0 -231.5 102t-89.5 264q0 163 92.5 266.5t237.5 103.5q124 0 199 -72q45 -42 80 -123l-96 -37q-29 79 -71 112.5t-111 33.5q-103 0 -162.5 -76.5t-59.5 -207.5q0 -129 59 -204.5t161 -75.5q87 0 144 59t57 148v9
h-182v84h285v-376h-65zM457 918h74q-7 -63 -44 -97q-39 -37 -99 -37q-58 0 -96 36q-36 35 -43 98h75q7 -32 22.5 -46.5t44.5 -14.5q28 0 43.5 14.5t22.5 46.5z" />
    <glyph glyph-name="gbreve" unicode="&#x11f;" horiz-adv-x="569" 
d="M389 507l145 25v-88h-71q26 -39 26 -85q0 -74 -58.5 -121.5t-149.5 -47.5q-46 0 -90 15q-26 -17 -26 -44q0 -22 15.5 -31t52.5 -9h93q102 0 147 -28q60 -38 60 -117q0 -81 -68 -127t-187 -46q-109 0 -172 38t-63 103q0 69 90 110q-54 29 -54 85q0 57 59 94
q-66 51 -66 128q0 75 57 123.5t145 48.5q60 0 115 -26zM280 458q-50 0 -78 -25.5t-28 -71.5q0 -44 29.5 -71t78.5 -27q48 0 76.5 26t28.5 70q0 46 -29 72.5t-78 26.5zM346 33h-113q-6 0 -34 2q-59 -32 -59 -77q0 -78 140 -78q154 0 154 89q0 64 -88 64zM141 750h75
q3 -74 73 -74q68 0 72 74h75q-5 -148 -147 -148q-143 0 -148 148z" />
    <glyph glyph-name="Gdotaccent" unicode="&#x120;" horiz-adv-x="778" 
d="M633 0l-19 123q-43 -70 -97.5 -101.5t-130.5 -31.5q-142 0 -231.5 102t-89.5 264q0 163 92.5 266.5t237.5 103.5q124 0 199 -72q45 -42 80 -123l-96 -37q-29 79 -71 112.5t-111 33.5q-103 0 -162.5 -76.5t-59.5 -207.5q0 -129 59 -204.5t161 -75.5q87 0 144 59t57 148v9
h-182v84h285v-376h-65zM392 901q25 0 43 -18t18 -43t-18 -43t-43 -18t-43 18t-18 43t18 43t43 18z" />
    <glyph glyph-name="gdotaccent" unicode="&#x121;" horiz-adv-x="569" 
d="M389 507l145 25v-88h-71q26 -39 26 -85q0 -74 -58.5 -121.5t-149.5 -47.5q-46 0 -90 15q-26 -17 -26 -44q0 -22 15.5 -31t52.5 -9h93q102 0 147 -28q60 -38 60 -117q0 -81 -68 -127t-187 -46q-109 0 -172 38t-63 103q0 69 90 110q-54 29 -54 85q0 57 59 94
q-66 51 -66 128q0 75 57 123.5t145 48.5q60 0 115 -26zM280 458q-50 0 -78 -25.5t-28 -71.5q0 -44 29.5 -71t78.5 -27q48 0 76.5 26t28.5 70q0 46 -29 72.5t-78 26.5zM346 33h-113q-6 0 -34 2q-59 -32 -59 -77q0 -78 140 -78q154 0 154 89q0 64 -88 64zM289 731q25 0 43 -18
t18 -43t-18 -43t-43 -18t-43 18t-18 43t18 43t43 18z" />
    <glyph glyph-name="Gcommaaccent" unicode="&#x122;" horiz-adv-x="778" 
d="M633 0l-19 123q-43 -70 -97.5 -101.5t-130.5 -31.5q-142 0 -231.5 102t-89.5 264q0 163 92.5 266.5t237.5 103.5q124 0 199 -72q45 -42 80 -123l-96 -37q-29 79 -71 112.5t-111 33.5q-103 0 -162.5 -76.5t-59.5 -207.5q0 -129 59 -204.5t161 -75.5q87 0 144 59t57 148v9
h-182v84h285v-376h-65zM337 -251v48q55 8 57 51q-58 5 -58 54q0 23 16.5 38.5t41.5 15.5q29 0 46.5 -21.5t17.5 -57.5q0 -56 -31 -89t-90 -39z" />
    <glyph glyph-name="gcommaaccent" unicode="&#x123;" horiz-adv-x="569" 
d="M389 507l145 25v-88h-71q26 -39 26 -85q0 -74 -58.5 -121.5t-149.5 -47.5q-46 0 -90 15q-26 -17 -26 -44q0 -22 15.5 -31t52.5 -9h93q102 0 147 -28q60 -38 60 -117q0 -81 -68 -127t-187 -46q-109 0 -172 38t-63 103q0 69 90 110q-54 29 -54 85q0 57 59 94
q-66 51 -66 128q0 75 57 123.5t145 48.5q60 0 115 -26zM280 458q-50 0 -78 -25.5t-28 -71.5q0 -44 29.5 -71t78.5 -27q48 0 76.5 26t28.5 70q0 46 -29 72.5t-78 26.5zM346 33h-113q-6 0 -34 2q-59 -32 -59 -77q0 -78 140 -78q154 0 154 89q0 64 -88 64zM348 788v-48
q-55 -8 -57 -51q58 -5 58 -54q0 -23 -16.5 -38.5t-41.5 -15.5q-29 0 -46.5 21.5t-17.5 57.5q0 56 31 89t90 39z" />
    <glyph glyph-name="Hcircumflex" unicode="&#x124;" horiz-adv-x="731" 
d="M221 780l102 165h87l100 -165h-71l-74 85l-74 -85h-70zM92 0v715h105v-315h337v315h105v-715h-105v314h-337v-314h-105z" />
    <glyph glyph-name="hcircumflex" unicode="&#x125;" horiz-adv-x="604" 
d="M13 818l102 165h87l100 -165h-71l-74 85l-74 -85h-70zM88 0v753h105v-311q48 91 157 91q82 0 127 -53.5t45 -151.5v-328h-105v323q0 63 -24 92.5t-76 29.5q-57 0 -90.5 -35.5t-33.5 -96.5v-313h-105z" />
    <glyph glyph-name="Hbar" unicode="&#x126;" horiz-adv-x="731" 
d="M18 512v76h74v127h105v-127h337v127h105v-127h74v-76h-74v-512h-105v314h-337v-314h-105v512h-74zM197 400h337v112h-337v-112z" />
    <glyph glyph-name="hbar" unicode="&#x127;" horiz-adv-x="604" 
d="M193 592v-150q48 91 157 91q82 0 127 -53.5t45 -151.5v-328h-105v323q0 63 -24 92.5t-76 29.5q-57 0 -90.5 -35.5t-33.5 -96.5v-313h-105v592h-69v76h69v85h105v-85h104v-76h-104z" />
    <glyph glyph-name="Itilde" unicode="&#x128;" horiz-adv-x="313" 
d="M104 0v715h105v-715h-105zM57 785l-61 6q8 56 34 86.5t65 30.5q28 0 75 -26q32 -18 47 -18q28 0 37 45l63 -6q-9 -56 -35.5 -86.5t-65.5 -30.5q-28 0 -76 26q-31 18 -45 18q-31 0 -38 -45z" />
    <glyph glyph-name="itilde" unicode="&#x129;" horiz-adv-x="285" 
d="M90 0v523h105v-523h-105zM43 611l-61 6q8 56 34 86.5t65 30.5q28 0 75 -26q32 -18 47 -18q28 0 37 45l63 -6q-9 -56 -35.5 -86.5t-65.5 -30.5q-28 0 -76 26q-31 18 -45 18q-31 0 -38 -45z" />
    <glyph glyph-name="Imacron" unicode="&#x12a;" horiz-adv-x="313" 
d="M33 796v76h248v-76h-248zM105 0v715h105v-715h-105z" />
    <glyph glyph-name="imacron" unicode="&#x12b;" horiz-adv-x="285" 
d="M91 0v523h105v-523h-105zM19 632v76h248v-76h-248z" />
    <glyph glyph-name="Ibreve" unicode="&#x12c;" horiz-adv-x="313" 
d="M104 0v715h105v-715h-105zM2 915h75q5 -74 81 -74q77 0 80 74h75q-3 -148 -155 -148q-151 0 -156 148z" />
    <glyph glyph-name="ibreve" unicode="&#x12d;" horiz-adv-x="285" 
d="M91 0v523h105v-523h-105zM210 740h74q-7 -63 -44 -97q-39 -37 -99 -37q-59 0 -96 36q-36 35 -43 98h75q7 -32 22.5 -46.5t44.5 -14.5q28 0 43.5 14.5t22.5 46.5z" />
    <glyph glyph-name="Iogonek" unicode="&#x12e;" horiz-adv-x="313" 
d="M209 0h-16q-80 -65 -80 -121q0 -37 37 -37q27 0 50 24l37 -41q-39 -36 -92 -36q-48 0 -75.5 22.5t-27.5 62.5q0 65 87 126h-25v715h105v-715z" />
    <glyph glyph-name="iogonek" unicode="&#x12f;" horiz-adv-x="285" 
d="M91 0v523h105v-512q-98 -70 -98 -132q0 -37 38 -37q28 0 52 24l37 -41q-37 -36 -95 -36q-48 0 -75.5 22.5t-27.5 62.5q0 68 87 126h-23zM143 736q26 0 45 -19.5t19 -45.5t-19 -45t-45 -19q-27 0 -46 19t-19 45q0 27 19 46t46 19z" />
    <glyph glyph-name="Idotaccent" unicode="&#x130;" horiz-adv-x="313" 
d="M157 901q25 0 43 -18t18 -43t-18 -43t-43 -18t-43 18t-18 43t18 43t43 18zM105 0v715h105v-715h-105z" />
    <glyph glyph-name="dotlessi" unicode="&#x131;" horiz-adv-x="285" 
d="M90 0v523h105v-523h-105z" />
    <glyph glyph-name="IJ" unicode="&#x132;" horiz-adv-x="808" 
d="M722 715v-473q0 -125 -55.5 -188.5t-164.5 -63.5q-104 0 -163.5 58.5t-59.5 160.5v48h105v-38q0 -145 114 -145q119 0 119 159v482h105zM81 0v715h105v-715h-105z" />
    <glyph glyph-name="ij" unicode="&#x133;" horiz-adv-x="469" 
d="M90 0v523h105v-523h-105zM143 736q26 0 45 -19.5t19 -45.5t-19 -45t-45 -19q-27 0 -46 19t-19 45q0 27 19 46t46 19zM388 523v-560q0 -75 -37 -114t-108 -39q-43 0 -77 19l21 75q22 -10 39 -10q57 0 57 62v567h105zM336 736q26 0 45 -19.5t19 -45.5t-19 -45t-45 -19
q-27 0 -46 19t-19 45q0 27 19 46t46 19z" />
    <glyph glyph-name="Jcircumflex" unicode="&#x134;" horiz-adv-x="579" 
d="M493 715v-473q0 -125 -55.5 -188.5t-164.5 -63.5q-104 0 -163.5 58.5t-59.5 160.5v48h105v-38q0 -145 114 -145q119 0 119 159v482h105zM297 780l102 165h87l100 -165h-71l-74 85l-74 -85h-70z" />
    <glyph glyph-name="jcircumflex" unicode="&#x135;" horiz-adv-x="284" 
d="M-1 588l102 165h87l100 -165h-71l-74 85l-74 -85h-70zM194 523v-560q0 -75 -37 -114t-108 -39q-43 0 -77 19l21 75q22 -10 39 -10q57 0 57 62v567h105z" />
    <glyph glyph-name="Kcommaaccent" unicode="&#x136;" horiz-adv-x="659" 
d="M92 0v715h105v-347l296 347h120l-258 -299l272 -416h-118l-223 340l-89 -103v-237h-105zM278 -251v48q55 8 57 51q-58 5 -58 54q0 23 16.5 38.5t41.5 15.5q29 0 46.5 -21.5t17.5 -57.5q0 -56 -31 -89t-90 -39z" />
    <glyph glyph-name="kcommaaccent" unicode="&#x137;" horiz-adv-x="557" 
d="M417 0l-153 242l-71 -82v-160h-105v753h105v-467l198 237h119l-178 -205l201 -318h-116zM237 -251v48q55 8 57 51q-58 5 -58 54q0 23 16.5 38.5t41.5 15.5q29 0 46.5 -21.5t17.5 -57.5q0 -56 -31 -89t-90 -39z" />
    <glyph glyph-name="kgreenlandic" unicode="&#x138;" horiz-adv-x="659" 
d="M91 0v523h101v-247l262 247h118l-237 -220l248 -303h-115l-200 244l-76 -73v-171h-101z" />
    <glyph glyph-name="Lacute" unicode="&#x139;" horiz-adv-x="595" 
d="M92 0v715h105v-629h345v-86h-450zM109 779l53 166h128l-109 -166h-72z" />
    <glyph glyph-name="lacute" unicode="&#x13a;" horiz-adv-x="286" 
d="M91 0v753h105v-753h-105zM107 817l53 166h128l-109 -166h-72z" />
    <glyph glyph-name="Lcommaaccent" unicode="&#x13b;" horiz-adv-x="570" 
d="M92 0v715h105v-629h345v-86h-450zM256 -251v48q55 8 57 51q-58 5 -58 54q0 23 16.5 38.5t41.5 15.5q29 0 46.5 -21.5t17.5 -57.5q0 -56 -31 -89t-90 -39z" />
    <glyph glyph-name="lcommaaccent" unicode="&#x13c;" horiz-adv-x="286" 
d="M91 0v753h105v-753h-105zM82 -251v48q55 8 57 51q-58 5 -58 54q0 23 16.5 38.5t41.5 15.5q29 0 46.5 -21.5t17.5 -57.5q0 -56 -31 -89t-90 -39z" />
    <glyph glyph-name="Lcaron" unicode="&#x13d;" horiz-adv-x="594" 
d="M92 0v715h105v-629h345v-86h-450zM402 520v48q55 8 57 51q-58 3 -58 54q0 23 16.5 38.5t41.5 15.5q29 0 46.5 -21.5t17.5 -57.5q0 -56 -31 -89t-90 -39z" />
    <glyph glyph-name="lcaron" unicode="&#x13e;" horiz-adv-x="373" 
d="M91 0v753h105v-753h-105zM274 552v48q55 8 57 51q-58 3 -58 54q0 23 16.5 38.5t41.5 15.5q29 0 46.5 -21.5t17.5 -57.5q0 -56 -31 -89t-90 -39z" />
    <glyph glyph-name="Ldot" unicode="&#x13f;" horiz-adv-x="570" 
d="M92 0v715h105v-629h345v-86h-450zM426 400q30 0 51 -21.5t21 -51.5t-21 -51.5t-51 -21.5q-31 0 -52.5 21t-21.5 52t21.5 52t52.5 21z" />
    <glyph glyph-name="ldot" unicode="&#x140;" horiz-adv-x="286" 
d="M91 0v753h105v-753h-105zM335 400q30 0 51 -21.5t21 -51.5t-21 -51.5t-51 -21.5q-31 0 -52.5 21t-21.5 52t21.5 52t52.5 21z" />
    <glyph glyph-name="Lslash" unicode="&#x141;" horiz-adv-x="611" 
d="M31 244v83l77 30v358h105v-318l167 66v-84l-167 -65v-228h345v-86h-450v274z" />
    <glyph glyph-name="lslash" unicode="&#x142;" horiz-adv-x="338" 
d="M117 311l-91 -47v90l91 47v352h105v-298l90 48v-90l-90 -48v-365h-105v311z" />
    <glyph glyph-name="Nacute" unicode="&#x143;" horiz-adv-x="731" 
d="M344 779l53 166h130l-110 -166h-73zM92 0v715h134l314 -585v585h99v-715h-136l-312 580v-580h-99z" />
    <glyph glyph-name="nacute" unicode="&#x144;" horiz-adv-x="604" 
d="M265 587l53 166h128l-109 -166h-72zM88 0v523h105v-81q48 91 157 91q82 0 127 -53.5t45 -151.5v-328h-105v323q0 63 -24 92.5t-76 29.5q-57 0 -90.5 -35.5t-33.5 -96.5v-313h-105z" />
    <glyph glyph-name="Ncommaaccent" unicode="&#x145;" horiz-adv-x="731" 
d="M305 -251v48q55 8 57 51q-57 5 -57 53q0 24 16 39.5t41 15.5q30 0 47.5 -22t17.5 -59q0 -55 -31.5 -87.5t-90.5 -38.5zM92 0v715h134l314 -585v585h99v-715h-136l-312 580v-580h-99z" />
    <glyph glyph-name="ncommaaccent" unicode="&#x146;" horiz-adv-x="604" 
d="M246 -251v48q55 8 57 51q-58 5 -58 54q0 23 16.5 38.5t41.5 15.5q29 0 46.5 -21.5t17.5 -57.5q0 -56 -31 -89t-90 -39zM88 0v523h105v-81q48 91 157 91q82 0 127 -53.5t45 -151.5v-328h-105v323q0 63 -24 92.5t-76 29.5q-57 0 -90.5 -35.5t-33.5 -96.5v-313h-105z" />
    <glyph glyph-name="Ncaron" unicode="&#x147;" horiz-adv-x="731" 
d="M340 781l-103 164h72l74 -89l74 89h70l-103 -164h-84zM92 0v715h134l314 -585v585h99v-715h-136l-312 580v-580h-99z" />
    <glyph glyph-name="ncaron" unicode="&#x148;" horiz-adv-x="604" 
d="M274 588l-104 165h72l74 -89l74 89h69l-103 -165h-82zM88 0v523h105v-81q48 91 157 91q82 0 127 -53.5t45 -151.5v-328h-105v323q0 63 -24 92.5t-76 29.5q-57 0 -90.5 -35.5t-33.5 -96.5v-313h-105z" />
    <glyph glyph-name="napostrophe" unicode="&#x149;" horiz-adv-x="604" 
d="M88 0v523h105v-81q48 91 157 91q82 0 127 -53.5t45 -151.5v-328h-105v323q0 63 -24 92.5t-76 29.5q-57 0 -90.5 -35.5t-33.5 -96.5v-313h-105zM-88 487v55q62 19 65 97q-75 3 -75 69q0 32 19.5 52t50.5 20q38 0 59.5 -28t21.5 -78q0 -87 -40 -136q-35 -42 -101 -51z" />
    <glyph glyph-name="Eng" unicode="&#x14a;" horiz-adv-x="604" 
d="M180 715v-103q48 116 164 116q178 0 178 -261v-490q0 -195 -146 -195h-13v107q54 2 54 77v2v32v460q0 83 -24.5 120t-80.5 37q-63 0 -97.5 -44.5t-34.5 -124.5v-448h-105v715h105z" />
    <glyph glyph-name="eng" unicode="&#x14b;" horiz-adv-x="604" 
d="M193 523v-81q49 91 158 91q82 0 126.5 -53.5t44.5 -151.5v-346q0 -151 -146 -152h-13v83q54 2 54 60v2v25v323q0 63 -24 92.5t-76 29.5q-57 0 -90.5 -35.5t-33.5 -96.5v-313h-105v523h105z" />
    <glyph glyph-name="Omacron" unicode="&#x14c;" horiz-adv-x="801" 
d="M404 725q143 0 237.5 -104t94.5 -262q0 -161 -93.5 -265t-239.5 -104t-242 104.5t-96 263.5q0 160 95.5 263.5t243.5 103.5zM403 639q-104 0 -166.5 -76.5t-62.5 -205.5q0 -127 62.5 -204t165.5 -77q105 0 165 74.5t60 204.5q0 127 -61.5 205.5t-162.5 78.5zM280 796v76
h248v-76h-248z" />
    <glyph glyph-name="omacron" unicode="&#x14d;" horiz-adv-x="607" 
d="M306 533q109 0 180 -76.5t71 -193.5q0 -119 -71.5 -196t-182.5 -77q-110 0 -181.5 76t-71.5 194q0 120 71.5 196.5t184.5 76.5zM306 449q-70 0 -108.5 -49.5t-38.5 -138.5q0 -87 38.5 -137t104.5 -50q68 0 107 50t39 138q0 86 -38.5 136.5t-103.5 50.5zM180 632v76h248
v-76h-248z" />
    <glyph glyph-name="Obreve" unicode="&#x14e;" horiz-adv-x="801" 
d="M404 725q143 0 237.5 -104t94.5 -262q0 -161 -93.5 -265t-239.5 -104t-242 104.5t-96 263.5q0 160 95.5 263.5t243.5 103.5zM403 639q-104 0 -166.5 -76.5t-62.5 -205.5q0 -127 62.5 -204t165.5 -77q105 0 165 74.5t60 204.5q0 127 -61.5 205.5t-162.5 78.5zM246 915h75
q5 -74 81 -74t81 74h75q-5 -148 -156 -148t-156 148z" />
    <glyph glyph-name="obreve" unicode="&#x14f;" horiz-adv-x="607" 
d="M306 533q109 0 180 -76.5t71 -193.5q0 -119 -71.5 -196t-182.5 -77q-110 0 -181.5 76t-71.5 194q0 120 71.5 196.5t184.5 76.5zM306 449q-70 0 -108.5 -49.5t-38.5 -138.5q0 -87 38.5 -137t104.5 -50q68 0 107 50t39 138q0 86 -38.5 136.5t-103.5 50.5zM156 750h75
q3 -74 73 -74q68 0 72 74h75q-5 -148 -147 -148q-143 0 -148 148z" />
    <glyph glyph-name="Ohungarumlaut" unicode="&#x150;" horiz-adv-x="801" 
d="M283 779l36 166h113l-80 -166h-69zM442 779l35 166h113l-80 -166h-68zM404 725q143 0 237.5 -104t94.5 -262q0 -161 -93.5 -265t-239.5 -104t-242 104.5t-96 263.5q0 160 95.5 263.5t243.5 103.5zM403 639q-104 0 -166.5 -76.5t-62.5 -205.5q0 -127 62.5 -204t165.5 -77
q105 0 165 74.5t60 204.5q0 127 -61.5 205.5t-162.5 78.5z" />
    <glyph glyph-name="ohungarumlaut" unicode="&#x151;" horiz-adv-x="607" 
d="M188 587l36 166h113l-80 -166h-69zM347 587l35 166h113l-80 -166h-68zM306 533q109 0 180 -76.5t71 -193.5q0 -119 -71.5 -196t-182.5 -77q-110 0 -181.5 76t-71.5 194q0 120 71.5 196.5t184.5 76.5zM306 449q-70 0 -108.5 -49.5t-38.5 -138.5q0 -87 38.5 -137t104.5 -50
q68 0 107 50t39 138q0 86 -38.5 136.5t-103.5 50.5z" />
    <glyph glyph-name="OE" unicode="&#x152;" horiz-adv-x="1142" 
d="M624 0v86q-90 -96 -223 -96q-145 0 -240.5 104.5t-95.5 262.5q0 160 95 264t240 104q132 0 224 -99v89h450v-86h-349v-226h279v-84h-279v-233h366v-86h-467zM622 311v94q0 100 -64 167t-159 67q-103 0 -164 -77t-61 -205t61.5 -204.5t164.5 -76.5q98 0 160 65.5t62 169.5
z" />
    <glyph glyph-name="oe" unicode="&#x153;" horiz-adv-x="975" 
d="M837 153l82 -44q-69 -119 -212 -119q-134 0 -204 110q-72 -110 -200 -110q-110 0 -181.5 76t-71.5 194q0 119 71.5 196t182.5 77q128 0 199 -110q69 110 194 110q108 0 169.5 -70.5t61.5 -193.5v-32h-372q8 -94 53 -131q38 -32 97 -32q46 0 75.5 18t55.5 61zM307 449
q-71 0 -110.5 -50t-39.5 -138q0 -87 39.5 -137t107.5 -50q69 0 108.5 50t39.5 138q0 86 -39 136.5t-106 50.5zM560 313h264q-8 74 -37.5 106.5t-89.5 32.5q-112 0 -137 -139z" />
    <glyph glyph-name="Racute" unicode="&#x154;" horiz-adv-x="676" 
d="M288 779l53 166h128l-109 -166h-72zM92 0v715h286q104 0 164.5 -53t60.5 -145q0 -143 -147 -180q63 -22 89 -58.5t42 -123.5q10 -45 27 -93t26 -57v-5h-107q-31 55 -53 168q-16 77 -49 106.5t-104 29.5h-130v-304h-105zM197 388h158q144 0 144 125q0 116 -124 116h-178
v-241z" />
    <glyph glyph-name="racute" unicode="&#x155;" horiz-adv-x="413" 
d="M205 587l53 166h128l-109 -166h-72zM88 0v523h105v-86q49 96 138 96q41 0 83 -21l-35 -90q-30 15 -62 15q-57 0 -90.5 -42t-33.5 -115v-280h-105z" />
    <glyph glyph-name="Rcommaaccent" unicode="&#x156;" horiz-adv-x="676" 
d="M293 -251v48q55 8 57 51q-58 5 -58 54q0 23 16.5 38.5t41.5 15.5q29 0 46.5 -21.5t17.5 -57.5q0 -56 -31 -89t-90 -39zM92 0v715h286q104 0 164.5 -53t60.5 -145q0 -143 -147 -180q63 -22 89 -58.5t42 -123.5q10 -45 27 -93t26 -57v-5h-107q-31 55 -53 168
q-16 77 -49 106.5t-104 29.5h-130v-304h-105zM197 388h158q144 0 144 125q0 116 -124 116h-178v-241z" />
    <glyph glyph-name="rcommaaccent" unicode="&#x157;" horiz-adv-x="413" 
d="M88 0v523h105v-86q49 96 138 96q41 0 83 -21l-35 -90q-30 15 -62 15q-57 0 -90.5 -42t-33.5 -115v-280h-105zM81 -251v48q55 8 57 51q-58 5 -58 54q0 23 16.5 38.5t41.5 15.5q29 0 46.5 -21.5t17.5 -57.5q0 -56 -31 -89t-90 -39z" />
    <glyph glyph-name="Rcaron" unicode="&#x158;" horiz-adv-x="676" 
d="M284 780l-104 165h72l74 -89l74 89h69l-103 -165h-82zM92 0v715h286q104 0 164.5 -53t60.5 -145q0 -143 -147 -180q63 -22 89 -58.5t42 -123.5q10 -45 27 -93t26 -57v-5h-107q-31 55 -53 168q-16 77 -49 106.5t-104 29.5h-130v-304h-105zM197 388h158q144 0 144 125
q0 116 -124 116h-178v-241z" />
    <glyph glyph-name="rcaron" unicode="&#x159;" horiz-adv-x="413" 
d="M88 0v523h105v-86q49 96 138 96q41 0 83 -21l-35 -90q-30 15 -62 15q-57 0 -90.5 -42t-33.5 -115v-280h-105zM198 588l-104 165h72l74 -89l74 89h69l-103 -165h-82z" />
    <glyph glyph-name="Sacute" unicode="&#x15a;" horiz-adv-x="649" 
d="M274 779l53 166h129l-109 -166h-73zM40 182l97 27q22 -70 67 -102.5t119 -32.5q73 0 115 32.5t42 88.5q0 52 -35 78q-34 26 -139 52q-128 29 -176 68q-58 47 -58 132q0 92 63 145.5t171 53.5q97 0 158.5 -38t98.5 -120l-91 -32q-27 59 -63.5 82.5t-99.5 23.5t-98 -28
t-35 -78q0 -45 33 -68.5t124 -43.5q132 -29 183 -70q68 -54 68 -149q0 -99 -69.5 -156t-189.5 -57q-147 0 -226 85q-36 39 -59 107z" />
    <glyph glyph-name="sacute" unicode="&#x15b;" horiz-adv-x="513" 
d="M211 587l53 166h128l-109 -166h-72zM443 462l-61 -68q-55 55 -128 55q-90 0 -90 -59q0 -32 23.5 -47.5t92.5 -29.5q80 -17 117 -40q65 -42 65 -122q0 -74 -55.5 -117.5t-150.5 -43.5q-137 0 -222 94l67 63q32 -41 65.5 -57t84.5 -16q111 0 111 71q0 32 -24.5 47.5
t-103.5 33.5q-89 19 -128.5 56t-39.5 100q0 70 51.5 110.5t139.5 40.5q61 0 104 -16.5t82 -54.5z" />
    <glyph glyph-name="Scircumflex" unicode="&#x15c;" horiz-adv-x="649" 
d="M167 781l102 164h87l101 -164h-72l-74 84l-74 -84h-70zM40 182l97 27q22 -70 67 -102.5t119 -32.5q73 0 115 32.5t42 88.5q0 52 -35 78q-34 26 -139 52q-128 29 -176 68q-58 47 -58 132q0 92 63 145.5t171 53.5q97 0 158.5 -38t98.5 -120l-91 -32q-27 59 -63.5 82.5
t-99.5 23.5t-98 -28t-35 -78q0 -45 33 -68.5t124 -43.5q132 -29 183 -70q68 -54 68 -149q0 -99 -69.5 -156t-189.5 -57q-147 0 -226 85q-36 39 -59 107z" />
    <glyph glyph-name="scircumflex" unicode="&#x15d;" horiz-adv-x="513" 
d="M110 588l102 165h87l100 -165h-71l-74 85l-74 -85h-70zM443 462l-61 -68q-55 55 -128 55q-90 0 -90 -59q0 -32 23.5 -47.5t92.5 -29.5q80 -17 117 -40q65 -42 65 -122q0 -74 -55.5 -117.5t-150.5 -43.5q-137 0 -222 94l67 63q32 -41 65.5 -57t84.5 -16q111 0 111 71
q0 32 -24.5 47.5t-103.5 33.5q-89 19 -128.5 56t-39.5 100q0 70 51.5 110.5t139.5 40.5q61 0 104 -16.5t82 -54.5z" />
    <glyph glyph-name="Scedilla" unicode="&#x15e;" horiz-adv-x="649" 
d="M248 -85l57 76q-107 8 -172 54.5t-93 136.5l97 27q23 -68 68 -100.5t118 -32.5t115 32.5t42 88.5q0 51 -35 77q-34 27 -139 52q-129 30 -176 68q-58 47 -58 132q0 91 63 144.5t171 53.5q97 0 158.5 -38t98.5 -120l-91 -32q-27 59 -63.5 82.5t-99.5 23.5t-98 -28t-35 -78
q0 -45 33 -68.5t124 -43.5q129 -27 183 -69q68 -54 68 -150q0 -131 -131 -187q-51 -23 -95 -24l-37 -51q14 5 24 5q31 0 52 -22.5t21 -56.5q0 -37 -28.5 -60.5t-74.5 -23.5q-61 0 -100 45l46 32q19 -24 52 -24q40 0 40 34q0 32 -34 32q-21 0 -31 -13z" />
    <glyph glyph-name="scedilla" unicode="&#x15f;" horiz-adv-x="513" 
d="M164 -86l57 78q-117 10 -187 92l67 63q32 -41 65.5 -57t84.5 -16q111 0 111 71q0 32 -24.5 47.5t-103.5 33.5q-89 19 -128.5 56t-39.5 100q0 70 51.5 110.5t139.5 40.5q61 0 104 -16.5t82 -54.5l-61 -68q-55 55 -128 55q-90 0 -90 -59q0 -32 23.5 -47.5t92.5 -29.5
q80 -17 117 -40q65 -42 65 -122q0 -71 -49.5 -113.5t-139.5 -47.5l-37 -49q16 4 24 4q32 0 53 -21.5t21 -55.5q0 -40 -27.5 -62.5t-75.5 -22.5q-61 0 -101 46l47 32q18 -25 52 -25q40 0 40 34q0 32 -35 32q-20 0 -30 -13z" />
    <glyph glyph-name="Scaron" unicode="&#x160;" horiz-adv-x="649" 
d="M270 781l-103 164h72l74 -89l73 89h70l-103 -164h-83zM40 182l97 27q22 -70 67 -102.5t119 -32.5q73 0 115 32.5t42 88.5q0 52 -35 78q-34 26 -139 52q-128 29 -176 68q-58 47 -58 132q0 92 63 145.5t171 53.5q97 0 158.5 -38t98.5 -120l-91 -32q-27 59 -63.5 82.5
t-99.5 23.5t-98 -28t-35 -78q0 -45 33 -68.5t124 -43.5q132 -29 183 -70q68 -54 68 -149q0 -99 -69.5 -156t-189.5 -57q-147 0 -226 85q-36 39 -59 107z" />
    <glyph glyph-name="scaron" unicode="&#x161;" horiz-adv-x="513" 
d="M211 588l-104 165h72l74 -89l74 89h69l-103 -165h-82zM443 462l-61 -68q-55 55 -128 55q-90 0 -90 -59q0 -32 23.5 -47.5t92.5 -29.5q80 -17 117 -40q65 -42 65 -122q0 -74 -55.5 -117.5t-150.5 -43.5q-137 0 -222 94l67 63q32 -41 65.5 -57t84.5 -16q111 0 111 71
q0 32 -24.5 47.5t-103.5 33.5q-89 19 -128.5 56t-39.5 100q0 70 51.5 110.5t139.5 40.5q61 0 104 -16.5t82 -54.5z" />
    <glyph glyph-name="Tcommaaccent" unicode="&#x162;" horiz-adv-x="577" 
d="M236 0v629h-216v86h537v-86h-216v-629h-105zM230 -251v48q55 8 57 51q-58 5 -58 54q0 23 16.5 38.5t41.5 15.5q29 0 46.5 -21.5t17.5 -57.5q0 -56 -31 -89t-90 -39z" />
    <glyph glyph-name="tcommaaccent" unicode="&#x163;" horiz-adv-x="393" 
d="M33 439v84h78v127l105 30v-157h124v-84h-124v-293q0 -70 54 -70q32 0 66 23l33 -70q-51 -39 -112 -39q-68 0 -107 37.5t-39 102.5v309h-78zM163 -251v48q55 8 57 51q-58 5 -58 54q0 23 16.5 38.5t41.5 15.5q29 0 46.5 -21.5t17.5 -57.5q0 -56 -31 -89t-90 -39z" />
    <glyph glyph-name="Tcaron" unicode="&#x164;" horiz-adv-x="577" 
d="M236 0v629h-216v86h537v-86h-216v-629h-105zM248 780l-104 165h72l74 -89l74 89h69l-103 -165h-82z" />
    <glyph glyph-name="tcaron" unicode="&#x165;" horiz-adv-x="491" 
d="M33 439v84h78v127l105 30v-157h124v-84h-124v-293q0 -70 54 -70q32 0 66 23l33 -70q-51 -39 -112 -39q-68 0 -107 37.5t-39 102.5v309h-78zM392 552v48q55 8 57 51q-58 3 -58 54q0 23 16.5 38.5t41.5 15.5q29 0 46.5 -21.5t17.5 -57.5q0 -56 -31 -89t-90 -39z" />
    <glyph glyph-name="Tbar" unicode="&#x166;" horiz-adv-x="577" 
d="M236 280h-111v96h111v253h-216v86h537v-86h-216v-253h118v-96h-118v-280h-105v280z" />
    <glyph glyph-name="tbar" unicode="&#x167;" horiz-adv-x="393" 
d="M216 371h124v-84h-124v-141q0 -70 54 -70q30 0 66 23l33 -70q-51 -39 -112 -39q-68 0 -107 37.5t-39 102.5v157h-79v84h79v68h-78v84h78v127l105 30v-157h124v-84h-124v-68z" />
    <glyph glyph-name="Utilde" unicode="&#x168;" horiz-adv-x="709" 
d="M625 715v-440q0 -137 -71 -211t-204 -74q-129 0 -197.5 71t-68.5 205v449h105v-440q0 -105 38.5 -152t124.5 -47q91 0 131.5 49.5t40.5 160.5v429h101zM255 785l-61 6q8 56 34 86.5t65 30.5q28 0 75 -26q32 -18 47 -18q30 0 37 45l63 -6q-9 -56 -35 -86.5t-66 -30.5
q-28 0 -75 26q-32 18 -46 18q-31 0 -38 -45z" />
    <glyph glyph-name="utilde" unicode="&#x169;" horiz-adv-x="599" 
d="M405 0v80q-49 -90 -156 -90q-80 0 -123.5 53.5t-43.5 151.5v328h105v-311q0 -74 21.5 -105t72.5 -31q57 0 90.5 36t33.5 97v314h105v-523h-105zM197 611l-61 6q8 56 34 86.5t65 30.5q27 0 75 -26q31 -18 46 -18q29 0 38 45l63 -6q-10 -56 -36 -86.5t-65 -30.5
q-28 0 -76 26q-32 18 -46 18q-30 0 -37 -45z" />
    <glyph glyph-name="Umacron" unicode="&#x16a;" horiz-adv-x="709" 
d="M232 796v76h248v-76h-248zM625 715v-440q0 -137 -71 -211t-204 -74q-129 0 -197.5 71t-68.5 205v449h105v-440q0 -105 38.5 -152t124.5 -47q91 0 131.5 49.5t40.5 160.5v429h101z" />
    <glyph glyph-name="umacron" unicode="&#x16b;" horiz-adv-x="599" 
d="M405 0v80q-49 -90 -156 -90q-80 0 -123.5 53.5t-43.5 151.5v328h105v-311q0 -74 21.5 -105t72.5 -31q57 0 90.5 36t33.5 97v314h105v-523h-105zM172 632v76h248v-76h-248z" />
    <glyph glyph-name="Ubreve" unicode="&#x16c;" horiz-adv-x="709" 
d="M423 918h74q-7 -63 -44 -97q-39 -37 -99 -37q-59 0 -96 36q-36 35 -43 98h75q7 -32 22.5 -46.5t44.5 -14.5q28 0 43.5 14.5t22.5 46.5zM625 715v-440q0 -137 -71 -211t-204 -74q-129 0 -197.5 71t-68.5 205v449h105v-440q0 -105 38.5 -152t124.5 -47q91 0 131.5 49.5
t40.5 160.5v429h101z" />
    <glyph glyph-name="ubreve" unicode="&#x16d;" horiz-adv-x="599" 
d="M363 740h74q-7 -63 -44 -97q-39 -37 -99 -37q-58 0 -96 36q-36 35 -43 98h75q7 -32 22.5 -46.5t44.5 -14.5q28 0 43.5 14.5t22.5 46.5zM405 0v80q-49 -90 -156 -90q-80 0 -123.5 53.5t-43.5 151.5v328h105v-311q0 -74 21.5 -105t72.5 -31q57 0 90.5 36t33.5 97v314h105
v-523h-105z" />
    <glyph glyph-name="Uring" unicode="&#x16e;" horiz-adv-x="709" 
d="M357 982q44 0 75.5 -31t31.5 -74q0 -44 -31.5 -74.5t-76.5 -30.5t-76.5 30.5t-31.5 74.5t31.5 74.5t77.5 30.5zM357 933q-23 0 -38 -15.5t-15 -38.5t15 -38.5t37 -15.5q23 0 37.5 15t14.5 39q0 23 -14.5 38.5t-36.5 15.5zM625 715v-440q0 -137 -71 -211t-204 -74
q-129 0 -197.5 71t-68.5 205v449h105v-440q0 -105 38.5 -152t124.5 -47q91 0 131.5 49.5t40.5 160.5v429h101z" />
    <glyph glyph-name="uring" unicode="&#x16f;" horiz-adv-x="599" 
d="M297 790q44 0 75.5 -31t31.5 -74q0 -44 -31.5 -74.5t-76.5 -30.5t-76.5 30.5t-31.5 74.5t31.5 74.5t77.5 30.5zM297 741q-23 0 -38 -15.5t-15 -38.5t15 -38.5t37 -15.5q23 0 37.5 15t14.5 39q0 23 -14.5 38.5t-36.5 15.5zM405 0v80q-49 -90 -156 -90q-80 0 -123.5 53.5
t-43.5 151.5v328h105v-311q0 -74 21.5 -105t72.5 -31q57 0 90.5 36t33.5 97v314h105v-523h-105z" />
    <glyph glyph-name="Uhungarumlaut" unicode="&#x170;" horiz-adv-x="709" 
d="M236 779l36 166h113l-80 -166h-69zM395 779l35 166h113l-80 -166h-68zM625 715v-440q0 -137 -71 -211t-204 -74q-129 0 -197.5 71t-68.5 205v449h105v-440q0 -105 38.5 -152t124.5 -47q91 0 131.5 49.5t40.5 160.5v429h101z" />
    <glyph glyph-name="uhungarumlaut" unicode="&#x171;" horiz-adv-x="599" 
d="M178 587l36 166h113l-80 -166h-69zM337 587l35 166h113l-80 -166h-68zM405 0v80q-49 -90 -156 -90q-80 0 -123.5 53.5t-43.5 151.5v328h105v-311q0 -74 21.5 -105t72.5 -31q57 0 90.5 36t33.5 97v314h105v-523h-105z" />
    <glyph glyph-name="Uogonek" unicode="&#x172;" horiz-adv-x="709" 
d="M625 715v-440q0 -236 -202 -278q-76 -64 -76 -118q0 -37 37 -37q27 0 51 24l36 -41q-36 -36 -94 -36q-47 0 -74 22.5t-27 62.5q0 62 72 116q-128 0 -196 71t-68 205v449h105v-440q0 -105 38.5 -152t124.5 -47q91 0 131.5 49.5t40.5 160.5v429h101z" />
    <glyph glyph-name="uogonek" unicode="&#x173;" horiz-adv-x="599" 
d="M405 0v80q-49 -90 -156 -90q-80 0 -123.5 53.5t-43.5 151.5v328h105v-311q0 -74 21.5 -105t72.5 -31q57 0 90.5 36t33.5 97v314h105v-512q-45 -31 -71 -66.5t-26 -65.5q0 -37 38 -37q27 0 51 24l37 -41q-37 -36 -96 -36q-47 0 -74 22.5t-27 61.5q0 69 86 127h-23z" />
    <glyph glyph-name="Wcircumflex" unicode="&#x174;" horiz-adv-x="962" 
d="M216 0l-190 715h111l137 -550l167 550h86l164 -553l144 553h101l-191 -715h-97l-165 549l-170 -549h-97zM337 780l102 165h87l100 -165h-71l-74 85l-74 -85h-70z" />
    <glyph glyph-name="wcircumflex" unicode="&#x175;" horiz-adv-x="831" 
d="M186 0l-155 523h111l105 -396l123 396h103l114 -396l109 396h104l-159 -523h-110l-112 391l-123 -391h-110zM271 588l102 165h87l100 -165h-71l-74 85l-74 -85h-70z" />
    <glyph glyph-name="Ycircumflex" unicode="&#x176;" horiz-adv-x="569" 
d="M238 0v298l-250 417h119l186 -327l180 327h108l-238 -416v-299h-105zM140 780l102 165h87l100 -165h-71l-74 85l-74 -85h-70z" />
    <glyph glyph-name="ycircumflex" unicode="&#x177;" horiz-adv-x="518" 
d="M500 523l-213 -589q-44 -123 -154 -123q-59 0 -106 32l34 73q31 -21 65 -21q56 0 75 63l15 48l-198 517h112l137 -377l128 377h105zM117 588l102 165h87l100 -165h-71l-74 85l-74 -85h-70z" />
    <glyph glyph-name="Ydieresis" unicode="&#x178;" horiz-adv-x="569" 
d="M238 0v298l-250 417h119l186 -327l180 327h108l-238 -416v-299h-105zM198 903q25 0 43 -18t18 -43t-18 -43t-43 -18t-43 18t-18 43t18 43t43 18zM390 903q24 0 42.5 -18.5t18.5 -42.5q0 -25 -18 -43t-43 -18t-43 18t-18 43t18 43t43 18z" />
    <glyph glyph-name="Zacute" unicode="&#x179;" horiz-adv-x="608" 
d="M279 779l53 166h128l-109 -166h-72zM54 0v92l371 537h-351v86h466v-99l-365 -530h371v-86h-492z" />
    <glyph glyph-name="zacute" unicode="&#x17a;" horiz-adv-x="501" 
d="M221 587l53 166h128l-109 -166h-72zM43 0v82l288 357h-275v84h392v-95l-280 -344h288v-84h-413z" />
    <glyph glyph-name="Zdotaccent" unicode="&#x17b;" horiz-adv-x="608" 
d="M309 901q25 0 43 -18t18 -43t-18 -43t-43 -18t-43 18t-18 43t18 43t43 18zM54 0v92l371 537h-351v86h466v-99l-365 -530h371v-86h-492z" />
    <glyph glyph-name="zdotaccent" unicode="&#x17c;" horiz-adv-x="501" 
d="M265 731q25 0 43 -18t18 -43t-18 -43t-43 -18t-43 18t-18 43t18 43t43 18zM43 0v82l288 357h-275v84h392v-95l-280 -344h288v-84h-413z" />
    <glyph glyph-name="Zcaron" unicode="&#x17d;" horiz-adv-x="608" 
d="M279 780l-104 165h72l74 -89l74 89h69l-103 -165h-82zM54 0v92l371 537h-351v86h466v-99l-365 -530h371v-86h-492z" />
    <glyph glyph-name="zcaron" unicode="&#x17e;" horiz-adv-x="501" 
d="M224 588l-104 165h72l74 -89l74 89h69l-103 -165h-82zM43 0v82l288 357h-275v84h392v-95l-280 -344h288v-84h-413z" />
    <glyph glyph-name="uni018F" unicode="&#x18f;" horiz-adv-x="801" 
d="M67 402h558q-13 112 -73 174.5t-152 62.5q-89 0 -148 -59q-22 -22 -46 -66l-98 32q100 179 294 179q145 0 239.5 -103.5t94.5 -262.5q0 -161 -93.5 -265t-239.5 -104q-144 0 -241 104t-97 259q0 5 2 49zM626 321h-450q9 -113 70.5 -179t156.5 -66q97 0 156.5 65.5
t66.5 179.5z" />
    <glyph glyph-name="florin" unicode="&#x192;" horiz-adv-x="432" 
d="M53 322v84h94l17 148q20 170 168 170q55 0 100 -24l-22 -77q-37 17 -66 17q-67 0 -76 -81l-17 -153h121v-84h-130l-38 -349q-16 -155 -156 -155q-48 0 -83 19l22 76q24 -11 48 -11q30 0 45 15.5t19 50.5l39 354h-85z" />
    <glyph glyph-name="uni01CD" unicode="&#x1cd;" horiz-adv-x="655" 
d="M285 781l-103 164h72l74 -89l74 89h70l-103 -164h-84zM173 167l-57 -167h-102l259 715h112l255 -715h-111l-57 167h-299zM202 251h241l-120 352z" />
    <glyph glyph-name="uni01CE" unicode="&#x1ce;" horiz-adv-x="554" 
d="M524 75v-77q-27 -3 -37 -3q-89 0 -115 77q-63 -82 -160 -82q-73 0 -118.5 41t-45.5 107q0 116 135 155q66 18 182 21v27q0 56 -23.5 82t-74.5 26q-76 0 -149 -62l-54 68q89 78 210 78q95 0 145.5 -49t50.5 -141v-220q0 -49 42 -49q8 0 12 1zM365 177v66q-213 -1 -213 -99
q0 -35 22.5 -54t62.5 -19q56 0 92 29.5t36 76.5zM237 588l-104 165h72l74 -89l74 89h69l-103 -165h-82z" />
    <glyph glyph-name="uni01CF" unicode="&#x1cf;" horiz-adv-x="313" 
d="M104 0v715h105v-715h-105zM115 781l-103 164h72l74 -89l74 89h70l-103 -164h-84z" />
    <glyph glyph-name="uni01D0" unicode="&#x1d0;" horiz-adv-x="285" 
d="M90 0v523h105v-523h-105zM102 588l-104 165h72l74 -89l74 89h69l-103 -165h-82z" />
    <glyph glyph-name="uni01D1" unicode="&#x1d1;" horiz-adv-x="801" 
d="M404 725q143 0 237.5 -104t94.5 -262q0 -161 -93.5 -265t-239.5 -104t-242 104.5t-96 263.5q0 160 95.5 263.5t243.5 103.5zM403 639q-104 0 -166.5 -76.5t-62.5 -205.5q0 -127 62.5 -204t165.5 -77q105 0 165 74.5t60 204.5q0 127 -61.5 205.5t-162.5 78.5zM359 781
l-103 164h72l74 -89l73 89h70l-103 -164h-83z" />
    <glyph glyph-name="uni01D2" unicode="&#x1d2;" horiz-adv-x="607" 
d="M306 533q109 0 180 -76.5t71 -193.5q0 -119 -71.5 -196t-182.5 -77q-110 0 -181.5 76t-71.5 194q0 120 71.5 196.5t184.5 76.5zM306 449q-70 0 -108.5 -49.5t-38.5 -138.5q0 -87 38.5 -137t104.5 -50q68 0 107 50t39 138q0 86 -38.5 136.5t-103.5 50.5zM263 588l-104 165
h72l74 -89l74 89h69l-103 -165h-82z" />
    <glyph glyph-name="uni01D3" unicode="&#x1d3;" horiz-adv-x="709" 
d="M625 715v-440q0 -137 -71 -211t-204 -74q-129 0 -197.5 71t-68.5 205v449h105v-440q0 -105 38.5 -152t124.5 -47q91 0 131.5 49.5t40.5 160.5v429h101zM313 781l-103 164h72l74 -89l73 89h70l-103 -164h-83z" />
    <glyph glyph-name="uni01D4" unicode="&#x1d4;" horiz-adv-x="599" 
d="M405 0v80q-49 -90 -156 -90q-80 0 -123.5 53.5t-43.5 151.5v328h105v-311q0 -74 21.5 -105t72.5 -31q57 0 90.5 36t33.5 97v314h105v-523h-105zM256 588l-104 165h72l74 -89l74 89h69l-103 -165h-82z" />
    <glyph glyph-name="Gcaron" unicode="&#x1e6;" horiz-adv-x="778" 
d="M633 0l-19 123q-43 -70 -97.5 -101.5t-130.5 -31.5q-142 0 -231.5 102t-89.5 264q0 163 92.5 266.5t237.5 103.5q124 0 199 -72q45 -42 80 -123l-96 -37q-29 79 -71 112.5t-111 33.5q-103 0 -162.5 -76.5t-59.5 -207.5q0 -129 59 -204.5t161 -75.5q87 0 144 59t57 148v9
h-182v84h285v-376h-65zM347 781l-103 164h72l74 -89l74 89h70l-103 -164h-84z" />
    <glyph glyph-name="gcaron" unicode="&#x1e7;" horiz-adv-x="569" 
d="M389 507l145 25v-88h-71q26 -39 26 -85q0 -74 -58.5 -121.5t-149.5 -47.5q-46 0 -90 15q-26 -17 -26 -44q0 -22 15.5 -31t52.5 -9h93q102 0 147 -28q60 -38 60 -117q0 -81 -68 -127t-187 -46q-109 0 -172 38t-63 103q0 69 90 110q-54 29 -54 85q0 57 59 94
q-66 51 -66 128q0 75 57 123.5t145 48.5q60 0 115 -26zM280 458q-50 0 -78 -25.5t-28 -71.5q0 -44 29.5 -71t78.5 -27q48 0 76.5 26t28.5 70q0 46 -29 72.5t-78 26.5zM346 33h-113q-6 0 -34 2q-59 -32 -59 -77q0 -78 140 -78q154 0 154 89q0 64 -88 64zM248 588l-104 165h72
l74 -89l74 89h69l-103 -165h-82z" />
    <glyph glyph-name="uni01F4" unicode="&#x1f4;" horiz-adv-x="778" 
d="M633 0l-19 123q-43 -70 -97.5 -101.5t-130.5 -31.5q-142 0 -231.5 102t-89.5 264q0 163 92.5 266.5t237.5 103.5q124 0 199 -72q45 -42 80 -123l-96 -37q-29 79 -71 112.5t-111 33.5q-103 0 -162.5 -76.5t-59.5 -207.5q0 -129 59 -204.5t161 -75.5q87 0 144 59t57 148v9
h-182v84h285v-376h-65zM356 779l53 166h128l-109 -166h-72z" />
    <glyph glyph-name="uni01F5" unicode="&#x1f5;" horiz-adv-x="569" 
d="M389 507l145 25v-88h-71q26 -39 26 -85q0 -74 -58.5 -121.5t-149.5 -47.5q-46 0 -90 15q-26 -17 -26 -44q0 -22 15.5 -31t52.5 -9h93q102 0 147 -28q60 -38 60 -117q0 -81 -68 -127t-187 -46q-109 0 -172 38t-63 103q0 69 90 110q-54 29 -54 85q0 57 59 94
q-66 51 -66 128q0 75 57 123.5t145 48.5q60 0 115 -26zM280 458q-50 0 -78 -25.5t-28 -71.5q0 -44 29.5 -71t78.5 -27q48 0 76.5 26t28.5 70q0 46 -29 72.5t-78 26.5zM346 33h-113q-6 0 -34 2q-59 -32 -59 -77q0 -78 140 -78q154 0 154 89q0 64 -88 64zM252 587l53 166h128
l-109 -166h-72z" />
    <glyph glyph-name="Aringacute" unicode="&#x1fa;" horiz-adv-x="655" 
d="M328 912q44 0 75.5 -31t31.5 -74q0 -44 -31.5 -75t-77.5 -31q-45 0 -76.5 30.5t-31.5 74.5q0 45 31.5 75.5t78.5 30.5zM327 859q-23 0 -38 -14.5t-15 -37.5t14.5 -38t37.5 -15t38 15t15 38q0 22 -15 37t-37 15zM173 167l-57 -167h-102l259 715h112l255 -715h-111l-57 167
h-299zM202 251h241l-120 352zM294 929l53 166h128l-109 -166h-72z" />
    <glyph glyph-name="AEacute" unicode="&#x1fc;" horiz-adv-x="1001" 
d="M214 159l-91 -159h-107l421 715h495v-86h-349v-226h280v-84h-280v-233h367v-86h-472v159h-264zM263 243h215v375zM450 779l53 166h128l-109 -166h-72z" />
    <glyph glyph-name="aeacute" unicode="&#x1fd;" horiz-adv-x="879" 
d="M739 153l83 -44q-69 -119 -207 -119q-132 0 -203 103q-71 -103 -198 -103q-75 0 -120.5 40.5t-45.5 107.5q0 115 135 154q66 18 182 21v28q0 56 -23.5 82t-74.5 26q-76 0 -149 -62l-54 68q89 78 209 78q118 0 163 -81q64 81 170 81q103 0 164 -70.5t61 -190.5v-35h-361
q8 -95 52 -132q35 -31 93 -31q43 0 70.5 17.5t53.5 61.5zM365 177v65q-213 -2 -213 -98q0 -35 22.5 -54t62.5 -19q56 0 92 29.5t36 76.5zM474 313h253q-8 74 -36.5 106.5t-83.5 32.5q-108 0 -133 -139zM403 587l53 166h128l-109 -166h-72z" />
    <glyph glyph-name="Oslashacute" unicode="&#x1fe;" horiz-adv-x="801" 
d="M23 0l114 124q-72 102 -72 234q0 159 95.5 263t241.5 104q123 0 215 -80l64 70h97l-113 -123q71 -98 71 -233q0 -161 -93.5 -265t-239.5 -104q-124 0 -216 80l-64 -70h-100zM205 198l349 379q-62 64 -153 64q-104 0 -166.5 -77.5t-62.5 -205.5q0 -90 33 -160zM596 516
l-348 -379q64 -63 154 -63q106 0 166.5 75t60.5 205q0 93 -33 162zM367 779l53 166h128l-109 -166h-72z" />
    <glyph glyph-name="oslashacute" unicode="&#x1ff;" horiz-adv-x="601" 
d="M18 0l83 91q-48 74 -48 171q0 124 68.5 199.5t181.5 75.5q90 0 157 -53l35 39h91l-81 -89q46 -75 46 -170q0 -124 -68 -200t-180 -76q-89 0 -156 53l-37 -41h-92zM435 358l-229 -252q38 -37 95 -37q71 0 108.5 49.5t37.5 143.5q0 46 -12 96zM170 167l229 250
q-39 36 -95 36q-72 0 -109.5 -48.5t-37.5 -140.5q0 -54 13 -97zM265 587l53 166h128l-109 -166h-72z" />
    <glyph glyph-name="Scommaaccent" unicode="&#x218;" horiz-adv-x="649" 
d="M260 -251v48q55 8 57 51q-57 5 -57 53q0 24 16 39.5t41 15.5q30 0 47.5 -22t17.5 -59q0 -55 -31.5 -87.5t-90.5 -38.5zM40 182l97 27q22 -70 67 -102.5t119 -32.5q73 0 115 32.5t42 88.5q0 52 -35 78q-34 26 -139 52q-128 29 -176 68q-58 47 -58 132q0 92 63 145.5
t171 53.5q97 0 158.5 -38t98.5 -120l-91 -32q-27 59 -63.5 82.5t-99.5 23.5t-98 -28t-35 -78q0 -45 33 -68.5t124 -43.5q132 -29 183 -70q68 -54 68 -149q0 -99 -69.5 -156t-189.5 -57q-147 0 -226 85q-36 39 -59 107z" />
    <glyph glyph-name="scommaaccent" unicode="&#x219;" horiz-adv-x="513" 
d="M194 -251v48q55 8 57 51q-58 5 -58 54q0 23 16.5 38.5t41.5 15.5q29 0 46.5 -21.5t17.5 -57.5q0 -56 -31 -89t-90 -39zM443 462l-61 -68q-55 55 -128 55q-90 0 -90 -59q0 -32 23.5 -47.5t92.5 -29.5q80 -17 117 -40q65 -42 65 -122q0 -74 -55.5 -117.5t-150.5 -43.5
q-137 0 -222 94l67 63q32 -41 65.5 -57t84.5 -16q111 0 111 71q0 32 -24.5 47.5t-103.5 33.5q-89 19 -128.5 56t-39.5 100q0 70 51.5 110.5t139.5 40.5q61 0 104 -16.5t82 -54.5z" />
    <glyph glyph-name="uni021A" unicode="&#x21a;" horiz-adv-x="577" 
d="M236 0v629h-216v86h537v-86h-216v-629h-105zM230 -251v48q55 8 57 51q-58 5 -58 54q0 23 16.5 38.5t41.5 15.5q29 0 46.5 -21.5t17.5 -57.5q0 -56 -31 -89t-90 -39z" />
    <glyph glyph-name="uni021B" unicode="&#x21b;" horiz-adv-x="393" 
d="M33 439v84h78v127l105 30v-157h124v-84h-124v-293q0 -70 54 -70q32 0 66 23l33 -70q-51 -39 -112 -39q-68 0 -107 37.5t-39 102.5v309h-78zM163 -251v48q55 8 57 51q-58 5 -58 54q0 23 16.5 38.5t41.5 15.5q29 0 46.5 -21.5t17.5 -57.5q0 -56 -31 -89t-90 -39z" />
    <glyph glyph-name="uni0237" unicode="&#x237;" horiz-adv-x="284" 
d="M194 523v-560q0 -75 -37 -114t-108 -39q-43 0 -77 19l21 75q22 -10 39 -10q57 0 57 62v567h105z" />
    <glyph glyph-name="uni0259" unicode="&#x259;" horiz-adv-x="574" 
d="M139 370l-83 44q69 119 213 119q113 0 184 -74.5t71 -194.5q0 -121 -68.5 -197.5t-177.5 -76.5q-108 0 -169 70t-61 194v32h370q-8 94 -52 132q-37 31 -97 31q-46 0 -75.5 -18t-54.5 -61zM414 210h-263q8 -74 38 -106.5t89 -32.5q111 0 136 139z" />
    <glyph glyph-name="afii57929" unicode="&#x2bc;" horiz-adv-x="294" 
d="M81 470v55q62 19 65 97q-75 3 -75 69q0 32 19.5 52t50.5 20q38 0 59.5 -28t21.5 -78q0 -87 -40 -136q-35 -42 -101 -51z" />
    <glyph glyph-name="circumflex" unicode="&#x2c6;" 
d="M106 588l102 165h87l100 -165h-71l-74 85l-74 -85h-70z" />
    <glyph glyph-name="caron" unicode="&#x2c7;" 
d="M210 588l-104 165h72l74 -89l74 89h69l-103 -165h-82z" />
    <glyph glyph-name="uni02C9" unicode="&#x2c9;" 
d="M126 632v76h248v-76h-248z" />
    <glyph glyph-name="breve" unicode="&#x2d8;" 
d="M102 750h75q5 -74 73 -74t72 74h75q-3 -148 -147 -148q-143 0 -148 148z" />
    <glyph glyph-name="dotaccent" unicode="&#x2d9;" 
d="M250 733q25 0 43 -18t18 -43t-18 -43t-43 -18t-43 18t-18 43t18 43t43 18z" />
    <glyph glyph-name="ring" unicode="&#x2da;" 
d="M251 790q44 0 75.5 -31t31.5 -74q0 -44 -31.5 -74.5t-76.5 -30.5t-76.5 30.5t-31.5 74.5t31.5 74.5t77.5 30.5zM251 741q-23 0 -38 -15.5t-15 -38.5t15 -38.5t37 -15.5q23 0 37.5 15t14.5 39q0 23 -14.5 38.5t-36.5 15.5z" />
    <glyph glyph-name="ogonek" unicode="&#x2db;" 
d="M301 -134l37 -41q-37 -36 -94 -36q-47 0 -74.5 22.5t-27.5 62.5q0 67 87 126h65q-81 -68 -81 -121q0 -37 37 -37q27 0 51 24z" />
    <glyph glyph-name="tilde" unicode="&#x2dc;" 
d="M151 611l-61 6q8 56 34 86.5t65 30.5q28 0 75 -26q32 -18 47 -18q28 0 37 45l63 -6q-9 -56 -35.5 -86.5t-65.5 -30.5q-28 0 -76 26q-31 18 -45 18q-31 0 -38 -45z" />
    <glyph glyph-name="hungarumlaut" unicode="&#x2dd;" 
d="M129 587l36 166h113l-80 -166h-69zM288 587l35 166h113l-80 -166h-68z" />
    <glyph glyph-name="tonos" unicode="&#x384;" 
d="M210 587l-16 176h113l-16 -176h-81z" />
    <glyph glyph-name="dieresistonos" unicode="&#x385;" 
d="M120 732q23 0 40.5 -18t17.5 -41t-17.5 -40.5t-40.5 -17.5q-24 0 -41.5 17.5t-17.5 41.5q0 23 17.5 40.5t41.5 17.5zM213 587l-16 176h105l-16 -176h-73zM379 732q24 0 41.5 -18t17.5 -41t-18 -40.5t-41 -17.5t-40.5 17.5t-17.5 40.5q0 24 17.5 41.5t40.5 17.5z" />
    <glyph glyph-name="Alphatonos" unicode="&#x386;" horiz-adv-x="655" 
d="M173 167l-57 -167h-102l259 715h112l255 -715h-111l-57 167h-299zM202 251h241l-120 352zM36 507l-16 208h113l-16 -208h-81z" />
    <glyph glyph-name="uni0387" unicode="&#x387;" horiz-adv-x="301" 
d="M152 400q30 0 51 -21.5t21 -51.5t-21 -51.5t-51 -21.5q-31 0 -52.5 21t-21.5 52t21.5 52t52.5 21z" />
    <glyph glyph-name="Epsilontonos" unicode="&#x388;" horiz-adv-x="718" 
d="M179 0v715h470v-86h-365v-226h296v-84h-296v-233h383v-86h-488zM16 507l-16 208h113l-16 -208h-81z" />
    <glyph glyph-name="Etatonos" unicode="&#x389;" horiz-adv-x="818" 
d="M179 0v715h105v-315h337v315h105v-715h-105v314h-337v-314h-105zM16 507l-16 208h113l-16 -208h-81z" />
    <glyph glyph-name="Iotatonos" unicode="&#x38a;" horiz-adv-x="388" 
d="M179 0v715h105v-715h-105zM16 507l-16 208h113l-16 -208h-81z" />
    <glyph glyph-name="Omicrontonos" unicode="&#x38c;" horiz-adv-x="866" 
d="M469 725q143 0 237.5 -104t94.5 -262q0 -161 -93.5 -265t-239.5 -104t-242 104.5t-96 263.5q0 160 95.5 263.5t243.5 103.5zM468 639q-104 0 -166.5 -76.5t-62.5 -205.5q0 -127 62.5 -204t165.5 -77q105 0 165 74.5t60 204.5q0 127 -61.5 205.5t-162.5 78.5zM16 507
l-16 208h113l-16 -208h-81z" />
    <glyph glyph-name="Upsilontonos" unicode="&#x38e;" horiz-adv-x="741" 
d="M410 0v298l-250 417h119l186 -327l180 327h108l-238 -416v-299h-105zM16 507l-16 208h113l-16 -208h-81z" />
    <glyph glyph-name="Omegatonos" unicode="&#x38f;" horiz-adv-x="884" 
d="M112 0v77h137q-116 101 -116 281q0 166 94 266.5t248 100.5t248 -100.5t94 -266.5q0 -180 -116 -281h137v-77h-299v80q64 7 105 53q64 76 64 216q0 138 -61.5 214t-171.5 76t-171.5 -76t-61.5 -214q0 -149 71 -223q38 -41 98 -46v-80h-299zM16 507l-16 208h113l-16 -208
h-81z" />
    <glyph glyph-name="iotadieresistonos" unicode="&#x390;" horiz-adv-x="295" 
d="M90 523h105v-377q0 -38 10.5 -52t38.5 -14q11 0 23 2v-82q-31 -4 -52 -4q-67 0 -96 35.5t-29 116.5v375zM1 732q23 0 40.5 -18t17.5 -41t-17.5 -40.5t-40.5 -17.5q-24 0 -41.5 17.5t-17.5 41.5q0 23 17.5 40.5t41.5 17.5zM108 587l-16 176h105l-16 -176h-73zM288 732
q24 0 41.5 -18t17.5 -41t-18 -40.5t-41 -17.5t-40.5 17.5t-17.5 40.5q0 24 17.5 41.5t40.5 17.5z" />
    <glyph glyph-name="Alpha" unicode="&#x391;" horiz-adv-x="655" 
d="M173 167l-57 -167h-102l259 715h112l255 -715h-111l-57 167h-299zM202 251h241l-120 352z" />
    <glyph glyph-name="Beta" unicode="&#x392;" horiz-adv-x="693" 
d="M92 0v715h286q114 0 173 -48t59 -141q0 -55 -22.5 -90t-75.5 -62q70 -23 102.5 -64t32.5 -107q0 -97 -64.5 -150t-182.5 -53h-308zM197 84h209q66 0 101.5 31.5t35.5 90.5q0 120 -145 120h-201v-242zM197 410h196q113 0 113 113q0 56 -31 82t-97 26h-181v-221z" />
    <glyph glyph-name="Gamma" unicode="&#x393;" horiz-adv-x="541" 
d="M92 0v715h427v-86h-322v-629h-105z" />
    <glyph glyph-name="uni0394" unicode="&#x394;" horiz-adv-x="677" 
d="M8 0l272 715h120l268 -715h-660zM138 84h391l-195 529z" />
    <glyph glyph-name="Epsilon" unicode="&#x395;" horiz-adv-x="631" 
d="M92 0v715h470v-86h-365v-226h296v-84h-296v-233h383v-86h-488z" />
    <glyph glyph-name="Zeta" unicode="&#x396;" horiz-adv-x="608" 
d="M54 0v92l371 537h-351v86h466v-99l-365 -530h371v-86h-492z" />
    <glyph glyph-name="Eta" unicode="&#x397;" horiz-adv-x="731" 
d="M92 0v715h105v-315h337v315h105v-715h-105v314h-337v-314h-105z" />
    <glyph glyph-name="Theta" unicode="&#x398;" horiz-adv-x="801" 
d="M253 321v81h294v-81h-294zM405 725q142 0 236.5 -104t94.5 -262q0 -161 -93.5 -265t-239.5 -104t-242 104.5t-96 263.5q0 160 96 263.5t244 103.5zM403 639q-104 0 -166.5 -76.5t-62.5 -205.5q0 -127 62.5 -204t165.5 -77q105 0 165 74.5t60 204.5q0 127 -62 205.5
t-162 78.5z" />
    <glyph glyph-name="Iota" unicode="&#x399;" horiz-adv-x="313" 
d="M104 0v715h105v-715h-105z" />
    <glyph glyph-name="Kappa" unicode="&#x39a;" horiz-adv-x="659" 
d="M92 0v715h105v-347l296 347h120l-258 -299l272 -416h-118l-223 340l-89 -103v-237h-105z" />
    <glyph glyph-name="Lambda" unicode="&#x39b;" horiz-adv-x="632" 
d="M18 0l253 715h94l249 -715h-109l-193 577l-194 -577h-100z" />
    <glyph glyph-name="Mu" unicode="&#x39c;" horiz-adv-x="903" 
d="M92 715h161l201 -577l198 577h159v-715h-105v608l-210 -608h-90l-215 608v-608h-99v715z" />
    <glyph glyph-name="Nu" unicode="&#x39d;" horiz-adv-x="731" 
d="M92 0v715h134l314 -585v585h99v-715h-136l-312 580v-580h-99z" />
    <glyph glyph-name="Xi" unicode="&#x39e;" horiz-adv-x="595" 
d="M54 0v86h487v-86h-487zM54 629v86h487v-86h-487zM106 320v84h383v-84h-383z" />
    <glyph glyph-name="Omicron" unicode="&#x39f;" horiz-adv-x="801" 
d="M404 725q143 0 237.5 -104t94.5 -262q0 -161 -93.5 -265t-239.5 -104t-242 104.5t-96 263.5q0 160 95.5 263.5t243.5 103.5zM403 639q-104 0 -166.5 -76.5t-62.5 -205.5q0 -127 62.5 -204t165.5 -77q105 0 165 74.5t60 204.5q0 127 -61.5 205.5t-162.5 78.5z" />
    <glyph glyph-name="Pi" unicode="&#x3a0;" horiz-adv-x="712" 
d="M92 0v629h-60v86h648v-86h-61v-629h-105v629h-317v-629h-105z" />
    <glyph glyph-name="Rho" unicode="&#x3a1;" horiz-adv-x="663" 
d="M92 0v715h279q115 0 177.5 -56.5t62.5 -159.5q0 -100 -62.5 -155t-175.5 -55h-176v-289h-105zM197 373h176q65 0 99.5 33.5t34.5 97.5q0 127 -134 127h-176v-258z" />
    <glyph glyph-name="Sigma" unicode="&#x3a3;" horiz-adv-x="612" 
d="M54 0v92l209 271l-193 254v98h482v-86h-372l199 -262l-216 -281h417v-86h-526z" />
    <glyph glyph-name="Tau" unicode="&#x3a4;" horiz-adv-x="577" 
d="M236 0v629h-216v86h537v-86h-216v-629h-105z" />
    <glyph glyph-name="Upsilon" unicode="&#x3a5;" horiz-adv-x="569" 
d="M238 0v298l-250 417h119l186 -327l180 327h108l-238 -416v-299h-105z" />
    <glyph glyph-name="Phi" unicode="&#x3a6;" horiz-adv-x="871" 
d="M385 -22v69q-144 14 -232 99.5t-88 211.5q0 125 88 210.5t232 99.5v69h101v-69q144 -14 232 -99.5t88 -210.5q0 -126 -88 -211.5t-232 -99.5v-69h-101zM486 587v-459q103 13 157 72t54 157t-54 157.5t-157 72.5zM385 128v459q-103 -13 -157 -72t-54 -157t54 -157.5
t157 -72.5z" />
    <glyph glyph-name="Chi" unicode="&#x3a7;" horiz-adv-x="646" 
d="M25 0l238 367l-221 348h123l165 -265l164 265h111l-220 -346l235 -369h-122l-180 288l-181 -288h-112z" />
    <glyph glyph-name="Psi" unicode="&#x3a8;" horiz-adv-x="851" 
d="M792 715v-262q0 -74 -11 -118.5t-38 -78.5q-34 -44 -84 -63.5t-129 -19.5h-52v-173h-105v173h-51q-79 0 -129.5 19.5t-84.5 64.5q-27 34 -38 78t-11 118v262h105v-276q0 -99 40 -139.5t138 -40.5h31v456h105v-456h33q97 0 136.5 40.5t39.5 139.5v276h105z" />
    <glyph glyph-name="uni03A9" unicode="&#x3a9;" horiz-adv-x="818" 
d="M46 0v77h137q-116 101 -116 281q0 166 94 266.5t248 100.5t248 -100.5t94 -266.5q0 -180 -116 -281h137v-77h-299v80q64 7 105 53q64 76 64 216q0 138 -61.5 214t-171.5 76t-171.5 -76t-61.5 -214q0 -149 71 -223q38 -41 98 -46v-80h-299z" />
    <glyph glyph-name="Iotadieresis" unicode="&#x3aa;" horiz-adv-x="313" 
d="M60 903q25 0 43 -18t18 -43t-18 -43t-43 -18t-43 18t-18 43t18 43t43 18zM252 903q24 0 42.5 -18.5t18.5 -42.5q0 -25 -18 -43t-43 -18t-43 18t-18 43t18 43t43 18zM104 0v715h105v-715h-105z" />
    <glyph glyph-name="Upsilondieresis" unicode="&#x3ab;" horiz-adv-x="569" 
d="M238 0v298l-250 417h119l186 -327l180 327h108l-238 -416v-299h-105zM198 903q25 0 43 -18t18 -43t-18 -43t-43 -18t-43 18t-18 43t18 43t43 18zM390 903q24 0 42.5 -18.5t18.5 -42.5q0 -25 -18 -43t-43 -18t-43 18t-18 43t18 43t43 18z" />
    <glyph glyph-name="alphatonos" unicode="&#x3ac;" horiz-adv-x="610" 
d="M522 0h-105v84q-55 -94 -162 -94q-96 0 -150.5 71.5t-54.5 197.5q0 125 56.5 199.5t152.5 74.5q103 0 158 -88v78h105v-523zM287 449q-128 0 -128 -192q0 -183 121 -183q67 0 104 49t37 137q0 87 -36 138t-98 51zM253 587l-16 176h113l-16 -176h-81z" />
    <glyph glyph-name="epsilontonos" unicode="&#x3ad;" horiz-adv-x="546" 
d="M507 430l-76 -55q-31 42 -59.5 58t-69.5 16q-125 0 -143 -147h229v-77h-229q15 -151 149 -151q44 0 73.5 16.5t60.5 57.5l77 -48q-75 -110 -213 -110q-116 0 -186 74t-70 197q0 124 68 198t181 74q133 0 208 -103zM253 587l-16 176h113l-16 -176h-81z" />
    <glyph glyph-name="etatonos" unicode="&#x3ae;" horiz-adv-x="608" 
d="M88 0v523h105v-81q48 91 157 91q82 0 127 -53.5t45 -151.5v-510h-105v505q0 63 -24 92.5t-76 29.5q-57 0 -90.5 -35.5t-33.5 -96.5v-313h-105zM275 587l-16 176h113l-16 -176h-81z" />
    <glyph glyph-name="iotatonos" unicode="&#x3af;" horiz-adv-x="295" 
d="M90 523h105v-377q0 -38 10.5 -52t38.5 -14q11 0 23 2v-82q-31 -4 -52 -4q-67 0 -96 35.5t-29 116.5v375zM104 587l-16 176h113l-16 -176h-81z" />
    <glyph glyph-name="upsilondieresistonos" unicode="&#x3b0;" horiz-adv-x="593" 
d="M84 523h105v-294q0 -84 24.5 -119.5t83.5 -35.5q58 0 82.5 35.5t24.5 119.5v294h105v-289q0 -131 -49.5 -187.5t-163.5 -56.5q-113 0 -162.5 57t-49.5 187v289zM153 732q23 0 40.5 -18t17.5 -41t-17.5 -40.5t-40.5 -17.5q-24 0 -41.5 17.5t-17.5 41.5q0 23 17.5 40.5
t41.5 17.5zM260 587l-16 176h105l-16 -176h-73zM440 732q24 0 41.5 -18t17.5 -41t-18 -40.5t-41 -17.5t-40.5 17.5t-17.5 40.5q0 24 17.5 41.5t40.5 17.5z" />
    <glyph glyph-name="alpha" unicode="&#x3b1;" horiz-adv-x="610" 
d="M522 0h-105v84q-55 -94 -162 -94q-96 0 -150.5 71.5t-54.5 197.5q0 125 56.5 199.5t152.5 74.5q103 0 158 -88v78h105v-523zM287 449q-128 0 -128 -192q0 -183 121 -183q67 0 104 49t37 137q0 87 -36 138t-98 51z" />
    <glyph glyph-name="beta" unicode="&#x3b2;" horiz-adv-x="635" 
d="M94 -182v690q0 114 39 171q58 86 186 86q97 0 155 -49.5t58 -132.5q0 -107 -106 -147q159 -48 159 -217q0 -107 -54 -168t-149 -61q-52 0 -92 17v84q35 -17 73 -17q113 0 113 146q0 116 -80 153q-31 15 -90 15v82q66 1 95.5 27t29.5 82q0 105 -113 105q-75 0 -101 -55
q-18 -37 -18 -118v-693h-105z" />
    <glyph glyph-name="gamma" unicode="&#x3b3;" horiz-adv-x="512" 
d="M315 -182h-105v182l-196 523h113l138 -388l126 388h107l-183 -523v-182z" />
    <glyph glyph-name="delta" unicode="&#x3b4;" horiz-adv-x="602" 
d="M495 691l-52 -62q-56 57 -128 57q-41 0 -63.5 -18t-22.5 -51q0 -32 20.5 -49.5t76.5 -32.5q70 -20 99.5 -34t57.5 -42q69 -69 69 -190q0 -125 -69.5 -202t-181.5 -77q-111 0 -181 75t-70 194q0 173 150 242q-69 42 -69 115q0 69 48.5 109t132.5 40q59 0 101 -17t82 -57z
M302 452q-66 0 -104.5 -50.5t-38.5 -137.5q0 -90 37.5 -140t105.5 -50q65 0 103 50.5t38 138.5q0 87 -38 138t-103 51z" />
    <glyph glyph-name="epsilon" unicode="&#x3b5;" horiz-adv-x="546" 
d="M507 430l-76 -55q-31 42 -59.5 58t-69.5 16q-125 0 -143 -147h229v-77h-229q15 -151 149 -151q44 0 73.5 16.5t60.5 57.5l77 -48q-75 -110 -213 -110q-116 0 -186 74t-70 197q0 124 68 198t181 74q133 0 208 -103z" />
    <glyph glyph-name="zeta" unicode="&#x3b6;" horiz-adv-x="471" 
d="M94 669v84h337v-91q-88 -89 -134 -146q-124 -157 -124 -294q0 -86 38 -119q25 -23 64 -23h14q71 0 113.5 -47t42.5 -126q0 -40 -17 -92h-95q16 51 16 83q0 102 -97 102h-15q-32 0 -64.5 13t-53.5 34q-55 55 -55 161q0 157 145 323q54 60 144 138h-259z" />
    <glyph glyph-name="eta" unicode="&#x3b7;" horiz-adv-x="608" 
d="M88 0v523h105v-81q48 91 157 91q82 0 127 -53.5t45 -151.5v-510h-105v505q0 63 -24 92.5t-76 29.5q-57 0 -90.5 -35.5t-33.5 -96.5v-313h-105z" />
    <glyph glyph-name="theta" unicode="&#x3b8;" horiz-adv-x="610" 
d="M307 763q109 0 179 -109t70 -278q0 -170 -70.5 -278t-180.5 -108t-180.5 109t-70.5 279q0 159 64 268q68 117 189 117zM160 428h290q-7 118 -45.5 184.5t-99.5 66.5t-98.5 -65t-46.5 -186zM451 351h-292q5 -129 44 -203t102 -74q62 0 102.5 76.5t43.5 200.5z" />
    <glyph glyph-name="iota" unicode="&#x3b9;" horiz-adv-x="295" 
d="M90 523h105v-377q0 -38 10.5 -52t38.5 -14q11 0 23 2v-82q-31 -4 -52 -4q-67 0 -96 35.5t-29 116.5v375z" />
    <glyph glyph-name="kappa" unicode="&#x3ba;" horiz-adv-x="565" 
d="M88 0v523h105v-252l211 252h120l-178 -203l201 -320h-117l-154 244l-83 -94v-150h-105z" />
    <glyph glyph-name="lambda" unicode="&#x3bb;" horiz-adv-x="539" 
d="M18 0l203 529l-78 224h107l268 -753h-110l-141 402l-143 -402h-106z" />
    <glyph glyph-name="uni03BC" unicode="&#x3bc;" horiz-adv-x="615" 
d="M92 -182v705h105v-311q0 -72 21 -101q26 -32 79 -32q58 0 91.5 35t33.5 95v314h105v-523h-105v80q-49 -90 -153 -90q-42 0 -72 17v-189h-105z" />
    <glyph glyph-name="nu" unicode="&#x3bd;" horiz-adv-x="512" 
d="M198 0l-180 523h112l131 -415l129 415h104l-177 -523h-119z" />
    <glyph glyph-name="xi" unicode="&#x3be;" horiz-adv-x="482" 
d="M75 669v84h380v-84h-42q-209 0 -209 -123q0 -51 34 -78t99 -27h66v-84h-66q-85 0 -122 -29q-50 -38 -50 -121q0 -79 46 -109q21 -14 83 -20q48 -4 76.5 -15.5t49.5 -35.5q40 -45 40 -119q0 -41 -16 -93h-96q16 51 16 81q0 55 -30 80q-21 17 -77 21q-81 5 -124 34
q-77 50 -77 169q0 160 150 203q-46 15 -71 40q-36 36 -36 87q0 91 117 139h-141z" />
    <glyph glyph-name="omicron" unicode="&#x3bf;" horiz-adv-x="607" 
d="M306 533q109 0 180 -76.5t71 -193.5q0 -119 -71.5 -196t-182.5 -77q-110 0 -181.5 76t-71.5 194q0 120 71.5 196.5t184.5 76.5zM306 449q-70 0 -108.5 -49.5t-38.5 -138.5q0 -87 38.5 -137t104.5 -50q68 0 107 50t39 138q0 86 -38.5 136.5t-103.5 50.5z" />
    <glyph glyph-name="pi" unicode="&#x3c0;" horiz-adv-x="601" 
d="M97 0v439h-57v84h521v-84h-58v-439h-105v439h-196v-439h-105z" />
    <glyph glyph-name="rho" unicode="&#x3c1;" horiz-adv-x="600" 
d="M230 -182h-104q-70 231 -70 417q0 149 73 228q65 70 172 70q109 0 179 -76t70 -195t-69 -195.5t-176 -76.5q-85 0 -142 66q35 -138 67 -238zM303 449q-67 0 -103.5 -49.5t-36.5 -138.5q0 -87 36.5 -137t100.5 -50q65 0 103 50t38 137t-37 137.5t-101 50.5z" />
    <glyph glyph-name="uni03C2" unicode="&#x3c2;" horiz-adv-x="492" 
d="M417 -185h-92q18 52 18 97t-19 67q-15 15 -68 19q-64 6 -83 13q-123 43 -123 233q0 133 61 211t165 78q127 0 189 -122l-85 -48q-23 48 -45.5 67t-56.5 19q-58 0 -88.5 -51t-30.5 -146q0 -104 41 -142q14 -14 31 -19.5t54 -9.5q48 -4 73 -15t44 -35q31 -40 31 -113
q0 -49 -16 -103z" />
    <glyph glyph-name="sigma" unicode="&#x3c3;" horiz-adv-x="599" 
d="M565 523v-86l-118 6q83 -74 83 -188q0 -116 -67.5 -190.5t-171.5 -74.5q-107 0 -174 75.5t-67 196.5q0 123 67.5 197t180.5 74q33 0 74 -5q50 -5 66 -5h127zM292 449q-62 0 -97.5 -50.5t-35.5 -137.5q0 -85 36 -136t95 -51t95 52t36 137q0 84 -35.5 135t-93.5 51z" />
    <glyph glyph-name="tau" unicode="&#x3c4;" horiz-adv-x="436" 
d="M165 0v439h-156v84h418v-84h-157v-439h-105z" />
    <glyph glyph-name="upsilon" unicode="&#x3c5;" horiz-adv-x="593" 
d="M84 523h105v-294q0 -84 24.5 -119.5t83.5 -35.5q58 0 82.5 35.5t24.5 119.5v294h105v-289q0 -131 -49.5 -187.5t-163.5 -56.5q-113 0 -162.5 57t-49.5 187v289z" />
    <glyph glyph-name="phi" unicode="&#x3c6;" horiz-adv-x="748" 
d="M319 -182v176q-126 17 -197.5 87.5t-71.5 176.5q0 149 145 232l49 -67q-85 -56 -85 -162q0 -76 41.5 -124.5t118.5 -63.5v455q35 5 66 5q136 0 224.5 -76.5t88.5 -193.5q0 -112 -73.5 -182.5t-204.5 -86.5v-176h-101zM420 452v-379q82 13 125.5 61t43.5 128
q0 77 -45.5 128.5t-123.5 61.5z" />
    <glyph glyph-name="chi" unicode="&#x3c7;" horiz-adv-x="520" 
d="M0 -182l200 377l-173 328h115l125 -242l128 242h103l-178 -335l195 -370h-115l-148 285l-150 -285h-102z" />
    <glyph glyph-name="psi" unicode="&#x3c8;" horiz-adv-x="817" 
d="M733 523v-255q0 -134 -45 -194q-31 -44 -76 -63.5t-116 -19.5h-35v-173h-105v173h-34q-71 0 -117 19.5t-77 63.5q-44 60 -44 194v255h105v-271q0 -96 34.5 -135.5t118.5 -39.5h14v446h105v-446h15q84 0 118 39.5t34 135.5v271h105z" />
    <glyph glyph-name="omega" unicode="&#x3c9;" horiz-adv-x="765" 
d="M184 533l65 -48q-86 -106 -86 -244q0 -79 26.5 -123t74.5 -44q44 0 61 51q8 27 8 97v168h99v-168q0 -75 11 -104q17 -44 58 -44q48 0 74.5 44t26.5 123q0 138 -86 244l65 48q68 -62 99 -130.5t31 -156.5q0 -117 -54 -186.5t-145 -69.5q-45 0 -75.5 21t-53.5 69
q-24 -48 -54.5 -69t-75.5 -21q-91 0 -145 69.5t-54 186.5q0 88 31 156.5t99 130.5z" />
    <glyph glyph-name="iotadieresis" unicode="&#x3ca;" horiz-adv-x="295" 
d="M90 523h105v-377q0 -38 10.5 -52t38.5 -14q11 0 23 2v-82q-31 -4 -52 -4q-67 0 -96 35.5t-29 116.5v375zM51 733q25 0 43 -18t18 -43t-18 -43t-43 -18t-43 18t-18 43t18 43t43 18zM243 733q24 0 42.5 -18.5t18.5 -42.5q0 -25 -18 -43t-43 -18t-43 18t-18 43t18 43t43 18z
" />
    <glyph glyph-name="upsilondieresis" unicode="&#x3cb;" horiz-adv-x="593" 
d="M84 523h105v-294q0 -84 24.5 -119.5t83.5 -35.5q58 0 82.5 35.5t24.5 119.5v294h105v-289q0 -131 -49.5 -187.5t-163.5 -56.5q-113 0 -162.5 57t-49.5 187v289zM201 733q25 0 43 -18t18 -43t-18 -43t-43 -18t-43 18t-18 43t18 43t43 18zM393 733q24 0 42.5 -18.5
t18.5 -42.5q0 -25 -18 -43t-43 -18t-43 18t-18 43t18 43t43 18z" />
    <glyph glyph-name="omicrontonos" unicode="&#x3cc;" horiz-adv-x="607" 
d="M306 533q109 0 180 -76.5t71 -193.5q0 -119 -71.5 -196t-182.5 -77q-110 0 -181.5 76t-71.5 194q0 120 71.5 196.5t184.5 76.5zM306 449q-70 0 -108.5 -49.5t-38.5 -138.5q0 -87 38.5 -137t104.5 -50q68 0 107 50t39 138q0 86 -38.5 136.5t-103.5 50.5zM263 587l-16 176
h113l-16 -176h-81z" />
    <glyph glyph-name="upsilontonos" unicode="&#x3cd;" horiz-adv-x="593" 
d="M84 523h105v-294q0 -84 24.5 -119.5t83.5 -35.5q58 0 82.5 35.5t24.5 119.5v294h105v-289q0 -131 -49.5 -187.5t-163.5 -56.5q-113 0 -162.5 57t-49.5 187v289zM256 587l-16 176h113l-16 -176h-81z" />
    <glyph glyph-name="omegatonos" unicode="&#x3ce;" horiz-adv-x="765" 
d="M184 533l65 -48q-86 -106 -86 -244q0 -79 26.5 -123t74.5 -44q44 0 61 51q8 27 8 97v168h99v-168q0 -75 11 -104q17 -44 58 -44q48 0 74.5 44t26.5 123q0 138 -86 244l65 48q68 -62 99 -130.5t31 -156.5q0 -117 -54 -186.5t-145 -69.5q-45 0 -75.5 21t-53.5 69
q-24 -48 -54.5 -69t-75.5 -21q-91 0 -145 69.5t-54 186.5q0 88 31 156.5t99 130.5zM342 587l-16 176h113l-16 -176h-81z" />
    <glyph glyph-name="phi1" unicode="&#x3d5;" horiz-adv-x="748" 
d="M319 528v230h100v-227q66 -3 136 -38q67 -33 105 -94t38 -136q0 -112 -73.5 -182.5t-204.5 -86.5v-176h-101v176q-126 17 -197.5 87.5t-71.5 176.5q0 120 96 201q56 47 173 69zM319 73v376q-90 -25 -122 -68q-38 -47 -38 -120q0 -76 41.5 -124.5t118.5 -63.5zM420 452
v-379q82 13 125.5 61t43.5 128q0 77 -45.5 128.5t-123.5 61.5z" />
    <glyph glyph-name="uni0400" unicode="&#x400;" horiz-adv-x="631" 
d="M92 0v715h470v-86h-365v-226h296v-84h-296v-233h383v-86h-488zM304 779l-109 166h128l53 -166h-72z" />
    <glyph glyph-name="afii10023" unicode="&#x401;" horiz-adv-x="627" 
d="M91 0v715h471v-88h-364v-224h295v-84h-295v-231h382v-88h-489zM241 898q23 0 41 -18t18 -42q0 -23 -18 -41t-41 -18q-24 0 -42 18t-18 41q0 25 18 42.5t42 17.5zM429 898q23 0 41 -18t18 -41q0 -24 -18 -42t-42 -18t-41.5 17.5t-17.5 41.5q0 25 17.5 42.5t42.5 17.5z" />
    <glyph glyph-name="afii10051" unicode="&#x402;" horiz-adv-x="796" 
d="M306 0h-108v627h-195v88h573v-88h-270v-245q71 85 198 85q112 0 163 -65.5t51 -209.5v-54q0 -183 -48.5 -249t-185.5 -71l-5 80q40 3 60 11t34 27q33 46 33 199v50q0 106 -29.5 150t-99.5 44q-65 0 -106 -28t-65 -88v-263z" />
    <glyph glyph-name="afii10052" unicode="&#x403;" horiz-adv-x="542" 
d="M91 0v715h428v-88h-321v-627h-107zM262 779l53 166h130l-110 -166h-73z" />
    <glyph glyph-name="afii10053" unicode="&#x404;" horiz-adv-x="699" 
d="M665 554l-92 -37q-51 121 -178 121q-139 0 -194 -134q-15 -37 -22 -102h326v-83h-327q8 -77 28 -121q58 -120 191 -120q132 0 181 122l93 -40q-80 -170 -282 -170q-147 0 -235.5 99t-88.5 264q0 169 90 271t238 102q195 0 272 -172z" />
    <glyph glyph-name="afii10054" unicode="&#x405;" horiz-adv-x="657" 
d="M47 181l98 28q40 -132 186 -132q71 0 113.5 32t42.5 86q0 52 -37 79.5t-140 50.5q-113 26 -161 59q-73 50 -73 144q0 90 64.5 143t174.5 53q187 0 256 -158l-92 -33q-28 57 -65.5 80.5t-100.5 23.5q-136 0 -136 -99q0 -49 33.5 -72.5t139.5 -46.5q109 -24 159 -58
q82 -54 82 -159q0 -98 -70 -155t-190 -57q-114 0 -190 56q-65 47 -94 135z" />
    <glyph glyph-name="afii10055" unicode="&#x406;" horiz-adv-x="306" 
d="M99 0v715h108v-715h-108z" />
    <glyph glyph-name="afii10056" unicode="&#x407;" horiz-adv-x="315" 
d="M104 0v715h108v-715h-108zM67 898q23 0 41 -18t18 -42q0 -23 -18 -41t-41 -18q-24 0 -42 18t-18 41q0 25 18 42.5t42 17.5zM254 898q23 0 41 -18t18 -41q0 -24 -18 -42t-42 -18t-41.5 17.5t-17.5 41.5q0 25 17.5 42.5t42.5 17.5z" />
    <glyph glyph-name="afii10057" unicode="&#x408;" horiz-adv-x="581" 
d="M494 715v-473q0 -124 -56 -188t-166 -64q-103 0 -162.5 59t-59.5 160v48h106v-37q0 -143 113 -143q117 0 117 157v481h108z" />
    <glyph glyph-name="afii10058" unicode="&#x409;" horiz-adv-x="1029" 
d="M482 0v627h-264v-97q0 -180 -27 -322q-18 -105 -70 -208h-121q59 90 81 189q33 149 33 380v146h476v-291h142q130 0 190 -44q76 -57 76 -168q0 -121 -89 -176q-58 -36 -177 -36h-250zM590 86h154q150 0 150 126t-150 126h-154v-252z" />
    <glyph glyph-name="afii10059" unicode="&#x40a;" horiz-adv-x="1051" 
d="M91 0v715h108v-291h304v291h108v-291h142q130 0 190 -44q76 -57 76 -168q0 -121 -89 -176q-58 -36 -177 -36h-250v333h-304v-333h-108zM611 86h154q150 0 150 126t-150 126h-154v-252z" />
    <glyph glyph-name="afii10060" unicode="&#x40b;" horiz-adv-x="796" 
d="M306 0h-108v627h-195v88h573v-88h-270v-245q72 85 198 85q106 0 160.5 -58t54.5 -171v-238h-110v200q0 101 -28.5 140t-102.5 39q-66 0 -107.5 -28t-64.5 -88v-263z" />
    <glyph glyph-name="afii10061" unicode="&#x40c;" horiz-adv-x="653" 
d="M91 0v715h108v-314h26q59 0 84 21.5t60 105.5q31 72 47 100t37 49q42 40 126 40q22 0 44 -2v-86q-14 1 -32 1q-53 0 -73.5 -21t-58.5 -114q-26 -63 -44 -84.5t-63 -44.5q45 -12 79.5 -43t73.5 -94l139 -229h-128l-112 189q-51 84 -82.5 110.5t-82.5 26.5h-40v-326h-108z
M294 779l53 166h130l-110 -166h-73z" />
    <glyph glyph-name="uni040D" unicode="&#x40d;" horiz-adv-x="719" 
d="M92 0v715h101v-499l333 433v66h101v-715h-101v506l-333 -433v-73h-101zM327 779l-109 166h128l53 -166h-72z" />
    <glyph glyph-name="afii10062" unicode="&#x40e;" horiz-adv-x="585" 
d="M139 915h77q3 -73 80 -73q76 0 80 73h76q-5 -148 -156 -148q-154 0 -157 148zM257 160l-251 555h118l180 -429l150 429h110l-198 -539q-40 -109 -72 -141q-45 -46 -127 -46q-41 0 -79 11l21 85q27 -7 49 -7q41 0 62 17.5t37 64.5z" />
    <glyph glyph-name="afii10145" unicode="&#x40f;" horiz-adv-x="698" 
d="M92 0v715h108v-627h298v627h108v-715h-202l-14 -171h-82l-14 171h-202z" />
    <glyph glyph-name="afii10017" unicode="&#x410;" horiz-adv-x="655" 
d="M641 0h-112l-57 166h-298l-57 -166h-103l259 715h113zM444 250l-121 352l-121 -352h242z" />
    <glyph glyph-name="afii10018" unicode="&#x411;" horiz-adv-x="654" 
d="M91 0v715h459v-86h-352v-195h155q131 0 189 -45q77 -59 77 -172q0 -124 -89 -180q-57 -37 -177 -37h-262zM198 86h167q150 0 150 131t-150 131h-167v-262z" />
    <glyph glyph-name="afii10019" unicode="&#x412;" horiz-adv-x="693" 
d="M91 0v715h287q113 0 173 -49t60 -140q0 -56 -23 -91t-76 -60q70 -22 102.5 -63.5t32.5 -109.5q0 -96 -65 -149t-182 -53h-309zM198 86h207q67 0 102.5 31.5t35.5 90.5q0 119 -146 119h-199v-241zM198 410h194q116 0 116 112q0 55 -32 81t-99 26h-179v-219z" />
    <glyph glyph-name="afii10020" unicode="&#x413;" horiz-adv-x="542" 
d="M91 0v715h428v-88h-321v-627h-107z" />
    <glyph glyph-name="afii10021" unicode="&#x414;" horiz-adv-x="710" 
d="M589 0h-511l-14 -171h-83v259h69q42 72 59 181q25 153 25 348v98h475v-627h76v-259h-82zM502 87v540h-265v-49q0 -152 -24 -311q-16 -99 -49 -180h338z" />
    <glyph glyph-name="afii10022" unicode="&#x415;" horiz-adv-x="627" 
d="M91 0v715h471v-88h-364v-224h295v-84h-295v-231h382v-88h-489z" />
    <glyph glyph-name="afii10024" unicode="&#x416;" horiz-adv-x="917" 
d="M407 0v326q-58 -1 -88 -25t-82 -112l-105 -189h-126l131 229q39 65 70.5 95t73.5 42q-43 22 -61.5 49t-51.5 117q-23 60 -44 79t-66 19q-17 0 -31 -1v86q25 2 41 2q70 0 112 -31q21 -16 37 -42.5t40 -84.5q43 -108 66 -133t84 -26v315h104v-315q61 1 84 26t66 133
q24 58 40 84.5t37 42.5q42 31 112 31q15 0 41 -2v-86q-14 1 -32 1q-50 0 -69 -21t-53 -114q-25 -63 -42.5 -86t-57.5 -43q42 -13 73.5 -42.5t70.5 -94.5l131 -229h-126l-105 189q-52 88 -82 112t-88 25v-326h-104z" />
    <glyph glyph-name="afii10025" unicode="&#x417;" horiz-adv-x="668" 
d="M26 188l99 23q39 -134 195 -134q82 0 126 32.5t44 92.5q0 61 -45 94t-129 33h-94v86h89q77 0 119.5 29t42.5 82q0 52 -40 81.5t-110 29.5q-66 0 -106.5 -27t-65.5 -88l-90 25q58 177 270 177q112 0 181 -53.5t69 -139.5q0 -103 -113 -153q135 -43 135 -175
q0 -98 -76 -155.5t-205 -57.5q-146 0 -230 78q-50 46 -66 120z" />
    <glyph glyph-name="afii10026" unicode="&#x418;" horiz-adv-x="719" 
d="M91 0v715h103v-496l331 430v66h103v-715h-103v503l-331 -430v-73h-103z" />
    <glyph glyph-name="afii10027" unicode="&#x419;" horiz-adv-x="719" 
d="M91 0v715h103v-496l331 430v66h103v-715h-103v503l-331 -430v-73h-103zM208 915h76q4 -73 80 -73t80 73h76q-3 -148 -156 -148t-156 148z" />
    <glyph glyph-name="afii10028" unicode="&#x41a;" horiz-adv-x="653" 
d="M91 0v715h108v-314h26q59 0 84 21.5t60 105.5q31 72 47 100t37 49q42 40 126 40q22 0 44 -2v-86q-14 1 -32 1q-53 0 -73.5 -21t-58.5 -114q-26 -63 -44 -84.5t-63 -44.5q45 -12 79.5 -43t73.5 -94l139 -229h-128l-112 189q-51 84 -82.5 110.5t-82.5 26.5h-40v-326h-108z
" />
    <glyph glyph-name="afii10029" unicode="&#x41b;" horiz-adv-x="681" 
d="M481 0v627h-263v-96q0 -181 -27 -323q-18 -105 -70 -208h-121q59 90 81 189q33 150 33 380v146h475v-715h-108z" />
    <glyph glyph-name="afii10030" unicode="&#x41c;" horiz-adv-x="906" 
d="M91 0v715h161l202 -574l199 574h161v-715h-107v606l-211 -606h-91l-216 606v-606h-98z" />
    <glyph glyph-name="afii10031" unicode="&#x41d;" horiz-adv-x="731" 
d="M91 0v715h108v-314h332v314h108v-715h-108v310h-332v-310h-108z" />
    <glyph glyph-name="afii10032" unicode="&#x41e;" horiz-adv-x="802" 
d="M401 724q146 0 240.5 -103.5t94.5 -263.5t-94.5 -263.5t-240.5 -103.5q-148 0 -242 104t-94 266q0 158 95.5 261t240.5 103zM401 636q-100 0 -161.5 -76t-61.5 -200q0 -129 60.5 -205.5t161.5 -76.5t162 76.5t61 202.5t-61 202.5t-161 76.5z" />
    <glyph glyph-name="afii10033" unicode="&#x41f;" horiz-adv-x="719" 
d="M91 0v715h537v-715h-108v624h-321v-624h-108z" />
    <glyph glyph-name="afii10034" unicode="&#x420;" horiz-adv-x="664" 
d="M91 0v715h269q124 0 188.5 -55t64.5 -161q0 -100 -62.5 -154.5t-175.5 -54.5h-176v-290h-108zM199 373h162q145 0 145 130q0 126 -141 126h-166v-256z" />
    <glyph glyph-name="afii10035" unicode="&#x421;" horiz-adv-x="728" 
d="M583 238l96 -37q-40 -107 -105 -155q-74 -56 -183 -56q-147 0 -236.5 100.5t-89.5 265.5t90.5 267.5t236.5 102.5q125 0 200 -73q45 -45 79 -131l-95 -36q-28 81 -71 116.5t-113 35.5q-100 0 -157 -75t-57 -206q0 -132 57 -205.5t159 -73.5q73 0 118 38t71 122z" />
    <glyph glyph-name="afii10036" unicode="&#x422;" horiz-adv-x="588" 
d="M563 715v-88h-214v-627h-108v627h-216v88h538z" />
    <glyph glyph-name="afii10037" unicode="&#x423;" horiz-adv-x="585" 
d="M257 160l-251 555h118l180 -429l150 429h110l-198 -539q-40 -109 -72 -141q-45 -46 -127 -46q-41 0 -79 11l21 85q27 -7 49 -7q41 0 62 17.5t37 64.5z" />
    <glyph glyph-name="afii10038" unicode="&#x424;" horiz-adv-x="884" 
d="M391 -32v105q-124 7 -199 53q-61 37 -94 97t-33 135q0 74 33 134t94 97q75 46 199 53v105h100v-105q124 -7 199 -53q61 -37 94 -97t33 -134q0 -75 -33 -135t-94 -97q-75 -46 -199 -53v-105h-100zM391 153v409q-113 -11 -163.5 -59.5t-50.5 -144.5q0 -97 50.5 -145.5
t163.5 -59.5zM491 562v-409q113 11 163.5 59.5t50.5 145.5q0 96 -50.5 144.5t-163.5 59.5z" />
    <glyph glyph-name="afii10039" unicode="&#x425;" horiz-adv-x="648" 
d="M25 0l237 367l-221 348h126l163 -264l163 264h113l-219 -346l235 -369h-125l-179 287l-179 -287h-114z" />
    <glyph glyph-name="afii10040" unicode="&#x426;" horiz-adv-x="707" 
d="M91 0v715h108v-627h298v627h108v-627h77v-259h-83l-15 171h-493z" />
    <glyph glyph-name="afii10041" unicode="&#x427;" horiz-adv-x="675" 
d="M584 0h-108v274q-60 -78 -191 -78q-102 0 -155.5 53.5t-53.5 155.5v310h108v-306q0 -65 31.5 -94.5t101.5 -29.5q73 0 116 36t43 97v297h108v-715z" />
    <glyph glyph-name="afii10042" unicode="&#x428;" horiz-adv-x="1032" 
d="M91 0v715h108v-627h263v627h108v-627h263v627h108v-715h-850z" />
    <glyph glyph-name="afii10043" unicode="&#x429;" horiz-adv-x="1043" 
d="M91 0v715h108v-627h263v627h108v-627h263v627h108v-627h77v-259h-83l-15 171h-829z" />
    <glyph glyph-name="afii10044" unicode="&#x42a;" horiz-adv-x="731" 
d="M184 0v627h-179v88h286v-266h143q130 0 190 -47q76 -60 76 -177q0 -129 -89 -187q-58 -38 -177 -38h-250zM291 86h155q150 0 150 139q0 138 -150 138h-155v-277z" />
    <glyph glyph-name="afii10045" unicode="&#x42b;" horiz-adv-x="910" 
d="M91 0v715h107v-266h143q130 0 190 -47q76 -60 76 -177q0 -129 -89 -187q-58 -38 -177 -38h-250zM198 86h155q150 0 150 139q0 138 -150 138h-155v-277zM710 0v715h108v-715h-108z" />
    <glyph glyph-name="afii10046" unicode="&#x42c;" horiz-adv-x="639" 
d="M91 0v715h107v-266h143q130 0 190 -47q76 -60 76 -177q0 -129 -89 -187q-58 -38 -177 -38h-250zM198 86h155q150 0 150 139q0 138 -150 138h-155v-277z" />
    <glyph glyph-name="afii10047" unicode="&#x42d;" horiz-adv-x="689" 
d="M181 319v83h330q-23 236 -204 236q-128 0 -187 -119l-86 41q84 166 275 166q145 0 230 -101t85 -273q0 -167 -86.5 -264.5t-235.5 -97.5q-133 0 -214 78q-32 30 -62 87l91 41q54 -118 182 -118q192 0 212 241h-330z" />
    <glyph glyph-name="afii10048" unicode="&#x42e;" horiz-adv-x="1069" 
d="M91 0v715h108v-314h160q15 147 103 235t219 88q141 0 232 -103.5t91 -263.5t-90.5 -263.5t-230.5 -103.5q-129 0 -218.5 88.5t-105.5 231.5h-160v-310h-108zM680 636q-95 0 -153 -76.5t-58 -203.5q0 -125 58.5 -201.5t154.5 -76.5q97 0 153 73.5t56 200.5
q0 129 -57.5 206.5t-153.5 77.5z" />
    <glyph glyph-name="afii10049" unicode="&#x42f;" horiz-adv-x="703" 
d="M611 0h-108v298h-136q-82 0 -119 -34q-19 -18 -28 -40.5t-22 -81.5q-20 -98 -50 -142h-106v4q34 56 59 179q14 66 41 98.5t83 49.5q-76 20 -110 65q-36 46 -36 119q0 101 71 157q57 43 179 43h282v-715zM503 381v248h-182q-72 0 -105 -28.5t-33 -91.5q0 -128 144 -128
h176z" />
    <glyph glyph-name="afii10065" unicode="&#x430;" horiz-adv-x="554" 
d="M524 75v-77q-27 -3 -37 -3q-89 0 -115 77q-63 -82 -160 -82q-73 0 -118.5 41t-45.5 107q0 116 135 155q66 18 182 21v27q0 56 -23.5 82t-74.5 26q-76 0 -149 -62l-54 68q89 78 210 78q95 0 145.5 -49t50.5 -141v-220q0 -49 42 -49q8 0 12 1zM365 177v66q-213 -1 -213 -99
q0 -35 22.5 -54t62.5 -19q56 0 92 29.5t36 76.5z" />
    <glyph glyph-name="afii10066" unicode="&#x431;" horiz-adv-x="601" 
d="M507 753l-16 -85h-130q-80 0 -119 -13.5t-58 -47.5q-31 -55 -34 -178q47 57 87 78.5t100 21.5q98 0 155.5 -71.5t57.5 -192.5q0 -125 -66 -200t-175 -75q-142 0 -205 113q-24 43 -33.5 98.5t-9.5 151.5q0 228 52 308q31 49 82.5 70.5t139.5 21.5h172zM309 448
q-64 0 -102.5 -51t-38.5 -137q0 -87 38 -137t103 -50q62 0 97.5 49t35.5 135q0 91 -35 141t-98 50z" />
    <glyph glyph-name="afii10067" unicode="&#x432;" horiz-adv-x="590" 
d="M91 0v523h244q182 0 182 -143q0 -38 -13 -62.5t-43 -42.5q43 -18 62.5 -46.5t19.5 -75.5q0 -153 -193 -153h-259zM193 79h158q43 0 66.5 20.5t23.5 56.5t-24.5 55.5t-70.5 19.5h-153v-152zM193 306h149q74 0 74 70q0 68 -85 68h-138v-138z" />
    <glyph glyph-name="afii10068" unicode="&#x433;" horiz-adv-x="451" 
d="M91 0v523h338v-85h-233v-438h-105z" />
    <glyph glyph-name="afii10069" unicode="&#x434;" horiz-adv-x="597" 
d="M471 0h-391l-12 -151h-81v236h51q88 130 88 388v50h375v-438h62v-236h-81zM397 84v354h-177v-18q0 -45 -8 -110t-18 -104q-16 -60 -46 -122h249z" />
    <glyph glyph-name="afii10070" unicode="&#x435;" horiz-adv-x="575" 
d="M435 154l83 -45q-68 -119 -212 -119q-115 0 -185.5 74.5t-70.5 194.5q0 121 68.5 197.5t178.5 76.5q107 0 168.5 -70.5t61.5 -193.5v-31h-369q7 -93 50 -132q37 -33 97 -33q45 0 74.5 18t55.5 63zM161 313h261q-7 73 -36.5 105t-88.5 32q-111 0 -136 -137z" />
    <glyph glyph-name="afii10072" unicode="&#x436;" horiz-adv-x="777" 
d="M337 0v235h-20q-29 0 -50.5 -17t-44.5 -59l-88 -159h-119l96 163q30 49 52.5 72t52.5 34q-35 20 -47.5 38.5t-40.5 91.5q-11 29 -22.5 36.5t-43.5 7.5h-23v80h32q68 0 92.5 -18.5t57.5 -95.5q30 -70 45.5 -86t53.5 -16h17v216h102v-216h17q38 0 53.5 16t45.5 86
q32 76 57 95t93 19h32v-80h-23q-36 0 -45.5 -9.5t-31.5 -64.5q-19 -47 -32.5 -65t-44.5 -35q30 -11 53 -34t52 -72l96 -163h-119l-88 159q-23 42 -44.5 59t-50.5 17h-20v-235h-102z" />
    <glyph glyph-name="afii10073" unicode="&#x437;" horiz-adv-x="535" 
d="M25 142l95 22q29 -91 141 -91q54 0 85 21t31 58q0 38 -31 59.5t-86 21.5h-81v77h78q50 0 80 18.5t30 49.5q0 32 -29 52t-76 20q-48 0 -77.5 -16t-50.5 -54l-83 33q26 63 77.5 91.5t137.5 28.5q95 0 149 -40t54 -111q0 -37 -15.5 -61t-51.5 -44q83 -35 83 -122
q0 -79 -59 -122t-166 -43q-128 0 -191 63q-31 31 -44 89z" />
    <glyph glyph-name="afii10074" unicode="&#x438;" horiz-adv-x="614" 
d="M91 0v523h104v-335l224 278v57h104v-523h-104v340l-224 -278v-62h-104z" />
    <glyph glyph-name="afii10075" unicode="&#x439;" horiz-adv-x="614" 
d="M91 0v523h104v-332l224 275v57h104v-523h-104v337l-224 -275v-62h-104zM159 750h76q3 -73 72 -73t72 73h76q-3 -148 -148 -148t-148 148z" />
    <glyph glyph-name="afii10076" unicode="&#x43a;" horiz-adv-x="565" 
d="M91 0v523h105v-218h31q43 0 59 18q15 15 50 92q33 72 58.5 90t95.5 18h32v-80h-23q-39 0 -49.5 -9t-34.5 -65q-20 -49 -34 -66t-49 -34q32 -11 56.5 -34.5t55.5 -71.5l102 -163h-120l-91 152q-25 41 -49 58.5t-56 17.5h-34v-228h-105z" />
    <glyph glyph-name="afii10077" unicode="&#x43b;" horiz-adv-x="593" 
d="M397 0v438h-177v-75q0 -224 -83 -363h-114q55 86 77 178t22 238v107h380v-523h-105z" />
    <glyph glyph-name="afii10078" unicode="&#x43c;" horiz-adv-x="762" 
d="M91 0v523h145l146 -389l145 389h144v-523h-101v411l-153 -411h-74l-157 413v-413h-95z" />
    <glyph glyph-name="afii10079" unicode="&#x43d;" horiz-adv-x="614" 
d="M91 0v523h105v-215h221v215h105v-523h-105v223h-221v-223h-105z" />
    <glyph glyph-name="afii10080" unicode="&#x43e;" horiz-adv-x="608" 
d="M304 533q111 0 182 -76t71 -195t-71.5 -195.5t-182.5 -76.5q-112 0 -182.5 76.5t-70.5 196.5q0 117 72 193.5t182 76.5zM304 449q-68 0 -107 -50t-39 -138q0 -87 38.5 -137t105.5 -50q69 0 108 50t39 138q0 87 -39 137t-106 50z" />
    <glyph glyph-name="afii10081" unicode="&#x43f;" horiz-adv-x="611" 
d="M91 0v523h429v-523h-105v438h-219v-438h-105z" />
    <glyph glyph-name="afii10082" unicode="&#x440;" horiz-adv-x="626" 
d="M88 -182v705h105v-84q58 94 166 94q98 0 157.5 -74t59.5 -196q0 -124 -59.5 -198.5t-158.5 -74.5q-110 0 -165 92v-264h-105zM333 449q-67 0 -105.5 -50t-38.5 -139t37.5 -137.5t105.5 -48.5q136 0 136 183q0 92 -35 142t-100 50z" />
    <glyph glyph-name="afii10083" unicode="&#x441;" horiz-adv-x="545" 
d="M435 163l82 -46q-72 -127 -218 -127q-111 0 -180 75t-69 195q0 122 68 197.5t179 75.5q138 0 210 -122l-85 -48q-29 49 -55.5 67.5t-67.5 18.5q-67 0 -104 -49.5t-37 -139.5q0 -89 37 -137.5t106 -48.5q46 0 76.5 20t57.5 69z" />
    <glyph glyph-name="afii10084" unicode="&#x442;" horiz-adv-x="436" 
d="M165 0v438h-156v85h418v-85h-157v-438h-105z" />
    <glyph glyph-name="afii10085" unicode="&#x443;" horiz-adv-x="511" 
d="M25 -157l33 74q32 -21 65 -21q55 0 74 59l15 51l-197 517h113l137 -375l127 375h107l-213 -588q-44 -123 -156 -123q-59 0 -105 31z" />
    <glyph glyph-name="afii10086" unicode="&#x444;" horiz-adv-x="854" 
d="M379 -182v259q-44 -87 -135 -87q-88 0 -141 75t-53 198q0 122 53 196t141 74t135 -84v304h96v-304q49 84 135 84q88 0 141 -74t53 -196q0 -123 -53 -198t-140 -75q-92 0 -136 87v-259h-96zM584 449q-53 0 -83 -49.5t-30 -138.5q0 -91 30 -139t86 -48q109 0 109 184
q0 92 -29 141.5t-83 49.5zM269 449q-53 0 -82 -49.5t-29 -140.5q0 -185 107 -185q57 0 87 48t30 139q0 89 -30 138.5t-83 49.5z" />
    <glyph glyph-name="afii10087" unicode="&#x445;" horiz-adv-x="542" 
d="M23 0l185 268l-173 255h122l117 -177l116 177h112l-173 -247l190 -276h-123l-130 197l-132 -197h-111z" />
    <glyph glyph-name="afii10088" unicode="&#x446;" horiz-adv-x="605" 
d="M91 0v523h105v-438h207v438h105v-438h62v-236h-81l-11 151h-387z" />
    <glyph glyph-name="afii10089" unicode="&#x447;" horiz-adv-x="578" 
d="M65 523h105v-208q0 -50 23 -71.5t75 -21.5q49 0 81.5 26t32.5 65v210h105v-523h-105v193q-53 -56 -142 -56q-175 0 -175 173v213z" />
    <glyph glyph-name="afii10090" unicode="&#x448;" horiz-adv-x="868" 
d="M91 0v523h105v-438h187v438h102v-438h186v438h105v-523h-685z" />
    <glyph glyph-name="afii10091" unicode="&#x449;" horiz-adv-x="873" 
d="M91 0v523h105v-438h187v438h102v-438h186v438h105v-438h62v-236h-81l-10 151h-656z" />
    <glyph glyph-name="afii10092" unicode="&#x44a;" horiz-adv-x="599" 
d="M237 345h122q103 0 147 -34q59 -44 59 -139q0 -102 -68 -145q-45 -27 -138 -27h-224v441h-130v82h232v-178zM237 80h124q102 0 102 93t-102 93h-124v-186z" />
    <glyph glyph-name="afii10093" unicode="&#x44b;" horiz-adv-x="793" 
d="M91 0v523h102v-178h122q103 0 147 -34q59 -44 59 -139q0 -102 -68 -145q-45 -27 -138 -27h-224zM193 80h124q102 0 102 93t-102 93h-124v-186zM597 0v523h105v-523h-105z" />
    <glyph glyph-name="afii10094" unicode="&#x44c;" horiz-adv-x="555" 
d="M91 0v523h102v-178h122q103 0 147 -34q59 -44 59 -139q0 -102 -68 -145q-45 -27 -138 -27h-224zM193 80h124q102 0 102 93t-102 93h-124v-186z" />
    <glyph glyph-name="afii10095" unicode="&#x44d;" horiz-adv-x="546" 
d="M155 226v76h228q-17 147 -136 147q-43 0 -72.5 -16t-62.5 -58l-74 53q74 105 209 105q108 0 171 -64q76 -76 76 -208q0 -124 -68.5 -197.5t-183.5 -73.5q-143 0 -217 109l76 50q32 -41 64 -58t78 -17q128 0 141 152h-229z" />
    <glyph glyph-name="afii10096" unicode="&#x44e;" horiz-adv-x="843" 
d="M91 0v523h105v-220h108q14 104 80 167t163 63q107 0 176 -76t69 -194q0 -120 -69.5 -196.5t-176.5 -76.5q-96 0 -162.5 62.5t-79.5 165.5h-108v-218h-105zM545 449q-64 0 -100.5 -50t-36.5 -138q0 -86 36.5 -136.5t98.5 -50.5q65 0 102 50t37 139q0 86 -36.5 136
t-100.5 50z" />
    <glyph glyph-name="afii10097" unicode="&#x44f;" horiz-adv-x="587" 
d="M496 0h-102v207h-106q-48 0 -74 -24q-12 -12 -18 -26t-15 -53q-16 -72 -38 -104h-104v15q28 35 48 128q17 71 66 94q-83 37 -83 137q0 80 55 119q42 30 141 30h230v-523zM394 283v161h-136q-86 0 -86 -75q0 -40 24.5 -63t66.5 -23h131z" />
    <glyph glyph-name="uni0450" unicode="&#x450;" horiz-adv-x="574" 
d="M435 153l83 -44q-69 -119 -213 -119q-113 0 -184 74.5t-71 194.5q0 121 68.5 197.5t177.5 76.5q108 0 169 -70t61 -194v-32h-370q8 -94 52 -132q37 -31 97 -31q46 0 75.5 18t54.5 61zM160 313h263q-8 74 -38 106.5t-89 32.5q-111 0 -136 -139zM253 587l-109 166h128
l53 -166h-72z" />
    <glyph glyph-name="afii10071" unicode="&#x451;" horiz-adv-x="575" 
d="M435 154l83 -45q-68 -119 -212 -119q-115 0 -185.5 74.5t-70.5 194.5q0 121 68.5 197.5t178.5 76.5q107 0 168.5 -70.5t61.5 -193.5v-31h-369q7 -93 50 -132q37 -33 97 -33q45 0 74.5 18t55.5 63zM161 313h261q-7 73 -36.5 105t-88.5 32q-111 0 -136 -137zM393 735
q24 0 42 -18t18 -43q0 -24 -18 -42t-43 -18q-24 0 -42 18t-18 42q0 25 18 43t43 18zM203 735q24 0 42 -18t18 -43q0 -24 -18 -42t-42 -18q-25 0 -43 18t-18 43q0 24 18 42t43 18z" />
    <glyph glyph-name="afii10099" unicode="&#x452;" horiz-adv-x="622" 
d="M308 -187l-6 74q81 6 105 49.5t24 184.5v201q0 64 -25 93t-80 29q-58 0 -92.5 -35t-34.5 -94v-315h-105v593h-72v77h72v83h105v-83h123v-77h-123v-151q49 91 163 91q84 0 129 -53t45 -152v-204q0 -116 -14 -172.5t-52 -89.5q-29 -25 -64.5 -36t-97.5 -13z" />
    <glyph glyph-name="afii10100" unicode="&#x453;" horiz-adv-x="451" 
d="M91 0v523h338v-85h-233v-438h-105zM207 587l53 166h130l-110 -166h-73z" />
    <glyph glyph-name="afii10101" unicode="&#x454;" horiz-adv-x="549" 
d="M510 430l-76 -55q-31 41 -59 57.5t-68 16.5q-127 0 -144 -147h230v-76h-231q15 -152 148 -152q44 0 74.5 17t60.5 58l77 -48q-74 -111 -213 -111q-116 0 -186.5 74t-70.5 197q0 124 68 198t183 74q133 0 207 -103z" />
    <glyph glyph-name="afii10102" unicode="&#x455;" horiz-adv-x="515" 
d="M444 462l-58 -69q-58 58 -131 58q-88 0 -88 -62q0 -32 25 -46q23 -14 90 -29q84 -20 118 -41q64 -42 64 -121q0 -76 -55.5 -119t-153.5 -43q-71 0 -121 21.5t-98 72.5l62 65q39 -45 71 -60.5t83 -15.5q109 0 109 70q0 35 -26 50q-23 14 -92 30q-71 15 -105 35
q-71 42 -71 124q0 71 50.5 111t138.5 40q117 0 188 -71z" />
    <glyph glyph-name="afii10103" unicode="&#x456;" horiz-adv-x="286" 
d="M91 0v523h105v-523h-105zM143 740q26 0 45 -19t19 -46t-19 -46t-46 -19t-46 19t-19 46t19 46t47 19z" />
    <glyph glyph-name="afii10104" unicode="&#x457;" horiz-adv-x="286" 
d="M90 0v523h105v-523h-105zM48 735q24 0 42 -18t18 -43q0 -24 -18 -42t-42 -18q-25 0 -43 18t-18 42q0 25 18 43t43 18zM238 735q24 0 42 -18t18 -43q0 -24 -18 -42t-43 -18q-24 0 -42 18t-18 42q0 25 18 43t43 18z" />
    <glyph glyph-name="afii10105" unicode="&#x458;" horiz-adv-x="287" 
d="M197 523v-560q0 -74 -37 -113.5t-107 -39.5q-44 0 -78 19l22 77q21 -10 38 -10q57 0 57 60v567h105zM144 740q26 0 45 -19t19 -46t-19 -46t-46 -19t-46 19t-19 46t19 46t47 19z" />
    <glyph glyph-name="afii10106" unicode="&#x459;" horiz-adv-x="858" 
d="M397 0v438h-177v-74q0 -224 -82 -364h-115q54 86 76.5 180t22.5 236v107h378v-184h119q103 0 146 -33q59 -44 59 -137q0 -100 -68 -142q-44 -27 -135 -27h-224zM500 80h124q98 0 98 90t-98 90h-124v-180z" />
    <glyph glyph-name="afii10107" unicode="&#x45a;" horiz-adv-x="871" 
d="M410 0v240h-214v-240h-105v523h105v-201h214v201h102v-184h120q103 0 147 -33q59 -44 59 -137q0 -101 -68 -142q-44 -27 -136 -27h-224zM512 80h126q98 0 98 90t-98 90h-126v-180z" />
    <glyph glyph-name="afii10108" unicode="&#x45b;" horiz-adv-x="617" 
d="M94 0v593h-72v77h72v83h105v-83h123v-77h-123v-151q49 91 160 91q83 0 127 -52.5t44 -152.5v-328h-105v325q0 61 -24.5 90t-76.5 29q-57 0 -91 -35t-34 -94v-315h-105z" />
    <glyph glyph-name="afii10109" unicode="&#x45c;" horiz-adv-x="565" 
d="M91 0v523h105v-218h31q43 0 59 18q15 15 50 92q33 72 58.5 90t95.5 18h32v-80h-23q-39 0 -49.5 -9t-34.5 -65q-20 -49 -34 -66t-49 -34q32 -11 56.5 -34.5t55.5 -71.5l102 -163h-120l-91 152q-25 41 -49 58.5t-56 17.5h-34v-228h-105zM254 587l53 166h130l-109 -166h-74z
" />
    <glyph glyph-name="uni045D" unicode="&#x45d;" horiz-adv-x="608" 
d="M88 0v523h105v-330l222 273v57h105v-523h-105v335l-222 -273v-62h-105zM269 587l-109 166h128l53 -166h-72z" />
    <glyph glyph-name="afii10110" unicode="&#x45e;" horiz-adv-x="511" 
d="M25 -157l33 74q32 -21 65 -21q55 0 74 59l15 51l-197 517h113l137 -375l127 375h107l-213 -588q-44 -123 -156 -123q-59 0 -105 31zM109 750h76q4 -73 72 -73q69 0 73 73h76q-5 -148 -149 -148q-143 0 -148 148z" />
    <glyph glyph-name="afii10193" unicode="&#x45f;" horiz-adv-x="600" 
d="M91 0v523h105v-438h207v438h105v-523h-159l-11 -151h-77l-11 151h-159z" />
    <glyph glyph-name="afii10050" unicode="&#x490;" horiz-adv-x="542" 
d="M91 0v715h337l15 119h76v-207h-321v-627h-107z" />
    <glyph glyph-name="afii10098" unicode="&#x491;" horiz-adv-x="451" 
d="M91 0v523h248l11 105h77v-190h-233v-438h-103z" />
    <glyph glyph-name="uni0492" unicode="&#x492;" horiz-adv-x="541" 
d="M92 318h-75v86h75v311h427v-86h-322v-225h209v-86h-209v-318h-105v318z" />
    <glyph glyph-name="uni0493" unicode="&#x493;" horiz-adv-x="447" 
d="M88 261h-69v84h69v178h338v-84h-233v-94h164v-84h-164v-261h-105v261z" />
    <glyph glyph-name="uni0496" unicode="&#x496;" horiz-adv-x="917" 
d="M863 86h72v-259h-84l-15 173h-50l-105 189q-52 88 -82 112t-88 25v-326h-104v326q-58 -1 -88 -25t-82 -112l-105 -189h-126l131 229q39 65 70.5 95t73.5 42q-43 22 -61.5 49t-51.5 117q-23 60 -44 79t-65 19q-18 0 -32 -1v86q25 2 41 2q70 0 112 -31q21 -16 37 -42.5
t40 -84.5q43 -108 66 -133t84 -26v315h104v-315q61 1 84 26t66 133q24 58 40 84.5t37 42.5q42 31 112 31q15 0 41 -2v-86q-14 1 -31 1q-50 0 -69 -21t-54 -114q-25 -63 -42.5 -86t-57.5 -43q42 -13 73.5 -42.5t70.5 -94.5z" />
    <glyph glyph-name="uni0497" unicode="&#x497;" horiz-adv-x="777" 
d="M711 85h62v-236h-81l-11 151h-39l-88 159q-23 42 -44.5 59t-50.5 17h-20v-235h-102v235h-20q-29 0 -50.5 -17t-44.5 -59l-88 -159h-119l96 163q30 49 53 72t52 34q-35 20 -47.5 38.5t-40.5 91.5q-11 29 -22.5 36.5t-43.5 7.5h-23v80h32q68 0 92.5 -18.5t57.5 -95.5
q30 -70 45.5 -86t53.5 -16h17v216h102v-216h17q38 0 53.5 16t45.5 86q32 76 57 95t93 19h32v-80h-23q-36 0 -45.5 -9.5t-31.5 -64.5q-19 -47 -32.5 -65t-44.5 -35q30 -11 53 -34t52 -72z" />
    <glyph glyph-name="uni049A" unicode="&#x49a;" horiz-adv-x="653" 
d="M591 88h63v-259h-83l-15 171h-40l-112 189q-51 84 -82.5 110.5t-82.5 26.5h-40v-326h-108v715h108v-314h26q59 0 84 21.5t60 105.5q31 72 47 100t37 49q42 40 126 40q22 0 44 -2v-86q-13 1 -31 1q-54 0 -75 -21t-58 -114q-26 -63 -44 -84.5t-63 -44.5q45 -12 79.5 -43
t73.5 -94z" />
    <glyph glyph-name="uni049B" unicode="&#x49b;" horiz-adv-x="565" 
d="M491 88h66v-236h-82l-11 148h-38l-91 152q-25 41 -49 58.5t-56 17.5h-34v-228h-105v523h105v-218h31q43 0 59 18q15 15 50 92q33 72 58.5 90t95.5 18h32v-80h-23q-39 0 -49.5 -9t-34.5 -65q-20 -49 -34 -66t-49 -34q31 -11 56 -34.5t56 -71.5z" />
    <glyph glyph-name="uni049C" unicode="&#x49c;" horiz-adv-x="653" 
d="M311 604v-180q24 23 59 104q30 70 46 99t37 50q42 40 126 40q22 0 44 -2v-86q-14 1 -31 1q-54 0 -74.5 -21t-57.5 -114q-27 -63 -45 -84.5t-63 -44.5q45 -12 79.5 -43t73.5 -94l139 -229h-128l-112 189q-35 57 -54 81t-39 38v-173h-81v191h-31v-326h-108v715h108v-314h31
v203h81z" />
    <glyph glyph-name="uni049D" unicode="&#x49d;" horiz-adv-x="565" 
d="M279 433v-116q12 7 22.5 25.5t34.5 72.5q33 72 58.5 90t95.5 18h32v-80h-23q-39 0 -49.5 -9t-34.5 -65q-20 -49 -34 -66t-49 -34q32 -11 57 -35t55 -71l102 -163h-120l-91 152q-33 52 -56 64v-134h-66v146h-17v-228h-105v523h105v-218h17v128h66z" />
    <glyph glyph-name="uni04A2" unicode="&#x4a2;" horiz-adv-x="731" 
d="M617 0h-83v314h-337v-314h-105v715h105v-315h337v315h105v-627h75v-259h-83z" />
    <glyph glyph-name="uni04A3" unicode="&#x4a3;" horiz-adv-x="607" 
d="M493 0h-79v224h-221v-224h-105v523h105v-215h221v215h105v-435h66v-236h-81z" />
    <glyph glyph-name="uni04AE" unicode="&#x4ae;" horiz-adv-x="569" 
d="M238 0v298l-250 417h119l186 -327l180 327h108l-238 -416v-299h-105z" />
    <glyph glyph-name="uni04AF" unicode="&#x4af;" horiz-adv-x="518" 
d="M500 523l-187 -517v-187h-97v187l-198 517h112l137 -377l128 377h105z" />
    <glyph glyph-name="uni04B0" unicode="&#x4b0;" horiz-adv-x="569" 
d="M343 131v-131h-105v131h-141v86h141v81l-250 417h119l186 -327l180 327h108l-238 -416v-82h142v-86h-142z" />
    <glyph glyph-name="uni04B1" unicode="&#x4b1;" horiz-adv-x="518" 
d="M313 1h118v-85h-118v-97h-97v97h-118v85h118v5l-198 517h112l137 -377l128 377h105l-187 -517v-5z" />
    <glyph glyph-name="uni04B2" unicode="&#x4b2;" horiz-adv-x="646" 
d="M565 86h74v-213h-74l-15 127h-52l-180 288l-181 -288h-112l238 367l-221 348h123l165 -265l164 265h111l-220 -346z" />
    <glyph glyph-name="uni04B3" unicode="&#x4b3;" horiz-adv-x="541" 
d="M430 0h-34l-130 198l-134 -198h-109l185 268l-173 255h120l118 -178l117 178h110l-172 -247l130 -188h64v-236h-81z" />
    <glyph glyph-name="uni04B6" unicode="&#x4b6;" horiz-adv-x="670" 
d="M657 86v-259h-83l-15 173h-86v275q-59 -78 -190 -78q-101 0 -154 53.5t-53 155.5v309h105v-306q0 -66 32 -96t101 -30q73 0 116 36.5t43 98.5v297h105v-629h79z" />
    <glyph glyph-name="uni04B7" unicode="&#x4b7;" horiz-adv-x="571" 
d="M459 0h-81v193q-53 -56 -140 -56q-173 0 -173 173v213h105v-209q0 -49 22.5 -71t73.5 -22q49 0 80.5 26.5t31.5 66.5v209h105v-437h68v-236h-81z" />
    <glyph glyph-name="uni04B8" unicode="&#x4b8;" horiz-adv-x="675" 
d="M353 202v-142h-81v136q-196 8 -196 209v310h108v-306q0 -54 21 -82.5t67 -37.5v240h81v-241q58 9 90.5 43t32.5 87v297h108v-715h-108v274q-37 -55 -123 -72z" />
    <glyph glyph-name="uni04B9" unicode="&#x4b9;" horiz-adv-x="578" 
d="M230 227v154h81v-153q33 11 52 33.5t19 51.5v210h105v-523h-105v193q-27 -30 -71 -45v-97h-81v87q-84 3 -124.5 45t-40.5 127v213h105v-209q0 -40 13.5 -59.5t46.5 -27.5z" />
    <glyph glyph-name="uni04BA" unicode="&#x4ba;" horiz-adv-x="675" 
d="M76 715h108v-274q60 78 191 78q102 0 155.5 -53.5t53.5 -155.5v-310h-108v306q0 65 -31.5 94.5t-101.5 29.5q-73 0 -116 -36t-43 -97v-297h-108v715z" />
    <glyph glyph-name="uni04BB" unicode="&#x4bb;" horiz-adv-x="604" 
d="M88 0v753h105v-311q48 91 157 91q82 0 127 -53.5t45 -151.5v-328h-105v323q0 63 -24 92.5t-76 29.5q-57 0 -90.5 -35.5t-33.5 -96.5v-313h-105z" />
    <glyph glyph-name="uni04C0" unicode="&#x4c0;" horiz-adv-x="306" 
d="M99 0v715h108v-715h-108z" />
    <glyph glyph-name="uni04CF" unicode="&#x4cf;" horiz-adv-x="306" 
d="M99 0v715h108v-715h-108z" />
    <glyph glyph-name="uni04D8" unicode="&#x4d8;" horiz-adv-x="801" 
d="M67 402h558q-13 112 -73 174.5t-152 62.5q-89 0 -148 -59q-22 -22 -46 -66l-98 32q100 179 294 179q145 0 239.5 -103.5t94.5 -262.5q0 -161 -93.5 -265t-239.5 -104q-144 0 -241 104t-97 259q0 5 2 49zM626 321h-450q9 -113 70.5 -179t156.5 -66q97 0 156.5 65.5
t66.5 179.5z" />
    <glyph glyph-name="afii10846" unicode="&#x4d9;" horiz-adv-x="574" 
d="M139 370l-83 44q69 119 213 119q113 0 184 -74.5t71 -194.5q0 -121 -68.5 -197.5t-177.5 -76.5q-108 0 -169 70t-61 194v32h370q-8 94 -52 132q-37 31 -97 31q-46 0 -75.5 -18t-54.5 -61zM414 210h-263q8 -74 38 -106.5t89 -32.5q111 0 136 139z" />
    <glyph glyph-name="uni04E2" unicode="&#x4e2;" horiz-adv-x="719" 
d="M92 0v715h101v-499l333 433v66h101v-715h-101v506l-333 -433v-73h-101zM236 796v76h248v-76h-248z" />
    <glyph glyph-name="uni04E3" unicode="&#x4e3;" horiz-adv-x="608" 
d="M88 0v523h105v-330l222 273v57h105v-523h-105v335l-222 -273v-62h-105zM180 632v76h248v-76h-248z" />
    <glyph glyph-name="uni04E8" unicode="&#x4e8;" horiz-adv-x="801" 
d="M405 725q142 0 236.5 -104t94.5 -262q0 -161 -93.5 -265t-239.5 -104t-242 104.5t-96 263.5q0 160 96 263.5t244 103.5zM176 402h449q-13 112 -73 174.5t-152 62.5q-93 0 -151.5 -62t-72.5 -175zM626 321h-450q9 -113 70.5 -179t156.5 -66q97 0 156.5 65.5t66.5 179.5z
" />
    <glyph glyph-name="uni04E9" unicode="&#x4e9;" horiz-adv-x="607" 
d="M306 533q109 0 180 -76.5t71 -193.5q0 -119 -71.5 -196t-182.5 -77q-110 0 -181.5 76t-71.5 194q0 120 71.5 196.5t184.5 76.5zM161 302h285q-8 69 -46 108t-96 39q-59 0 -97 -39t-46 -108zM446 225h-285q7 -71 44.5 -111t96.5 -40q61 0 98 39t46 112z" />
    <glyph glyph-name="uni04EE" unicode="&#x4ee;" horiz-adv-x="585" 
d="M153 796v76h248v-76h-248zM257 160l-251 555h118l180 -429l150 429h110l-198 -539q-40 -109 -72 -141q-45 -46 -127 -46q-41 0 -79 11l21 85q27 -7 49 -7q41 0 62 17.5t37 64.5z" />
    <glyph glyph-name="uni04EF" unicode="&#x4ef;" horiz-adv-x="518" 
d="M500 523l-213 -589q-44 -123 -154 -123q-59 0 -106 32l34 73q31 -21 65 -21q56 0 75 63l15 48l-198 517h112l137 -377l128 377h105zM135 632v76h248v-76h-248z" />
    <glyph glyph-name="Wgrave" unicode="&#x1e80;" horiz-adv-x="962" 
d="M216 0l-190 715h111l137 -550l167 550h86l164 -553l144 553h101l-191 -715h-97l-165 549l-170 -549h-97zM449 779l-109 166h128l53 -166h-72z" />
    <glyph glyph-name="wgrave" unicode="&#x1e81;" horiz-adv-x="831" 
d="M186 0l-155 523h111l105 -396l123 396h103l114 -396l109 396h104l-159 -523h-110l-112 391l-123 -391h-110zM381 587l-109 166h128l53 -166h-72z" />
    <glyph glyph-name="Wacute" unicode="&#x1e82;" horiz-adv-x="962" 
d="M216 0l-190 715h111l137 -550l167 550h86l164 -553l144 553h101l-191 -715h-97l-165 549l-170 -549h-97zM448 779l53 166h128l-109 -166h-72z" />
    <glyph glyph-name="wacute" unicode="&#x1e83;" horiz-adv-x="831" 
d="M186 0l-155 523h111l105 -396l123 396h103l114 -396l109 396h104l-159 -523h-110l-112 391l-123 -391h-110zM379 587l53 166h128l-109 -166h-72z" />
    <glyph glyph-name="Wdieresis" unicode="&#x1e84;" horiz-adv-x="962" 
d="M216 0l-190 715h111l137 -550l167 550h86l164 -553l144 553h101l-191 -715h-97l-165 549l-170 -549h-97zM385 903q25 0 43 -18t18 -43t-18 -43t-43 -18t-43 18t-18 43t18 43t43 18zM577 903q24 0 42.5 -18.5t18.5 -42.5q0 -25 -18 -43t-43 -18t-43 18t-18 43t18 43t43 18
z" />
    <glyph glyph-name="wdieresis" unicode="&#x1e85;" horiz-adv-x="831" 
d="M186 0l-155 523h111l105 -396l123 396h103l114 -396l109 396h104l-159 -523h-110l-112 391l-123 -391h-110zM320 733q25 0 43 -18t18 -43t-18 -43t-43 -18t-43 18t-18 43t18 43t43 18zM512 733q24 0 42.5 -18.5t18.5 -42.5q0 -25 -18 -43t-43 -18t-43 18t-18 43t18 43
t43 18z" />
    <glyph glyph-name="Ygrave" unicode="&#x1ef2;" horiz-adv-x="569" 
d="M238 0v298l-250 417h119l186 -327l180 327h108l-238 -416v-299h-105zM252 779l-109 166h128l53 -166h-72z" />
    <glyph glyph-name="ygrave" unicode="&#x1ef3;" horiz-adv-x="518" 
d="M500 523l-213 -589q-44 -123 -154 -123q-59 0 -106 32l34 73q31 -21 65 -21q56 0 75 63l15 48l-198 517h112l137 -377l128 377h105zM224 587l-109 166h128l53 -166h-72z" />
    <glyph glyph-name="uni2002" unicode="&#x2002;" 
 />
    <glyph glyph-name="uni2003" unicode="&#x2003;" horiz-adv-x="1000" 
 />
    <glyph glyph-name="uni2004" unicode="&#x2004;" horiz-adv-x="333" 
 />
    <glyph glyph-name="uni2005" unicode="&#x2005;" horiz-adv-x="250" 
 />
    <glyph glyph-name="uni2006" unicode="&#x2006;" horiz-adv-x="167" 
 />
    <glyph glyph-name="uni2007" unicode="&#x2007;" horiz-adv-x="523" 
 />
    <glyph glyph-name="uni2008" unicode="&#x2008;" horiz-adv-x="255" 
 />
    <glyph glyph-name="uni2009" unicode="&#x2009;" horiz-adv-x="125" 
 />
    <glyph glyph-name="uni200A" unicode="&#x200a;" horiz-adv-x="42" 
 />
    <glyph glyph-name="uni2011" unicode="&#x2011;" horiz-adv-x="301" 
d="M40 280v96h221v-96h-221z" />
    <glyph glyph-name="figuredash" unicode="&#x2012;" horiz-adv-x="602" 
d="M51 285v86h500v-86h-500z" />
    <glyph glyph-name="endash" unicode="&#x2013;" horiz-adv-x="602" 
d="M51 285v86h500v-86h-500z" />
    <glyph glyph-name="emdash" unicode="&#x2014;" horiz-adv-x="602" 
d="M-40 285v86h682v-86h-682z" />
    <glyph glyph-name="afii00208" unicode="&#x2015;" horiz-adv-x="602" 
d="M-40 285v86h682v-86h-682z" />
    <glyph glyph-name="underscoredbl" unicode="&#x2017;" horiz-adv-x="440" 
d="M-20 -134v67h480v-67h-480zM-20 -246v67h480v-67h-480z" />
    <glyph glyph-name="quoteleft" unicode="&#x2018;" horiz-adv-x="294" 
d="M212 763v-55q-62 -19 -65 -97q75 -3 75 -69q0 -32 -19.5 -52t-50.5 -20q-38 0 -59.5 28t-21.5 78q0 87 40 136q35 42 101 51z" />
    <glyph glyph-name="quoteright" unicode="&#x2019;" horiz-adv-x="294" 
d="M82 470v55q62 19 65 97q-75 3 -75 69q0 32 19.5 52t50.5 20q38 0 59.5 -28t21.5 -78q0 -87 -40 -136q-35 -42 -101 -51z" />
    <glyph glyph-name="quotesinglbase" unicode="&#x201a;" horiz-adv-x="294" 
d="M82 -154v55q62 19 65 97q-75 3 -75 69q0 32 19.5 52t50.5 20q38 0 59.5 -28t21.5 -78q0 -87 -40 -136q-35 -42 -101 -51z" />
    <glyph glyph-name="quotereversed" unicode="&#x201b;" horiz-adv-x="294" 
d="M212 763v-55q-62 -19 -65 -97q75 -3 75 -69q0 -32 -19.5 -52t-50.5 -20q-38 0 -59.5 28t-21.5 78q0 87 40 136q35 42 101 51z" />
    <glyph glyph-name="quotedblleft" unicode="&#x201c;" horiz-adv-x="491" 
d="M409 763v-55q-62 -19 -65 -97q75 -3 75 -69q0 -32 -19.5 -52t-50.5 -20q-38 0 -59.5 28t-21.5 78q0 87 40 136q35 42 101 51zM212 763v-55q-62 -19 -65 -97q75 -3 75 -69q0 -32 -19.5 -52t-50.5 -20q-38 0 -59.5 28t-21.5 78q0 87 40 136q35 42 101 51z" />
    <glyph glyph-name="quotedblright" unicode="&#x201d;" horiz-adv-x="491" 
d="M82 470v55q62 19 65 97q-75 3 -75 69q0 32 19.5 52t50.5 20q38 0 59.5 -28t21.5 -78q0 -87 -40 -136q-35 -42 -101 -51zM279 470v55q62 19 65 97q-75 3 -75 69q0 32 19.5 52t50.5 20q38 0 59.5 -28t21.5 -78q0 -87 -40 -136q-35 -42 -101 -51z" />
    <glyph glyph-name="quotedblbase" unicode="&#x201e;" horiz-adv-x="491" 
d="M82 -154v55q62 19 65 97q-75 3 -75 69q0 32 19.5 52t50.5 20q38 0 59.5 -28t21.5 -78q0 -87 -40 -136q-35 -42 -101 -51zM279 -154v55q62 19 65 97q-75 3 -75 69q0 32 19.5 52t50.5 20q38 0 59.5 -28t21.5 -78q0 -87 -40 -136q-35 -42 -101 -51z" />
    <glyph glyph-name="dagger" unicode="&#x2020;" horiz-adv-x="336" 
d="M42 539v72h87v104h78v-104h87v-72h-87v-227h-78v227h-87z" />
    <glyph glyph-name="daggerdbl" unicode="&#x2021;" horiz-adv-x="336" 
d="M42 548v67h87v100h78v-100h87v-67h-87v-68h87v-67h-87v-101h-78v101h-87v67h87v68h-87z" />
    <glyph glyph-name="bullet" unicode="&#x2022;" horiz-adv-x="400" 
d="M201 464q55 0 92.5 -37.5t37.5 -93.5t-37.5 -93.5t-93.5 -37.5t-93.5 38t-37.5 93q0 56 37.5 93.5t94.5 37.5z" />
    <glyph glyph-name="ellipsis" unicode="&#x2026;" horiz-adv-x="903" 
d="M152 139q30 0 51 -21.5t21 -51.5t-21.5 -51.5t-50.5 -21.5q-31 0 -52.5 21.5t-21.5 51.5q0 31 21.5 52t52.5 21zM453 139q30 0 51 -21.5t21 -51.5t-21.5 -51.5t-50.5 -21.5q-31 0 -52.5 21.5t-21.5 51.5q0 31 21.5 52t52.5 21zM754 139q30 0 51 -21.5t21 -51.5
t-21.5 -51.5t-50.5 -21.5q-31 0 -52.5 21.5t-21.5 51.5q0 31 21.5 52t52.5 21z" />
    <glyph glyph-name="perthousand" unicode="&#x2030;" horiz-adv-x="1284" 
d="M1065 394q76 0 123 -55.5t47 -144.5q0 -90 -47.5 -145.5t-124.5 -55.5t-124 55t-47 144q0 91 47.5 146.5t125.5 55.5zM222 722q75 0 122 -55.5t47 -144.5q0 -91 -47 -146.5t-124 -55.5t-124 55t-47 145t48 146t125 56zM673 394q75 0 122 -55.5t47 -143.5
q0 -91 -47.5 -146.5t-124.5 -55.5q-76 0 -123 55t-47 144q0 91 47.5 146.5t125.5 55.5zM207 0l395 715h82l-395 -715h-82zM221 646q-82 0 -82 -126q0 -123 80 -123q82 0 82 123q0 126 -80 126zM671 318q-81 0 -81 -125q0 -124 79 -124q81 0 81 124q0 125 -79 125zM1064 318
q-81 0 -81 -126q0 -123 79 -123q82 0 82 124q0 125 -80 125z" />
    <glyph glyph-name="guilsinglleft" unicode="&#x2039;" horiz-adv-x="342" 
d="M189 41l-125 200l125 200h96l-123 -200l123 -200h-96z" />
    <glyph glyph-name="guilsinglright" unicode="&#x203a;" horiz-adv-x="342" 
d="M58 41l122 200l-122 200h95l126 -200l-126 -200h-95z" />
    <glyph glyph-name="uni203E" unicode="&#x203e;" horiz-adv-x="440" 
d="M-20 808v84h480v-84h-480z" />
    <glyph glyph-name="fraction" unicode="&#x2044;" horiz-adv-x="100" 
d="M-187 0l392 715h82l-392 -715h-82z" />
    <glyph glyph-name="uni205F" unicode="&#x205f;" horiz-adv-x="222" 
 />
    <glyph glyph-name="zerosuperior" unicode="&#x2070;" horiz-adv-x="451" 
d="M225 880q83 0 130.5 -59t47.5 -161q0 -103 -47.5 -162t-130.5 -59t-130.5 59.5t-47.5 163.5q0 100 48 159t130 59zM224 805q-76 0 -76 -146q0 -145 76 -145q78 0 78 144q0 147 -78 147z" />
    <glyph glyph-name="foursuperior" unicode="&#x2074;" horiz-adv-x="451" 
d="M242 445v80h-204v84l200 264h103v-275h56v-73h-56v-80h-99zM246 765l-122 -167h122v167z" />
    <glyph glyph-name="fivesuperior" unicode="&#x2075;" horiz-adv-x="451" 
d="M366 873v-75h-188l-9 -83q33 18 75 18q67 0 106 -39t39 -106q0 -71 -44.5 -110t-125.5 -39q-70 0 -110 27t-59 87l85 25q19 -64 81 -64q34 0 53.5 20.5t19.5 56.5q0 33 -18 52.5t-49 19.5q-37 0 -64 -35h-85l25 245h268z" />
    <glyph glyph-name="sixsuperior" unicode="&#x2076;" horiz-adv-x="451" 
d="M386 793l-71 -36q-19 28 -35.5 39t-40.5 11q-72 0 -84 -109q43 28 92 28q70 0 111 -38t41 -103q0 -68 -43.5 -107t-119.5 -39q-93 0 -137.5 50.5t-44.5 155.5q0 113 48.5 174t139.5 61q53 0 84.5 -19t59.5 -68zM229 656q-34 0 -53 -19t-19 -51q0 -35 19 -54.5t52 -19.5
q34 0 53 19.5t19 53.5q0 33 -19 52t-52 19z" />
    <glyph glyph-name="sevensuperior" unicode="&#x2077;" horiz-adv-x="451" 
d="M226 445h-104q20 214 171 354h-228v74h323v-74q-151 -142 -162 -354z" />
    <glyph glyph-name="eightsuperior" unicode="&#x2078;" horiz-adv-x="451" 
d="M122 676q-53 28 -53 83q0 56 41.5 88.5t114.5 32.5t114.5 -32.5t41.5 -88.5q0 -55 -53 -83q40 -19 57 -43t17 -59q0 -59 -40 -94q-48 -41 -137 -41q-45 0 -85 13.5t-62 36.5q-30 33 -30 85q0 36 17 59t57 43zM225 639q-37 0 -57.5 -17t-20.5 -46q0 -32 20.5 -49t57.5 -17
t57.5 17t20.5 48q0 30 -20.5 47t-57.5 17zM225 809q-28 0 -44.5 -14t-16.5 -37q0 -24 16 -38t44 -14t45 14t17 37q0 24 -16.5 38t-44.5 14z" />
    <glyph glyph-name="ninesuperior" unicode="&#x2079;" horiz-adv-x="451" 
d="M51 524l70 40q33 -52 89 -52q39 0 59.5 26t25.5 83q-43 -29 -93 -29q-70 0 -110.5 36t-40.5 99q0 70 45 111.5t120 41.5q180 0 180 -206q0 -115 -48.5 -175t-141.5 -60q-108 0 -155 85zM222 807q-34 0 -53 -19.5t-19 -54.5q0 -34 18.5 -52.5t52.5 -18.5t53 19t19 53
t-19 53.5t-52 19.5z" />
    <glyph glyph-name="zeroinferior" unicode="&#x2080;" horiz-adv-x="451" 
d="M225 268q83 0 130.5 -59t47.5 -161q0 -103 -47.5 -162t-130.5 -59t-130.5 59.5t-47.5 163.5q0 100 48 159t130 59zM224 193q-76 0 -76 -146q0 -145 76 -145q78 0 78 144q0 147 -78 147z" />
    <glyph glyph-name="oneinferior" unicode="&#x2081;" horiz-adv-x="451" 
d="M101 -167v74h83v221q-26 -12 -83 -12v68q85 12 101 77h81v-354h79v-74h-261z" />
    <glyph glyph-name="twoinferior" unicode="&#x2082;" horiz-adv-x="451" 
d="M69 -167v77q108 62 157 114t49 104q0 27 -14 43t-38 16q-49 0 -65 -62l-89 21q29 121 158 121q68 0 109.5 -37.5t41.5 -98.5q0 -125 -178 -219h181v-79h-312z" />
    <glyph glyph-name="threeinferior" unicode="&#x2083;" horiz-adv-x="451" 
d="M152 133l-81 21q38 114 163 114q67 0 108.5 -33t41.5 -87q0 -62 -68 -89q78 -25 78 -102q0 -60 -44.5 -95t-120.5 -35q-148 0 -176 121l87 21q17 -67 85 -67q69 0 69 59q0 57 -70 57h-39v68h36q32 0 49.5 14.5t17.5 39.5t-15.5 39t-42.5 14q-56 0 -78 -60z" />
    <glyph glyph-name="fourinferior" unicode="&#x2084;" horiz-adv-x="451" 
d="M242 -167v81h-204v84l200 263h103v-274h56v-73h-56v-81h-99zM246 154l-122 -167h122v167z" />
    <glyph glyph-name="fiveinferior" unicode="&#x2085;" horiz-adv-x="451" 
d="M366 262v-75h-188l-9 -84q32 19 75 19q67 0 106 -39.5t39 -106.5q0 -71 -44.5 -110t-125.5 -39q-71 0 -111 27t-58 87l85 25q19 -64 81 -64q34 0 53.5 20.5t19.5 56.5q0 33 -18 53t-49 20q-38 0 -64 -36h-85l25 246h268z" />
    <glyph glyph-name="sixinferior" unicode="&#x2086;" horiz-adv-x="451" 
d="M386 181l-71 -36q-19 28 -35.5 39t-40.5 11q-72 0 -84 -109q43 28 92 28q70 0 111 -38t41 -103q0 -68 -43.5 -107t-119.5 -39q-93 0 -137.5 50.5t-44.5 155.5q0 113 48.5 174t139.5 61q53 0 84.5 -19t59.5 -68zM229 44q-34 0 -53 -19t-19 -51q0 -35 19 -54.5t52 -19.5
q34 0 53 19.5t19 53.5q0 33 -19 52t-52 19z" />
    <glyph glyph-name="seveninferior" unicode="&#x2087;" horiz-adv-x="451" 
d="M226 -167h-104q20 214 171 354h-228v74h323v-74q-151 -142 -162 -354z" />
    <glyph glyph-name="eightinferior" unicode="&#x2088;" horiz-adv-x="451" 
d="M122 64q-53 28 -53 83q0 56 41.5 88.5t114.5 32.5t114.5 -32.5t41.5 -88.5q0 -55 -53 -83q40 -19 57 -42.5t17 -59.5q0 -59 -40 -94q-48 -41 -137 -41q-45 0 -85 13.5t-62 36.5q-30 33 -30 85q0 36 17 59.5t57 42.5zM225 27q-37 0 -57.5 -17t-20.5 -46q0 -32 20.5 -49
t57.5 -17t57.5 17t20.5 48q0 30 -20.5 47t-57.5 17zM225 197q-28 0 -44.5 -14t-16.5 -37q0 -24 16 -38t44 -14t45 14t17 37q0 24 -16.5 38t-44.5 14z" />
    <glyph glyph-name="nineinferior" unicode="&#x2089;" horiz-adv-x="451" 
d="M51 -88l70 40q33 -52 89 -52q39 0 59.5 26t25.5 83q-43 -29 -93 -29q-70 0 -110.5 36t-40.5 99q0 70 45 111.5t120 41.5q180 0 180 -206q0 -115 -48.5 -175t-141.5 -60q-108 0 -155 85zM222 195q-34 0 -53 -19.5t-19 -54.5q0 -34 18.5 -52.5t52.5 -18.5t53 19t19 53
t-19 53.5t-52 19.5z" />
    <glyph glyph-name="uni20A8" unicode="&#x20a8;" horiz-adv-x="640" 
d="M339 483h-280l60 73h217q-23 73 -117 73h-160l60 73h466l-60 -73h-111q22 -34 28 -73h143l-60 -73h-82q-17 -118 -145 -146q63 -22 89 -58t43 -124q10 -45 26.5 -93t25.5 -57v-5h-107q-18 31 -28.5 65.5t-24.5 102.5q-16 77 -49 106.5t-104 29.5h-53v84h81q124 0 142 95z
" />
    <glyph glyph-name="Euro" unicode="&#x20ac;" horiz-adv-x="602" 
d="M-8 395v67h81q16 69 36.5 110.5t56.5 78.5q74 75 187 75q90 0 145.5 -46t90.5 -149l-94 -26q-25 75 -57.5 105t-87.5 30q-69 0 -110 -43t-60 -135h204v-67h-211q-1 -12 -1 -42q0 -23 1 -36h211v-67h-203q20 -90 61 -132t110 -42q59 0 94 33t59 111l94 -29
q-26 -81 -65 -124q-69 -77 -185 -77q-99 0 -167 58q-42 34 -67 80.5t-42 121.5h-81v67h73q-1 9 -1 31q0 17 1 28v19h-73z" />
    <glyph glyph-name="uni20B4" unicode="&#x20b4;" horiz-adv-x="649" 
d="M552 254h-392q-17 -23 -17 -60q0 -55 42.5 -87.5t114.5 -32.5q143 0 186 135l97 -27q-22 -66 -59 -107q-79 -85 -225 -85q-142 0 -210 77q-50 55 -50 118q0 32 16 69h-39v67h70q32 22 55 29h-125v67h281q64 16 91 33q34 20 46.5 38.5t12.5 46.5q0 50 -35 77.5t-98 27.5
q-62 0 -99 -24t-64 -82l-91 32q38 82 99.5 120t157.5 38q106 0 170 -53t64 -141q0 -82 -57 -113h58v-67h-170q-45 0 -108 -29h278v-67z" />
    <glyph glyph-name="uni2103" unicode="&#x2103;" horiz-adv-x="867" 
d="M800 238l95 -37q-23 -59 -46.5 -93.5t-59.5 -61.5q-73 -56 -182 -56q-147 0 -236.5 100t-89.5 266q0 164 90.5 267t234.5 103q126 0 202 -73q44 -44 79 -131l-94 -36q-28 82 -72 118t-115 36q-101 0 -158.5 -75.5t-57.5 -207.5t58 -206.5t161 -74.5q74 0 119.5 38.5
t71.5 123.5zM126 685q-29 0 -49 -20t-20 -50q0 -29 20 -49t49 -20q30 0 50 20t20 49q0 30 -20 50t-50 20zM126 735q49 0 83.5 -35t34.5 -84t-34.5 -83.5t-83.5 -34.5t-84 34.5t-35 83.5q0 50 34.5 84.5t84.5 34.5z" />
    <glyph glyph-name="uni2109" unicode="&#x2109;" horiz-adv-x="829" 
d="M320 0v715h461v-86h-356v-246h282v-84h-282v-299h-105zM126 676q-29 0 -49 -20t-20 -49t20 -49t49 -20q30 0 50 20t20 49t-20 49t-50 20zM126 727q49 0 83.5 -35t34.5 -84t-34.5 -83.5t-83.5 -34.5t-84 34.5t-35 83.5q0 50 34.5 84.5t84.5 34.5z" />
    <glyph glyph-name="afii61352" unicode="&#x2116;" horiz-adv-x="1298" 
d="M91 0v715h134l314 -582v582h99v-715h-136l-312 577v-577h-99zM996 679q108 0 178 -75.5t70 -191.5q0 -118 -71 -194t-181 -76q-109 0 -179.5 75.5t-70.5 192.5q0 118 71 193.5t183 75.5zM996 596q-70 0 -108.5 -48.5t-38.5 -136.5q0 -86 38 -135t105 -49q68 0 106.5 49
t38.5 136q0 85 -38 134.5t-103 49.5zM743 0v84h500v-84h-500z" />
    <glyph glyph-name="uni2117" unicode="&#x2117;" horiz-adv-x="856" 
d="M432 724q152 0 256.5 -106t104.5 -260q0 -155 -106 -261t-260 -106t-259.5 105.5t-105.5 259.5q0 156 106.5 262t263.5 106zM431 675q-135 0 -224 -91t-89 -228q0 -134 89 -225t220 -91t220.5 91.5t89.5 226.5q0 134 -88 225.5t-218 91.5zM286 144v418h179
q73 0 113 -34.5t40 -98.5q0 -62 -39.5 -96t-110.5 -34h-92v-155h-90zM376 366h85q70 0 70 65q0 64 -70 64h-85v-129z" />
    <glyph glyph-name="uni2120" unicode="&#x2120;" horiz-adv-x="768" 
d="M372 394v321h89l83 -239l80 239h91v-321h-65v238l-82 -238h-53l-82 238v-238h-61zM297 652l-54 -24q-13 24 -28 33.5t-41 9.5q-52 0 -52 -37q0 -19 13.5 -28.5t51.5 -16.5q68 -14 94.5 -35.5t26.5 -64.5q0 -47 -33.5 -73.5t-92.5 -26.5q-105 0 -138 82l58 21
q20 -54 80 -54q61 0 61 44q0 20 -15 30t-55 17q-65 13 -90.5 34.5t-25.5 63.5q0 43 31.5 68t85.5 25q85 0 123 -68z" />
    <glyph glyph-name="uni2121" unicode="&#x2121;" horiz-adv-x="902" 
d="M668 392v323h65v-266h147v-57h-212zM374 393v322h220v-57h-155v-74h126v-56h-126v-78h163v-57h-228zM141 393v268h-98v54h260v-54h-97v-268h-65z" />
    <glyph glyph-name="trademark" unicode="&#x2122;" horiz-adv-x="754" 
d="M358 393v322h89l83 -240l81 240h91v-322h-65v238l-83 -238h-52l-83 238v-238h-61zM141 393v268h-98v54h260v-54h-97v-268h-65z" />
    <glyph glyph-name="uni2126" unicode="&#x2126;" horiz-adv-x="820" 
d="M46 0v77h137q-116 99 -116 273q0 168 94.5 271t248.5 103t248 -103t94 -271q0 -174 -115 -273h136v-77h-299v80q70 7 111 61q55 73 55 201q0 139 -60.5 217t-169.5 78t-169.5 -78t-60.5 -217q0 -142 67 -214q40 -42 99 -48v-80h-300z" />
    <glyph glyph-name="uni212A" unicode="&#x212a;" horiz-adv-x="659" 
d="M92 0v715h105v-347l296 347h120l-258 -299l272 -416h-118l-223 340l-89 -103v-237h-105z" />
    <glyph glyph-name="uni212B" unicode="&#x212b;" horiz-adv-x="655" 
d="M328 983q44 0 75.5 -31t31.5 -74q0 -44 -31.5 -75t-77.5 -31q-45 0 -76.5 30.5t-31.5 74.5q0 45 31.5 75.5t78.5 30.5zM327 930q-23 0 -38 -14.5t-15 -37.5t14.5 -38t37.5 -15t38 15t15 38q0 22 -15 37t-37 15zM173 167l-57 -167h-102l259 715h112l255 -715h-111l-57 167
h-299zM202 251h241l-120 352z" />
    <glyph glyph-name="estimated" unicode="&#x212e;" horiz-adv-x="556" 
d="M521 237h-386v-143q54 -64 150 -64q63 0 105 22.5t75 73.5l38 -23q-43 -61 -94 -88t-123 -27q-115 0 -183 73t-68 198t65.5 198t178.5 73t177.5 -72t64.5 -199v-22zM421 279v145q-16 27 -57 45.5t-87 18.5q-96 0 -142 -65v-144h286z" />
    <glyph glyph-name="onethird" unicode="&#x2153;" horiz-adv-x="920" 
d="M92 326v67h75v201q-22 -9 -75 -11v62q76 10 91 70h74v-322h72v-67h-237zM211 0l392 715h82l-392 -715h-82zM636 273l-74 19q35 103 149 103q61 0 98.5 -30t37.5 -78q0 -57 -62 -82q71 -23 71 -93q0 -54 -40.5 -86t-109.5 -32q-136 0 -160 110l79 19q16 -61 78 -61t62 54
q0 52 -64 52h-35v62h33q29 0 45 13t16 36q0 22 -14 35t-39 13q-51 0 -71 -54z" />
    <glyph glyph-name="twothirds" unicode="&#x2154;" horiz-adv-x="920" 
d="M63 326v70q98 57 142.5 104t44.5 94q0 25 -12.5 39.5t-34.5 14.5q-45 0 -59 -56l-81 19q26 110 143 110q62 0 100 -34t38 -90q0 -115 -162 -199h165v-72h-284zM223 0l392 715h82l-392 -715h-82zM636 273l-74 19q35 103 149 103q61 0 98.5 -30t37.5 -78q0 -57 -62 -82
q71 -23 71 -93q0 -54 -40.5 -86t-109.5 -32q-136 0 -160 110l79 19q16 -61 78 -61t62 54q0 52 -64 52h-35v62h33q29 0 45 13t16 36q0 22 -14 35t-39 13q-51 0 -71 -54z" />
    <glyph glyph-name="oneeighth" unicode="&#x215b;" horiz-adv-x="920" 
d="M92 326v67h75v201q-22 -9 -75 -11v62q76 10 91 70h74v-322h72v-67h-237zM211 0l392 715h82l-392 -715h-82zM609 210q-48 25 -48 75q0 51 38 80.5t104 29.5t104 -29.5t38 -80.5q0 -50 -48 -75q36 -18 51.5 -39.5t15.5 -53.5q0 -58 -43 -90.5t-118 -32.5t-118 32.5
t-43 89.5q0 33 15.5 54.5t51.5 39.5zM703 177q-33 0 -52 -15.5t-19 -42.5q0 -29 18.5 -44.5t52.5 -15.5t52.5 15.5t18.5 43.5t-18.5 43.5t-52.5 15.5zM703 331q-26 0 -41 -12.5t-15 -34.5t15 -34.5t40 -12.5q26 0 41.5 12.5t15.5 34.5t-15 34.5t-41 12.5z" />
    <glyph glyph-name="threeeighths" unicode="&#x215c;" horiz-adv-x="920" 
d="M138 599l-74 19q35 103 149 103q61 0 98.5 -30t37.5 -78q0 -57 -62 -82q71 -23 71 -93q0 -54 -40.5 -86t-109.5 -32q-136 0 -160 110l79 19q16 -61 78 -61t62 54q0 52 -64 52h-35v62h33q29 0 45 13t16 36q0 22 -14 35t-39 13q-51 0 -71 -54zM223 0l392 715h82l-392 -715
h-82zM621 210q-48 25 -48 75q0 51 38 80.5t104 29.5t104 -29.5t38 -80.5q0 -50 -48 -75q36 -18 51.5 -39.5t15.5 -53.5q0 -58 -43 -90.5t-118 -32.5t-118 32.5t-43 89.5q0 33 15.5 54.5t51.5 39.5zM715 177q-33 0 -52 -15.5t-19 -42.5q0 -29 18.5 -44.5t52.5 -15.5
t52.5 15.5t18.5 43.5t-18.5 43.5t-52.5 15.5zM715 331q-26 0 -41 -12.5t-15 -34.5t15 -34.5t40 -12.5q26 0 41.5 12.5t15.5 34.5t-15 34.5t-41 12.5z" />
    <glyph glyph-name="fiveeighths" unicode="&#x215d;" horiz-adv-x="920" 
d="M332 715v-68h-171l-8 -76q28 17 68 17q61 0 96.5 -35.5t35.5 -97.5q0 -64 -40 -99.5t-114 -35.5q-126 0 -154 104l77 22q18 -58 73 -58q31 0 49 19t18 51q0 30 -16.5 48t-44.5 18q-34 0 -58 -32h-77l22 223h244zM223 0l392 715h82l-392 -715h-82zM621 210q-48 25 -48 75
q0 51 38 80.5t104 29.5t104 -29.5t38 -80.5q0 -50 -48 -75q36 -18 51.5 -39.5t15.5 -53.5q0 -58 -43 -90.5t-118 -32.5t-118 32.5t-43 89.5q0 33 15.5 54.5t51.5 39.5zM715 177q-33 0 -52 -15.5t-19 -42.5q0 -29 18.5 -44.5t52.5 -15.5t52.5 15.5t18.5 43.5t-18.5 43.5
t-52.5 15.5zM715 331q-26 0 -41 -12.5t-15 -34.5t15 -34.5t40 -12.5q26 0 41.5 12.5t15.5 34.5t-15 34.5t-41 12.5z" />
    <glyph glyph-name="seveneighths" unicode="&#x215e;" horiz-adv-x="920" 
d="M234 326h-94q19 195 155 322h-207v67h293v-67q-67 -62 -104.5 -145.5t-42.5 -176.5zM170 0l392 715h82l-392 -715h-82zM582 210q-48 25 -48 75q0 51 38 80.5t104 29.5t104 -29.5t38 -80.5q0 -50 -48 -75q36 -18 51.5 -39.5t15.5 -53.5q0 -58 -43 -90.5t-118 -32.5
t-118 32.5t-43 89.5q0 33 15.5 54.5t51.5 39.5zM676 177q-33 0 -52 -15.5t-19 -42.5q0 -29 18.5 -44.5t52.5 -15.5t52.5 15.5t18.5 43.5t-18.5 43.5t-52.5 15.5zM676 331q-26 0 -41 -12.5t-15 -34.5t15 -34.5t40 -12.5q26 0 41.5 12.5t15.5 34.5t-15 34.5t-41 12.5z" />
    <glyph glyph-name="partialdiff" unicode="&#x2202;" horiz-adv-x="602" 
d="M190 713l48 68q117 -68 185 -143q131 -145 131 -354q0 -136 -67.5 -215t-184.5 -79q-112 0 -183 75.5t-71 194.5q0 114 67 190t168 76q71 0 124 -47q-61 128 -217 234zM301 446q-67 0 -106 -50t-39 -135q0 -89 38.5 -139t105.5 -50q68 0 107 50t39 137t-39 137t-106 50z
" />
    <glyph glyph-name="Delta" unicode="&#x2206;" horiz-adv-x="602" 
d="M632 0h-662l272 715h122zM102 84h388l-194 528z" />
    <glyph glyph-name="product" unicode="&#x220f;" horiz-adv-x="602" 
d="M58 -182v93l202 372l-186 333v99h457v-87h-345l188 -343l-205 -380h396v-87h-507z" />
    <glyph glyph-name="summation" unicode="&#x2211;" horiz-adv-x="602" 
d="M618 721v-86h-72v-798h-105v798h-280v-798h-105v798h-72v86h634z" />
    <glyph glyph-name="minus" unicode="&#x2212;" horiz-adv-x="560" 
d="M57 300v86h447v-86h-447z" />
    <glyph glyph-name="radical" unicode="&#x221a;" horiz-adv-x="602" 
d="M236 0l-104 317h-90v71h160l85 -272l234 768h284v-76h-213l-248 -808h-108z" />
    <glyph glyph-name="infinity" unicode="&#x221e;" horiz-adv-x="797" 
d="M398 288q-80 -113 -187 -113q-74 0 -119 45.5t-45 119.5q0 76 45 121.5t119 45.5q56 0 100 -26.5t87 -85.5q80 112 187 112q74 0 119 -45.5t45 -121.5q0 -74 -45 -119.5t-119 -45.5q-107 0 -187 113zM358 341l-7 9q-66 89 -136 89q-42 0 -67.5 -27t-25.5 -71
q0 -45 25.5 -71.5t67.5 -26.5q72 0 136 89zM438 341l7 -9q62 -89 136 -89q42 0 67.5 27t25.5 71q0 45 -25.5 71.5t-67.5 26.5q-38 0 -69.5 -20.5t-66.5 -68.5z" />
    <glyph glyph-name="integral" unicode="&#x222b;" horiz-adv-x="414" 
d="M36 -155l20 79q29 -11 49 -11q27 0 40 22q10 18 10 81v603q0 107 13 140q31 69 127 69q42 0 83 -15l-19 -80q-30 11 -50 11q-26 0 -39 -22q-10 -16 -10 -76v-611q0 -106 -13 -137q-30 -69 -125 -69q-45 0 -86 16z" />
    <glyph glyph-name="uni2243" unicode="&#x2243;" horiz-adv-x="560" 
d="M409 497l72 -6q-24 -145 -120 -145q-41 0 -98 38q-41 28 -63 28q-38 0 -49 -68l-72 6q24 144 120 144q39 0 97 -38q42 -28 64 -28q20 0 31.5 16t17.5 53zM74 185v86h412v-86h-412z" />
    <glyph glyph-name="approxequal" unicode="&#x2248;" horiz-adv-x="560" 
d="M407 313l76 -7q-23 -148 -123 -148q-39 0 -98 38q-41 28 -62 28q-20 0 -30.5 -16t-16.5 -53l-76 6q24 149 122 149q41 0 99 -39q41 -27 62 -27q20 0 30.5 16t16.5 53zM407 499l76 -7q-24 -148 -123 -148q-39 0 -98 38q-41 28 -62 28q-20 0 -30.5 -16t-16.5 -53l-76 7
q24 148 122 148q41 0 99 -39q41 -27 62 -27q20 0 30.5 16t16.5 53z" />
    <glyph glyph-name="notequal" unicode="&#x2260;" horiz-adv-x="560" 
d="M74 185v86h137l51 107h-188v86h229l53 111l72 -31l-38 -80h96v-86h-137l-51 -107h188v-86h-229l-53 -111l-72 31l38 80h-96z" />
    <glyph glyph-name="lessequal" unicode="&#x2264;" horiz-adv-x="560" 
d="M473 123l-396 191v82l396 191v-103l-288 -128l288 -132v-101zM77 0v86h396v-86h-396z" />
    <glyph glyph-name="greaterequal" unicode="&#x2265;" horiz-adv-x="560" 
d="M87 587l396 -191v-81l-396 -192v104l288 127l-288 132v101zM483 0h-396v86h396v-86z" />
    <glyph glyph-name="dotmath" unicode="&#x22c5;" horiz-adv-x="301" 
d="M152 400q30 0 51 -21.5t21 -51.5t-21 -51.5t-51 -21.5q-31 0 -52.5 21t-21.5 52t21.5 52t52.5 21z" />
    <glyph glyph-name="uni2300" unicode="&#x2300;" horiz-adv-x="891" 
d="M645 621l131 131l65 -65l-130 -131q67 -90 67 -201q0 -136 -96.5 -232.5t-232.5 -96.5q-112 0 -200 67l-134 -134l-65 65l134 135q-65 86 -65 198q0 136 96.5 232.5t232.5 96.5q112 0 197 -65zM643 489l-327 -329q60 -40 132 -40q98 0 167 69t69 167q0 72 -41 133z
M251 226l327 327q-60 39 -130 39q-97 0 -166 -69t-69 -166q0 -72 38 -131z" />
    <glyph glyph-name="uni25B2" unicode="&#x25b2;" horiz-adv-x="707" 
d="M354 627l311 -539h-623z" />
    <glyph glyph-name="uni25B3" unicode="&#x25b3;" horiz-adv-x="707" 
d="M354 520l-219 -379h438zM354 627l311 -539h-623z" />
    <glyph glyph-name="uni25B6" unicode="&#x25b6;" horiz-adv-x="707" 
d="M631 357l-539 -311v623z" />
    <glyph glyph-name="uni25B7" unicode="&#x25b7;" horiz-adv-x="707" 
d="M524 357l-379 220v-439zM631 357l-539 -311v623z" />
    <glyph glyph-name="uni25BC" unicode="&#x25bc;" horiz-adv-x="707" 
d="M354 88l-312 539h623z" />
    <glyph glyph-name="uni25BD" unicode="&#x25bd;" horiz-adv-x="707" 
d="M354 194l219 379h-438zM354 88l-312 539h623z" />
    <glyph glyph-name="uni25C0" unicode="&#x25c0;" horiz-adv-x="707" 
d="M77 357l539 312v-623z" />
    <glyph glyph-name="uni25C1" unicode="&#x25c1;" horiz-adv-x="707" 
d="M183 357l379 -219v439zM77 357l539 312v-623z" />
    <glyph glyph-name="lozenge" unicode="&#x25ca;" horiz-adv-x="602" 
d="M301 -33l-297 390l297 390l297 -390zM301 115l182 242l-182 242l-182 -242z" />
    <glyph glyph-name="uni25CB" unicode="&#x25cb;" horiz-adv-x="655" 
d="M331 449q-80 0 -135.5 -54t-55.5 -132q0 -79 54.5 -134t133.5 -55q77 0 132 55t55 133q0 76 -54.5 131.5t-129.5 55.5zM332 529q107 0 185 -79t78 -188q0 -111 -78.5 -189.5t-188.5 -78.5q-112 0 -190 78.5t-78 191.5q0 110 79.5 187.5t192.5 77.5z" />
    <glyph glyph-name="uni25CF" unicode="&#x25cf;" horiz-adv-x="655" 
d="M332 529q107 0 185 -79t78 -188q0 -111 -78.5 -189.5t-188.5 -78.5q-112 0 -190 78.5t-78 191.5q0 110 79.5 187.5t192.5 77.5z" />
    <glyph glyph-name="commaaccent" unicode="&#xf6c3;" 
d="M190 -251v48q55 8 57 51q-58 5 -58 54q0 23 16.5 38.5t41.5 15.5q29 0 46.5 -21.5t17.5 -57.5q0 -56 -31 -89t-90 -39z" />
    <glyph glyph-name="Acute" unicode="&#xf6c9;" 
d="M217 779l53 166h128l-109 -166h-72z" />
    <glyph glyph-name="Caron" unicode="&#xf6ca;" 
d="M208 781l-103 164h72l74 -89l74 89h70l-103 -164h-84z" />
    <glyph glyph-name="Dieresis" unicode="&#xf6cb;" 
d="M154 903q25 0 43 -18t18 -43t-18 -43t-43 -18t-43 18t-18 43t18 43t43 18zM346 903q24 0 42.5 -18.5t18.5 -42.5q0 -25 -18 -43t-43 -18t-43 18t-18 43t18 43t43 18z" />
    <glyph glyph-name="Grave" unicode="&#xf6ce;" 
d="M218 779l-109 166h128l53 -166h-72z" />
    <glyph glyph-name="Hungarumlaut" unicode="&#xf6cf;" 
d="M133 779l36 166h113l-80 -166h-69zM292 779l35 166h113l-80 -166h-68z" />
    <glyph glyph-name="Macron" unicode="&#xf6d0;" 
d="M126 796v76h248v-76h-248z" />
    <glyph glyph-name="Dbreve" horiz-adv-x="743" 
d="M92 0v715h241q162 0 253 -94t91 -263q0 -172 -90.5 -265t-256.5 -93h-238zM197 86h141q112 0 171 69.5t59 202.5q0 131 -59.5 201t-171.5 70h-140v-543zM399 918h74q-7 -63 -44 -97q-40 -37 -99 -37q-58 0 -96 36q-36 33 -43 98h75q7 -32 22.5 -46.5t44.5 -14.5
q53 0 66 61z" />
    <glyph glyph-name="Adotaccent" horiz-adv-x="655" 
d="M327 901q25 0 43 -18t18 -43t-18 -43t-43 -18t-43 18t-18 43t18 43t43 18zM173 167l-57 -167h-102l259 715h112l255 -715h-111l-57 167h-299zM202 251h241l-120 352z" />
    <glyph glyph-name="Fdotaccent" horiz-adv-x="601" 
d="M92 0v715h461v-86h-356v-246h282v-84h-282v-299h-105zM330 901q25 0 43 -18t18 -43t-18 -43t-43 -18t-43 18t-18 43t18 43t43 18z" />
    <glyph glyph-name="ahungarumlaut" horiz-adv-x="554" 
d="M524 75v-77q-27 -3 -37 -3q-89 0 -115 77q-63 -82 -160 -82q-73 0 -118.5 41t-45.5 107q0 116 135 155q66 18 182 21v27q0 56 -23.5 82t-74.5 26q-76 0 -149 -62l-54 68q89 78 210 78q95 0 145.5 -49t50.5 -141v-220q0 -49 42 -49q8 0 12 1zM365 177v66q-213 -1 -213 -99
q0 -35 22.5 -54t62.5 -19q56 0 92 29.5t36 76.5zM156 587l36 166h113l-80 -166h-69zM315 587l35 166h113l-80 -166h-68z" />
    <glyph glyph-name="adotaccent" horiz-adv-x="554" 
d="M524 75v-77q-27 -3 -37 -3q-89 0 -115 77q-63 -82 -160 -82q-73 0 -118.5 41t-45.5 107q0 116 135 155q66 18 182 21v27q0 56 -23.5 82t-74.5 26q-76 0 -149 -62l-54 68q89 78 210 78q95 0 145.5 -49t50.5 -141v-220q0 -49 42 -49q8 0 12 1zM365 177v66q-213 -1 -213 -99
q0 -35 22.5 -54t62.5 -19q56 0 92 29.5t36 76.5zM277 731q25 0 43 -18t18 -43t-18 -43t-43 -18t-43 18t-18 43t18 43t43 18z" />
    <glyph glyph-name="one.fitted" horiz-adv-x="470" 
d="M32 0v86h166v465q-54 -24 -154 -24v74q80 8 124 38.5t58 88.5h77v-642h153v-86h-424z" />
    <glyph glyph-name="two.fitted" horiz-adv-x="553" 
d="M28 0v88q199 139 278.5 234t79.5 193q0 56 -32 90t-86 34q-53 0 -86.5 -31t-51.5 -98l-98 23q22 94 82 143t154 49q103 0 165 -59t62 -157q0 -141 -143 -275q-63 -58 -193 -148h342v-86h-473z" />
    <glyph glyph-name="three.fitted" horiz-adv-x="582" 
d="M136 522l-89 24q25 82 84 129q64 50 159 50q98 0 160.5 -54t62.5 -139q0 -106 -113 -154q134 -43 134 -177q0 -97 -69 -154t-185 -57q-119 0 -193 63q-31 27 -48 57t-27 77l98 23q34 -134 172 -134q69 0 106 32.5t37 92.5q0 61 -39 94.5t-111 33.5h-70v86h65
q66 0 102.5 29.5t36.5 82.5q0 52 -32.5 82t-88.5 30q-57 0 -93.5 -28t-58.5 -89z" />
    <glyph glyph-name="four.fitted" horiz-adv-x="580" 
d="M370 0v147h-357v101l335 478h121v-493h97v-86h-97v-147h-99zM370 625l-260 -392h260v392z" />
    <glyph glyph-name="five.fitted" horiz-adv-x="578" 
d="M176 629l-20 -210q51 55 140 55q101 0 164.5 -66.5t63.5 -173.5q0 -111 -67.5 -177.5t-180.5 -66.5q-106 0 -175 54q-54 42 -77 120l99 27q34 -115 151 -115q67 0 104 41t37 115q0 72 -38.5 114t-103.5 42q-80 0 -125 -65h-90l37 392h391v-86h-310z" />
    <glyph glyph-name="six.fitted" horiz-adv-x="625" 
d="M541 579l-89 -37q-23 54 -49.5 75.5t-69.5 21.5q-149 0 -165 -274q62 93 172 93q100 0 163.5 -64t63.5 -165q0 -107 -66.5 -173t-175.5 -66q-128 0 -204 105q-59 82 -59 238q0 182 73.5 287t200.5 105q146 0 205 -146zM322 372q-64 0 -103 -40t-39 -105q0 -66 40 -108.5
t103 -42.5q61 0 98 41t37 108t-37 107t-99 40z" />
    <glyph glyph-name="seven.fitted" horiz-adv-x="465" 
d="M199 0h-113q14 186 83.5 349.5t182.5 279.5h-352v86h455v-90q-110 -112 -178 -278t-78 -347z" />
    <glyph glyph-name="eight.fitted" horiz-adv-x="628" 
d="M451 384q129 -56 129 -178q0 -96 -74 -156t-192 -60t-192 59.5t-74 154.5q0 125 133 181q-98 52 -98 150q0 83 65 136.5t167 53.5q101 0 165 -53t64 -137q0 -98 -93 -151zM318 342q-74 0 -117.5 -36t-43.5 -97t43 -97t115 -36t114 36.5t42 98.5q0 60 -41.5 95.5
t-111.5 35.5zM315 641q-58 0 -91.5 -29.5t-33.5 -79.5t34.5 -79.5t92.5 -29.5q56 0 88 28.5t32 80.5q0 49 -33.5 79t-88.5 30z" />
    <glyph glyph-name="nine.fitted" horiz-adv-x="613" 
d="M54 146l94 34q18 -56 47.5 -80t79.5 -24q85 0 124.5 68.5t44.5 223.5q-59 -92 -171 -92q-96 0 -157.5 61t-61.5 157q0 102 67 166.5t172 64.5q141 0 210 -111q48 -76 48 -222q0 -196 -70 -299t-204 -103q-106 0 -170 64q-35 35 -53 92zM295 639q-59 0 -95.5 -38.5
t-36.5 -101.5t35.5 -100t94.5 -37q62 0 101 38t39 99t-39 100.5t-99 39.5z" />
    <glyph glyph-name="zero.fitted" horiz-adv-x="622" 
d="M311 725q117 0 187 -100t70 -267t-70 -267.5t-186 -100.5q-119 0 -188.5 100.5t-69.5 271.5q0 163 70.5 263t186.5 100zM311 639q-68 0 -108 -75t-40 -203q0 -135 39.5 -210t110.5 -75q68 0 107 76t39 206q0 131 -39.5 206t-108.5 75z" />
    <glyph glyph-name="sterling.fitted" horiz-adv-x="602" 
d="M47 315v72h74q-25 65 -25 127q0 96 60.5 153.5t161.5 57.5q96 0 157 -51q57 -46 81 -135l-97 -27q-19 68 -51.5 97.5t-87.5 29.5q-54 0 -84.5 -33.5t-30.5 -94.5q0 -52 29 -124h183v-72h-153q36 -93 36 -160q0 -18 -4 -35q66 -44 107 -44q35 0 53 20.5t25 69.5l91 -13
q-12 -86 -48.5 -124.5t-104.5 -38.5q-73 0 -156 61q-53 -60 -129 -60q-54 0 -87 28.5t-33 75.5q0 44 31 72t80 28q36 0 83 -22q-6 54 -53 142h-108zM198 100q-40 27 -67 27q-18 0 -28.5 -9t-10.5 -24q0 -35 43 -35q41 0 63 41z" />
    <glyph glyph-name="dollar.fitted" horiz-adv-x="602" 
d="M268 -135v126q-94 7 -159 57t-89 134l95 29q19 -62 55.5 -94t97.5 -40v249q-94 22 -141 53q-77 50 -77 148q0 92 69 146q55 43 149 52v88h65v-89q149 -16 210 -158l-89 -34q-22 50 -50 75t-71 32v-228q102 -24 149 -54q80 -50 80 -159q0 -78 -49 -132q-31 -33 -72 -49.5
t-108 -24.5v-127h-65zM333 313v-236q129 17 129 115q0 49 -27.5 75t-101.5 46zM268 425v217q-120 -13 -120 -105q0 -46 25 -69.5t95 -42.5z" />
    <glyph glyph-name="cent.fitted" horiz-adv-x="577" 
d="M273 -135v127q-97 16 -153 79q-65 74 -65 189q0 121 68 197q30 33 63.5 49.5t86.5 24.5v98h65v-98q116 -13 178 -112l-78 -49q-25 36 -47.5 53t-52.5 23v-372q68 13 109 87l79 -44q-62 -113 -188 -125v-127h-65zM273 75v371q-34 -9 -55.5 -26t-36.5 -48q-22 -44 -22 -111
q0 -96 43 -145q24 -29 71 -41z" />
    <glyph glyph-name="florin.fitted" horiz-adv-x="420" 
d="M49 322v84h94l17 148q20 170 168 170q55 0 100 -24l-22 -77q-37 17 -66 17q-67 0 -76 -81l-17 -153h121v-84h-130l-38 -349q-16 -155 -156 -155q-48 0 -83 19l22 76q24 -11 48 -11q30 0 45 15.5t19 50.5l39 354h-85z" />
    <glyph glyph-name="Euro.fitted" horiz-adv-x="635" 
d="M8 395v67h81q16 69 36.5 110.5t56.5 78.5q74 75 187 75q90 0 145.5 -46t90.5 -149l-94 -26q-25 75 -57.5 105t-87.5 30q-69 0 -110 -43t-60 -135h204v-67h-211q-1 -12 -1 -42q0 -23 1 -36h211v-67h-203q20 -90 61 -132t110 -42q59 0 94 33t59 111l94 -29
q-26 -81 -65 -124q-69 -77 -185 -77q-99 0 -167 58q-42 34 -67 80.5t-42 121.5h-81v67h73q-1 9 -1 31q0 17 1 28v19h-73z" />
    <glyph glyph-name="yen.fitted" horiz-adv-x="557" 
d="M35 332v67h144l-172 316h118l155 -310l164 310h106l-172 -316h145v-67h-182l-10 -19v-62h192v-67h-192v-184h-105v184h-191v67h191v62l-11 19h-180z" />
    <glyph glyph-name="one.numerator" horiz-adv-x="410" 
d="M92 326v67h75v201q-22 -9 -75 -11v62q76 10 91 70h74v-322h72v-67h-237z" />
    <glyph glyph-name="two.numerator" horiz-adv-x="410" 
d="M63 326v70q98 57 142.5 104t44.5 94q0 25 -12.5 39.5t-34.5 14.5q-45 0 -59 -56l-81 19q26 110 143 110q62 0 100 -34t38 -90q0 -115 -162 -199h165v-72h-284z" />
    <glyph glyph-name="three.numerator" horiz-adv-x="410" 
d="M138 599l-74 19q35 103 149 103q61 0 98.5 -30t37.5 -78q0 -57 -62 -82q71 -23 71 -93q0 -54 -40.5 -86t-109.5 -32q-136 0 -160 110l79 19q16 -61 78 -61t62 54q0 52 -64 52h-35v62h33q29 0 45 13t16 36q0 22 -14 35t-39 13q-51 0 -71 -54z" />
    <glyph glyph-name="four.numerator" horiz-adv-x="410" 
d="M220 326v73h-185v76l181 240h94v-250h51v-66h-51v-73h-90zM224 617l-111 -152h111v152z" />
    <glyph glyph-name="five.numerator" horiz-adv-x="410" 
d="M332 715v-68h-171l-8 -76q28 17 68 17q61 0 96.5 -35.5t35.5 -97.5q0 -64 -40 -99.5t-114 -35.5q-126 0 -154 104l77 22q18 -58 73 -58q31 0 49 19t18 51q0 30 -16.5 48t-44.5 18q-34 0 -58 -32h-77l22 223h244z" />
    <glyph glyph-name="six.numerator" horiz-adv-x="410" 
d="M351 642l-65 -33q-16 26 -31 36t-38 10q-34 0 -52 -24t-24 -76q38 26 83 26q64 0 101.5 -34.5t37.5 -93.5q0 -62 -39.5 -97.5t-108.5 -35.5q-85 0 -125.5 46t-40.5 141q0 103 44 158.5t127 55.5q48 0 77 -17.5t54 -61.5zM208 517q-31 0 -48.5 -17t-17.5 -47
q0 -32 17 -49.5t48 -17.5t48.5 17.5t17.5 48.5t-17.5 48t-47.5 17z" />
    <glyph glyph-name="seven.numerator" horiz-adv-x="410" 
d="M205 326h-94q19 195 155 322h-207v67h293v-67q-67 -62 -104.5 -145.5t-42.5 -176.5z" />
    <glyph glyph-name="eight.numerator" horiz-adv-x="410" 
d="M111 536q-48 25 -48 75q0 51 38 80.5t104 29.5t104 -29.5t38 -80.5q0 -50 -48 -75q36 -18 51.5 -39.5t15.5 -53.5q0 -58 -43 -90.5t-118 -32.5t-118 32.5t-43 89.5q0 33 15.5 54.5t51.5 39.5zM205 503q-33 0 -52 -15.5t-19 -42.5q0 -29 18.5 -44.5t52.5 -15.5t52.5 15.5
t18.5 43.5t-18.5 43.5t-52.5 15.5zM205 657q-26 0 -41 -12.5t-15 -34.5t15 -34.5t40 -12.5q26 0 41.5 12.5t15.5 34.5t-15 34.5t-41 12.5z" />
    <glyph glyph-name="nine.numerator" horiz-adv-x="410" 
d="M47 398l64 36q29 -48 80 -48q36 0 55 24t23 76q-38 -26 -85 -26q-64 0 -100.5 32.5t-36.5 89.5q0 64 41 101.5t109 37.5q164 0 164 -187q0 -104 -44 -159t-129 -55q-98 0 -141 78zM203 655q-32 0 -49 -17.5t-17 -49.5q0 -31 17 -47.5t48 -16.5t48.5 17t17.5 48
t-17.5 48.5t-47.5 17.5z" />
    <glyph glyph-name="zero.numerator" horiz-adv-x="410" 
d="M205 721q75 0 118.5 -53.5t43.5 -146.5t-43.5 -147t-118.5 -54q-76 0 -119 54t-43 149q0 91 44 144.5t118 53.5zM204 653q-69 0 -69 -133q0 -132 69 -132q71 0 71 131q0 134 -71 134z" />
    <glyph glyph-name="one.denominator" horiz-adv-x="410" 
d="M92 0v67h75v201q-22 -9 -75 -11v62q76 10 91 70h74v-322h72v-67h-237z" />
    <glyph glyph-name="two.denominator" horiz-adv-x="410" 
d="M63 0v70q98 57 142.5 104t44.5 94q0 25 -12.5 39.5t-34.5 14.5q-45 0 -59 -56l-81 19q26 110 143 110q62 0 100 -34t38 -90q0 -115 -162 -199h165v-72h-284z" />
    <glyph glyph-name="three.denominator" horiz-adv-x="410" 
d="M138 273l-74 19q35 103 149 103q61 0 98.5 -30t37.5 -78q0 -57 -62 -82q71 -23 71 -93q0 -54 -40.5 -86t-109.5 -32q-136 0 -160 110l79 19q16 -61 78 -61t62 54q0 52 -64 52h-35v62h33q29 0 45 13t16 36q0 22 -14 35t-39 13q-51 0 -71 -54z" />
    <glyph glyph-name="four.denominator" horiz-adv-x="410" 
d="M220 0v73h-185v76l181 240h94v-250h51v-66h-51v-73h-90zM224 291l-111 -152h111v152z" />
    <glyph glyph-name="five.denominator" horiz-adv-x="410" 
d="M332 389v-68h-171l-8 -76q28 17 68 17q61 0 96.5 -36t35.5 -97q0 -64 -40 -99.5t-114 -35.5q-126 0 -154 104l77 22q18 -58 73 -58q31 0 49 19t18 51q0 30 -16.5 48t-44.5 18q-34 0 -58 -32h-77l22 223h244z" />
    <glyph glyph-name="six.denominator" horiz-adv-x="410" 
d="M351 316l-65 -33q-16 26 -31 36t-38 10q-34 0 -52 -24t-24 -76q38 26 83 26q64 0 101.5 -34.5t37.5 -93.5q0 -62 -39.5 -97.5t-108.5 -35.5q-85 0 -125.5 46t-40.5 141q0 103 44 158.5t127 55.5q48 0 77 -17.5t54 -61.5zM208 191q-31 0 -48.5 -17t-17.5 -47
q0 -32 17 -49.5t48 -17.5t48.5 17.5t17.5 48.5t-17.5 48t-47.5 17z" />
    <glyph glyph-name="seven.denominator" horiz-adv-x="410" 
d="M205 0h-94q19 195 155 322h-207v67h293v-67q-67 -62 -104.5 -145.5t-42.5 -176.5z" />
    <glyph glyph-name="eight.denominator" horiz-adv-x="410" 
d="M111 210q-48 25 -48 75q0 51 38 80.5t104 29.5t104 -29.5t38 -80.5q0 -50 -48 -75q36 -18 51.5 -39.5t15.5 -53.5q0 -58 -43 -90.5t-118 -32.5t-118 32.5t-43 89.5q0 33 15.5 54.5t51.5 39.5zM205 177q-33 0 -52 -15.5t-19 -42.5q0 -29 18.5 -44.5t52.5 -15.5t52.5 15.5
t18.5 43.5t-18.5 43.5t-52.5 15.5zM205 331q-26 0 -41 -12.5t-15 -34.5t15 -34.5t40 -12.5q26 0 41.5 12.5t15.5 34.5t-15 34.5t-41 12.5z" />
    <glyph glyph-name="nine.denominator" horiz-adv-x="410" 
d="M47 72l64 36q29 -48 80 -48q36 0 55 24t23 76q-38 -26 -85 -26q-64 0 -100.5 32.5t-36.5 89.5q0 64 41 101.5t109 37.5q164 0 164 -187q0 -104 -44 -159t-129 -55q-98 0 -141 78zM203 329q-32 0 -49 -17.5t-17 -49.5q0 -31 17 -47.5t48 -16.5t48.5 17t17.5 48t-17.5 48.5
t-47.5 17.5z" />
    <glyph glyph-name="zero.denominator" horiz-adv-x="410" 
d="M205 395q75 0 118.5 -53.5t43.5 -146.5t-43.5 -147t-118.5 -54q-76 0 -119 54t-43 149q0 91 44 144.5t118 53.5zM204 327q-69 0 -69 -133q0 -132 69 -132q71 0 71 131q0 134 -71 134z" />
    <glyph glyph-name="oneone" horiz-adv-x="920" 
d="M92 326v67h75v201q-22 -9 -75 -11v62q76 10 91 70h74v-322h72v-67h-237zM223 0l392 715h82l-392 -715h-82zM602 0v67h75v201q-22 -9 -75 -11v62q76 10 91 70h74v-322h72v-67h-237z" />
    <glyph glyph-name="onefifth" horiz-adv-x="920" 
d="M92 326v67h75v201q-22 -9 -75 -11v62q76 10 91 70h74v-322h72v-67h-237zM199 0l392 715h82l-392 -715h-82zM818 389v-68h-171l-8 -76q28 17 68 17q61 0 96.5 -36t35.5 -97q0 -64 -40 -99.5t-114 -35.5q-65 0 -101.5 24.5t-52.5 79.5l77 22q18 -58 73 -58q31 0 49 19
t18 51q0 30 -16.5 48t-44.5 18q-34 0 -58 -32h-77l22 223h244z" />
    <glyph glyph-name="twofifth" horiz-adv-x="920" 
d="M63 326v70q98 57 142.5 104t44.5 94q0 25 -12.5 39.5t-34.5 14.5q-45 0 -59 -56l-81 19q26 110 143 110q62 0 100 -34t38 -90q0 -115 -162 -199h165v-72h-284zM223 0l392 715h82l-392 -715h-82zM843 389v-68h-171l-8 -76q28 17 68 17q61 0 96.5 -36t35.5 -97
q0 -64 -40 -99.5t-114 -35.5q-65 0 -101.5 24.5t-52.5 79.5l77 22q18 -58 73 -58q31 0 49 19t18 51q0 30 -16.5 48t-44.5 18q-34 0 -58 -32h-77l22 223h244z" />
    <glyph glyph-name="threefifth" horiz-adv-x="920" 
d="M138 599l-74 19q35 103 149 103q61 0 98.5 -30t37.5 -78q0 -57 -62 -82q71 -23 71 -93q0 -54 -40.5 -86t-109.5 -32q-136 0 -160 110l79 19q16 -61 78 -61t62 54q0 52 -64 52h-35v62h33q29 0 45 13t16 36q0 22 -14 35t-39 13q-51 0 -71 -54zM223 0l392 715h82l-392 -715
h-82zM842 389v-68h-171l-8 -76q28 17 68 17q61 0 96.5 -36t35.5 -97q0 -64 -40 -99.5t-114 -35.5q-65 0 -101.5 24.5t-52.5 79.5l77 22q18 -58 73 -58q31 0 49 19t18 51q0 30 -16.5 48t-44.5 18q-34 0 -58 -32h-77l22 223h244z" />
    <glyph glyph-name="fourfifth" horiz-adv-x="920" 
d="M220 326v73h-185v76l181 240h94v-250h51v-66h-51v-73h-90zM224 617l-111 -152h111v152zM223 0l392 715h82l-392 -715h-82zM842 389v-68h-171l-8 -76q28 17 68 17q61 0 96.5 -36t35.5 -97q0 -64 -40 -99.5t-114 -35.5q-65 0 -101.5 24.5t-52.5 79.5l77 22q18 -58 73 -58
q31 0 49 19t18 51q0 30 -16.5 48t-44.5 18q-34 0 -58 -32h-77l22 223h244z" />
    <glyph glyph-name="onesixth" horiz-adv-x="920" 
d="M92 326v67h75v201q-22 -9 -75 -11v62q76 10 91 70h74v-322h72v-67h-237zM211 0l392 715h82l-392 -715h-82zM848 316l-64 -33q-17 26 -32 36t-37 10q-66 0 -76 -100q38 26 83 26q64 0 101.5 -34.5t37.5 -93.5q0 -62 -39.5 -97.5t-108.5 -35.5q-85 0 -125.5 46t-40.5 141
q0 103 44 158.5t127 55.5q47 0 76.5 -18t53.5 -61zM706 191q-31 0 -48.5 -17t-17.5 -47q0 -32 17 -49.5t48 -17.5t48.5 17.5t17.5 48.5t-17.5 48t-47.5 17z" />
    <glyph glyph-name="fivesixth" horiz-adv-x="920" 
d="M332 715v-68h-171l-8 -76q28 17 68 17q61 0 96.5 -35.5t35.5 -97.5q0 -64 -40 -99.5t-114 -35.5q-126 0 -154 104l77 22q18 -58 73 -58q31 0 49 19t18 51q0 30 -16.5 48t-44.5 18q-34 0 -58 -32h-77l22 223h244zM223 0l392 715h82l-392 -715h-82zM860 316l-64 -33
q-17 26 -32 36t-37 10q-66 0 -76 -100q38 26 83 26q64 0 101.5 -34.5t37.5 -93.5q0 -62 -39.5 -97.5t-108.5 -35.5q-85 0 -125.5 46t-40.5 141q0 103 44 158.5t127 55.5q47 0 76.5 -18t53.5 -61zM718 191q-31 0 -48.5 -17t-17.5 -47q0 -32 17 -49.5t48 -17.5t48.5 17.5
t17.5 48.5t-17.5 48t-47.5 17z" />
    <glyph glyph-name="Dotaccent" 
d="M250 901q25 0 43 -18t18 -43t-18 -43t-43 -18t-43 18t-18 43t18 43t43 18z" />
    <glyph glyph-name="Ring" 
d="M251 982q44 0 75.5 -31t31.5 -74q0 -44 -31.5 -74.5t-76.5 -30.5t-76.5 30.5t-31.5 74.5t31.5 74.5t77.5 30.5zM251 933q-23 0 -38 -15.5t-15 -38.5t15 -38.5t37 -15.5q23 0 37.5 15t14.5 39q0 23 -14.5 38.5t-36.5 15.5z" />
    <glyph glyph-name="Circumflex" 
d="M106 780l102 165h87l100 -165h-71l-74 85l-74 -85h-70z" />
    <glyph glyph-name="Breve" 
d="M96 915h75q5 -74 81 -74q77 0 80 74h75q-3 -148 -155 -148q-151 0 -156 148z" />
    <glyph glyph-name="Tilde" 
d="M151 785l-61 6q8 56 34 86.5t65 30.5q28 0 75 -26q32 -18 47 -18q28 0 37 45l63 -6q-9 -56 -35.5 -86.5t-65.5 -30.5q-28 0 -76 26q-31 18 -45 18q-31 0 -38 -45z" />
    <glyph glyph-name="Cedilla" 
d="M173 -86l80 111l52 -3l-60 -81q16 4 24 4q32 0 53 -21.5t21 -55.5q0 -40 -27.5 -62.5t-75.5 -22.5q-61 0 -101 46l47 32q18 -25 52 -25q40 0 40 34q0 32 -35 32q-20 0 -30 -13z" />
    <glyph glyph-name="Ogonek" 
d="M508 18l57 -4q-54 -41 -77 -72.5t-23 -63.5q0 -37 38 -37q26 0 50 25l37 -42q-39 -36 -92 -36q-48 0 -76 22.5t-28 61.5q0 69 79 123q4 2 35 23z" />
    <glyph glyph-name="commaaccent.sc" 
d="M192 -251v48q55 8 57 51q-58 5 -58 54q0 23 16.5 38.5t41.5 15.5q29 0 46.5 -21.5t17.5 -57.5q0 -56 -31 -89t-90 -39z" />
    <glyph glyph-name="commareversed" 
d="M310 788v-48q-55 -8 -57 -51q58 -5 58 -54q0 -23 -16.5 -38.5t-41.5 -15.5q-29 0 -46.5 21.5t-17.5 57.5q0 56 31 89t90 39z" />
    </font>
</defs>
</svg>
