<svg xmlns="http://www.w3.org/2000/svg" width="94.764" height="64.395" viewBox="0 0 25.073031 17.03772"><path d="M23.48 4.419c-.277-.606-.593-1.293-.562-1.485.043-.275.165-.466.282-.65.14-.219.297-.466.267-.795-.05-.542-.647-.827-3.907-.979-2.02-.094-3.042-.319-3.213-.438A.398.398 0 0 0 16.12 0H9.19a.758.758 0 0 0-.758.757v.668a1.042 1.042 0 0 0-.26-.036c-.09 0-.176.015-.259.036v-.67A.397.397 0 0 0 7.516.36H5.967a1.98 1.98 0 0 0-1.62.843.394.394 0 0 0-.085.016l-1.203.376a.397.397 0 0 0-.278.379v.163H.397a.397.397 0 1 0 0 .794H2.78v.078c0 .173.113.327.278.379l1.203.375c.027.009.054.01.082.013.359.511.952.847 1.623.847h1.55a.396.396 0 0 0 .396-.397v-.584c.083.022.17.036.26.036s.176-.014.26-.036V4c0 .417.34.757.757.757h.409v.277c-.38.157-.65.53-.65.967 0 .088.014.171.035.253h-.682a.397.397 0 1 0 0 .794h.254v6.93a.536.536 0 0 1-.158.378l-.263.26a.397.397 0 0 0-.118.283v.484a.843.843 0 0 0 .845.847c.06 0 .12-.006.179-.02l1.715-.367a.851.851 0 0 0 .669-.828V7.048h.265a.397.397 0 1 0 0-.794h-.682c.02-.082.034-.165.034-.253 0-.436-.269-.81-.65-.967v-.277h.542c.083.255.22.572.449.893.457.644 1.376 1.43 3.153 1.513 2.486.116 3 .603 3.052.659.067.13.203.215.353.215h.929l.327 2.003a.397.397 0 0 0 .284.318l1.014.286.027.166c.022.134.11.247.236.3l.248.108a.392.392 0 0 1 .234.31l.138 1.1a.961.961 0 0 1-.548.992l-.59.276a.397.397 0 0 0-.229.375c.003.06.071 1.479 1.155 2.268.456.332 1.012.499 1.663.499.418 0 .875-.07 1.369-.207l.004-.002a.396.396 0 0 0 .082-.033l.009-.007.02-.014a.393.393 0 0 0 .06-.05c.006-.006.012-.011.017-.018a.395.395 0 0 0 .056-.08l.002-.007a.396.396 0 0 0 .03-.088c0-.004.003-.008.003-.013.041-.225.99-5.545.398-8.26-.33-1.513-.948-2.858-1.398-3.84zM10.632 15.015a.053.053 0 0 1-.042.052l-1.714.368a.05.05 0 0 1-.045-.01.05.05 0 0 1-.02-.042v-.318l.147-.145c.25-.247.393-.59.393-.942v-6.93h1.281zm-.888-9.014a.253.253 0 1 1 .506 0 .253.253 0 0 1-.506 0zm14.36 2.427c.216.986.207 2.383.114 3.732a9.526 9.526 0 0 1-.141-.933c-.27-2.502-.544-3.266-.556-3.297a.398.398 0 0 0-.243-.237c-.314-.11-.66-.308-.708-.401-.095-.333-.146-.857-.147-.862a.397.397 0 0 0-.344-.356l-3.497-.451a1.04 1.04 0 0 1-.167-.036l-4.37-1.321a1.043 1.043 0 0 1-.68-.976v-.574h8.792c-.007.032-.017.06-.022.094-.068.43.208 1.03.625 1.94.46 1.002 1.033 2.25 1.345 3.678zM3.984 2.844l-.408-.128v-.451l.408-.128v.501zm.794-.206v-.296c0-.516.333-.952.793-1.117v2.53c-.46-.164-.793-.6-.793-1.117zm2.342 1.19h-.755V1.152h.755v1.472zm1.054-.944a.263.263 0 0 1-.26-.26v-.181c0-.141.119-.26.26-.26.14 0 .26.119.26.26v.18c0 .142-.12.26-.26.26zm1.053-.26V.793h1.583v3.17H9.226zM19.94 9.663l-.266-1.626h.397l.283 1.743zm.898 4.83l.328-.154a1.753 1.753 0 0 0 1-1.81l-.138-1.1a1.189 1.189 0 0 0-.709-.94l-.048-.022-.471-2.89a.397.397 0 0 0-.392-.334h-2.273c-.335-.33-1.222-.764-3.562-.873-2.641-.123-2.946-2.013-2.97-2.21V.795h4.413c.675.33 2.459.46 3.507.509 2.158.1 2.882.259 3.125.357-.027.055-.07.123-.117.197l-.04.065h-9.524a.397.397 0 0 0-.397.397v.971c0 .765.482 1.457 1.223 1.728l4.391 1.329c.097.029.197.05.296.063l3.19.411c.029.205.074.472.136.689.122.43.678.719 1.017.859.085.328.275 1.185.464 2.942.144 1.34.392 2.06.8 2.303a47.18 47.18 0 0 1-.238 1.837c-.231-.215-.52-.373-.858-.336-.538.055-.877.57-1.056.952a1.657 1.657 0 0 1-.298-.167c-.543-.392-.734-1.049-.8-1.408zm1.905 1.747c.11-.184.233-.326.33-.336.058-.006.19.06.372.284a3.54 3.54 0 0 1-.702.052zm-.536-7.03a.404.404 0 0 1-.153.03.4.4 0 0 1-.281-.118.269.269 0 0 1-.048-.061.247.247 0 0 1-.037-.069.348.348 0 0 1-.032-.15.36.36 0 0 1 .032-.151.248.248 0 0 1 .037-.07.35.35 0 0 1 .048-.06.401.401 0 0 1 .434-.085c.024.008.045.021.069.035a.54.54 0 0 1 .108.11.34.34 0 0 1 .058.143.36.36 0 0 1 0 .154.343.343 0 0 1-.058.143.54.54 0 0 1-.108.111c-.024.013-.045.027-.07.037zm-.964-5.61c0 .22-.177.398-.397.398H18.83a.397.397 0 1 1 0-.794h2.016c.22 0 .397.177.397.397zm0 1.256a.397.397 0 0 1-.397.397H18.83a.397.397 0 1 1 0-.794h2.016c.22 0 .397.178.397.397z" stroke="b0b3ba" stroke-width=".265"/></svg>