<?xml version="1.0" encoding="utf-8"?>
<!-- Generator: Adobe Illustrator 19.0.0, SVG Export Plug-In . SVG Version: 6.00 Build 0)  -->
<svg version="1.1" id="Layer_1" xmlns="http://www.w3.org/2000/svg" xmlns:xlink="http://www.w3.org/1999/xlink" x="0px" y="0px"
	 viewBox="0 0 70 70" style="enable-background:new 0 0 70 70;" xml:space="preserve">
<style type="text/css">
	.st0{fill:#222222;}
	.st1{fill:#477ABD;}
</style>
<g id="XMLID_3_">
	<g id="black_2_">
		<g id="XMLID_6_">
			<path id="XMLID_7_" class="st0" d="M19.9,58.1c-3.3,0-5.9,2.6-5.9,5.9c0,3.3,2.6,5.9,5.9,5.9s5.9-2.6,5.9-5.9
				C26,60.7,23.2,58.1,19.9,58.1z M54.1,58.1c-3.3,0-5.9,2.6-5.9,5.9c0,3.3,2.6,5.9,5.9,5.9c3.3,0,5.9-2.6,5.9-5.9
				C60.2,60.7,57.6,58.1,54.1,58.1z"/>
		</g>
	</g>
	<g id="blue_2_">
		<g id="XMLID_4_">
			<path id="XMLID_1_" class="st1" d="M70.1,14H21.2l-5-14H0.1v9h9.9l15.3,42l39.4-10.7c0,0,4.5-1.1,4.5-7.4V14H70.1z"/>
		</g>
	</g>
</g>
</svg>
