<?xml version="1.0" encoding="UTF-8" standalone="no"?>
<!-- Created with Inkscape (http://www.inkscape.org/) -->

<svg
   xmlns:dc="http://purl.org/dc/elements/1.1/"
   xmlns:cc="http://creativecommons.org/ns#"
   xmlns:rdf="http://www.w3.org/1999/02/22-rdf-syntax-ns#"
   xmlns:svg="http://www.w3.org/2000/svg"
   xmlns="http://www.w3.org/2000/svg"
   xmlns:sodipodi="http://sodipodi.sourceforge.net/DTD/sodipodi-0.dtd"
   xmlns:inkscape="http://www.inkscape.org/namespaces/inkscape"
   width="20.872658mm"
   height="22.086359mm"
   viewBox="0 0 20.872658 22.086359"
   version="1.1"
   id="svg8"
   inkscape:version="0.92.3 (2405546, 2018-03-11)"
   sodipodi:docname="icon-compact.svg">
  <defs
     id="defs2" />
  <sodipodi:namedview
     id="base"
     pagecolor="#ffffff"
     bordercolor="#666666"
     borderopacity="1.0"
     inkscape:pageopacity="0.0"
     inkscape:pageshadow="2"
     inkscape:zoom="2.8"
     inkscape:cx="121.75257"
     inkscape:cy="40.169521"
     inkscape:document-units="mm"
     inkscape:current-layer="layer1"
     showgrid="false"
     inkscape:snap-grids="false"
     inkscape:snap-page="true"
     inkscape:snap-center="false"
     inkscape:snap-to-guides="true"
     inkscape:window-width="1920"
     inkscape:window-height="1017"
     inkscape:window-x="-8"
     inkscape:window-y="-8"
     inkscape:window-maximized="1" />
  <metadata
     id="metadata5">
    <rdf:RDF>
      <cc:Work
         rdf:about="">
        <dc:format>image/svg+xml</dc:format>
        <dc:type
           rdf:resource="http://purl.org/dc/dcmitype/StillImage" />
        <dc:title></dc:title>
      </cc:Work>
    </rdf:RDF>
  </metadata>
  <g
     inkscape:label="Layer 1"
     inkscape:groupmode="layer"
     id="layer1"
     transform="translate(-25.392808,-80.512193)">
    <g
       id="g3715"
       transform="matrix(0.26458333,0,0,0.26458333,22.599985,78.326003)" stroke="b0b3ba">
      <path
         inkscape:connector-curvature="0"
         d="m 15.68457,55.078125 c 0.199707,0 0.400879,-0.04004 0.592285,-0.12207 l 14.279786,-6.141114 c 0.174621,-0.07507 0.324768,-0.182129 0.453003,-0.307556 0.0044,-0.0043 0.01044,-0.0055 0.01477,-0.0098 l 0.01935,-0.01935 c 0.0013,-0.0013 0.0026,-0.0025 0.0038,-0.0038 l 23.720459,-23.720459 1.204102,-1.204101 3.842285,-3.842286 c 1.57959,-1.579101 1.57959,-4.149414 0,-5.728515 L 55.28316,9.4478238 c -1.579101,-1.5800781 -4.149414,-1.5800781 -5.728515,0 L 45.712359,13.290109 44.508258,14.494211 20.7867,38.215768 c -2.44e-4,1.83e-4 -4.88e-4,4.27e-4 -6.71e-4,6.72e-4 l -0.02142,0.02142 c -0.0048,0.0048 -0.006,0.01135 -0.01074,0.01617 -0.124939,0.12793 -0.231689,0.277466 -0.30664,0.451599 l -0.01215,0.0282 c -6.1e-5,6.1e-5 0,1.83e-4 -6.1e-5,2.44e-4 l -6.128906,14.251342 c -0.242676,0.564454 -0.1167,1.219239 0.317382,1.653321 0.28711,0.287109 0.670899,0.439453 1.061035,0.439453 z M 51.675781,11.568848 c 0.410156,-0.40918 1.076172,-0.40918 1.486328,0 l 4.53125,4.53125 c 0.198243,0.19873 0.307618,0.462402 0.307618,0.743164 0,0.280762 -0.109375,0.544433 -0.307618,0.743164 l -2.781738,2.781738 -6.017578,-6.017578 z m -5.046387,5.046386 0.143555,-0.143554 6.017578,6.017578 -0.143554,0.143554 -22.683106,22.683106 -6.017578,-6.017578 z m -24.300292,25.308106 5.009765,5.009765 -8.790039,3.780274 z M 12.055664,91.73877 h 75.888672 c 0.828613,0 1.5,-0.671387 1.5,-1.5 V 14.350586 c 0,-0.606934 -0.365234,-1.153809 -0.925781,-1.385742 -0.561524,-0.233887 -1.206543,-0.103516 -1.634766,0.325195 L 10.995117,89.178223 c -0.429199,0.428711 -0.557617,1.074219 -0.325195,1.634765 0.231934,0.560547 0.778809,0.925782 1.385742,0.925782 z M 86.444336,17.97168 v 70.767089 h -5.888672 v -3.368164 c 0,-0.828613 -0.671387,-1.5 -1.5,-1.5 -0.828613,0 -1.5,0.671387 -1.5,1.5 v 3.368164 h -7 v -3.368164 c 0,-0.828613 -0.671387,-1.5 -1.5,-1.5 -0.828613,0 -1.5,0.671387 -1.5,1.5 v 3.368164 h -7 v -3.368164 c 0,-0.828613 -0.671387,-1.5 -1.5,-1.5 -0.828613,0 -1.5,0.671387 -1.5,1.5 v 3.368164 h -7 v -3.368164 c 0,-0.828613 -0.671387,-1.5 -1.5,-1.5 -0.828613,0 -1.5,0.671387 -1.5,1.5 v 3.368164 h -7 v -3.368164 c 0,-0.828613 -0.671387,-1.5 -1.5,-1.5 -0.828613,0 -1.5,0.671387 -1.5,1.5 v 3.368164 h -7 v -3.368164 c 0,-0.828613 -0.671387,-1.5 -1.5,-1.5 -0.828613,0 -1.5,0.671387 -1.5,1.5 v 3.368164 H 15.676758 Z M 39.205078,80.900879 h 37.944336 c 0.828613,0 1.5,-0.671387 1.5,-1.5 V 41.456543 c 0,-0.606934 -0.365234,-1.153809 -0.925781,-1.385742 -0.562012,-0.23291 -1.207031,-0.103516 -1.634766,0.325195 L 38.144531,78.340332 c -0.429199,0.428711 -0.557617,1.074219 -0.325195,1.634766 0.231933,0.560547 0.778808,0.925781 1.385742,0.925781 z M 75.649414,45.077637 V 77.900879 H 42.826172 Z"
         id="path3713" />
    </g>
  </g>
</svg>
