<svg xmlns="http://www.w3.org/2000/svg" viewBox="0 0 26 18" width="26" height="18">
	<style>
		tspan { white-space:pre }
		.shp0 { fill: #b0b3ba;stroke: #00b3ba;stroke-width: 0.265 } 
	</style>
	<g id="layer1">
		<g id="g4490">
			<g id="g4472">
				<path id="path4470" class="shp0" d="M23.48,4.42c0.45,0.98 1.07,2.33 1.4,3.84c0.59,2.71 -0.36,8.04 -0.4,8.26c0,0 0,0.01 0,0.01c-0.01,0.03 -0.02,0.06 -0.03,0.09c0,0 0,0 0,0.01c-0.01,0.03 -0.03,0.06 -0.06,0.08c-0.01,0.01 -0.01,0.01 -0.02,0.02c-0.02,0.02 -0.04,0.03 -0.06,0.05c-0.01,0 -0.01,0.01 -0.02,0.01c0,0 -0.01,0 -0.01,0.01c-0.03,0.01 -0.05,0.03 -0.08,0.03c0,0 0,0 0,0c-0.49,0.14 -0.95,0.21 -1.37,0.21c-0.65,0 -1.21,-0.17 -1.66,-0.5c-1.08,-0.79 -1.15,-2.21 -1.15,-2.27c-0.01,-0.16 0.08,-0.31 0.23,-0.38l0.59,-0.28c0.38,-0.18 0.6,-0.58 0.55,-0.99l-0.14,-1.1c-0.02,-0.14 -0.11,-0.26 -0.23,-0.31l-0.25,-0.11c-0.12,-0.05 -0.21,-0.17 -0.24,-0.3l-0.03,-0.17l-1.01,-0.29c-0.15,-0.04 -0.26,-0.17 -0.28,-0.32l-0.33,-2h-0.93c-0.15,0 -0.29,-0.08 -0.35,-0.22c-0.05,-0.06 -0.57,-0.54 -3.05,-0.66c-1.78,-0.08 -2.7,-0.87 -3.15,-1.51c-0.23,-0.32 -0.37,-0.64 -0.45,-0.89h-0.54v0.28c0.38,0.16 0.65,0.53 0.65,0.97c0,0.09 -0.01,0.17 -0.03,0.25h0.68c0.22,0 0.4,0.18 0.4,0.4c0,0.22 -0.18,0.4 -0.4,0.4h-0.26v7.97c0,0.4 -0.28,0.74 -0.67,0.83l-1.71,0.37c-0.06,0.01 -0.12,0.02 -0.18,0.02c-0.19,0 -0.38,-0.07 -0.53,-0.19c-0.2,-0.16 -0.31,-0.4 -0.31,-0.66v-0.48c0,-0.11 0.04,-0.21 0.12,-0.28l0.26,-0.26c0.1,-0.1 0.16,-0.24 0.16,-0.38v-6.93h-0.25c-0.22,0 -0.4,-0.18 -0.4,-0.4c0,-0.22 0.18,-0.4 0.4,-0.4h0.68c-0.02,-0.08 -0.03,-0.17 -0.03,-0.25c0,-0.44 0.27,-0.81 0.65,-0.97v-0.28h-0.41c-0.42,0 -0.76,-0.34 -0.76,-0.76v-0.36c-0.08,0.02 -0.17,0.04 -0.26,0.04c-0.09,0 -0.18,-0.01 -0.26,-0.04v0.58c0,0.22 -0.18,0.4 -0.4,0.4h-1.55c-0.67,0 -1.26,-0.34 -1.62,-0.85c-0.03,0 -0.05,0 -0.08,-0.01l-1.2,-0.38c-0.17,-0.05 -0.28,-0.21 -0.28,-0.38v-0.08h-2.38c-0.22,0 -0.4,-0.18 -0.4,-0.4c0,-0.22 0.18,-0.4 0.4,-0.4h2.38v-0.16c0,-0.17 0.11,-0.33 0.28,-0.38l1.2,-0.38c0.03,-0.01 0.06,-0.01 0.08,-0.02c0.36,-0.51 0.95,-0.84 1.62,-0.84h1.55c0.22,0 0.4,0.18 0.4,0.4v0.67c0.08,-0.02 0.17,-0.04 0.26,-0.04c0.09,0 0.18,0.01 0.26,0.04v-0.67c0,-0.42 0.34,-0.76 0.76,-0.76h6.93c0.08,0 0.16,0.03 0.23,0.07c0.17,0.12 1.19,0.34 3.21,0.44c3.26,0.15 3.86,0.44 3.91,0.98c0.03,0.33 -0.13,0.58 -0.27,0.79c-0.12,0.18 -0.24,0.38 -0.28,0.65c-0.03,0.19 0.28,0.88 0.56,1.48zM10.63,7.05h-1.28v6.93c0,0.35 -0.14,0.69 -0.39,0.94l-0.15,0.14v0.32c0,0.02 0.01,0.03 0.02,0.04c0.01,0.01 0.03,0.01 0.04,0.01l1.71,-0.37c0.02,-0.01 0.04,-0.03 0.04,-0.05zM10,6.25c0.14,0 0.25,-0.11 0.25,-0.25c0,-0.14 -0.11,-0.25 -0.25,-0.25c-0.14,0 -0.25,0.11 -0.25,0.25c0,0.14 0.11,0.25 0.25,0.25zM22.76,4.75c-0.42,-0.91 -0.69,-1.51 -0.63,-1.94c0.01,-0.03 0.02,-0.06 0.02,-0.09h-8.79v0.57c0,0.43 0.27,0.83 0.68,0.98l4.37,1.32c0.05,0.02 0.11,0.03 0.17,0.04l3.5,0.45c0.18,0.02 0.33,0.17 0.34,0.36c0,0.01 0.05,0.53 0.15,0.86c0.05,0.09 0.39,0.29 0.71,0.4c0.11,0.04 0.2,0.13 0.24,0.24c0.01,0.03 0.29,0.8 0.56,3.3c0.04,0.39 0.09,0.7 0.14,0.93c0.09,-1.35 0.1,-2.75 -0.11,-3.73c-0.31,-1.43 -0.88,-2.68 -1.34,-3.68zM3.98,2.14l-0.41,0.13v0.45l0.41,0.13zM5.57,3.76v-2.53c-0.46,0.16 -0.79,0.6 -0.79,1.12v0.3c0,0.52 0.33,0.95 0.79,1.12zM7.12,1.15h-0.76v2.68h0.76zM8.43,2.62v-0.18c0,-0.14 -0.12,-0.26 -0.26,-0.26c-0.14,0 -0.26,0.12 -0.26,0.26v0.18c0,0.14 0.12,0.26 0.26,0.26c0.14,0 0.26,-0.12 0.26,-0.26zM9.23,3.96h1.58v-3.17h-1.58zM20.35,9.78l-0.28,-1.74h-0.4l0.27,1.63zM21.64,15.9c0.09,0.07 0.19,0.12 0.3,0.17c0.18,-0.38 0.52,-0.9 1.06,-0.95c0.34,-0.04 0.63,0.12 0.86,0.34c0.07,-0.49 0.16,-1.13 0.24,-1.84c-0.41,-0.24 -0.66,-0.96 -0.8,-2.3c-0.19,-1.76 -0.38,-2.61 -0.46,-2.94c-0.34,-0.14 -0.89,-0.43 -1.02,-0.86c-0.06,-0.22 -0.11,-0.48 -0.14,-0.69l-3.19,-0.41c-0.1,-0.01 -0.2,-0.03 -0.3,-0.06l-4.39,-1.33c-0.74,-0.27 -1.22,-0.96 -1.22,-1.73v-0.97c0,-0.22 0.18,-0.4 0.4,-0.4h9.52c0.01,-0.02 0.03,-0.05 0.04,-0.06c0.05,-0.07 0.09,-0.14 0.12,-0.2c-0.24,-0.1 -0.97,-0.26 -3.13,-0.36c-1.05,-0.05 -2.83,-0.18 -3.51,-0.51h-4.41v3.37c0.02,0.2 0.33,2.09 2.97,2.21c2.34,0.11 3.23,0.54 3.56,0.87h2.27c0.19,0 0.36,0.14 0.39,0.33l0.47,2.89l0.05,0.02c0.38,0.16 0.66,0.53 0.71,0.94l0.14,1.1c0.09,0.76 -0.31,1.49 -1,1.81l-0.33,0.15c0.07,0.36 0.26,1.02 0.8,1.41zM23.44,16.19c-0.18,-0.22 -0.31,-0.29 -0.37,-0.28c-0.1,0.01 -0.22,0.15 -0.33,0.34c0.22,0.01 0.45,-0.01 0.7,-0.05zM22.21,9.21c-0.02,0.01 -0.05,0.02 -0.07,0.02c-0.03,0.01 -0.05,0.01 -0.08,0.01c-0.1,0 -0.21,-0.04 -0.28,-0.12c-0.02,-0.02 -0.03,-0.04 -0.05,-0.06c-0.02,-0.02 -0.03,-0.04 -0.04,-0.07c-0.01,-0.02 -0.02,-0.05 -0.02,-0.07c-0.01,-0.02 -0.01,-0.05 -0.01,-0.08c0,-0.03 0,-0.05 0.01,-0.08c0.01,-0.03 0.01,-0.05 0.02,-0.07c0.01,-0.02 0.02,-0.05 0.04,-0.07c0.01,-0.02 0.03,-0.04 0.05,-0.06c0.09,-0.09 0.23,-0.13 0.36,-0.11c0.02,0.01 0.05,0.01 0.07,0.02c0.02,0.01 0.04,0.02 0.07,0.03c0.02,0.02 0.04,0.03 0.06,0.05c0.02,0.02 0.04,0.04 0.05,0.06c0.01,0.02 0.03,0.05 0.04,0.07c0.01,0.02 0.02,0.05 0.02,0.07c0.01,0.02 0.01,0.05 0.01,0.08c0,0.03 0,0.05 -0.01,0.08c-0.01,0.03 -0.01,0.05 -0.02,0.07c-0.01,0.02 -0.02,0.05 -0.04,0.07c-0.01,0.02 -0.03,0.04 -0.05,0.06c-0.02,0.02 -0.04,0.03 -0.06,0.05c-0.02,0.01 -0.05,0.03 -0.07,0.04zM21.24,3.6c0,0.22 -0.18,0.4 -0.4,0.4h-2.02c-0.22,0 -0.4,-0.18 -0.4,-0.4c0,-0.22 0.18,-0.4 0.4,-0.4h2.02c0.22,0 0.4,0.18 0.4,0.4zM21.24,4.86c0,0.22 -0.18,0.4 -0.4,0.4h-2.02c-0.22,0 -0.4,-0.18 -0.4,-0.4c0,-0.22 0.18,-0.4 0.4,-0.4h2.02c0.22,0 0.4,0.18 0.4,0.4z" />
			</g>
		</g>
	</g>
</svg>