<?xml version="1.0" encoding="UTF-8" standalone="no"?>
<!-- Created with Inkscape (http://www.inkscape.org/) -->

<svg
   xmlns:dc="http://purl.org/dc/elements/1.1/"
   xmlns:cc="http://creativecommons.org/ns#"
   xmlns:rdf="http://www.w3.org/1999/02/22-rdf-syntax-ns#"
   xmlns:svg="http://www.w3.org/2000/svg"
   xmlns="http://www.w3.org/2000/svg"
   xmlns:sodipodi="http://sodipodi.sourceforge.net/DTD/sodipodi-0.dtd"
   xmlns:inkscape="http://www.inkscape.org/namespaces/inkscape"
   width="25.07303mm"
   height="17.03772mm"
   viewBox="0 0 25.073031 17.03772"
   version="1.1"
   id="svg8"
   inkscape:version="0.92.3 (2405546, 2018-03-11)"
   sodipodi:docname="icon-productivity.svg">
  <defs
     id="defs2" />
  <sodipodi:namedview
     id="base"
     pagecolor="#ffffff"
     bordercolor="#666666"
     borderopacity="1.0"
     inkscape:pageopacity="0.0"
     inkscape:pageshadow="2"
     inkscape:zoom="2.8"
     inkscape:cx="163.06324"
     inkscape:cy="-21.204643"
     inkscape:document-units="mm"
     inkscape:current-layer="layer1"
     showgrid="false"
     inkscape:snap-grids="false"
     inkscape:snap-page="true"
     inkscape:snap-center="false"
     inkscape:snap-to-guides="true"
     inkscape:window-width="1920"
     inkscape:window-height="1017"
     inkscape:window-x="-8"
     inkscape:window-y="-8"
     inkscape:window-maximized="1" />
  <metadata
     id="metadata5">
    <rdf:RDF>
      <cc:Work
         rdf:about="">
        <dc:format>image/svg+xml</dc:format>
        <dc:type
           rdf:resource="http://purl.org/dc/dcmitype/StillImage" />
        <dc:title></dc:title>
      </cc:Work>
    </rdf:RDF>
  </metadata>
  <g
     inkscape:label="Layer 1"
     inkscape:groupmode="layer"
     id="layer1"
     transform="translate(-14.462692,-50.423442)" stroke="b0b3ba">
    <g
       id="g4490"
       transform="matrix(0.26458333,0,0,0.26458333,13.76984,45.712877)" stroke="b0b3ba">
      <g
         id="g4472" stroke="b0b3ba">
        <path
           id="path4470"
           d="m 91.364258,34.503906 c -1.050781,-2.290039 -2.241699,-4.885254 -2.127442,-5.611328 0.164551,-1.040039 0.623536,-1.76123 1.067872,-2.458008 0.52539,-0.825195 1.121093,-1.759765 1.007812,-3.001953 -0.186523,-2.051269 -2.443848,-3.128418 -14.768066,-3.701172 -7.628418,-0.35498 -11.495606,-1.20459 -12.141114,-1.656738 -0.252441,-0.17627 -0.552734,-0.270996 -0.860351,-0.270996 H 44.970703 37.351074 c -1.578125,0 -2.861816,1.283691 -2.861816,2.861816 v 2.525818 c -0.315918,-0.08087 -0.641175,-0.137146 -0.981934,-0.137146 -0.340576,0 -0.66571,0.05627 -0.981445,0.137085 v -2.532593 c 0,-0.828613 -0.671387,-1.5 -1.5,-1.5 h -5.854004 c -2.530762,0 -4.76825,1.263672 -6.126831,3.189331 -0.107178,0.0093 -0.214234,0.02728 -0.31897,0.06018 l -4.544433,1.419922 c -0.626465,0.195801 -1.052735,0.775391 -1.052735,1.431641 v 0.618652 H 4.1186523 c -0.8286133,0 -1.5,0.671387 -1.5,1.5 0,0.828613 0.6713867,1.5 1.5,1.5 h 9.0102537 v 0.293457 c 0,0.65625 0.42627,1.23584 1.052735,1.431641 l 4.544433,1.419921 c 0.101196,0.03174 0.205383,0.0376 0.309021,0.04724 1.357605,1.933532 3.600037,3.202758 6.13678,3.202758 h 5.854004 c 0.828613,0 1.5,-0.671386 1.5,-1.5 v -2.207885 c 0.315735,0.08081 0.640869,0.137085 0.981445,0.137085 0.34076,0 0.666016,-0.05627 0.981934,-0.137146 v 1.354919 c 0,1.578125 1.283691,2.861817 2.861816,2.861817 h 1.546387 v 1.047485 c -1.438172,0.592407 -2.45459,2.005737 -2.45459,3.655151 0,0.330994 0.05304,0.647583 0.130005,0.955079 h -2.57727 c -0.828614,0 -1.5,0.671386 -1.5,1.5 0,0.828613 0.671386,1.5 1.5,1.5 h 0.960449 v 26.194335 c 0,0.532715 -0.217285,1.053223 -0.595703,1.428223 l -0.996582,0.986328 c -0.284668,0.281739 -0.444825,0.665527 -0.444825,1.065918 v 1.82959 c 0,0.970703 0.433106,1.877441 1.187989,2.488281 0.57666,0.46582 1.282715,0.712402 2.007324,0.712402 0.224121,0 0.450684,-0.02393 0.675293,-0.07178 l 6.47998,-1.388672 c 1.465821,-0.313965 2.529786,-1.629883 2.529786,-3.129394 V 44.439941 h 1.000488 c 0.828613,0 1.5,-0.671386 1.5,-1.5 0,-0.828613 -0.671387,-1.5 -1.5,-1.5 h -2.577271 c 0.07697,-0.307495 0.130005,-0.624084 0.130005,-0.955078 0,-1.649475 -1.016723,-3.062805 -2.455078,-3.655151 v -1.047486 h 2.045655 c 0.315307,0.963013 0.835876,2.163025 1.696533,3.375 1.730469,2.436524 5.203125,5.407227 11.917969,5.719727 9.396484,0.437012 11.342285,2.27832 11.535156,2.490234 0.254394,0.494141 0.766601,0.812989 1.333496,0.812989 h 3.510376 l 1.238159,7.571777 c 0.09424,0.574707 0.512695,1.043457 1.073731,1.20166 l 3.832519,1.080078 0.102051,0.626465 c 0.08252,0.50586 0.41748,0.935059 0.88916,1.137207 l 0.94043,0.403809 c 0.47998,0.205566 0.818359,0.655273 0.883301,1.17334 l 0.519531,4.154785 c 0.196289,1.571777 -0.635742,3.079101 -2.069824,3.750488 l -2.229981,1.043457 c -0.546875,0.25586 -0.887207,0.814453 -0.863281,1.417969 0.0093,0.226562 0.267578,5.588867 4.361816,8.571289 1.72461,1.256348 3.827637,1.885742 6.285645,1.885742 1.580078,0 3.307129,-0.260254 5.174316,-0.78125 0.0059,-0.0016 0.01068,-0.0056 0.0166,-0.0073 0.10498,-0.0307 0.208435,-0.07074 0.308105,-0.126038 0.01288,-0.0071 0.02289,-0.01721 0.03546,-0.02466 0.02704,-0.01605 0.05054,-0.03546 0.07642,-0.0531 0.08252,-0.05615 0.157653,-0.118409 0.225463,-0.1875 0.02246,-0.02295 0.04492,-0.04468 0.06592,-0.06897 0.08167,-0.09467 0.153992,-0.195435 0.208985,-0.305481 0.0038,-0.0076 0.0056,-0.01599 0.0093,-0.02368 0.05096,-0.106323 0.08582,-0.218628 0.110596,-0.333618 0.0036,-0.01672 0.01282,-0.03101 0.01587,-0.04791 C 95.300747,79.388149 98.888637,59.27975 96.64938,49.01852 95.402309,43.302211 93.068324,38.216762 91.364223,34.503871 Z m -48.564942,40.05127 c 0,0.09521 -0.06494,0.175781 -0.158203,0.195801 l -6.47998,1.388672 c -0.06445,0.01367 -0.118652,-9.77e-4 -0.167969,-0.04004 -0.04932,-0.04004 -0.07422,-0.09229 -0.07422,-0.155273 v -1.203613 l 0.551758,-0.546387 c 0.943848,-0.934082 1.485352,-2.231934 1.485352,-3.560059 V 44.439941 h 4.843261 z M 39.442871,40.484863 c 0,-0.526367 0.428223,-0.95459 0.95459,-0.95459 0.526855,0 0.955078,0.428223 0.955078,0.95459 0,0.526856 -0.428223,0.955078 -0.955078,0.955078 -0.526367,0 -0.95459,-0.428222 -0.95459,-0.955078 z m 54.275879,9.17334 c 0.812866,3.725769 0.779053,9.006531 0.428284,14.104309 -0.187012,-0.889953 -0.372864,-2.036926 -0.533265,-3.527649 -1.016601,-9.453613 -2.05664,-12.34082 -2.100585,-12.459472 -0.155762,-0.420411 -0.493653,-0.75 -0.917481,-0.896973 -1.1875,-0.411133 -2.49414,-1.164063 -2.676758,-1.514648 -0.359863,-1.259278 -0.552246,-3.239258 -0.554199,-3.259278 -0.06689,-0.697265 -0.606934,-1.255371 -1.301269,-1.345215 L 72.84668,39.054688 c -0.212403,-0.02734 -0.425293,-0.07275 -0.632325,-0.135254 l -16.51416,-4.994141 c -1.539551,-0.564941 -2.57373,-2.046875 -2.57373,-3.686523 v -2.171387 h 33.231994 c -0.02557,0.122803 -0.06415,0.228271 -0.08453,0.357422 -0.256348,1.621094 0.786132,3.892578 2.363769,7.330078 1.73877,3.788574 3.902832,8.503906 5.081055,13.90332 z M 17.67334,28.551758 16.128906,28.068848 v -1.706055 l 1.544434,-0.48291 v 0.776855 1.118164 z m 3,-0.776856 v -1.118164 c 0,-1.951965 1.257202,-3.600586 2.998535,-4.221557 v 9.561767 C 21.930542,31.375793 20.67334,29.726868 20.67334,27.774902 Z m 8.852539,4.498535 H 26.671875 V 22.158691 h 2.854004 v 4.876953 0.685059 z m 3.981445,-3.5708 c -0.532226,0 -0.981445,-0.449707 -0.981445,-0.981934 v -0.685059 c 0,-0.532226 0.449219,-0.981445 0.981445,-0.981445 0.532227,0 0.981934,0.449219 0.981934,0.981445 v 0.685059 c 0,0.532227 -0.449707,0.981934 -0.981934,0.981934 z m 3.981934,-0.981934 v -0.685059 -6.231933 h 5.981445 v 11.978515 h -5.981445 z m 40.492187,26.604492 -1.004699,-6.145019 h 1.499328 l 1.072876,6.586731 z m 3.394043,18.252442 1.241699,-0.581055 c 2.616211,-1.224121 4.133301,-3.972656 3.774903,-6.839355 l -0.519531,-4.155274 c -0.196778,-1.570801 -1.222657,-2.93457 -2.677735,-3.558105 L 83.011719,57.365234 81.231933,46.438965 C 81.113769,45.713379 80.486816,45.180176 79.751465,45.180176 H 71.162109 C 69.895019,43.931152 66.540039,42.291504 57.697265,41.879883 47.715332,41.415527 46.562988,34.271973 46.470703,33.529785 V 20.803711 h 16.680664 c 2.553223,1.249512 9.293457,1.740234 13.253418,1.924805 8.156738,0.378906 10.895508,0.978515 11.813477,1.348144 -0.10254,0.209961 -0.266114,0.466797 -0.443848,0.745606 -0.04742,0.0744 -0.101563,0.165588 -0.151673,0.245117 H 51.626465 c -0.828614,0 -1.5,0.671386 -1.5,1.5 v 3.671386 c 0,2.892579 1.824219,5.50586 4.62207,6.530274 l 16.597656,5.021973 c 0.365723,0.110351 0.742188,0.190918 1.117676,0.239257 l 12.058594,1.555176 c 0.10791,0.772461 0.277344,1.781738 0.511719,2.602539 0.463379,1.621582 2.5625,2.716309 3.842773,3.245606 0.324707,1.239746 1.040039,4.481445 1.754395,11.121582 0.544311,5.063293 1.484558,7.783874 3.022644,8.701782 -0.29242,2.691772 -0.62323,5.111938 -0.896546,6.945496 -0.874206,-0.812134 -1.964538,-1.41211 -3.244263,-1.27179 -2.032165,0.210022 -3.31311,2.154236 -3.992248,3.597839 -0.397339,-0.177673 -0.777832,-0.378845 -1.122986,-0.628601 -2.053222,-1.484375 -2.774414,-3.966308 -3.022461,-5.322265 z m 7.202332,6.605041 c 0.412109,-0.693115 0.880981,-1.230591 1.243469,-1.268127 0.221863,-0.02423 0.723023,0.227295 1.406921,1.071167 -0.948059,0.160583 -1.829467,0.222473 -2.65039,0.19696 z M 86.549805,52.609863 c -0.08984,0.02979 -0.189942,0.06006 -0.279786,0.08008 -0.100097,0.02002 -0.200195,0.02979 -0.300293,0.02979 -0.390136,0 -0.779785,-0.159668 -1.060058,-0.439942 -0.06982,-0.06982 -0.129883,-0.140137 -0.179688,-0.22998 -0.06006,-0.08008 -0.110351,-0.169922 -0.140136,-0.259766 -0.04004,-0.09033 -0.06982,-0.180176 -0.08984,-0.280273 -0.02002,-0.08984 -0.03027,-0.189942 -0.03027,-0.29004 0,-0.100097 0.01025,-0.199707 0.03027,-0.290039 0.02002,-0.100097 0.04981,-0.189941 0.08984,-0.279785 0.02979,-0.08984 0.08008,-0.180176 0.140136,-0.260254 0.04981,-0.07959 0.109864,-0.159668 0.179688,-0.22998 0.350098,-0.34961 0.870117,-0.509766 1.360352,-0.409668 0.08984,0.02002 0.189941,0.0498 0.279785,0.08984 0.08984,0.02979 0.169922,0.08008 0.260254,0.129882 0.07959,0.06006 0.149902,0.120118 0.219726,0.189942 0.06982,0.07031 0.140137,0.15039 0.189942,0.22998 0.05029,0.08008 0.100097,0.170411 0.140136,0.260254 0.04004,0.08984 0.06006,0.179688 0.08008,0.279785 0.02002,0.09033 0.02979,0.189942 0.02979,0.29004 0,0.100097 -0.0098,0.200195 -0.02979,0.290039 -0.02002,0.100097 -0.04004,0.189941 -0.08008,0.280273 -0.04004,0.08984 -0.08984,0.179688 -0.140136,0.259766 -0.04981,0.08984 -0.120118,0.160156 -0.189942,0.22998 -0.06982,0.06982 -0.140136,0.129883 -0.219726,0.189942 -0.09033,0.05029 -0.170411,0.100097 -0.260254,0.140136 z m -3.64209,-21.197265 c 0,0.828613 -0.671387,1.5 -1.5,1.5 h -7.620606 c -0.828613,0 -1.5,-0.671387 -1.5,-1.5 0,-0.828614 0.671387,-1.5 1.5,-1.5 h 7.620606 c 0.828613,0 1.5,0.671386 1.5,1.5 z m 0,4.743652 c 0,0.828613 -0.671387,1.5 -1.5,1.5 h -7.620606 c -0.828613,0 -1.5,-0.671387 -1.5,-1.5 0,-0.828613 0.671387,-1.5 1.5,-1.5 h 7.620606 c 0.828613,0 1.5,0.671387 1.5,1.5 z"
           inkscape:connector-curvature="0" />
      </g>
      <text
         id="text4474"
         font-weight="bold"
         font-size="5px"
         y="115"
         x="0"
         style="font-weight:bold;font-size:5px;font-family:'Helvetica Neue', Helvetica, Arial-Unicode, Arial, Sans-serif;fill:#000000" />
      <text
         id="text4476"
         font-weight="bold"
         font-size="5px"
         y="120"
         x="0"
         style="font-weight:bold;font-size:5px;font-family:'Helvetica Neue', Helvetica, Arial-Unicode, Arial, Sans-serif;fill:#000000" />
    </g>
  </g>
</svg>
