<svg width="612" height="498" xmlns="http://www.w3.org/2000/svg">

 <g>
  <title>background</title>
  <rect fill="none" id="canvas_background" height="500" width="614" y="-1" x="-1"/>
 </g>
 <g>
  <title>Layer 1</title>
  <g id="svg_1">
   <g id="svg_2">
    <path id="svg_3" fill="#005691" d="m611.999,58.816998c-22.525,9.981 -46.694,16.75 -72.088,19.772c25.929,-15.527 45.777,-40.155 55.184,-69.411c-24.322,14.379 -51.169,24.82 -79.775,30.48c-22.907,-24.437 -55.49,-39.658 -91.63,-39.658c-69.334,0 -125.551,56.217 -125.551,125.513c0,9.828 1.109,19.427 3.251,28.606c-104.326,-5.24 -196.835,-55.223 -258.75,-131.174c-10.823,18.51 -16.98,40.078 -16.98,63.101c0,43.559 22.181,81.993 55.835,104.479c-20.575,-0.688 -39.926,-6.348 -56.867,-15.756l0,1.568c0,60.806 43.291,111.554 100.693,123.104c-10.517,2.83 -21.607,4.398 -33.08,4.398c-8.107,0 -15.947,-0.803 -23.634,-2.333c15.985,49.907 62.336,86.199 117.253,87.194c-42.947,33.654 -97.099,53.655 -155.916,53.655c-10.134,0 -20.116,-0.612 -29.944,-1.721c55.567,35.681 121.536,56.485 192.438,56.485c230.948,0 357.188,-191.291 357.188,-357.188l-0.421,-16.253c24.666,-17.593 46.005,-39.697 62.794,-64.861z"/>
   </g>
  </g>
  <g id="svg_4"/>
  <g id="svg_5"/>
  <g id="svg_6"/>
  <g id="svg_7"/>
  <g id="svg_8"/>
  <g id="svg_9"/>
  <g id="svg_10"/>
  <g id="svg_11"/>
  <g id="svg_12"/>
  <g id="svg_13"/>
  <g id="svg_14"/>
  <g id="svg_15"/>
  <g id="svg_16"/>
  <g id="svg_17"/>
  <g id="svg_18"/>
 </g>
</svg>