<svg xmlns="http://www.w3.org/2000/svg" xmlns:xlink="http://www.w3.org/1999/xlink" version="1.1" x="0px" y="0px" viewBox="0 0 100 125" style="enable-background:new 0 0 100 100;" xml:space="preserve"><g><path d="M91.3642578,34.5039062c-1.0507812-2.2900391-2.2416992-4.8852539-2.1274414-5.6113281   c0.1645508-1.0400391,0.6235352-1.7612305,1.0678711-2.4580078c0.5253906-0.8251953,1.1210938-1.7597656,1.0078125-3.0019531   c-0.1865234-2.0512695-2.4438477-3.128418-14.7680664-3.7011719c-7.628418-0.3549805-11.4956055-1.2045898-12.1411133-1.6567383   c-0.2524414-0.1762695-0.5527344-0.2709961-0.8603516-0.2709961H44.9707031h-7.6196289   c-1.578125,0-2.8618164,1.2836914-2.8618164,2.8618164v2.5258179c-0.315918-0.0808716-0.6411743-0.137146-0.9819336-0.137146   c-0.3405762,0-0.6657104,0.0562744-0.9814453,0.137085v-2.5325928c0-0.8286133-0.6713867-1.5-1.5-1.5H25.171875   c-2.5307617,0-4.7682495,1.2636719-6.1268311,3.1893311c-0.1071777,0.0093384-0.2142334,0.0272827-0.3189697,0.0601807   l-4.5444336,1.4199219c-0.6264648,0.1958008-1.0527344,0.7753906-1.0527344,1.4316406v0.6186523H4.1186523   c-0.8286133,0-1.5,0.6713867-1.5,1.5s0.6713867,1.5,1.5,1.5h9.0102539v0.293457c0,0.65625,0.4262695,1.2358398,1.0527344,1.4316406   l4.5444336,1.4199219c0.1011963,0.0317383,0.2053833,0.0375977,0.309021,0.0472412   c1.357605,1.9335327,3.6000366,3.2027588,6.1367798,3.2027588h5.8540039c0.8286133,0,1.5-0.6713867,1.5-1.5v-2.2078857   c0.3157349,0.0808105,0.6408691,0.137085,0.9814453,0.137085c0.3407593,0,0.6660156-0.0562744,0.9819336-0.137146v1.3549194   c0,1.578125,1.2836914,2.8618164,2.8618164,2.8618164h1.5463867v1.0474854   c-1.4381714,0.5924072-2.4545898,2.0057373-2.4545898,3.6551514c0,0.3309937,0.0530396,0.647583,0.1300049,0.9550781h-2.5772705   c-0.8286133,0-1.5,0.6713867-1.5,1.5s0.6713867,1.5,1.5,1.5h0.9604492v26.1943359   c0,0.5327148-0.2172852,1.0532227-0.5957031,1.4282227l-0.996582,0.9863281   c-0.284668,0.2817383-0.4448242,0.6655273-0.4448242,1.065918v1.8295898c0,0.9707031,0.4331055,1.8774414,1.1879883,2.4882812   c0.5766602,0.4658203,1.2827148,0.7124023,2.0073242,0.7124023c0.2241211,0,0.4506836-0.0239258,0.675293-0.0717773   l6.4799805-1.3886719c1.4658203-0.3139648,2.5297852-1.6298828,2.5297852-3.1293945V44.4399414h1.0004883   c0.8286133,0,1.5-0.6713867,1.5-1.5s-0.6713867-1.5-1.5-1.5h-2.5772705   c0.0769653-0.3074951,0.1300049-0.6240845,0.1300049-0.9550781c0-1.6494751-1.0167236-3.0628052-2.4550781-3.6551514v-1.0474854   h2.0456543c0.3153076,0.9630127,0.8358765,2.1630249,1.6965332,3.375c1.7304688,2.4365234,5.203125,5.4072266,11.9179688,5.7197266   c9.3964844,0.4370117,11.3422852,2.2783203,11.5351562,2.4902344c0.2543945,0.4941406,0.7666016,0.8129883,1.3334961,0.8129883   h3.510376l1.2381592,7.5717773c0.0942383,0.574707,0.5126953,1.043457,1.0737305,1.2016602l3.8325195,1.0800781   l0.1020508,0.6264648c0.0825195,0.5058594,0.4174805,0.9350586,0.8891602,1.137207l0.9404297,0.4038086   c0.4799805,0.2055664,0.8183594,0.6552734,0.8833008,1.1733398l0.5195312,4.1547852   c0.1962891,1.5717773-0.6357422,3.0791016-2.0698242,3.7504883l-2.2299805,1.043457   c-0.546875,0.2558594-0.887207,0.8144531-0.8632812,1.4179688c0.0092773,0.2265625,0.2675781,5.5888672,4.3618164,8.5712891   c1.7246094,1.2563477,3.8276367,1.8857422,6.2856445,1.8857422c1.5800781,0,3.3071289-0.2602539,5.1743164-0.78125   c0.0059204-0.0016479,0.0106812-0.0055542,0.0166016-0.0072632c0.1049805-0.0307007,0.2084351-0.0707397,0.3081055-0.1260376   c0.0128784-0.0071411,0.0228882-0.0172119,0.0354614-0.0246582c0.0270386-0.0160522,0.0505371-0.0354614,0.076416-0.0531006   c0.0825195-0.0561523,0.1576538-0.1184082,0.2254639-0.1875c0.0224609-0.0229492,0.0449219-0.0446777,0.065918-0.0689697   c0.081665-0.0946655,0.1539917-0.1954346,0.2089844-0.305481c0.0038452-0.0075684,0.0056152-0.0159912,0.0093384-0.0236816   c0.0509644-0.1063232,0.0858154-0.2186279,0.1105957-0.3336182c0.0036011-0.0167236,0.0128174-0.0310059,0.0158691-0.0479126   c0.1538086-0.8505859,3.7416992-20.9589844,1.5024414-31.2202148   C95.4023438,43.3022461,93.0683594,38.2167969,91.3642578,34.5039062z M42.7993164,74.5551758   c0,0.0952148-0.0649414,0.1757812-0.1582031,0.1958008l-6.4799805,1.3886719   c-0.0644531,0.0136719-0.1186523-0.0009766-0.1679688-0.0400391c-0.0493164-0.0400391-0.0742188-0.0922852-0.0742188-0.1552734   v-1.2036133l0.5517578-0.5463867c0.9438477-0.934082,1.4853516-2.2319336,1.4853516-3.5600586V44.4399414h4.8432617V74.5551758z    M39.4428711,40.4848633c0-0.5263672,0.4282227-0.9545898,0.9545898-0.9545898   c0.5268555,0,0.9550781,0.4282227,0.9550781,0.9545898c0,0.5268555-0.4282227,0.9550781-0.9550781,0.9550781   C39.8710938,41.4399414,39.4428711,41.0117188,39.4428711,40.4848633z M93.71875,49.6582031   c0.8128662,3.725769,0.7790527,9.0065308,0.4282837,14.1043091c-0.1870117-0.8899536-0.3728638-2.0369263-0.5332642-3.5276489   C92.597168,50.78125,91.5571289,47.894043,91.5131836,47.7753906c-0.1557617-0.4204102-0.4936523-0.75-0.9174805-0.8969727   c-1.1875-0.4111328-2.4941406-1.1640625-2.6767578-1.5146484c-0.3598633-1.2592773-0.5522461-3.2392578-0.5541992-3.2592773   c-0.0668945-0.6972656-0.6069336-1.2553711-1.3012695-1.3452148l-13.2167969-1.7045898   c-0.2124023-0.0273438-0.425293-0.0727539-0.6323242-0.1352539L55.7001953,33.925293   c-1.5395508-0.5649414-2.5737305-2.046875-2.5737305-3.6865234v-2.1713867h33.2319946   c-0.0255737,0.1228027-0.0641479,0.2282715-0.0845337,0.3574219c-0.2563477,1.6210938,0.7861328,3.8925781,2.3637695,7.3300781   C90.3764648,39.543457,92.5405273,44.2587891,93.71875,49.6582031z M17.6733398,28.5517578l-1.5444336-0.4829102V26.362793   l1.5444336-0.4829102v0.7768555v1.1181641V28.5517578z M20.6733398,27.7749023v-1.1181641   c0-1.9519653,1.2572021-3.6005859,2.9985352-4.2215576v9.5617676   C21.930542,31.3757935,20.6733398,29.7268677,20.6733398,27.7749023z M29.5258789,32.2734375H26.671875V22.1586914h2.8540039   v4.8769531v0.6850586V32.2734375z M33.5073242,28.7026367c-0.5322266,0-0.9814453-0.449707-0.9814453-0.9819336v-0.6850586   c0-0.5322266,0.4492188-0.9814453,0.9814453-0.9814453s0.9819336,0.4492188,0.9819336,0.9814453v0.6850586   C34.4892578,28.2529297,34.0395508,28.7026367,33.5073242,28.7026367z M37.4892578,27.7207031v-0.6850586v-6.2319336h5.9814453   v11.9785156h-5.9814453V27.7207031z M77.9814453,54.3251953l-1.0046997-6.1450195h1.4993286l1.072876,6.586731   L77.9814453,54.3251953z M81.3754883,72.5776367l1.2416992-0.5810547c2.6162109-1.2241211,4.1333008-3.9726562,3.7749023-6.8393555   l-0.5195312-4.1552734c-0.1967773-1.5708008-1.2226562-2.9345703-2.6777344-3.5581055l-0.1831055-0.0786133l-1.7797852-10.9262695   c-0.1181641-0.7255859-0.7451172-1.2587891-1.4804688-1.2587891h-8.5893555   c-1.2670898-1.2490234-4.6220703-2.8886719-13.4648438-3.300293c-9.9819336-0.4643555-11.1342773-7.6079102-11.2265625-8.3500977   V20.8037109h16.6806641c2.5532227,1.2495117,9.293457,1.7402344,13.253418,1.9248047   c8.1567383,0.3789062,10.8955078,0.9785156,11.8134766,1.3481445c-0.1025391,0.2099609-0.2661133,0.4667969-0.4438477,0.7456055   c-0.0474243,0.0744019-0.1015625,0.1655884-0.1516724,0.2451172H51.6264648c-0.8286133,0-1.5,0.6713867-1.5,1.5v3.6713867   c0,2.8925781,1.8242188,5.5058594,4.6220703,6.5302734l16.5976562,5.0219727   c0.3657227,0.1103516,0.7421875,0.190918,1.1176758,0.2392578l12.0585938,1.5551758   c0.1079102,0.7724609,0.2773438,1.7817383,0.5117188,2.6025391c0.4633789,1.621582,2.5625,2.7163086,3.8427734,3.2456055   c0.324707,1.2397461,1.0400391,4.4814453,1.7543945,11.121582c0.5443115,5.0632935,1.4845581,7.7838745,3.022644,8.7017822   c-0.2924194,2.6917725-0.62323,5.1119385-0.8965454,6.9454956c-0.8742065-0.8121338-1.9645386-1.4121094-3.2442627-1.2717896   c-2.0321655,0.210022-3.3131104,2.1542358-3.9922485,3.5978394c-0.3973389-0.1776733-0.777832-0.3788452-1.1229858-0.6286011   C82.3447266,76.4155273,81.6235352,73.9335938,81.3754883,72.5776367z M88.5778198,79.1826782   c0.4121094-0.6931152,0.8809814-1.2305908,1.2434692-1.2681274c0.2218628-0.024231,0.7230225,0.2272949,1.4069214,1.071167   C90.2801514,79.1463013,89.3987427,79.2081909,88.5778198,79.1826782z M86.5498047,52.6098633   c-0.0898438,0.0297852-0.1899414,0.0600586-0.2797852,0.0800781c-0.1000977,0.0200195-0.2001953,0.0297852-0.300293,0.0297852   c-0.3901367,0-0.7797852-0.159668-1.0600586-0.4399414c-0.0698242-0.0698242-0.1298828-0.1401367-0.1796875-0.2299805   c-0.0600586-0.0800781-0.1103516-0.1699219-0.1401367-0.2597656C84.5498047,51.699707,84.5200195,51.6098633,84.5,51.5097656   c-0.0200195-0.0898438-0.0302734-0.1899414-0.0302734-0.2900391S84.4799805,51.0200195,84.5,50.9296875   c0.0200195-0.1000977,0.0498047-0.1899414,0.0898438-0.2797852c0.0297852-0.0898438,0.0800781-0.1801758,0.1401367-0.2602539   c0.0498047-0.0795898,0.1098633-0.159668,0.1796875-0.2299805c0.3500977-0.3496094,0.8701172-0.5097656,1.3603516-0.409668   c0.0898438,0.0200195,0.1899414,0.0498047,0.2797852,0.0898438c0.0898438,0.0297852,0.1699219,0.0800781,0.2602539,0.1298828   c0.0795898,0.0600586,0.1499023,0.1201172,0.2197266,0.1899414c0.0698242,0.0703125,0.1401367,0.1503906,0.1899414,0.2299805   c0.050293,0.0800781,0.1000977,0.1704102,0.1401367,0.2602539s0.0600586,0.1796875,0.0800781,0.2797852   c0.0200195,0.090332,0.0297852,0.1899414,0.0297852,0.2900391s-0.0097656,0.2001953-0.0297852,0.2900391   c-0.0200195,0.1000977-0.0400391,0.1899414-0.0800781,0.2802734c-0.0400391,0.0898438-0.0898438,0.1796875-0.1401367,0.2597656   c-0.0498047,0.0898438-0.1201172,0.1601562-0.1899414,0.2299805s-0.1401367,0.1298828-0.2197266,0.1899414   C86.7197266,52.5200195,86.6396484,52.5698242,86.5498047,52.6098633z M82.9077148,31.4125977c0,0.8286133-0.6713867,1.5-1.5,1.5   h-7.6206055c-0.8286133,0-1.5-0.6713867-1.5-1.5s0.6713867-1.5,1.5-1.5h7.6206055   C82.2363281,29.9125977,82.9077148,30.5839844,82.9077148,31.4125977z M82.9077148,36.15625c0,0.8286133-0.6713867,1.5-1.5,1.5   h-7.6206055c-0.8286133,0-1.5-0.6713867-1.5-1.5s0.6713867-1.5,1.5-1.5h7.6206055   C82.2363281,34.65625,82.9077148,35.3276367,82.9077148,36.15625z"/></g><text x="0" y="115" fill="#000000" font-size="5px" font-weight="bold" font-family="'Helvetica Neue', Helvetica, Arial-Unicode, Arial, Sans-serif"></text><text x="0" y="120" fill="#000000" font-size="5px" font-weight="bold" font-family="'Helvetica Neue', Helvetica, Arial-Unicode, Arial, Sans-serif"></text></svg>