<svg xmlns="http://www.w3.org/2000/svg" xmlns:xlink="http://www.w3.org/1999/xlink" version="1.1" x="0px" y="0px" viewBox="0 0 100 125" style="enable-background:new 0 0 100 100;" xml:space="preserve"><g><path d="M15.6845703,55.078125c0.199707,0,0.4008789-0.0400391,0.5922852-0.1220703l14.2797852-6.1411133   c0.1746216-0.0750732,0.3247681-0.1821289,0.4530029-0.3075562c0.0043945-0.0042725,0.010437-0.0054932,0.0147705-0.0098267   l0.0193481-0.0193481c0.0012817-0.0012817,0.0025635-0.0025024,0.0038452-0.0038452l23.720459-23.720459l1.2041016-1.2041016   l3.8422852-3.8422852c1.5795898-1.5791016,1.5795898-4.1494141,0-5.7285156l-4.53125-4.53125   c-1.5791016-1.5800781-4.1494141-1.5800781-5.7285156,0l-3.8422852,3.8422852l-1.2041016,1.2041016L20.7867432,38.2156982   c-0.0002441,0.0001831-0.0004883,0.0004272-0.0006714,0.0006714l-0.0214233,0.0214233   c-0.0047607,0.0047607-0.0060425,0.0113525-0.0107422,0.0161743c-0.124939,0.1279297-0.2316895,0.2774658-0.3066406,0.4515991   l-0.012146,0.0281982c-0.000061,0.000061,0,0.0001831-0.000061,0.0002441l-6.1289062,14.2513428   c-0.2426758,0.5644531-0.1166992,1.2192383,0.3173828,1.6533203C14.9106445,54.9257812,15.2944336,55.078125,15.6845703,55.078125z    M51.6757812,11.5688477c0.4101562-0.4091797,1.0761719-0.4091797,1.4863281,0l4.53125,4.53125   c0.1982422,0.1987305,0.3076172,0.4624023,0.3076172,0.7431641s-0.109375,0.5444336-0.3076172,0.7431641l-2.7817383,2.7817383   l-6.0175781-6.0175781L51.6757812,11.5688477z M46.6293945,16.6152344l0.1435547-0.1435547l6.0175781,6.0175781   l-0.1435547,0.1435547L29.9638672,45.315918l-6.0175781-6.0175781L46.6293945,16.6152344z M22.3291016,41.9233398   l5.0097656,5.0097656l-8.7900391,3.7802734L22.3291016,41.9233398z M12.0556641,91.7387695h75.8886719   c0.8286133,0,1.5-0.6713867,1.5-1.5V14.3505859c0-0.6069336-0.3652344-1.1538086-0.9257812-1.3857422   c-0.5615234-0.2338867-1.206543-0.1035156-1.6347656,0.3251953L10.9951172,89.1782227   c-0.4291992,0.4287109-0.5576172,1.0742188-0.3251953,1.6347656   C10.9018555,91.3735352,11.4487305,91.7387695,12.0556641,91.7387695z M86.4443359,17.9716797v70.7670898h-5.8886719v-3.3681641   c0-0.8286133-0.6713867-1.5-1.5-1.5s-1.5,0.6713867-1.5,1.5v3.3681641h-7v-3.3681641c0-0.8286133-0.6713867-1.5-1.5-1.5   s-1.5,0.6713867-1.5,1.5v3.3681641h-7v-3.3681641c0-0.8286133-0.6713867-1.5-1.5-1.5s-1.5,0.6713867-1.5,1.5v3.3681641h-7   v-3.3681641c0-0.8286133-0.6713867-1.5-1.5-1.5s-1.5,0.6713867-1.5,1.5v3.3681641h-7v-3.3681641c0-0.8286133-0.6713867-1.5-1.5-1.5   s-1.5,0.6713867-1.5,1.5v3.3681641h-7v-3.3681641c0-0.8286133-0.6713867-1.5-1.5-1.5s-1.5,0.6713867-1.5,1.5v3.3681641H15.6767578   L86.4443359,17.9716797z M39.2050781,80.9008789h37.9443359c0.8286133,0,1.5-0.6713867,1.5-1.5V41.456543   c0-0.6069336-0.3652344-1.1538086-0.9257812-1.3857422c-0.5620117-0.2329102-1.2070312-0.1035156-1.6347656,0.3251953   L38.1445312,78.340332c-0.4291992,0.4287109-0.5576172,1.0742188-0.3251953,1.6347656   C38.0512695,80.5356445,38.5981445,80.9008789,39.2050781,80.9008789z M75.6494141,45.0776367v32.8232422H42.8261719   L75.6494141,45.0776367z"/></g><text x="0" y="115" fill="#000000" font-size="5px" font-weight="bold" font-family="'Helvetica Neue', Helvetica, Arial-Unicode, Arial, Sans-serif">Created by Erman Tutan</text><text x="0" y="120" fill="#000000" font-size="5px" font-weight="bold" font-family="'Helvetica Neue', Helvetica, Arial-Unicode, Arial, Sans-serif">from the Noun Project</text></svg>