<?xml version="1.0" standalone="no"?>
<!DOCTYPE svg PUBLIC "-//W3C//DTD SVG 1.1//EN" "http://www.w3.org/Graphics/SVG/1.1/DTD/svg11.dtd" >
<svg xmlns="http://www.w3.org/2000/svg" xmlns:xlink="http://www.w3.org/1999/xlink" version="1.1">
<metadata>
Created by FontForge 20170731 at Mon Nov 29 17:07:02 2010
 By Aleksey,,,
Copyright 2004 - 2010 by Robert Bosch GmbH
</metadata>
<defs>
<font id="BoschSans-Bold" horiz-adv-x="500" >
  <font-face 
    font-family="Bosch Sans Bold"
    font-weight="700"
    font-stretch="normal"
    units-per-em="1000"
    panose-1="0 0 8 0 0 0 0 0 0 0"
    ascent="753"
    descent="-247"
    x-height="523"
    cap-height="715"
    bbox="-201 -271 1390 1116"
    underline-thickness="119"
    underline-position="-388"
    unicode-range="U+0020-FB04"
  />
<missing-glyph horiz-adv-x="301" 
 />
    <glyph glyph-name="ff" unicode="ff" horiz-adv-x="744" 
d="M417 523v58q0 89 47 137t133 48q65 0 120 -33l-39 -107q-28 16 -53 16q-26 0 -40.5 -17t-14.5 -46v-56h107v-119h-107v-404h-153v404h-165v-404h-153v404h-72v119h72v58q0 89 47 137t133 48q65 0 120 -33l-39 -107q-27 16 -53 16t-40.5 -17t-14.5 -46v-56h165z" />
    <glyph glyph-name="fi" unicode="fi" horiz-adv-x="669" 
d="M27 404v119h72v58q0 89 47 137t133 48q65 0 120 -33l-39 -107q-29 16 -53 16q-26 0 -40.5 -17t-14.5 -46v-56h107v-119h-107v-404h-153v404h-72zM442 0v523h153v-523h-153zM519 760q37 0 62.5 -24.5t25.5 -59.5t-26 -60t-63 -25t-62.5 24.5t-25.5 60.5q0 35 26 59.5
t63 24.5z" />
    <glyph glyph-name="fl" unicode="fl" horiz-adv-x="668" 
d="M27 404v119h72v58q0 89 47 137t133 48q65 0 120 -33l-39 -107q-29 16 -53 16q-26 0 -40.5 -17t-14.5 -46v-56h107v-119h-107v-404h-153v404h-72zM441 0v753h153v-753h-153z" />
    <glyph glyph-name="ffi" unicode="ffi" horiz-adv-x="1041" 
d="M469 523v58q0 89 47 137t133 48q65 0 120 -33l-39 -107q-28 16 -53 16q-26 0 -40.5 -17t-14.5 -46v-56h107v-119h-107v-404h-153v404h-165v-404h-153v404h-72v119h72v58q0 89 47 137t133 48q65 0 120 -33l-39 -107q-27 16 -53 16t-40.5 -17t-14.5 -46v-56h165zM819 0v523
h153v-523h-153zM896 760q37 0 62.5 -24.5t25.5 -59.5t-26 -60t-63 -25t-62.5 24.5t-25.5 60.5q0 35 26 59.5t63 24.5z" />
    <glyph glyph-name="ffl" unicode="ffl" horiz-adv-x="1083" 
d="M469 523v58q0 89 47 137t133 48q65 0 120 -33l-39 -107q-28 16 -53 16q-26 0 -40.5 -17t-14.5 -46v-56h107v-119h-107v-404h-153v404h-165v-404h-153v404h-72v119h72v58q0 89 47 137t133 48q65 0 120 -33l-39 -107q-27 16 -53 16t-40.5 -17t-14.5 -46v-56h165zM837 0v753
h153v-753h-153z" />
    <glyph glyph-name=".notdef" horiz-adv-x="301" 
 />
    <glyph glyph-name=".null" horiz-adv-x="0" 
 />
    <glyph glyph-name="nonmarkingreturn" horiz-adv-x="333" 
 />
    <glyph glyph-name="space" unicode=" " horiz-adv-x="301" 
 />
    <glyph glyph-name="exclam" unicode="!" horiz-adv-x="377" 
d="M158 239l-35 263v213h171v-213l-36 -263h-100zM210 177q38 0 65 -27.5t27 -66.5t-27 -66t-66 -27q-40 0 -67 27t-27 66q0 40 27.5 67t67.5 27z" />
    <glyph glyph-name="quotedbl" unicode="&#x22;" 
d="M77 436l-18 279h163l-19 -279h-126zM296 436l-17 279h161l-18 -279h-126z" />
    <glyph glyph-name="numbersign" unicode="#" horiz-adv-x="560" 
d="M55 468v114h101l14 133h94l-14 -133h96l14 133h94l-14 -133h88v-114h-100l-11 -99h88v-114h-100l-14 -136h-95l14 136h-96l-14 -136h-94l14 136h-87v114h100l10 99h-88zM237 468l-10 -99h96l10 99h-96z" />
    <glyph glyph-name="dollar" unicode="$" horiz-adv-x="602" 
d="M264 -135v125q-96 7 -165 52.5t-99 119.5l127 58q23 -51 55 -77t82 -33v188q-97 20 -145 51q-87 53 -87 164q0 126 109 182q49 25 123 30v88h75v-90q78 -11 129.5 -45t88.5 -100l-118 -63q-22 39 -44.5 59t-55.5 29v-178q102 -22 147 -48q90 -52 90 -167q0 -116 -92 -176
q-54 -33 -145 -43v-126h-75zM339 283v-174q95 15 95 87q0 35 -21 54t-74 33zM264 440v169q-49 -7 -71.5 -27t-22.5 -57q0 -34 21 -53t73 -32z" />
    <glyph glyph-name="percent" unicode="%" horiz-adv-x="1018" 
d="M780 408q86 0 139.5 -57.5t53.5 -148.5q0 -95 -54 -153.5t-142 -58.5q-87 0 -139.5 57t-52.5 152q0 94 54 151.5t141 57.5zM241 723q85 0 138.5 -57.5t53.5 -149.5q0 -95 -53.5 -153t-141.5 -58q-87 0 -139.5 57t-52.5 152q0 93 54 151t141 58zM252 0l400 715h114
l-400 -715h-114zM240 621q-69 0 -69 -106t67 -106q70 0 70 106t-68 106zM779 306q-69 0 -69 -106t67 -106q70 0 70 106t-68 106z" />
    <glyph glyph-name="ampersand" unicode="&#x26;" horiz-adv-x="733" 
d="M693 121l-5 -123q-30 -5 -50 -5q-70 0 -141 49q-86 -53 -184 -53q-127 0 -199.5 56.5t-72.5 156.5q0 75 40.5 125t132.5 91q-17 57 -17 109q0 89 54 143t143 54q74 0 120 -42.5t46 -110.5q0 -64 -40 -105.5t-139 -81.5q50 -89 126 -165q33 59 43 140h120
q-14 -124 -75 -216q37 -24 69 -24q14 0 29 2zM253 326q-56 -46 -56 -110q0 -53 33 -85t87 -32q45 0 90 22q-101 100 -154 205zM344 464q53 23 73 45t20 58q0 54 -46 54q-29 0 -45 -22.5t-16 -62.5q0 -36 14 -72z" />
    <glyph glyph-name="quotesingle" unicode="'" horiz-adv-x="281" 
d="M77 436l-18 279h163l-19 -279h-126z" />
    <glyph glyph-name="parenleft" unicode="(" horiz-adv-x="424" 
d="M378 -148h-128q-91 106 -131.5 215.5t-40.5 246.5t40.5 246.5t131.5 215.5h128q-73 -115 -105 -223.5t-32 -238.5t32 -238.5t105 -223.5z" />
    <glyph glyph-name="parenright" unicode=")" horiz-adv-x="424" 
d="M46 776h128q91 -106 131.5 -215.5t40.5 -246.5t-40.5 -246.5t-131.5 -215.5h-128q73 115 105 223.5t32 238.5t-32 238.5t-105 223.5z" />
    <glyph glyph-name="asterisk" unicode="*" horiz-adv-x="460" 
d="M169 384l-96 71l91 93l-121 20l37 114l108 -58l-22 129h122l-21 -129l106 58l38 -114l-122 -20l92 -93l-96 -71l-58 117z" />
    <glyph glyph-name="plus" unicode="+" horiz-adv-x="560" 
d="M42 275v129h170v184h134v-184h172v-129h-172v-182h-134v182h-170z" />
    <glyph glyph-name="comma" unicode="," horiz-adv-x="301" 
d="M73 -170v73q67 19 72 100q-42 4 -65.5 27t-23.5 60q0 38 26 63t66 25q47 0 75 -35t28 -95q0 -100 -50 -158q-24 -28 -52 -41.5t-76 -18.5z" />
    <glyph glyph-name="hyphen" unicode="-" horiz-adv-x="301" 
d="M34 258v139h233v-139h-233z" />
    <glyph glyph-name="period" unicode="." horiz-adv-x="301" 
d="M152 178q38 0 65.5 -28t27.5 -66q0 -39 -27.5 -66.5t-66.5 -27.5t-66.5 27t-27.5 67t27.5 67t67.5 27z" />
    <glyph glyph-name="slash" unicode="/" horiz-adv-x="447" 
d="M-5 -148l293 924h138l-292 -924h-139z" />
    <glyph glyph-name="zero" unicode="0" horiz-adv-x="602" 
d="M301 603q-51 0 -79.5 -63.5t-28.5 -178.5q0 -121 28 -185t81 -64q51 0 79 64t28 182q0 117 -28 181t-80 64zM301 726q124 0 196.5 -99.5t72.5 -268.5q0 -156 -68 -263q-32 -51 -84.5 -78.5t-115.5 -27.5q-125 0 -197.5 100t-72.5 273q0 155 68 258q69 106 201 106z" />
    <glyph glyph-name="one" unicode="1" horiz-adv-x="602" 
d="M85 0v125h152v375q-56 -22 -148 -20v113q78 7 118.5 37.5t54.5 92.5h130v-598h136v-125h-443z" />
    <glyph glyph-name="two" unicode="2" horiz-adv-x="602" 
d="M44 0v122q136 86 205 147q133 119 133 235q0 47 -23.5 73t-66.5 26q-41 0 -66 -25.5t-41 -82.5l-140 34q28 100 90 148.5t164 48.5q113 0 178.5 -60t65.5 -164q0 -137 -124 -255q-52 -51 -171 -124h303v-123h-507z" />
    <glyph glyph-name="three" unicode="3" horiz-adv-x="602" 
d="M172 503l-128 36q60 187 264 187q109 0 176.5 -55t67.5 -144q0 -104 -114 -151q132 -44 132 -171q0 -99 -73 -157.5t-197 -58.5q-132 0 -211 67q-56 47 -75 132l139 35q16 -58 50 -84.5t90 -26.5q55 0 85.5 27t30.5 74q0 46 -30.5 71t-85.5 25h-65v113h61q50 0 78.5 24
t28.5 67q0 42 -25 66t-69 24q-46 0 -77.5 -24t-52.5 -76z" />
    <glyph glyph-name="four" unicode="4" horiz-adv-x="602" 
d="M356 0v140h-345v125l323 458h168v-464h89v-119h-89v-140h-146zM363 568l-212 -309h212v309z" />
    <glyph glyph-name="five" unicode="5" horiz-adv-x="602" 
d="M215 592l-20 -173q48 54 140 54q103 0 163.5 -63.5t60.5 -170.5q0 -115 -71.5 -182.5t-193.5 -67.5q-133 0 -210 75q-22 22 -33 40t-22 51l-4 10l145 40q28 -93 117 -93q54 0 84.5 33t30.5 92q0 57 -30 90t-81 33q-70 0 -102 -60h-132l45 415h415v-123h-302z" />
    <glyph glyph-name="six" unicode="6" horiz-adv-x="602" 
d="M312 353q-49 0 -80 -33.5t-31 -86.5q0 -56 30.5 -90t80.5 -34t80.5 33.5t30.5 88.5t-30.5 88.5t-80.5 33.5zM549 598l-110 -71q-25 43 -48.5 59.5t-58.5 16.5q-130 0 -145 -224q55 87 165 87q98 0 159.5 -64t61.5 -167q0 -110 -71 -178t-186 -68q-129 0 -206 94
q-75 90 -75 258q0 175 81 280t217 105q144 0 216 -128z" />
    <glyph glyph-name="seven" unicode="7" horiz-adv-x="602" 
d="M321 0h-171q10 172 76 326.5t176 265.5h-351v123h503v-116q-105 -108 -166.5 -268t-66.5 -331z" />
    <glyph glyph-name="eight" unicode="8" horiz-adv-x="602" 
d="M301 327q-54 0 -87 -29.5t-33 -78.5q0 -52 32.5 -82t87.5 -30q54 0 86.5 30t32.5 80t-32.5 80t-86.5 30zM301 613q-44 0 -72 -26t-28 -67q0 -43 27.5 -69t72.5 -26q43 0 71 26.5t28 67.5t-28 67.5t-71 26.5zM455 379q124 -55 124 -176q0 -97 -76 -155.5t-202 -58.5
q-127 0 -203 58.5t-76 155.5q0 122 125 176q-93 52 -93 148q0 87 69 143t178 56q108 0 177 -56t69 -143q0 -95 -92 -148z" />
    <glyph glyph-name="nine" unicode="9" horiz-adv-x="602" 
d="M290 606q-46 0 -76.5 -32t-30.5 -81q0 -51 30 -83.5t77 -32.5q46 0 76 32.5t30 82.5q0 49 -30 81.5t-76 32.5zM30 128l123 63q20 -43 45 -61t67 -18q71 0 105 56.5t38 182.5q-53 -87 -160 -87q-96 0 -155.5 59.5t-59.5 154.5q0 111 71 179.5t185 68.5q132 0 202.5 -91.5
t70.5 -262.5q0 -184 -76.5 -283.5t-216.5 -99.5q-108 0 -178 59q-31 25 -61 80z" />
    <glyph glyph-name="colon" unicode=":" horiz-adv-x="301" 
d="M152 467q39 0 66.5 -27.5t27.5 -66.5t-27.5 -67t-66.5 -28q-40 0 -67.5 27.5t-27.5 67.5t27.5 67t67.5 27zM152 178q38 0 65.5 -27.5t27.5 -66.5t-27.5 -66.5t-66.5 -27.5q-40 0 -67 27t-27 67t27.5 67t67.5 27z" />
    <glyph glyph-name="semicolon" unicode=";" horiz-adv-x="301" 
d="M153 467q39 0 66.5 -27.5t27.5 -66.5t-27.5 -67t-66.5 -28q-40 0 -67.5 27.5t-27.5 67.5t27.5 67t67.5 27zM72 -170v73q67 19 72 100q-42 4 -65.5 27t-23.5 60q0 38 26 63t66 25q47 0 75 -35t28 -95q0 -100 -50 -158q-24 -28 -52 -41.5t-76 -18.5z" />
    <glyph glyph-name="less" unicode="&#x3c;" horiz-adv-x="560" 
d="M477 64l-400 197v122l400 198v-158l-241 -99l241 -107v-153z" />
    <glyph glyph-name="equal" unicode="=" horiz-adv-x="560" 
d="M64 373v129h432v-129h-432zM64 158v125h432v-125h-432z" />
    <glyph glyph-name="greater" unicode="&#x3e;" horiz-adv-x="560" 
d="M83 66v156l242 99l-242 107v151l401 -196v-121z" />
    <glyph glyph-name="question" unicode="?" horiz-adv-x="574" 
d="M205 239v28q0 54 20 88.5t73 70.5q43 29 58 50t15 50q0 34 -21.5 54.5t-56.5 20.5q-81 0 -108 -93l-137 37q24 84 82 129q67 52 171 52q105 0 167.5 -52t62.5 -139q0 -55 -24.5 -93t-88.5 -81q-43 -29 -56.5 -49t-13.5 -55v-18h-143zM273 177q38 0 65.5 -27.5t27.5 -66.5
t-27.5 -66t-66.5 -27t-66 27.5t-27 65.5q0 39 27.5 66.5t66.5 27.5z" />
    <glyph glyph-name="at" unicode="@" horiz-adv-x="905" 
d="M644 -17l45 -64q-62 -43 -118 -59.5t-135 -16.5q-176 0 -285 110.5t-109 288.5q0 184 122 306.5t306 122.5q175 0 284 -105t109 -273q0 -118 -56.5 -188t-150.5 -70q-104 0 -129 85q-54 -90 -144 -90q-69 0 -110 50t-41 135q0 110 56 181t143 71q77 0 108 -61l9 52h124
l-41 -257q-3 -18 -3 -32q0 -47 44 -47q49 0 78 47.5t29 128.5q0 137 -82 215.5t-227 78.5q-152 0 -246 -96.5t-94 -253.5q0 -149 83 -234.5t227 -85.5q61 0 104.5 13t99.5 48zM454 364q-43 0 -68.5 -39t-25.5 -107q0 -78 58 -78q45 0 71 40t26 110q0 35 -16 54.5t-45 19.5z
" />
    <glyph glyph-name="A" unicode="A" horiz-adv-x="719" 
d="M711 0h-170l-46 136h-290l-47 -136h-150l262 715h184zM457 250l-106 314l-108 -314h214z" />
    <glyph glyph-name="B" unicode="B" horiz-adv-x="705" 
d="M82 0v715h323q114 0 174 -48.5t60 -140.5q0 -58 -23 -93.5t-78 -60.5q68 -23 98 -63t30 -108q0 -98 -64 -149.5t-186 -51.5h-334zM239 122h165q50 0 77 25t27 71q0 94 -110 94h-159v-190zM239 426h157q88 0 88 84q0 83 -95 83h-150v-167z" />
    <glyph glyph-name="C" unicode="C" horiz-adv-x="732" 
d="M552 254l143 -58q-40 -99 -106 -147q-79 -60 -196 -60q-157 0 -250 99.5t-93 266.5q0 164 94.5 267.5t245.5 103.5q134 0 216 -76q47 -45 81 -124l-142 -58q-25 69 -61.5 99t-94.5 30q-83 0 -127.5 -62t-44.5 -177q0 -116 45.5 -178t130.5 -62q59 0 96.5 32.5t62.5 103.5
z" />
    <glyph glyph-name="D" unicode="D" horiz-adv-x="754" 
d="M82 0v715h265q170 0 263.5 -93t93.5 -262q0 -172 -94.5 -266t-267.5 -94h-260zM242 127h108q91 0 139 59t48 172q0 112 -48.5 171t-139.5 59h-107v-461z" />
    <glyph glyph-name="E" unicode="E" horiz-adv-x="646" 
d="M82 0v715h502v-129h-344v-161h262v-119h-262v-177h360v-129h-518z" />
    <glyph glyph-name="F" unicode="F" horiz-adv-x="617" 
d="M82 0v715h493v-129h-333v-189h257v-125h-257v-272h-160z" />
    <glyph glyph-name="G" unicode="G" horiz-adv-x="786" 
d="M630 0l-28 105q-42 -61 -94.5 -88.5t-126.5 -27.5q-148 0 -239.5 101t-91.5 264q0 164 96.5 268t250.5 104q133 0 217 -75q43 -39 77 -115l-146 -58q-24 64 -59 91.5t-92 27.5q-84 0 -130.5 -63.5t-46.5 -178.5q0 -113 47.5 -175t135.5 -62q72 0 117.5 41.5t45.5 106.5v6
h-151v119h307v-391h-89z" />
    <glyph glyph-name="H" unicode="H" horiz-adv-x="756" 
d="M82 0v715h160v-290h272v290h160v-715h-160v296h-272v-296h-160z" />
    <glyph glyph-name="I" unicode="I" horiz-adv-x="334" 
d="M87 0v715h160v-715h-160z" />
    <glyph glyph-name="J" unicode="J" horiz-adv-x="624" 
d="M548 715v-460q0 -266 -247 -266q-119 0 -185.5 63t-66.5 177v38h155v-28q0 -121 91 -121q50 0 71.5 32.5t21.5 105.5v459h160z" />
    <glyph glyph-name="K" unicode="K" horiz-adv-x="703" 
d="M82 0v715h160v-308l243 308h178l-246 -303l263 -412h-179l-190 294l-69 -84v-210h-160z" />
    <glyph glyph-name="L" unicode="L" horiz-adv-x="577" 
d="M82 0v715h160v-586h315v-129h-475z" />
    <glyph glyph-name="M" unicode="M" horiz-adv-x="947" 
d="M82 715h230l162 -490l162 490h229v-715h-157v538l-182 -538h-118l-183 539v-539h-143v715z" />
    <glyph glyph-name="N" unicode="N" horiz-adv-x="757" 
d="M82 0v715h182l265 -485v485h146v-715h-175l-272 496v-496h-146z" />
    <glyph glyph-name="O" unicode="O" horiz-adv-x="794" 
d="M401 726q150 0 246.5 -103t96.5 -263q0 -164 -97 -267.5t-252 -103.5q-153 0 -249 102t-96 265q0 162 98.5 266t252.5 104zM399 597q-86 0 -134 -63t-48 -177q0 -112 48 -175.5t133 -63.5t132 63t47 176q0 111 -48 175.5t-130 64.5z" />
    <glyph glyph-name="P" unicode="P" horiz-adv-x="683" 
d="M82 0v715h304q121 0 189 -61t68 -171q0 -104 -66 -162.5t-184 -58.5h-151v-262h-160zM242 381h134q54 0 82.5 27t28.5 78q0 102 -110 102h-135v-207z" />
    <glyph glyph-name="Q" unicode="Q" horiz-adv-x="794" 
d="M629 -71l-83 91q-68 -31 -152 -31q-152 0 -248 102.5t-96 264.5q0 161 98 265.5t250 104.5t249 -102.5t97 -263.5q0 -167 -100 -270l77 -83zM449 125l-63 68l89 79l67 -72q35 63 35 156q0 112 -48 176.5t-132 64.5q-85 0 -132.5 -63.5t-47.5 -175.5t48 -176t133 -64
q26 0 51 7z" />
    <glyph glyph-name="R" unicode="R" horiz-adv-x="714" 
d="M82 0v715h314q115 0 180 -54.5t65 -150.5q0 -78 -39 -124q-32 -37 -96 -57q51 -15 76 -46.5t39 -96.5q36 -153 58 -182v-4h-164q-27 48 -54 172q-12 55 -37.5 78t-74.5 23h-109v-273h-158zM240 392h132q55 0 84 25.5t29 74.5q0 98 -102 98h-143v-198z" />
    <glyph glyph-name="S" unicode="S" horiz-adv-x="651" 
d="M24 160l138 59q22 -55 60 -79.5t98 -24.5t94 23.5t34 64.5q0 36 -26 54.5t-104 36.5q-138 32 -181 59q-81 52 -81 153q0 102 68 160.5t186 58.5q195 0 276 -148l-129 -61q-26 46 -59 64.5t-87 18.5q-49 0 -75.5 -20t-26.5 -57q0 -34 27 -52t97 -32q134 -28 188 -61
q83 -55 83 -164q0 -108 -73 -166t-209 -58q-112 0 -184 41t-114 130z" />
    <glyph glyph-name="T" unicode="T" horiz-adv-x="596" 
d="M218 0v586h-202v129h564v-129h-202v-586h-160z" />
    <glyph glyph-name="U" unicode="U" horiz-adv-x="738" 
d="M662 715v-429q0 -145 -75 -221t-217 -76q-143 0 -218.5 75t-75.5 218v433h160v-425q0 -90 32 -130.5t103 -40.5q73 0 106 42.5t33 134.5v419h152z" />
    <glyph glyph-name="V" unicode="V" horiz-adv-x="662" 
d="M246 0l-246 715h172l167 -521l166 521h157l-246 -715h-170z" />
    <glyph glyph-name="W" unicode="W" horiz-adv-x="1032" 
d="M212 0l-184 715h168l118 -503l139 503h133l140 -507l124 507h154l-185 -715h-165l-136 483l-139 -483h-167z" />
    <glyph glyph-name="X" unicode="X" horiz-adv-x="718" 
d="M24 0l241 368l-223 347h190l133 -228l132 228h171l-216 -342l242 -373h-191l-153 257l-154 -257h-172z" />
    <glyph glyph-name="Y" unicode="Y" horiz-adv-x="606" 
d="M228 0v295l-248 420h179l154 -283l151 283h162l-238 -419v-296h-160z" />
    <glyph glyph-name="Z" unicode="Z" horiz-adv-x="627" 
d="M46 0v136l339 450h-323v129h507v-140l-336 -446h345v-129h-532z" />
    <glyph glyph-name="bracketleft" unicode="[" horiz-adv-x="424" 
d="M87 -148v924h279v-119h-123v-686h123v-119h-279z" />
    <glyph glyph-name="backslash" unicode="\" horiz-adv-x="447" 
d="M313 -148l-293 924h139l292 -924h-138z" />
    <glyph glyph-name="bracketright" unicode="]" horiz-adv-x="424" 
d="M337 776v-924h-279v119h123v686h-123v119h279z" />
    <glyph glyph-name="asciicircum" unicode="^" horiz-adv-x="543" 
d="M57 396l161 319h109l161 -319h-123l-94 164l-95 -164h-119z" />
    <glyph glyph-name="underscore" unicode="_" horiz-adv-x="440" 
d="M-20 -211v119h480v-119h-480z" />
    <glyph glyph-name="grave" unicode="`" 
d="M199 587l-108 166h175l42 -166h-109z" />
    <glyph glyph-name="a" unicode="a" horiz-adv-x="562" 
d="M511 0h-148q-7 19 -14 62q-55 -73 -149 -73q-74 0 -118.5 40.5t-44.5 107.5q0 90 75 134.5t231 45.5v14q0 43 -20 62.5t-64 19.5q-73 0 -148 -51l-65 98q98 76 235 76q121 0 176 -65q40 -48 40 -143v-237q0 -48 14 -85v-6zM344 179v46q-83 -2 -120 -19.5t-37 -54.5
q0 -25 16.5 -39t45.5 -14q43 0 69 22.5t26 58.5z" />
    <glyph glyph-name="b" unicode="b" horiz-adv-x="636" 
d="M223 753v-309q59 92 160 92q95 0 154 -75t59 -198q0 -126 -58 -200t-158 -74q-107 0 -157 92v-81h-153v753h153zM333 417q-55 0 -84.5 -40.5t-29.5 -115.5q0 -74 29 -113.5t83 -39.5q109 0 109 153q0 74 -28 115t-79 41z" />
    <glyph glyph-name="c" unicode="c" horiz-adv-x="548" 
d="M406 188l121 -59q-67 -140 -228 -140q-118 0 -188.5 73.5t-70.5 195.5q0 124 71.5 201t186.5 77q153 0 223 -139l-127 -59q-19 44 -39 61.5t-52 17.5q-52 0 -79.5 -40t-27.5 -115q0 -154 109 -154q37 0 60.5 18.5t40.5 61.5z" />
    <glyph glyph-name="d" unicode="d" horiz-adv-x="636" 
d="M412 0v83q-52 -94 -158 -94q-98 0 -156 74t-58 199t58 199.5t156 74.5q106 0 158 -90v307h153v-753h-153zM306 417q-110 0 -110 -156q0 -153 108 -153q54 0 83.5 40t29.5 114q0 72 -29.5 113.5t-81.5 41.5z" />
    <glyph glyph-name="e" unicode="e" horiz-adv-x="586" 
d="M420 166l119 -59q-73 -118 -228 -118q-121 0 -196 74.5t-75 193.5q0 123 74 201t190 78q115 0 180 -72.5t65 -199.5v-41h-355q9 -60 32 -84q31 -35 87 -35q37 0 61.5 14t45.5 48zM197 316h203q-6 56 -28.5 81.5t-68.5 25.5q-45 0 -70 -25.5t-36 -81.5z" />
    <glyph glyph-name="f" unicode="f" horiz-adv-x="391" 
d="M27 404v119h72v58q0 89 47 137t133 48q65 0 120 -33l-39 -107q-28 16 -53 16q-26 0 -40.5 -17t-14.5 -46v-56h107v-119h-107v-404h-153v404h-72z" />
    <glyph glyph-name="g" unicode="g" horiz-adv-x="576" 
d="M547 418h-67q12 -35 12 -62q0 -74 -60 -120t-158 -46q-50 0 -95 14q-21 -15 -21 -36t15.5 -29.5t55.5 -8.5h132q91 0 139.5 -37.5t48.5 -107.5q0 -88 -74 -136.5t-209 -48.5q-117 0 -182.5 35t-65.5 99q0 63 85 100q-59 35 -59 95q0 68 74 106q-63 50 -63 124
q0 77 61 127t155 50q69 0 135 -35l141 32v-115zM339 7h-121q-26 0 -35 2q-32 -22 -32 -51q0 -59 119 -59q141 0 141 66q0 42 -72 42zM274 440q-38 0 -59.5 -21.5t-21.5 -59.5t21.5 -60t59.5 -22q37 0 58.5 22t21.5 60t-21.5 59.5t-58.5 21.5z" />
    <glyph glyph-name="h" unicode="h" horiz-adv-x="616" 
d="M70 0v753h153v-312q52 95 162 95q79 0 122 -52t43 -146v-338h-153v318q0 99 -78 99q-46 0 -71 -28.5t-25 -80.5v-308h-153z" />
    <glyph glyph-name="i" unicode="i" horiz-adv-x="301" 
d="M74 0v523h153v-523h-153zM151 760q37 0 62.5 -24.5t25.5 -59.5t-26 -60t-63 -25t-62.5 24.5t-25.5 60.5q0 35 26 59.5t63 24.5z" />
    <glyph glyph-name="j" unicode="j" horiz-adv-x="309" 
d="M235 523v-538q0 -85 -41.5 -130.5t-119.5 -45.5q-56 0 -102 25l28 107q21 -9 37 -9q45 0 45 57v534h153zM159 760q37 0 62.5 -24.5t25.5 -59.5t-26 -60t-63 -25t-62.5 24.5t-25.5 60.5q0 35 26 59.5t63 24.5z" />
    <glyph glyph-name="k" unicode="k" horiz-adv-x="588" 
d="M401 0l-125 210l-53 -62v-148h-153v753h153v-434l164 204h166l-175 -205l193 -318h-170z" />
    <glyph glyph-name="l" unicode="l" horiz-adv-x="301" 
d="M74 0v753h153v-753h-153z" />
    <glyph glyph-name="m" unicode="m" horiz-adv-x="905" 
d="M223 523v-78q54 91 151 91q95 0 139 -87q67 87 162 87q78 0 121 -52t43 -146v-338h-153v324q0 93 -70 93q-39 0 -62 -27.5t-23 -74.5v-315h-153v326q0 91 -71 91q-39 0 -61.5 -27t-22.5 -73v-317h-153v523h153z" />
    <glyph glyph-name="n" unicode="n" horiz-adv-x="616" 
d="M70 0v523h153v-82q52 95 162 95q79 0 122 -52t43 -146v-338h-153v318q0 99 -79 99q-45 0 -70 -28.5t-25 -80.5v-308h-153z" />
    <glyph glyph-name="o" unicode="o" horiz-adv-x="615" 
d="M311 536q115 0 189.5 -77t74.5 -195q0 -121 -75 -198t-193 -77t-192.5 75.5t-74.5 194.5q0 122 75.5 199.5t195.5 77.5zM310 417q-114 0 -114 -155q0 -74 29 -114t82 -40q54 0 83 40t29 115q0 74 -28 114t-81 40z" />
    <glyph glyph-name="p" unicode="p" horiz-adv-x="636" 
d="M70 -182v705h153v-79q59 92 160 92q96 0 154.5 -75t58.5 -198q0 -125 -58 -199.5t-156 -74.5q-108 0 -159 89v-260h-153zM333 417q-55 0 -84.5 -40.5t-29.5 -115.5q0 -74 29 -113.5t83 -39.5q109 0 109 153q0 74 -28 115t-79 41z" />
    <glyph glyph-name="q" unicode="q" horiz-adv-x="635" 
d="M412 -182v262q-52 -91 -159 -91q-97 0 -155 74t-58 199t58 199.5t156 74.5q106 0 158 -90v77h153v-705h-153zM306 417q-110 0 -110 -156q0 -153 108 -153q54 0 83.5 40t29.5 114q0 72 -29.5 113.5t-81.5 41.5z" />
    <glyph glyph-name="r" unicode="r" horiz-adv-x="434" 
d="M70 0v523h153v-89q49 100 135 100q42 0 76 -21l-38 -138q-30 18 -63 18q-50 0 -80 -35t-30 -95v-263h-153z" />
    <glyph glyph-name="s" unicode="s" horiz-adv-x="523" 
d="M468 474l-70 -97q-61 46 -138 46q-67 0 -67 -41q0 -23 19.5 -33.5t83.5 -22.5q82 -14 121 -38q68 -40 68 -126q0 -82 -60 -127.5t-170 -45.5q-76 0 -130 18t-101 58l71 99q68 -62 156 -62q86 0 86 50q0 22 -19 32q-17 9 -92 23q-92 17 -134 56.5t-42 107.5q0 77 56.5 121
t156.5 44q120 0 205 -62z" />
    <glyph glyph-name="t" unicode="t" horiz-adv-x="408" 
d="M27 404v119h72v105l153 53v-158h110v-119h-110v-231q0 -57 44 -57q25 0 53 16l37 -102q-53 -41 -125 -41q-77 0 -119.5 43t-42.5 122v250h-72z" />
    <glyph glyph-name="u" unicode="u" horiz-adv-x="607" 
d="M384 0v80q-49 -91 -156 -91q-77 0 -119.5 52t-42.5 146v336h153v-318q0 -96 71 -96q44 0 69 28.5t25 78.5v307h153v-523h-153z" />
    <glyph glyph-name="v" unicode="v" horiz-adv-x="550" 
d="M191 0l-181 523h164l110 -358l108 358h148l-179 -523h-170z" />
    <glyph glyph-name="w" unicode="w" horiz-adv-x="836" 
d="M174 0l-153 523h160l82 -335l97 335h131l87 -335l89 335h148l-158 -523h-151l-88 324l-92 -324h-152z" />
    <glyph glyph-name="x" unicode="x" horiz-adv-x="586" 
d="M18 0l182 267l-170 256h176l93 -149l93 149h158l-170 -244l188 -279h-179l-105 168l-108 -168h-158z" />
    <glyph glyph-name="y" unicode="y" horiz-adv-x="558" 
d="M548 523l-205 -550q-31 -85 -79.5 -124t-119.5 -39q-65 0 -119 34l42 104q31 -19 64 -19q29 0 46.5 15.5t29.5 50.5l3 9l-200 519h163l115 -327l110 327h150z" />
    <glyph glyph-name="z" unicode="z" horiz-adv-x="514" 
d="M35 0v110l250 294h-237v119h421v-112l-245 -292h254v-119h-443z" />
    <glyph glyph-name="braceleft" unicode="{" horiz-adv-x="437" 
d="M386 -30v-119q-65 1 -102.5 9t-69.5 26q-78 45 -78 159v122q0 46 -22.5 65t-79.5 20v126q56 2 79 20.5t23 63.5v122q0 116 75 159q31 18 69 25t106 9v-119q-60 -6 -78.5 -23t-18.5 -67v-117q0 -55 -23.5 -87.5t-73.5 -46.5q51 -16 74 -47.5t23 -86.5v-119q0 -51 19.5 -70
t77.5 -24z" />
    <glyph glyph-name="bar" unicode="|" horiz-adv-x="289" 
d="M85 -148v924h119v-924h-119z" />
    <glyph glyph-name="braceright" unicode="}" horiz-adv-x="437" 
d="M51 658v119q65 -1 102.5 -9t69.5 -26q78 -45 78 -159v-122q0 -46 22.5 -65t79.5 -20v-126q-56 -2 -79 -20.5t-23 -63.5v-122q0 -116 -75 -159q-31 -18 -69 -25t-106 -9v119q60 6 78.5 23t18.5 67v117q0 55 23.5 87.5t73.5 46.5q-51 16 -74 47.5t-23 86.5v119
q0 51 -19.5 70t-77.5 24z" />
    <glyph glyph-name="asciitilde" unicode="~" horiz-adv-x="560" 
d="M163 241l-108 8q11 73 33 114q38 69 109 69q41 0 101 -37q37 -23 56 -23q18 0 28 14t16 48l108 -8q-11 -75 -33 -115q-39 -68 -109 -68q-42 0 -99 36q-37 24 -56 24q-20 0 -30.5 -14t-15.5 -48z" />
    <glyph glyph-name="uni00A0" unicode="&#xa0;" horiz-adv-x="301" 
 />
    <glyph glyph-name="exclamdown" unicode="&#xa1;" horiz-adv-x="377" 
d="M259 294l35 -263v-213h-171v213l36 263h100zM208 543q40 0 67 -27t27 -66q0 -40 -27.5 -67t-67.5 -27q-38 0 -65 27.5t-27 66.5t27 66t66 27z" />
    <glyph glyph-name="cent" unicode="&#xa2;" horiz-adv-x="602" 
d="M287 -135v126q-59 9 -96.5 27.5t-69.5 54.5q-64 72 -64 185q0 118 68 194q32 36 68.5 54.5t93.5 27.5v95h73v-96q132 -17 190 -132l-119 -56q-31 58 -71 70v-313q53 15 82 81l113 -54q-52 -124 -195 -138v-126h-73zM287 103v312q-82 -31 -82 -155q0 -126 82 -157z" />
    <glyph glyph-name="sterling" unicode="&#xa3;" horiz-adv-x="602" 
d="M191 112q-4 3 -10 8q-26 19 -52 19q-17 0 -27 -9.5t-10 -25.5q0 -33 40 -33q37 0 59 41zM38 299v95h70q-23 62 -23 120q0 100 62.5 156t173.5 56q124 0 195 -68q22 -22 34 -41t26 -58q3 -5 4 -12l-137 -47q-18 57 -43 80t-69 23q-41 0 -63 -26t-22 -73q0 -42 24 -110h171
v-95h-138q21 -70 21 -122q0 -17 -3 -36q38 -29 73 -29q30 0 46.5 18t23.5 61l131 -17q-9 -55 -16.5 -78.5t-23.5 -46.5q-42 -60 -129 -60q-78 0 -156 55q-57 -54 -136 -54q-61 0 -97.5 31t-36.5 84q0 50 33 81t86 31q36 0 74 -17q-15 56 -41 99h-114z" />
    <glyph glyph-name="currency" unicode="&#xa4;" horiz-adv-x="602" 
d="M-6 389v76h72q17 67 36 105.5t53 73.5q79 82 198 82q115 0 181 -76q35 -40 59 -112q2 -5 4 -13l-136 -43q-19 67 -44 94t-67 27q-95 0 -127 -138h155v-76h-164q-1 -10 -1 -31q0 -27 1 -38h164v-76h-153q18 -70 48 -101t80 -31q68 0 98 74q5 12 16 54l140 -40
q-27 -103 -93 -157t-166 -54q-124 0 -202 86q-30 35 -47 70t-33 99h-72v76h62q-1 11 -1 38q0 22 1 31h-62z" />
    <glyph glyph-name="yen" unicode="&#xa5;" horiz-adv-x="602" 
d="M57 308v76h126l-180 331h174l129 -271l132 271h160l-180 -331h129v-76h-169v-69h169v-76h-169v-163h-154v163h-167v76h167v69h-167z" />
    <glyph glyph-name="brokenbar" unicode="&#xa6;" horiz-adv-x="289" 
d="M85 0v287h119v-287h-119zM85 428v287h119v-287h-119z" />
    <glyph glyph-name="section" unicode="&#xa7;" horiz-adv-x="594" 
d="M517 629l-92 -81q-48 63 -124 63q-73 0 -73 -54q0 -26 20.5 -40t85.5 -31q114 -30 154 -58q65 -46 65 -127q0 -49 -22.5 -80t-73.5 -53q57 -50 57 -125q0 -84 -59.5 -133t-160.5 -49q-151 0 -234 102l91 81q30 -37 61 -52.5t73 -15.5q84 0 84 56q0 25 -20 37t-103 37
q-115 34 -159.5 74t-44.5 110q0 49 23 80t73 51q-55 49 -55 123q0 84 57.5 133t156.5 49q138 0 220 -97zM353 218q57 15 57 60q0 23 -14.5 37t-50.5 27q-49 19 -111 28q-49 -13 -49 -56q0 -34 36.5 -54.5t131.5 -41.5z" />
    <glyph glyph-name="dieresis" unicode="&#xa8;" 
d="M143 755q32 0 55.5 -23.5t23.5 -56.5q0 -32 -23.5 -56t-55.5 -24q-33 0 -57 24t-24 56q0 33 24 56.5t57 23.5zM358 755q32 0 56 -23.5t24 -55.5q0 -33 -24 -57t-57 -24q-32 0 -55.5 24t-23.5 56q0 33 23.5 56.5t56.5 23.5z" />
    <glyph glyph-name="copyright" unicode="&#xa9;" horiz-adv-x="827" 
d="M417 723q151 0 254.5 -106t103.5 -260q0 -155 -104.5 -260.5t-258.5 -105.5q-153 0 -257 105t-104 259q0 157 105 262.5t261 105.5zM416 669q-132 0 -217 -88.5t-85 -225.5q0 -134 84.5 -222t212.5 -88q130 0 215.5 89t85.5 223t-84.5 223t-211.5 89zM501 313l102 -55
q-57 -115 -186 -115q-94 0 -151.5 59t-57.5 157q0 95 58.5 155t151.5 60q126 0 179 -111l-99 -54q-14 32 -31.5 45.5t-45.5 13.5q-40 0 -62.5 -28.5t-22.5 -78.5q0 -51 23 -79.5t64 -28.5q54 0 78 60z" />
    <glyph glyph-name="ordfeminine" unicode="&#xaa;" horiz-adv-x="499" 
d="M453 269h-131q-9 22 -14 57q-47 -66 -131 -66q-64 0 -102 34t-38 92q0 98 114 131q53 16 153 20v12q0 35 -15.5 50.5t-52.5 15.5q-74 0 -132 -48l-57 91q87 67 203 67q189 0 189 -169v-204q0 -45 14 -76v-7zM305 424v35q-74 -2 -104.5 -15.5t-30.5 -44.5q0 -44 53 -44
q36 0 59 19.5t23 49.5z" />
    <glyph glyph-name="guillemotleft" unicode="&#xab;" horiz-adv-x="538" 
d="M366 37l-115 203l115 204h127l-116 -204l116 -203h-127zM161 37l-114 203l114 204h127l-116 -204l116 -203h-127z" />
    <glyph glyph-name="logicalnot" unicode="&#xac;" horiz-adv-x="560" 
d="M326 156v132h-234v133h363v-265h-129z" />
    <glyph glyph-name="uni00AD" unicode="&#xad;" horiz-adv-x="301" 
d="M34 258v139h233v-139h-233z" />
    <glyph glyph-name="registered" unicode="&#xae;" horiz-adv-x="581" 
d="M293 723q103 0 174 -71t71 -174q0 -105 -71.5 -176.5t-176.5 -71.5q-104 0 -175.5 71.5t-71.5 175.5t72 175t178 71zM293 674q-89 0 -142.5 -54t-53.5 -143q0 -88 53.5 -143t139.5 -55t140 55.5t54 143.5t-52.5 142t-138.5 54zM190 364v234h120q41 0 64 -18.5t23 -52.5
q0 -45 -44 -58q19 -5 28 -19.5t17 -54.5q4 -22 11 -29v-2h-72q-9 16 -13 40q-3 22 -11 30.5t-25 8.5h-25v-79h-73zM263 495h35q30 0 30 25q0 26 -29 26h-36v-51z" />
    <glyph glyph-name="macron" unicode="&#xaf;" 
d="M121 626v106h259v-106h-259z" />
    <glyph glyph-name="degree" unicode="&#xb0;" horiz-adv-x="472" 
d="M238 726q76 0 127.5 -51t51.5 -127q0 -79 -52 -130.5t-130 -51.5t-129.5 50.5t-51.5 127.5q0 79 52 130.5t132 51.5zM236 639q-35 0 -54.5 -24t-19.5 -67q0 -44 20 -69.5t54 -25.5t53.5 24.5t19.5 67.5q0 42 -20 68t-53 26z" />
    <glyph glyph-name="plusminus" unicode="&#xb1;" horiz-adv-x="560" 
d="M46 353v129h167v162h134v-162h168v-129h-168v-165h-134v165h-167zM46 0v129h460v-129h-460z" />
    <glyph glyph-name="twosuperior" unicode="&#xb2;" horiz-adv-x="451" 
d="M48 431v100q112 58 161 103t49 91q0 47 -40 47q-19 0 -30.5 -12.5t-18.5 -41.5l-124 30q36 133 184 133q80 0 128 -40.5t48 -108.5q0 -120 -164 -195h165v-106h-358z" />
    <glyph glyph-name="threesuperior" unicode="&#xb3;" horiz-adv-x="451" 
d="M157 728l-113 29q44 124 189 124q80 0 127.5 -34.5t47.5 -92.5q0 -65 -73 -92q82 -26 82 -102q0 -63 -51 -100t-137 -37q-98 0 -153 47q-33 29 -46 83l119 28q16 -56 69 -56t53 44q0 41 -52 41h-36v87h36q54 0 54 41t-49 41q-50 0 -67 -51z" />
    <glyph glyph-name="acute" unicode="&#xb4;" 
d="M193 587l42 166h175l-109 -166h-108z" />
    <glyph glyph-name="mu" unicode="&#xb5;" horiz-adv-x="602" 
d="M541 0h-153v80q-49 -91 -143 -91q-19 0 -30 7v-178h-153v705h153v-311q0 -52 18 -75t59 -23q46 0 71 28.5t25 78.5v302h153v-523z" />
    <glyph glyph-name="paragraph" unicode="&#xb6;" horiz-adv-x="627" 
d="M257 0v329h-9q-97 0 -152.5 50t-55.5 138q0 93 58 145.5t159 52.5h289v-715h-105v624h-79v-624h-105z" />
    <glyph glyph-name="periodcentered" unicode="&#xb7;" horiz-adv-x="301" 
d="M152 421q38 0 65.5 -28t27.5 -67q0 -38 -27.5 -65.5t-66.5 -27.5t-66.5 27t-27.5 66q0 40 27.5 67.5t67.5 27.5z" />
    <glyph glyph-name="cedilla" unicode="&#xb8;" 
d="M314 0l-41 -54q15 3 23 3q32 0 53.5 -23.5t21.5 -58.5q0 -43 -29 -67t-80 -24q-72 0 -111 56l63 30q14 -23 42 -23q36 0 36 30t-32 30q-20 0 -31 -15l-44 29l63 87h66z" />
    <glyph glyph-name="onesuperior" unicode="&#xb9;" horiz-adv-x="451" 
d="M82 431v97h81v180q-26 -10 -83 -12v95q86 10 102 82h123v-345h73v-97h-296z" />
    <glyph glyph-name="ordmasculine" unicode="&#xba;" horiz-adv-x="531" 
d="M269 725q100 0 163 -64.5t63 -166.5q0 -104 -63.5 -169t-165.5 -65t-166 64t-64 166q0 104 65 169.5t168 65.5zM268 622q-94 0 -94 -128q0 -62 24.5 -96.5t67.5 -34.5t67 34.5t24 96.5q0 61 -23.5 94.5t-65.5 33.5z" />
    <glyph glyph-name="guillemotright" unicode="&#xbb;" horiz-adv-x="538" 
d="M251 37l116 203l-116 204h126l115 -204l-115 -203h-126zM46 37l116 203l-116 204h126l115 -204l-115 -203h-126z" />
    <glyph glyph-name="onequarter" unicode="&#xbc;" horiz-adv-x="920" 
d="M75 313v88h73v164q-24 -9 -75 -11v86q77 9 92 75h112v-314h67v-88h-269zM209 0l388 715h113l-387 -715h-114zM691 0v68h-191v96l187 238h133v-246h52v-88h-52v-68h-129zM698 278l-98 -126h98v126z" />
    <glyph glyph-name="onehalf" unicode="&#xbd;" horiz-adv-x="920" 
d="M69 313v88h73v164q-24 -9 -75 -11v86q77 9 92 75h112v-314h67v-88h-269zM203 0l388 715h113l-387 -715h-114zM547 0v91q102 52 146.5 93.5t44.5 82.5q0 43 -36 43q-33 0 -45 -49l-113 27q34 121 167 121q73 0 116.5 -37t43.5 -98q0 -110 -149 -178h150v-96h-325z" />
    <glyph glyph-name="threequarters" unicode="&#xbe;" horiz-adv-x="920" 
d="M143 583l-102 27q40 112 172 112q72 0 115.5 -31.5t43.5 -83.5q0 -60 -67 -84q75 -23 75 -92q0 -58 -46 -91.5t-125 -33.5q-153 0 -181 118l108 26q14 -51 63 -51q48 0 48 40q0 37 -47 37h-33v79h33q49 0 49 38q0 36 -45 36q-44 0 -61 -46zM210 0l388 715h113l-387 -715
h-114zM691 0v68h-191v96l187 238h133v-246h52v-88h-52v-68h-129zM698 278l-98 -126h98v126z" />
    <glyph glyph-name="questiondown" unicode="&#xbf;" horiz-adv-x="574" 
d="M389 295v-28q0 -54 -20 -88.5t-73 -70.5q-43 -29 -58 -50t-15 -50q0 -34 21.5 -54.5t56.5 -20.5q81 0 108 93l137 -37q-24 -84 -82 -129q-67 -52 -171 -52q-105 0 -167.5 52t-62.5 139q0 55 24.5 93t88.5 81q43 29 56.5 49t13.5 55v18h143zM322 544q39 0 66 -27.5
t27 -65.5q0 -39 -27.5 -66.5t-66.5 -27.5q-38 0 -65.5 27.5t-27.5 66.5t27.5 66t66.5 27z" />
    <glyph glyph-name="Agrave" unicode="&#xc0;" horiz-adv-x="719" 
d="M413 771h-109l-109 174h175zM711 0h-170l-46 136h-290l-47 -136h-150l262 715h184zM457 250l-106 314l-108 -314h214z" />
    <glyph glyph-name="Aacute" unicode="&#xc1;" horiz-adv-x="719" 
d="M301 771l42 174h175l-108 -174h-109zM711 0h-170l-46 136h-290l-47 -136h-150l262 715h184zM457 250l-106 314l-108 -314h214z" />
    <glyph glyph-name="Acircumflex" unicode="&#xc2;" horiz-adv-x="719" 
d="M191 775l109 170h116l108 -170h-105l-64 68l-61 -68h-103zM711 0h-170l-46 136h-290l-47 -136h-150l262 715h184zM457 250l-106 314l-108 -314h214z" />
    <glyph glyph-name="Atilde" unicode="&#xc3;" horiz-adv-x="719" 
d="M446 920l90 -6q-9 -66 -35 -101q-31 -41 -82 -41q-35 0 -78 25q-30 15 -46 15q-24 0 -32 -38l-84 6q17 142 114 142q32 0 76 -24q28 -16 44 -16q25 0 33 38zM711 0h-170l-46 136h-290l-47 -136h-150l262 715h184zM457 250l-106 314l-108 -314h214z" />
    <glyph glyph-name="Adieresis" unicode="&#xc4;" horiz-adv-x="719" 
d="M459 908q29 0 51 -22t22 -51q0 -30 -22 -51.5t-52 -21.5t-51 21.5t-21 52.5q0 30 21 51t52 21zM262 908q29 0 50 -21.5t21 -51.5t-21.5 -51.5t-50.5 -21.5q-30 0 -52 21.5t-22 51.5t22 51.5t53 21.5zM711 0h-170l-46 136h-290l-47 -136h-150l262 715h184zM457 250
l-106 314l-108 -314h214z" />
    <glyph glyph-name="Aring" unicode="&#xc5;" horiz-adv-x="719" 
d="M362 980q46 0 79 -32t33 -77q0 -46 -33 -77.5t-81 -31.5t-81 31.5t-33 77.5q0 47 33.5 78t82.5 31zM360 917q-20 0 -32.5 -12.5t-12.5 -32.5t13 -33.5t32 -13.5t32 13t13 33t-13 33t-32 13zM711 0h-170l-46 136h-290l-47 -136h-150l262 715h184zM457 250l-106 314
l-108 -314h214z" />
    <glyph glyph-name="AE" unicode="&#xc6;" horiz-adv-x="1031" 
d="M474 136h-230l-71 -136h-165l394 715h567v-129h-338v-161h256v-119h-256v-177h354v-129h-511v136zM474 250v323l-170 -323h170z" />
    <glyph glyph-name="Ccedilla" unicode="&#xc7;" horiz-adv-x="732" 
d="M400 -11l-32 -43q15 3 23 3q32 0 53.5 -23.5t21.5 -58.5q0 -43 -29 -67t-80 -24q-72 0 -111 56l63 30q14 -23 42 -23q36 0 36 29q0 30 -32 30q-20 0 -31 -14l-44 29l57 80q-72 13 -117 36t-83 66q-87 99 -87 260q0 164 94.5 267.5t245.5 103.5q134 0 216 -76
q47 -45 81 -124l-142 -58q-25 69 -61.5 99t-94.5 30q-82 0 -127 -62t-45 -176t45.5 -176t130.5 -62q59 0 96.5 31.5t62.5 101.5l143 -58q-37 -99 -112.5 -152t-182.5 -55z" />
    <glyph glyph-name="Egrave" unicode="&#xc8;" horiz-adv-x="646" 
d="M287 771l-108 174h175l42 -174h-109zM82 0v715h502v-129h-344v-161h262v-119h-262v-177h360v-129h-518z" />
    <glyph glyph-name="Eacute" unicode="&#xc9;" horiz-adv-x="646" 
d="M289 771l42 174h175l-109 -174h-108zM82 0v715h502v-129h-344v-161h262v-119h-262v-177h360v-129h-518z" />
    <glyph glyph-name="Ecircumflex" unicode="&#xca;" horiz-adv-x="646" 
d="M173 775l110 170h115l109 -170h-105l-63 67l-62 -67h-104zM82 0v715h502v-129h-344v-161h262v-119h-262v-177h360v-129h-518z" />
    <glyph glyph-name="Edieresis" unicode="&#xcb;" horiz-adv-x="646" 
d="M236 913q31 0 53.5 -22.5t22.5 -53.5q0 -32 -22.5 -55t-54.5 -23t-54.5 23t-22.5 55q0 31 23 53.5t55 22.5zM442 912q31 0 53.5 -22.5t22.5 -53.5q0 -32 -23 -54.5t-54 -22.5t-53.5 23t-22.5 54q0 32 22.5 54t54.5 22zM82 0v715h502v-129h-344v-161h262v-119h-262v-177
h360v-129h-518z" />
    <glyph glyph-name="Igrave" unicode="&#xcc;" horiz-adv-x="334" 
d="M115 771l-108 174h175l42 -174h-109zM87 0v715h160v-715h-160z" />
    <glyph glyph-name="Iacute" unicode="&#xcd;" horiz-adv-x="334" 
d="M111 771l42 174h175l-109 -174h-108zM87 0v715h160v-715h-160z" />
    <glyph glyph-name="Icircumflex" unicode="&#xce;" horiz-adv-x="334" 
d="M0 775l110 170h115l109 -170h-105l-63 67l-62 -67h-104zM87 0v715h160v-715h-160z" />
    <glyph glyph-name="Idieresis" unicode="&#xcf;" horiz-adv-x="334" 
d="M65 913q31 0 53.5 -22.5t22.5 -53.5q0 -32 -22.5 -55t-54.5 -23q-31 0 -54 23t-23 55q0 31 23 53.5t55 22.5zM271 912q31 0 53.5 -22.5t22.5 -53.5q0 -32 -22.5 -54.5t-54.5 -22.5q-31 0 -53.5 23t-22.5 54q0 32 22.5 54t54.5 22zM87 0v715h160v-715h-160z" />
    <glyph glyph-name="Eth" unicode="&#xd0;" horiz-adv-x="762" 
d="M90 295h-63v119h63v301h265q170 0 263.5 -93t93.5 -262q0 -172 -94.5 -266t-267.5 -94h-260v295zM250 295v-168h108q91 0 139 59t48 172q0 112 -48.5 171t-139.5 59h-107v-174h127v-119h-127z" />
    <glyph glyph-name="Ntilde" unicode="&#xd1;" horiz-adv-x="757" 
d="M486 920l90 -6q-9 -66 -35 -101q-31 -41 -82 -41q-36 0 -79 25q-30 15 -45 15q-25 0 -33 -38l-84 6q17 142 114 142q32 0 76 -24q30 -16 45 -16q25 0 33 38zM82 0v715h182l265 -485v485h146v-715h-175l-272 496v-496h-146z" />
    <glyph glyph-name="Ograve" unicode="&#xd2;" horiz-adv-x="794" 
d="M401 726q150 0 246.5 -103t96.5 -263q0 -164 -97 -267.5t-252 -103.5q-153 0 -249 102t-96 265q0 162 98.5 266t252.5 104zM399 597q-86 0 -134 -63t-48 -177q0 -112 48 -175.5t133 -63.5t132 63t47 176q0 111 -48 175.5t-130 64.5zM345 771l-108 174h175l42 -174h-109z
" />
    <glyph glyph-name="Oacute" unicode="&#xd3;" horiz-adv-x="794" 
d="M401 726q150 0 246.5 -103t96.5 -263q0 -164 -97 -267.5t-252 -103.5q-153 0 -249 102t-96 265q0 162 98.5 266t252.5 104zM399 597q-86 0 -134 -63t-48 -177q0 -112 48 -175.5t133 -63.5t132 63t47 176q0 111 -48 175.5t-130 64.5zM341 771l42 174h175l-109 -174h-108z
" />
    <glyph glyph-name="Ocircumflex" unicode="&#xd4;" horiz-adv-x="794" 
d="M401 726q150 0 246.5 -103t96.5 -263q0 -164 -97 -267.5t-252 -103.5q-153 0 -249 102t-96 265q0 162 98.5 266t252.5 104zM399 597q-86 0 -134 -63t-48 -177q0 -112 48 -175.5t133 -63.5t132 63t47 176q0 111 -48 175.5t-130 64.5zM233 775l110 170h115l109 -170h-105
l-63 67l-62 -67h-104z" />
    <glyph glyph-name="Otilde" unicode="&#xd5;" horiz-adv-x="794" 
d="M401 726q150 0 246.5 -103t96.5 -263q0 -164 -97 -267.5t-252 -103.5q-153 0 -249 102t-96 265q0 162 98.5 266t252.5 104zM399 597q-86 0 -134 -63t-48 -177q0 -112 48 -175.5t133 -63.5t132 63t47 176q0 111 -48 175.5t-130 64.5zM487 920l90 -6q-20 -142 -116 -142
q-34 0 -79 25q-29 15 -42 15q-27 0 -36 -38l-84 6q16 142 114 142q33 0 76 -24q28 -16 44 -16q25 0 33 38z" />
    <glyph glyph-name="Odieresis" unicode="&#xd6;" horiz-adv-x="794" 
d="M296 913q31 0 53.5 -22.5t22.5 -53.5q0 -32 -22.5 -55t-54.5 -23t-54.5 23t-22.5 55q0 31 23 53.5t55 22.5zM502 912q31 0 53.5 -22.5t22.5 -53.5q0 -32 -23 -54.5t-54 -22.5t-53.5 23t-22.5 54q0 32 22.5 54t54.5 22zM401 726q150 0 246.5 -103t96.5 -263
q0 -164 -97 -267.5t-252 -103.5q-153 0 -249 102t-96 265q0 162 98.5 266t252.5 104zM399 597q-86 0 -134 -63t-48 -177q0 -112 48 -175.5t133 -63.5t132 63t47 176q0 111 -48 175.5t-130 64.5z" />
    <glyph glyph-name="multiply" unicode="&#xd7;" horiz-adv-x="560" 
d="M125 103l-84 83l156 161l-156 160l84 83l155 -160l154 160l84 -83l-155 -160l155 -161l-84 -83l-154 159z" />
    <glyph glyph-name="Oslash" unicode="&#xd8;" horiz-adv-x="794" 
d="M16 0l107 119q-73 97 -73 237q0 161 98 265.5t250 104.5q118 0 210 -68l51 57h119l-107 -119q73 -98 73 -236q0 -164 -97 -267.5t-252 -103.5q-117 0 -209 67l-50 -56h-120zM232 240l281 313q-48 44 -116 44q-85 0 -134 -63.5t-49 -174.5q0 -71 18 -119zM562 475
l-281 -313q47 -44 116 -44q87 0 135 62.5t48 175.5q0 66 -18 119z" />
    <glyph glyph-name="Ugrave" unicode="&#xd9;" horiz-adv-x="738" 
d="M321 771l-108 174h175l42 -174h-109zM662 715v-429q0 -145 -75 -221t-217 -76q-143 0 -218.5 75t-75.5 218v433h160v-425q0 -90 32 -130.5t103 -40.5q73 0 106 42.5t33 134.5v419h152z" />
    <glyph glyph-name="Uacute" unicode="&#xda;" horiz-adv-x="738" 
d="M319 771l42 174h175l-109 -174h-108zM662 715v-429q0 -145 -75 -221t-217 -76q-143 0 -218.5 75t-75.5 218v433h160v-425q0 -90 32 -130.5t103 -40.5q73 0 106 42.5t33 134.5v419h152z" />
    <glyph glyph-name="Ucircumflex" unicode="&#xdb;" horiz-adv-x="738" 
d="M202 775l110 170h115l109 -170h-105l-63 67l-62 -67h-104zM662 715v-429q0 -145 -75 -221t-217 -76q-143 0 -218.5 75t-75.5 218v433h160v-425q0 -90 32 -130.5t103 -40.5q73 0 106 42.5t33 134.5v419h152z" />
    <glyph glyph-name="Udieresis" unicode="&#xdc;" horiz-adv-x="738" 
d="M267 913q31 0 53.5 -22.5t22.5 -53.5q0 -32 -22.5 -55t-54.5 -23t-54.5 23t-22.5 55q0 31 23 53.5t55 22.5zM473 912q31 0 53.5 -22.5t22.5 -53.5q0 -32 -22.5 -54.5t-54.5 -22.5q-31 0 -53.5 23t-22.5 54q0 32 22.5 54t54.5 22zM662 715v-429q0 -145 -75 -221t-217 -76
q-143 0 -218.5 75t-75.5 218v433h160v-425q0 -90 32 -130.5t103 -40.5q73 0 106 42.5t33 134.5v419h152z" />
    <glyph glyph-name="Yacute" unicode="&#xdd;" horiz-adv-x="646" 
d="M247 0v295l-248 420h179l154 -283l151 283h162l-238 -419v-296h-160zM275 771l42 174h175l-109 -174h-108z" />
    <glyph glyph-name="Thorn" unicode="&#xde;" horiz-adv-x="683" 
d="M82 0v715h160v-119h144q122 0 189.5 -61t67.5 -171q0 -105 -66 -163.5t-184 -58.5h-151v-142h-160zM239 261h137q54 0 82.5 27t28.5 79q0 104 -110 104h-138v-210z" />
    <glyph glyph-name="germandbls" unicode="&#xdf;" horiz-adv-x="633" 
d="M70 0v543q0 107 64 165t183 58q107 0 167.5 -48t60.5 -133q0 -101 -101 -139q149 -48 149 -219q0 -113 -55 -175t-155 -62q-54 0 -90 17v112h2q23 -10 52 -10q90 0 90 129q0 82 -40 118q-31 27 -96 27v104q52 2 75 23t23 65q0 85 -86 85q-44 0 -67 -25.5t-23 -73.5v-561
h-153z" />
    <glyph glyph-name="agrave" unicode="&#xe0;" horiz-adv-x="562" 
d="M511 0h-148q-7 19 -14 62q-55 -73 -149 -73q-74 0 -118.5 40.5t-44.5 107.5q0 90 75 134.5t231 45.5v14q0 43 -20 62.5t-64 19.5q-73 0 -148 -51l-65 98q98 76 235 76q121 0 176 -65q40 -48 40 -143v-237q0 -48 14 -85v-6zM344 179v46q-83 -2 -120 -19.5t-37 -54.5
q0 -25 16.5 -39t45.5 -14q43 0 69 22.5t26 58.5zM236 587l-108 166h175l42 -166h-109z" />
    <glyph glyph-name="aacute" unicode="&#xe1;" horiz-adv-x="562" 
d="M511 0h-148q-7 19 -14 62q-55 -73 -149 -73q-74 0 -118.5 40.5t-44.5 107.5q0 90 75 134.5t231 45.5v14q0 43 -20 62.5t-64 19.5q-73 0 -148 -51l-65 98q98 76 235 76q121 0 176 -65q40 -48 40 -143v-237q0 -48 14 -85v-6zM344 179v46q-83 -2 -120 -19.5t-37 -54.5
q0 -25 16.5 -39t45.5 -14q43 0 69 22.5t26 58.5zM224 587l42 166h175l-109 -166h-108z" />
    <glyph glyph-name="acircumflex" unicode="&#xe2;" horiz-adv-x="562" 
d="M511 0h-148q-7 19 -14 62q-55 -73 -149 -73q-74 0 -118.5 40.5t-44.5 107.5q0 90 75 134.5t231 45.5v14q0 43 -20 62.5t-64 19.5q-73 0 -148 -51l-65 98q98 76 235 76q121 0 176 -65q40 -48 40 -143v-237q0 -48 14 -85v-6zM344 179v46q-83 -2 -120 -19.5t-37 -54.5
q0 -25 16.5 -39t45.5 -14q43 0 69 22.5t26 58.5zM114 587l110 166h115l109 -166h-105l-63 67l-62 -67h-104z" />
    <glyph glyph-name="atilde" unicode="&#xe3;" horiz-adv-x="562" 
d="M511 0h-148q-7 19 -14 62q-55 -73 -149 -73q-74 0 -118.5 40.5t-44.5 107.5q0 90 75 134.5t231 45.5v14q0 43 -20 62.5t-64 19.5q-73 0 -148 -51l-65 98q98 76 235 76q121 0 176 -65q40 -48 40 -143v-237q0 -48 14 -85v-6zM344 179v46q-83 -2 -120 -19.5t-37 -54.5
q0 -25 16.5 -39t45.5 -14q43 0 69 22.5t26 58.5zM370 750l90 -6q-20 -142 -116 -142q-34 0 -76 23q-32 17 -46 17q-28 0 -35 -38l-84 6q16 142 114 142q32 0 76 -24q28 -16 44 -16q25 0 33 38z" />
    <glyph glyph-name="adieresis" unicode="&#xe4;" horiz-adv-x="562" 
d="M511 0h-148q-7 19 -14 62q-55 -73 -149 -73q-74 0 -118.5 40.5t-44.5 107.5q0 90 75 134.5t231 45.5v14q0 43 -20 62.5t-64 19.5q-73 0 -148 -51l-65 98q98 76 235 76q121 0 176 -65q40 -48 40 -143v-237q0 -48 14 -85v-6zM344 179v46q-83 -2 -120 -19.5t-37 -54.5
q0 -25 16.5 -39t45.5 -14q43 0 69 22.5t26 58.5zM174 755q32 0 55.5 -23.5t23.5 -56.5q0 -32 -23.5 -56t-55.5 -24q-33 0 -57 24t-24 56q0 33 24 56.5t57 23.5zM389 755q32 0 56 -23.5t24 -55.5q0 -33 -24 -57t-57 -24q-32 0 -55.5 24t-23.5 56q0 33 23.5 56.5t56.5 23.5z
" />
    <glyph glyph-name="aring" unicode="&#xe5;" horiz-adv-x="562" 
d="M511 0h-148q-7 19 -14 62q-55 -73 -149 -73q-74 0 -118.5 40.5t-44.5 107.5q0 90 75 134.5t231 45.5v14q0 43 -20 62.5t-64 19.5q-73 0 -148 -51l-65 98q98 76 235 76q121 0 176 -65q40 -48 40 -143v-237q0 -48 14 -85v-6zM344 179v46q-83 -2 -120 -19.5t-37 -54.5
q0 -25 16.5 -39t45.5 -14q43 0 69 22.5t26 58.5zM283 787q47 0 79.5 -31t32.5 -77t-32.5 -77.5t-80.5 -31.5q-49 0 -81.5 31t-32.5 78q0 46 32.5 77t82.5 31zM282 724q-20 0 -32.5 -13t-12.5 -33t12.5 -32.5t32.5 -12.5q19 0 31.5 13t12.5 32q0 20 -12.5 33t-31.5 13z" />
    <glyph glyph-name="ae" unicode="&#xe6;" horiz-adv-x="892" 
d="M111 362l-65 98q98 76 233 76q119 0 167 -70q67 70 166 70q112 0 177 -73t65 -198v-42h-347q8 -62 35 -90.5t79 -28.5q36 0 59.5 14.5t43.5 47.5l119 -59q-73 -118 -223 -118q-135 0 -212 95q-41 -50 -88.5 -72.5t-113.5 -22.5q-79 0 -124 39.5t-45 108.5
q0 90 77.5 134.5t238.5 45.5v14q0 43 -22 62.5t-70 19.5q-73 0 -150 -51zM510 316h195q-6 57 -28 82t-66 25q-43 0 -66.5 -25.5t-34.5 -81.5zM354 179v46q-88 -2 -127.5 -19.5t-39.5 -54.5q0 -25 17 -39t46 -14q46 0 75 22.5t29 58.5z" />
    <glyph glyph-name="ccedilla" unicode="&#xe7;" horiz-adv-x="548" 
d="M195 -90l60 82q-103 17 -159 86.5t-56 179.5q0 124 71.5 201t186.5 77q153 0 223 -139l-127 -59q-19 44 -39 61.5t-52 17.5q-52 0 -79.5 -40t-27.5 -115q0 -154 109 -154q37 0 60.5 18.5t40.5 61.5l121 -59q-59 -131 -208 -139l-36 -47q15 3 24 3q32 0 53 -23.5t21 -58.5
q0 -43 -29 -67t-80 -24q-71 0 -111 56l63 30q16 -23 42 -23q36 0 36 30t-32 30q-20 0 -31 -15z" />
    <glyph glyph-name="egrave" unicode="&#xe8;" horiz-adv-x="586" 
d="M420 166l119 -59q-73 -118 -228 -118q-121 0 -196 74.5t-75 193.5q0 123 74 201t190 78q115 0 180 -72.5t65 -199.5v-41h-355q9 -60 32 -84q31 -35 87 -35q37 0 61.5 14t45.5 48zM197 316h203q-6 56 -28.5 81.5t-68.5 25.5q-45 0 -70 -25.5t-36 -81.5zM252 587l-108 166
h175l42 -166h-109z" />
    <glyph glyph-name="eacute" unicode="&#xe9;" horiz-adv-x="586" 
d="M420 166l119 -59q-73 -118 -228 -118q-121 0 -196 74.5t-75 193.5q0 123 74 201t190 78q115 0 180 -72.5t65 -199.5v-41h-355q9 -60 32 -84q31 -35 87 -35q37 0 61.5 14t45.5 48zM197 316h203q-6 56 -28.5 81.5t-68.5 25.5q-45 0 -70 -25.5t-36 -81.5zM236 587l42 166
h175l-109 -166h-108z" />
    <glyph glyph-name="ecircumflex" unicode="&#xea;" horiz-adv-x="586" 
d="M420 166l119 -59q-73 -118 -228 -118q-121 0 -196 74.5t-75 193.5q0 123 74 201t190 78q115 0 180 -72.5t65 -199.5v-41h-355q9 -60 32 -84q31 -35 87 -35q37 0 61.5 14t45.5 48zM197 316h203q-6 56 -28.5 81.5t-68.5 25.5q-45 0 -70 -25.5t-36 -81.5zM133 587l110 166
h115l109 -166h-105l-63 67l-62 -67h-104z" />
    <glyph glyph-name="edieresis" unicode="&#xeb;" horiz-adv-x="586" 
d="M420 166l119 -59q-73 -118 -228 -118q-121 0 -196 74.5t-75 193.5q0 123 74 201t190 78q115 0 180 -72.5t65 -199.5v-41h-355q9 -60 32 -84q31 -35 87 -35q37 0 61.5 14t45.5 48zM197 316h203q-6 56 -28.5 81.5t-68.5 25.5q-45 0 -70 -25.5t-36 -81.5zM198 755
q32 0 55.5 -23.5t23.5 -56.5q0 -32 -23.5 -56t-55.5 -24q-33 0 -57 24t-24 56q0 33 24 56.5t57 23.5zM413 755q32 0 56 -23.5t24 -55.5q0 -33 -24 -57t-57 -24q-32 0 -55.5 24t-23.5 56q0 33 23.5 56.5t56.5 23.5z" />
    <glyph glyph-name="igrave" unicode="&#xec;" horiz-adv-x="301" 
d="M74 0v523h153v-523h-153zM99 587l-108 166h175l42 -166h-109z" />
    <glyph glyph-name="iacute" unicode="&#xed;" horiz-adv-x="301" 
d="M74 0v523h153v-523h-153zM97 587l42 166h175l-109 -166h-108z" />
    <glyph glyph-name="icircumflex" unicode="&#xee;" horiz-adv-x="301" 
d="M74 0v523h153v-523h-153zM-17 587l110 166h115l109 -166h-105l-63 67l-62 -67h-104z" />
    <glyph glyph-name="idieresis" unicode="&#xef;" horiz-adv-x="301" 
d="M74 0v523h153v-523h-153zM43 755q32 0 55.5 -23.5t23.5 -56.5q0 -32 -23.5 -56t-55.5 -24q-33 0 -57 24t-24 56q0 33 24 56.5t57 23.5zM258 755q32 0 56 -23.5t24 -55.5q0 -33 -24 -57t-57 -24q-32 0 -55.5 24t-23.5 56q0 33 23.5 56.5t56.5 23.5z" />
    <glyph glyph-name="eth" unicode="&#xf0;" horiz-adv-x="618" 
d="M221 540l-51 62l59 48q-26 20 -61 42l63 94q48 -23 99 -55l64 52l51 -62l-49 -39q80 -71 119 -145q59 -107 59 -244q0 -145 -70 -224.5t-197 -79.5q-120 0 -193.5 74.5t-73.5 195.5q0 111 64 182.5t163 71.5q69 0 120 -43q-37 73 -95 128zM309 407q-55 0 -84 -39
t-29 -113q0 -72 29 -111.5t81 -39.5q53 0 82.5 39.5t29.5 112.5q0 71 -28.5 111t-80.5 40z" />
    <glyph glyph-name="ntilde" unicode="&#xf1;" horiz-adv-x="616" 
d="M70 0v523h153v-82q52 95 162 95q79 0 122 -52t43 -146v-338h-153v318q0 99 -79 99q-45 0 -70 -28.5t-25 -80.5v-308h-153zM397 750l90 -6q-20 -142 -117 -142q-33 0 -75 23q-33 17 -46 17q-28 0 -35 -38l-84 6q16 142 113 142q33 0 77 -24q28 -16 44 -16q25 0 33 38z" />
    <glyph glyph-name="ograve" unicode="&#xf2;" horiz-adv-x="615" 
d="M311 536q115 0 189.5 -77t74.5 -195q0 -121 -75 -198t-193 -77t-192.5 75.5t-74.5 194.5q0 122 75.5 199.5t195.5 77.5zM310 417q-114 0 -114 -155q0 -74 29 -114t82 -40q54 0 83 40t29 115q0 74 -28 114t-81 40zM265 587l-108 166h175l42 -166h-109z" />
    <glyph glyph-name="oacute" unicode="&#xf3;" horiz-adv-x="615" 
d="M311 536q115 0 189.5 -77t74.5 -195q0 -121 -75 -198t-193 -77t-192.5 75.5t-74.5 194.5q0 122 75.5 199.5t195.5 77.5zM310 417q-114 0 -114 -155q0 -74 29 -114t82 -40q54 0 83 40t29 115q0 74 -28 114t-81 40zM250 587l42 166h175l-109 -166h-108z" />
    <glyph glyph-name="ocircumflex" unicode="&#xf4;" horiz-adv-x="615" 
d="M311 536q115 0 189.5 -77t74.5 -195q0 -121 -75 -198t-193 -77t-192.5 75.5t-74.5 194.5q0 122 75.5 199.5t195.5 77.5zM310 417q-114 0 -114 -155q0 -74 29 -114t82 -40q54 0 83 40t29 115q0 74 -28 114t-81 40zM141 587l110 166h115l109 -166h-105l-63 67l-62 -67h-104
z" />
    <glyph glyph-name="otilde" unicode="&#xf5;" horiz-adv-x="615" 
d="M311 536q115 0 189.5 -77t74.5 -195q0 -121 -75 -198t-193 -77t-192.5 75.5t-74.5 194.5q0 122 75.5 199.5t195.5 77.5zM310 417q-114 0 -114 -155q0 -74 29 -114t82 -40q54 0 83 40t29 115q0 74 -28 114t-81 40zM396 750l90 -6q-20 -142 -116 -142q-33 0 -75 23
q-33 17 -47 17q-26 0 -35 -38l-84 6q16 142 114 142q33 0 76 -24q28 -16 45 -16q24 0 32 38z" />
    <glyph glyph-name="odieresis" unicode="&#xf6;" horiz-adv-x="615" 
d="M311 536q115 0 189.5 -77t74.5 -195q0 -121 -75 -198t-193 -77t-192.5 75.5t-74.5 194.5q0 122 75.5 199.5t195.5 77.5zM310 417q-114 0 -114 -155q0 -74 29 -114t82 -40q54 0 83 40t29 115q0 74 -28 114t-81 40zM201 755q32 0 55.5 -23.5t23.5 -56.5q0 -32 -23.5 -56
t-55.5 -24q-33 0 -57 24t-24 56q0 33 24 56.5t57 23.5zM416 755q32 0 56 -23.5t24 -55.5q0 -33 -24 -57t-57 -24q-32 0 -55.5 24t-23.5 56q0 33 23.5 56.5t56.5 23.5z" />
    <glyph glyph-name="divide" unicode="&#xf7;" horiz-adv-x="560" 
d="M42 275v129h476v-129h-476zM280 220q36 0 61 -25.5t25 -61.5t-25 -61.5t-61 -25.5q-37 0 -62.5 25t-25.5 62t25.5 62t62.5 25zM280 637q35 0 60.5 -25.5t25.5 -60.5q0 -37 -25.5 -62.5t-61.5 -25.5t-61.5 25.5t-25.5 61.5q0 37 25.5 62t62.5 25z" />
    <glyph glyph-name="oslash" unicode="&#xf8;" horiz-adv-x="615" 
d="M11 0l82 88q-53 73 -53 171q0 122 75 199.5t193 77.5q89 0 158 -47l32 34h103l-81 -87q55 -73 55 -172q0 -122 -75 -198.5t-193 -76.5q-89 0 -159 47l-33 -36h-104zM198 206l181 190q-28 25 -71 25q-55 0 -85 -40.5t-30 -115.5q0 -30 5 -59zM416 324l-180 -194
q29 -26 71 -26q55 0 85 41t30 116q0 27 -6 63z" />
    <glyph glyph-name="ugrave" unicode="&#xf9;" horiz-adv-x="607" 
d="M384 0v80q-49 -91 -156 -91q-77 0 -119.5 52t-42.5 146v336h153v-318q0 -96 71 -96q44 0 69 28.5t25 78.5v307h153v-523h-153zM252 587l-108 166h175l42 -166h-109z" />
    <glyph glyph-name="uacute" unicode="&#xfa;" horiz-adv-x="607" 
d="M384 0v80q-49 -91 -156 -91q-77 0 -119.5 52t-42.5 146v336h153v-318q0 -96 71 -96q44 0 69 28.5t25 78.5v307h153v-523h-153zM249 587l42 166h175l-109 -166h-108z" />
    <glyph glyph-name="ucircumflex" unicode="&#xfb;" horiz-adv-x="607" 
d="M384 0v80q-49 -91 -156 -91q-77 0 -119.5 52t-42.5 146v336h153v-318q0 -96 71 -96q44 0 69 28.5t25 78.5v307h153v-523h-153zM137 587l110 166h115l109 -166h-105l-63 67l-62 -67h-104z" />
    <glyph glyph-name="udieresis" unicode="&#xfc;" horiz-adv-x="607" 
d="M384 0v80q-49 -91 -156 -91q-77 0 -119.5 52t-42.5 146v336h153v-318q0 -96 71 -96q44 0 69 28.5t25 78.5v307h153v-523h-153zM197 755q32 0 55.5 -23.5t23.5 -56.5q0 -32 -23.5 -56t-55.5 -24q-33 0 -57 24t-24 56q0 33 24 56.5t57 23.5zM412 755q32 0 56 -23.5
t24 -55.5q0 -33 -24 -57t-57 -24q-32 0 -55.5 24t-23.5 56q0 33 23.5 56.5t56.5 23.5z" />
    <glyph glyph-name="yacute" unicode="&#xfd;" horiz-adv-x="558" 
d="M548 523l-205 -550q-31 -85 -79.5 -124t-119.5 -39q-65 0 -119 34l42 104q31 -19 64 -19q29 0 46.5 15.5t29.5 50.5l3 9l-200 519h163l115 -327l110 327h150zM233 587l42 166h175l-109 -166h-108z" />
    <glyph glyph-name="thorn" unicode="&#xfe;" horiz-adv-x="636" 
d="M70 -182v935h153v-309q59 92 160 92q96 0 154.5 -75t58.5 -198q0 -125 -58 -199.5t-156 -74.5q-108 0 -159 89v-260h-153zM333 417q-55 0 -84.5 -40.5t-29.5 -116.5q0 -73 29 -112.5t83 -39.5q109 0 109 153q0 74 -28 115t-79 41z" />
    <glyph glyph-name="ydieresis" unicode="&#xff;" horiz-adv-x="558" 
d="M548 523l-205 -550q-31 -85 -79.5 -124t-119.5 -39q-65 0 -119 34l42 104q31 -19 64 -19q29 0 46.5 15.5t29.5 50.5l3 9l-200 519h163l115 -327l110 327h150zM176 755q32 0 55.5 -23.5t23.5 -56.5q0 -32 -23.5 -56t-55.5 -24q-33 0 -57 24t-24 56q0 33 24 56.5t57 23.5z
M391 755q32 0 56 -23.5t24 -55.5q0 -33 -24 -57t-57 -24q-32 0 -55.5 24t-23.5 56q0 33 23.5 56.5t56.5 23.5z" />
    <glyph glyph-name="Amacron" unicode="&#x100;" horiz-adv-x="719" 
d="M230 790v106h259v-106h-259zM711 0h-170l-46 136h-290l-47 -136h-150l262 715h184zM457 250l-106 314l-108 -314h214z" />
    <glyph glyph-name="amacron" unicode="&#x101;" horiz-adv-x="562" 
d="M511 0h-148q-7 19 -14 62q-55 -73 -149 -73q-74 0 -118.5 40.5t-44.5 107.5q0 90 75 134.5t231 45.5v14q0 43 -20 62.5t-64 19.5q-73 0 -148 -51l-65 98q98 76 235 76q121 0 176 -65q40 -48 40 -143v-237q0 -48 14 -85v-6zM344 179v46q-83 -2 -120 -19.5t-37 -54.5
q0 -25 16.5 -39t45.5 -14q43 0 69 22.5t26 58.5zM152 626v106h259v-106h-259z" />
    <glyph glyph-name="Abreve" unicode="&#x102;" horiz-adv-x="719" 
d="M416 918h100q-8 -58 -33 -89q-45 -57 -127 -57t-125 57q-26 32 -32 89h101q9 -49 58 -49q46 0 58 49zM711 0h-170l-46 136h-290l-47 -136h-150l262 715h184zM457 250l-106 314l-108 -314h214z" />
    <glyph glyph-name="abreve" unicode="&#x103;" horiz-adv-x="562" 
d="M511 0h-148q-7 19 -14 62q-55 -73 -149 -73q-74 0 -118.5 40.5t-44.5 107.5q0 90 75 134.5t231 45.5v14q0 43 -20 62.5t-64 19.5q-73 0 -148 -51l-65 98q98 76 235 76q121 0 176 -65q40 -48 40 -143v-237q0 -48 14 -85v-6zM344 179v46q-83 -2 -120 -19.5t-37 -54.5
q0 -25 16.5 -39t45.5 -14q43 0 69 22.5t26 58.5zM339 747h101q-10 -70 -48 -107q-45 -40 -112 -40q-66 0 -110 39q-39 37 -47 108h101q9 -48 57 -48q49 0 58 48z" />
    <glyph glyph-name="Aogonek" unicode="&#x104;" horiz-adv-x="719" 
d="M694 -118l41 -54q-41 -34 -92 -34q-52 0 -82 23.5t-30 64.5q0 68 79 118h-69l-46 136h-290l-47 -136h-150l261 715h184l255 -708h-8q-80 -49 -80 -113q0 -31 32 -31q20 0 42 19zM457 250l-106 314l-108 -314h214z" />
    <glyph glyph-name="aogonek" unicode="&#x105;" horiz-adv-x="562" 
d="M504 -118l41 -54q-23 -20 -43.5 -27t-51.5 -7q-49 0 -78.5 24t-29.5 65q0 65 79 117h-58q-7 19 -14 62q-55 -73 -149 -73q-74 0 -118.5 40.5t-44.5 107.5q0 90 75 134.5t231 45.5v14q0 43 -20 62.5t-64 19.5q-73 0 -148 -51l-65 98q98 76 235 76q121 0 176 -65
q40 -48 40 -143v-237q0 -47 13 -83q-35 -23 -57.5 -54t-22.5 -58q0 -31 32 -31q21 0 42 17zM344 179v46q-83 -2 -120 -19.5t-37 -54.5q0 -25 16.5 -39t45.5 -14q43 0 69 22.5t26 58.5z" />
    <glyph glyph-name="Cacute" unicode="&#x106;" horiz-adv-x="732" 
d="M552 254l143 -58q-40 -99 -106 -147q-79 -60 -196 -60q-157 0 -250 99.5t-93 266.5q0 164 94.5 267.5t245.5 103.5q134 0 216 -76q47 -45 81 -124l-142 -58q-25 69 -61.5 99t-94.5 30q-83 0 -127.5 -62t-44.5 -177q0 -116 45.5 -178t130.5 -62q59 0 96.5 32.5t62.5 103.5
zM328 771l42 174h175l-109 -174h-108z" />
    <glyph glyph-name="cacute" unicode="&#x107;" horiz-adv-x="548" 
d="M406 188l121 -59q-67 -140 -228 -140q-118 0 -188.5 73.5t-70.5 195.5q0 124 71.5 201t186.5 77q153 0 223 -139l-127 -59q-19 44 -39 61.5t-52 17.5q-52 0 -79.5 -40t-27.5 -115q0 -154 109 -154q37 0 60.5 18.5t40.5 61.5zM231 587l42 166h175l-109 -166h-108z" />
    <glyph glyph-name="Ccircumflex" unicode="&#x108;" horiz-adv-x="732" 
d="M552 254l143 -58q-40 -99 -106 -147q-79 -60 -196 -60q-157 0 -250 99.5t-93 266.5q0 164 94.5 267.5t245.5 103.5q134 0 216 -76q47 -45 81 -124l-142 -58q-25 69 -61.5 99t-94.5 30q-83 0 -127.5 -62t-44.5 -177q0 -116 45.5 -178t130.5 -62q59 0 96.5 32.5t62.5 103.5
zM220 775l110 170h115l109 -170h-105l-63 67l-62 -67h-104z" />
    <glyph glyph-name="ccircumflex" unicode="&#x109;" horiz-adv-x="548" 
d="M406 188l121 -59q-67 -140 -228 -140q-118 0 -188.5 73.5t-70.5 195.5q0 124 71.5 201t186.5 77q153 0 223 -139l-127 -59q-19 44 -39 61.5t-52 17.5q-52 0 -79.5 -40t-27.5 -115q0 -154 109 -154q37 0 60.5 18.5t40.5 61.5zM129 587l110 166h115l109 -166h-105l-63 67
l-62 -67h-104z" />
    <glyph glyph-name="Cdotaccent" unicode="&#x10a;" horiz-adv-x="732" 
d="M552 254l143 -58q-40 -99 -106 -147q-79 -60 -196 -60q-157 0 -250 99.5t-93 266.5q0 164 94.5 267.5t245.5 103.5q134 0 216 -76q47 -45 81 -124l-142 -58q-25 69 -61.5 99t-94.5 30q-83 0 -127.5 -62t-44.5 -177q0 -116 45.5 -178t130.5 -62q59 0 96.5 32.5t62.5 103.5
zM386 921q32 0 55.5 -23.5t23.5 -55.5q0 -33 -24 -57t-56 -24q-33 0 -56.5 24t-23.5 57t23.5 56t57.5 23z" />
    <glyph glyph-name="cdotaccent" unicode="&#x10b;" horiz-adv-x="548" 
d="M406 188l121 -59q-67 -140 -228 -140q-118 0 -188.5 73.5t-70.5 195.5q0 124 71.5 201t186.5 77q153 0 223 -139l-127 -59q-19 44 -39 61.5t-52 17.5q-52 0 -79.5 -40t-27.5 -115q0 -154 109 -154q37 0 60.5 18.5t40.5 61.5zM291 755q32 0 55.5 -23.5t23.5 -55.5
q0 -33 -24 -57t-56 -24q-33 0 -56.5 24t-23.5 57t23.5 56t57.5 23z" />
    <glyph glyph-name="Ccaron" unicode="&#x10c;" horiz-adv-x="732" 
d="M552 254l143 -58q-40 -99 -106 -147q-79 -60 -196 -60q-157 0 -250 99.5t-93 266.5q0 164 94.5 267.5t245.5 103.5q134 0 216 -76q47 -45 81 -124l-142 -58q-25 69 -61.5 99t-94.5 30q-83 0 -127.5 -62t-44.5 -177q0 -116 45.5 -178t130.5 -62q59 0 96.5 32.5t62.5 103.5
zM327 775l-110 170h106l63 -71l62 71h103l-110 -170h-114z" />
    <glyph glyph-name="ccaron" unicode="&#x10d;" horiz-adv-x="548" 
d="M406 188l121 -59q-67 -140 -228 -140q-118 0 -188.5 73.5t-70.5 195.5q0 124 71.5 201t186.5 77q153 0 223 -139l-127 -59q-19 44 -39 61.5t-52 17.5q-52 0 -79.5 -40t-27.5 -115q0 -154 109 -154q37 0 60.5 18.5t40.5 61.5zM235 587l-110 166h106l63 -71l62 71h103
l-110 -166h-114z" />
    <glyph glyph-name="Dcaron" unicode="&#x10e;" horiz-adv-x="754" 
d="M284 775l-110 170h106l63 -71l62 71h103l-110 -170h-114zM82 0v715h265q170 0 263.5 -93t93.5 -262q0 -172 -94.5 -266t-267.5 -94h-260zM242 127h108q91 0 139 59t48 172q0 112 -48.5 171t-139.5 59h-107v-461z" />
    <glyph glyph-name="dcaron" unicode="&#x10f;" horiz-adv-x="761" 
d="M412 0v83q-52 -94 -158 -94q-98 0 -156 74t-58 199t58 199.5t156 74.5q106 0 158 -90v307h153v-753h-153zM306 417q-110 0 -110 -157q0 -152 108 -152q54 0 83.5 40t29.5 113t-29.5 114.5t-81.5 41.5zM631 529v57q28 3 44.5 15.5t18.5 31.5q-66 7 -66 63q0 28 19.5 46
t48.5 18q36 0 57.5 -25t21.5 -66q0 -61 -37 -98q-35 -36 -107 -42z" />
    <glyph glyph-name="Dcroat" unicode="&#x110;" horiz-adv-x="762" 
d="M90 295h-63v119h63v301h265q170 0 263.5 -93t93.5 -262q0 -172 -94.5 -266t-267.5 -94h-260v295zM250 295v-168h108q91 0 139 59t48 172q0 112 -48.5 171t-139.5 59h-107v-174h127v-119h-127z" />
    <glyph glyph-name="dcroat" unicode="&#x111;" horiz-adv-x="636" 
d="M412 673v80h153v-80h66v-97h-66v-576h-153v83q-52 -94 -158 -94q-98 0 -156 74t-58 199t58 199.5t156 74.5q106 0 158 -90v130h-103v97h103zM306 417q-110 0 -110 -156q0 -153 108 -153q54 0 83.5 40t29.5 114q0 72 -29.5 113.5t-81.5 41.5z" />
    <glyph glyph-name="Emacron" unicode="&#x112;" horiz-adv-x="646" 
d="M211 790v106h259v-106h-259zM82 0v715h502v-129h-344v-161h262v-119h-262v-177h360v-129h-518z" />
    <glyph glyph-name="emacron" unicode="&#x113;" horiz-adv-x="586" 
d="M420 166l119 -59q-73 -118 -228 -118q-121 0 -196 74.5t-75 193.5q0 123 74 201t190 78q115 0 180 -72.5t65 -199.5v-41h-355q9 -60 32 -84q31 -35 87 -35q37 0 61.5 14t45.5 48zM197 316h203q-6 56 -28.5 81.5t-68.5 25.5q-45 0 -70 -25.5t-36 -81.5zM164 626v106h259
v-106h-259z" />
    <glyph glyph-name="Ebreve" unicode="&#x114;" horiz-adv-x="646" 
d="M82 0v715h502v-129h-344v-161h262v-119h-262v-177h360v-129h-518zM388 919h101q-8 -70 -48 -107q-45 -40 -111 -40q-67 0 -111 39q-39 37 -47 108h101q9 -48 58 -48q48 0 57 48z" />
    <glyph glyph-name="ebreve" unicode="&#x115;" horiz-adv-x="586" 
d="M420 166l119 -59q-73 -118 -228 -118q-121 0 -196 74.5t-75 193.5q0 123 74 201t190 78q115 0 180 -72.5t65 -199.5v-41h-355q9 -60 32 -84q31 -35 87 -35q37 0 61.5 14t45.5 48zM197 316h203q-6 56 -28.5 81.5t-68.5 25.5q-45 0 -70 -25.5t-36 -81.5zM130 748h100
q6 -62 65 -62q58 0 64 62h100q-9 -160 -164 -160q-156 0 -165 160z" />
    <glyph glyph-name="Edotaccent" unicode="&#x116;" horiz-adv-x="646" 
d="M342 921q32 0 55.5 -23.5t23.5 -55.5q0 -33 -24 -57t-56 -24q-33 0 -56.5 24t-23.5 57t23.5 56t57.5 23zM82 0v715h502v-129h-344v-161h262v-119h-262v-177h360v-129h-518z" />
    <glyph glyph-name="edotaccent" unicode="&#x117;" horiz-adv-x="586" 
d="M420 166l119 -59q-73 -118 -228 -118q-121 0 -196 74.5t-75 193.5q0 123 74 201t190 78q115 0 180 -72.5t65 -199.5v-41h-355q9 -60 32 -84q31 -35 87 -35q37 0 61.5 14t45.5 48zM197 316h203q-6 56 -28.5 81.5t-68.5 25.5q-45 0 -70 -25.5t-36 -81.5zM309 755
q32 0 55.5 -23.5t23.5 -55.5q0 -33 -24 -57t-56 -24q-33 0 -56.5 24t-23.5 57t23.5 56t57.5 23z" />
    <glyph glyph-name="Eogonek" unicode="&#x118;" horiz-adv-x="646" 
d="M82 0v715h502v-129h-345v-161h263v-119h-263v-177h361v-115q-95 -52 -95 -118q0 -31 32 -31q20 0 41 17l41 -54q-39 -34 -94 -34q-50 0 -79 24t-29 65q0 66 78 117h-413z" />
    <glyph glyph-name="eogonek" unicode="&#x119;" horiz-adv-x="586" 
d="M420 166l119 -59q-50 -87 -156 -110q-64 -53 -64 -101q0 -31 33 -31q20 0 41 17l41 -54q-39 -34 -95 -34q-49 0 -78.5 24t-29.5 65q0 58 64 106q-114 4 -184.5 78.5t-70.5 189.5q0 123 74 201t190 78q115 0 180 -72.5t65 -199.5v-41h-355q9 -60 32 -84q31 -35 87 -35
q37 0 61.5 14t45.5 48zM197 316h203q-6 56 -28.5 81.5t-68.5 25.5q-45 0 -70 -25.5t-36 -81.5z" />
    <glyph glyph-name="Ecaron" unicode="&#x11a;" horiz-adv-x="646" 
d="M282 775l-110 170h106l63 -71l62 71h103l-110 -170h-114zM82 0v715h502v-129h-344v-161h262v-119h-262v-177h360v-129h-518z" />
    <glyph glyph-name="ecaron" unicode="&#x11b;" horiz-adv-x="586" 
d="M420 166l119 -59q-73 -118 -228 -118q-121 0 -196 74.5t-75 193.5q0 123 74 201t190 78q115 0 180 -72.5t65 -199.5v-41h-355q9 -60 32 -84q31 -35 87 -35q37 0 61.5 14t45.5 48zM197 316h203q-6 56 -28.5 81.5t-68.5 25.5q-45 0 -70 -25.5t-36 -81.5zM243 587l-110 166
h106l63 -71l62 71h103l-110 -166h-114z" />
    <glyph glyph-name="Gcircumflex" unicode="&#x11c;" horiz-adv-x="786" 
d="M630 0l-28 105q-42 -61 -94.5 -88.5t-126.5 -27.5q-148 0 -239.5 101t-91.5 264q0 164 96.5 268t250.5 104q133 0 217 -75q43 -39 77 -115l-146 -58q-24 64 -59 91.5t-92 27.5q-84 0 -130.5 -63.5t-46.5 -178.5q0 -113 47.5 -175t135.5 -62q72 0 117.5 41.5t45.5 106.5v6
h-151v119h307v-391h-89zM229 775l110 170h115l109 -170h-105l-63 67l-62 -67h-104z" />
    <glyph glyph-name="gcircumflex" unicode="&#x11d;" horiz-adv-x="576" 
d="M547 418h-67q12 -35 12 -62q0 -74 -60 -120t-158 -46q-50 0 -95 14q-21 -15 -21 -36t15.5 -29.5t55.5 -8.5h132q91 0 139.5 -37.5t48.5 -107.5q0 -88 -74 -136.5t-209 -48.5q-117 0 -182.5 35t-65.5 99q0 63 85 100q-59 35 -59 95q0 68 74 106q-63 50 -63 124
q0 77 61 127t155 50q69 0 135 -35l141 32v-115zM339 7h-121q-26 0 -35 2q-32 -22 -32 -51q0 -59 119 -59q141 0 141 66q0 42 -72 42zM274 440q-38 0 -59.5 -21.5t-21.5 -59.5t21.5 -60t59.5 -22q37 0 58.5 22t21.5 60t-21.5 59.5t-58.5 21.5zM115 587l110 166h115l109 -166
h-105l-63 67l-62 -67h-104z" />
    <glyph glyph-name="Gbreve" unicode="&#x11e;" horiz-adv-x="786" 
d="M630 0l-28 105q-42 -61 -94.5 -88.5t-126.5 -27.5q-148 0 -239.5 101t-91.5 264q0 164 96.5 268t250.5 104q133 0 217 -75q43 -39 77 -115l-146 -58q-24 64 -59 91.5t-92 27.5q-84 0 -130.5 -63.5t-46.5 -178.5q0 -113 47.5 -175t135.5 -62q72 0 117.5 41.5t45.5 106.5v6
h-151v119h307v-391h-89zM447 919h101q-8 -70 -48 -107q-43 -40 -111 -40t-110 39q-40 37 -48 108h101q10 -48 58 -48t57 48z" />
    <glyph glyph-name="gbreve" unicode="&#x11f;" horiz-adv-x="576" 
d="M547 418h-67q12 -35 12 -62q0 -74 -60 -120t-158 -46q-50 0 -95 14q-21 -15 -21 -36t15.5 -29.5t55.5 -8.5h132q91 0 139.5 -37.5t48.5 -107.5q0 -88 -74 -136.5t-209 -48.5q-117 0 -182.5 35t-65.5 99q0 63 85 100q-59 35 -59 95q0 68 74 106q-63 50 -63 124
q0 77 61 127t155 50q69 0 135 -35l141 32v-115zM339 7h-121q-26 0 -35 2q-32 -22 -32 -51q0 -59 119 -59q141 0 141 66q0 42 -72 42zM274 440q-38 0 -59.5 -21.5t-21.5 -59.5t21.5 -60t59.5 -22q37 0 58.5 22t21.5 60t-21.5 59.5t-58.5 21.5zM340 747h101q-10 -70 -49 -107
q-43 -40 -111 -40q-66 0 -110 39q-39 37 -47 108h101q9 -48 57 -48q49 0 58 48z" />
    <glyph glyph-name="Gdotaccent" unicode="&#x120;" horiz-adv-x="786" 
d="M630 0l-28 105q-42 -61 -94.5 -88.5t-126.5 -27.5q-148 0 -239.5 101t-91.5 264q0 164 96.5 268t250.5 104q133 0 217 -75q43 -39 77 -115l-146 -58q-24 64 -59 91.5t-92 27.5q-84 0 -130.5 -63.5t-46.5 -178.5q0 -113 47.5 -175t135.5 -62q72 0 117.5 41.5t45.5 106.5v6
h-151v119h307v-391h-89zM396 921q32 0 55.5 -23.5t23.5 -55.5q0 -33 -24 -57t-56 -24q-33 0 -56.5 24t-23.5 57t23.5 56t57.5 23z" />
    <glyph glyph-name="gdotaccent" unicode="&#x121;" horiz-adv-x="576" 
d="M547 418h-67q12 -35 12 -62q0 -74 -60 -120t-158 -46q-50 0 -95 14q-21 -15 -21 -36t15.5 -29.5t55.5 -8.5h132q91 0 139.5 -37.5t48.5 -107.5q0 -88 -74 -136.5t-209 -48.5q-117 0 -182.5 35t-65.5 99q0 63 85 100q-59 35 -59 95q0 68 74 106q-63 50 -63 124
q0 77 61 127t155 50q69 0 135 -35l141 32v-115zM339 7h-121q-26 0 -35 2q-32 -22 -32 -51q0 -59 119 -59q141 0 141 66q0 42 -72 42zM274 440q-38 0 -59.5 -21.5t-21.5 -59.5t21.5 -60t59.5 -22q37 0 58.5 22t21.5 60t-21.5 59.5t-58.5 21.5zM279 755q32 0 55.5 -23.5
t23.5 -55.5q0 -33 -24 -57t-56 -24q-33 0 -56.5 24t-23.5 57t23.5 56t57.5 23z" />
    <glyph glyph-name="Gcommaaccent" unicode="&#x122;" horiz-adv-x="786" 
d="M630 0l-28 105q-42 -61 -94.5 -88.5t-126.5 -27.5q-148 0 -239.5 101t-91.5 264q0 164 96.5 268t250.5 104q133 0 217 -75q43 -39 77 -115l-146 -58q-24 64 -59 91.5t-92 27.5q-84 0 -130.5 -63.5t-46.5 -178.5q0 -113 47.5 -175t135.5 -62q72 0 117.5 41.5t45.5 106.5v6
h-151v119h307v-391h-89zM332 -271v57q28 3 44.5 15.5t18.5 31.5q-66 7 -66 63q0 28 19.5 46t48.5 18q36 0 57.5 -25t21.5 -66q0 -61 -37 -98q-35 -36 -107 -42z" />
    <glyph glyph-name="gcommaaccent" unicode="&#x123;" horiz-adv-x="576" 
d="M547 418h-67q12 -35 12 -62q0 -74 -60 -120t-158 -46q-50 0 -95 14q-21 -15 -21 -36t15.5 -29.5t55.5 -8.5h132q91 0 139.5 -37.5t48.5 -107.5q0 -88 -74 -136.5t-209 -48.5q-117 0 -182.5 35t-65.5 99q0 63 85 100q-59 35 -59 95q0 68 74 106q-63 50 -63 124
q0 77 61 127t155 50q69 0 135 -35l141 32v-115zM339 7h-121q-26 0 -35 2q-32 -22 -32 -51q0 -59 119 -59q141 0 141 66q0 42 -72 42zM274 440q-38 0 -59.5 -21.5t-21.5 -59.5t21.5 -60t59.5 -22q37 0 58.5 22t21.5 60t-21.5 59.5t-58.5 21.5zM346 807v-57
q-28 -3 -44.5 -15.5t-18.5 -31.5q66 -7 66 -63q0 -28 -19.5 -46t-48.5 -18q-36 0 -57.5 25t-21.5 66q0 59 37 98q35 36 107 42z" />
    <glyph glyph-name="Hcircumflex" unicode="&#x124;" horiz-adv-x="756" 
d="M82 0v715h160v-290h272v290h160v-715h-160v296h-272v-296h-160zM210 775l110 170h115l109 -170h-105l-63 67l-62 -67h-104z" />
    <glyph glyph-name="hcircumflex" unicode="&#x125;" horiz-adv-x="616" 
d="M70 0v753h153v-312q52 95 162 95q79 0 122 -52t43 -146v-338h-153v318q0 99 -78 99q-46 0 -71 -28.5t-25 -80.5v-308h-153zM-24 782l110 166h115l109 -166h-105l-63 67l-62 -67h-104z" />
    <glyph glyph-name="Hbar" unicode="&#x126;" horiz-adv-x="756" 
d="M14 517v88h68v110h160v-110h272v110h160v-110h67v-88h-67v-517h-160v295h-272v-295h-160v517h-68zM242 424h272v93h-272v-93z" />
    <glyph glyph-name="hbar" unicode="&#x127;" horiz-adv-x="616" 
d="M223 576v-135q52 95 162 95q79 0 122 -52t43 -146v-338h-153v318q0 99 -78 99q-46 0 -71 -28.5t-25 -80.5v-308h-153v576h-66v97h66v80h153v-80h103v-97h-103z" />
    <glyph glyph-name="Itilde" unicode="&#x128;" horiz-adv-x="334" 
d="M87 0v715h160v-715h-160zM256 920l90 -6q-20 -142 -116 -142q-34 0 -79 25q-29 15 -42 15q-27 0 -36 -38l-84 6q16 142 114 142q33 0 76 -24q28 -16 44 -16q25 0 33 38z" />
    <glyph glyph-name="itilde" unicode="&#x129;" horiz-adv-x="301" 
d="M74 0v523h153v-523h-153zM239 750l90 -6q-20 -142 -116 -142q-33 0 -75 23q-33 17 -47 17q-26 0 -35 -38l-84 6q16 142 114 142q33 0 76 -24q28 -16 45 -16q24 0 32 38z" />
    <glyph glyph-name="Imacron" unicode="&#x12a;" horiz-adv-x="334" 
d="M38 790v106h259v-106h-259zM88 0v715h160v-715h-160z" />
    <glyph glyph-name="imacron" unicode="&#x12b;" horiz-adv-x="301" 
d="M74 0v523h153v-523h-153zM21 626v106h259v-106h-259z" />
    <glyph glyph-name="Ibreve" unicode="&#x12c;" horiz-adv-x="334" 
d="M88 0v715h160v-715h-160zM2 922h100q6 -62 68 -62q61 0 67 62h100q-7 -160 -167 -160q-159 0 -168 160z" />
    <glyph glyph-name="ibreve" unicode="&#x12d;" horiz-adv-x="301" 
d="M74 0v523h153v-523h-153zM208 747h101q-8 -70 -48 -107q-43 -40 -111 -40t-110 39q-40 37 -48 108h101q10 -48 58 -48t57 48z" />
    <glyph glyph-name="Iogonek" unicode="&#x12e;" horiz-adv-x="334" 
d="M87 0v715h160v-700q-88 -59 -88 -119q0 -31 32 -31q20 0 41 17l41 -54q-39 -34 -94 -34q-49 0 -78.5 24t-29.5 65q0 65 79 117h-63z" />
    <glyph glyph-name="iogonek" unicode="&#x12f;" horiz-adv-x="301" 
d="M214 -118l41 -54q-39 -34 -93 -34q-51 0 -80.5 24t-29.5 65q0 67 79 117h-57v523h153v-509q-87 -61 -87 -118q0 -31 33 -31q20 0 41 17zM151 760q37 0 62.5 -24.5t25.5 -59.5t-26 -60t-63 -25t-62.5 24.5t-25.5 60.5q0 35 26 59.5t63 24.5z" />
    <glyph glyph-name="Idotaccent" unicode="&#x130;" horiz-adv-x="334" 
d="M168 921q32 0 55.5 -23.5t23.5 -55.5q0 -33 -24 -57t-56 -24q-33 0 -56.5 24t-23.5 57t23.5 56t57.5 23zM87 0v715h160v-715h-160z" />
    <glyph glyph-name="dotlessi" unicode="&#x131;" horiz-adv-x="301" 
d="M74 0v523h153v-523h-153z" />
    <glyph glyph-name="IJ" unicode="&#x132;" horiz-adv-x="889" 
d="M811 715v-460q0 -266 -247 -266q-119 0 -185.5 63t-66.5 177v38h155v-28q0 -121 91 -121q50 0 71.5 32.5t21.5 105.5v459h160zM79 0v715h160v-715h-160z" />
    <glyph glyph-name="ij" unicode="&#x133;" horiz-adv-x="539" 
d="M74 0v523h153v-523h-153zM151 760q37 0 62.5 -24.5t25.5 -59.5t-26 -60t-63 -25t-62.5 24.5t-25.5 60.5q0 35 26 59.5t63 24.5zM470 523v-538q0 -85 -41.5 -130.5t-119.5 -45.5q-56 0 -102 25l28 107q21 -9 37 -9q45 0 45 57v534h153zM394 760q37 0 62.5 -24.5
t25.5 -59.5t-26 -60t-63 -25t-62.5 24.5t-25.5 60.5q0 35 26 59.5t63 24.5z" />
    <glyph glyph-name="Jcircumflex" unicode="&#x134;" horiz-adv-x="624" 
d="M305 775l110 170h115l109 -170h-105l-63 67l-62 -67h-104zM548 715v-460q0 -266 -247 -266q-119 0 -185.5 63t-66.5 177v38h155v-28q0 -121 91 -121q50 0 71.5 32.5t21.5 105.5v459h160z" />
    <glyph glyph-name="jcircumflex" unicode="&#x135;" horiz-adv-x="309" 
d="M235 523v-538q0 -85 -41.5 -130.5t-119.5 -45.5q-56 0 -102 25l28 107q21 -9 37 -9q45 0 45 57v534h153zM-12 587l110 166h115l109 -166h-105l-63 67l-62 -67h-104z" />
    <glyph glyph-name="Kcommaaccent" unicode="&#x136;" horiz-adv-x="703" 
d="M82 0v715h160v-308l243 308h178l-246 -303l263 -412h-179l-190 294l-69 -84v-210h-160zM292 -271v57q28 3 44.5 15.5t18.5 31.5q-66 7 -66 63q0 28 19.5 46t48.5 18q36 0 57.5 -25t21.5 -66q0 -61 -37 -98q-35 -36 -107 -42z" />
    <glyph glyph-name="kcommaaccent" unicode="&#x137;" horiz-adv-x="588" 
d="M401 0l-125 210l-53 -62v-148h-153v753h153v-434l164 204h166l-175 -205l193 -318h-170zM237 -271v57q28 3 44.5 15.5t18.5 31.5q-66 7 -66 63q0 28 19.5 46t48.5 18q36 0 57.5 -25t21.5 -66q0 -61 -37 -98q-35 -36 -107 -42z" />
    <glyph glyph-name="kgreenlandic" unicode="&#x138;" horiz-adv-x="703" 
d="M78 0v523h148v-218l211 218h167l-222 -223l235 -300h-167l-167 212l-57 -56v-156h-148z" />
    <glyph glyph-name="Lacute" unicode="&#x139;" horiz-adv-x="577" 
d="M106 771l42 174h175l-109 -174h-108zM82 0v715h160v-586h315v-129h-475z" />
    <glyph glyph-name="lacute" unicode="&#x13a;" horiz-adv-x="301" 
d="M74 0v753h153v-753h-153zM93 809l42 174h175l-109 -174h-108z" />
    <glyph glyph-name="Lcommaaccent" unicode="&#x13b;" horiz-adv-x="577" 
d="M247 -271v57q28 3 44.5 15.5t18.5 31.5q-66 7 -66 63q0 28 19.5 46t48.5 18q36 0 57.5 -25t21.5 -66q0 -61 -37 -98q-35 -36 -107 -42zM82 0v715h160v-586h315v-129h-475z" />
    <glyph glyph-name="lcommaaccent" unicode="&#x13c;" horiz-adv-x="301" 
d="M74 0v753h153v-753h-153zM81 -271v57q28 3 44.5 15.5t18.5 31.5q-66 7 -66 63q0 28 19.5 46t48.5 18q36 0 57.5 -25t21.5 -66q0 -61 -37 -98q-35 -36 -107 -42z" />
    <glyph glyph-name="Lcaron" unicode="&#x13d;" horiz-adv-x="577" 
d="M404 496v57q28 3 44.5 15.5t18.5 31.5q-66 8 -66 63q0 28 19.5 46t48.5 18q36 0 57.5 -25t21.5 -66q0 -61 -37 -98q-35 -36 -107 -42zM82 0v715h160v-586h315v-129h-475z" />
    <glyph glyph-name="lcaron" unicode="&#x13e;" horiz-adv-x="423" 
d="M74 0v753h153v-753h-153zM293 529v57q28 3 44.5 15.5t18.5 31.5q-66 7 -66 63q0 28 19.5 46t48.5 18q36 0 57.5 -25t21.5 -67q0 -60 -37 -97q-35 -36 -107 -42z" />
    <glyph glyph-name="Ldot" unicode="&#x13f;" horiz-adv-x="577" 
d="M82 0v715h160v-586h315v-129h-475zM447 421q38 0 65.5 -28t27.5 -67q0 -38 -27.5 -65.5t-66.5 -27.5t-66.5 27t-27.5 66q0 40 27.5 67.5t67.5 27.5z" />
    <glyph glyph-name="ldot" unicode="&#x140;" horiz-adv-x="376" 
d="M74 0v753h153v-753h-153zM384 421q38 0 65.5 -28t27.5 -67q0 -38 -27.5 -65.5t-66.5 -27.5t-66.5 27t-27.5 66q0 40 27.5 67.5t67.5 27.5z" />
    <glyph glyph-name="Lslash" unicode="&#x141;" horiz-adv-x="590" 
d="M23 231v115l71 25v344h160v-286l165 59v-116l-165 -59v-184h316v-129h-476v256z" />
    <glyph glyph-name="lslash" unicode="&#x142;" horiz-adv-x="347" 
d="M97 276l-75 -38v125l75 38v352h153v-273l75 38v-126l-75 -39v-353h-153v276z" />
    <glyph glyph-name="Nacute" unicode="&#x143;" horiz-adv-x="757" 
d="M338 771l43 174h175l-109 -174h-109zM82 0v715h182l265 -485v485h146v-715h-175l-272 496v-496h-146z" />
    <glyph glyph-name="nacute" unicode="&#x144;" horiz-adv-x="616" 
d="M70 0v523h153v-82q52 95 162 95q79 0 122 -52t43 -146v-338h-153v318q0 99 -79 99q-45 0 -70 -28.5t-25 -80.5v-308h-153zM258 587l42 166h175l-109 -166h-108z" />
    <glyph glyph-name="Ncommaaccent" unicode="&#x145;" horiz-adv-x="757" 
d="M306 -271v57q59 8 62 46q-66 8 -66 63q0 29 19 47t50 18q37 0 58 -25t21 -69q0 -71 -54 -110q-32 -23 -90 -27zM82 0v715h182l265 -485v485h146v-715h-175l-272 496v-496h-146z" />
    <glyph glyph-name="ncommaaccent" unicode="&#x146;" horiz-adv-x="616" 
d="M70 0v523h153v-82q52 95 162 95q79 0 122 -52t43 -146v-338h-153v318q0 99 -79 99q-45 0 -70 -28.5t-25 -80.5v-308h-153zM242 -271v57q28 3 44.5 15.5t18.5 31.5q-66 7 -66 63q0 28 19.5 46t48.5 18q36 0 57.5 -25t21.5 -66q0 -61 -37 -98q-35 -36 -107 -42z" />
    <glyph glyph-name="Ncaron" unicode="&#x147;" horiz-adv-x="757" 
d="M339 775l-110 170h106l62 -70l62 70h104l-110 -170h-114zM82 0v715h182l265 -485v485h146v-715h-175l-272 496v-496h-146z" />
    <glyph glyph-name="ncaron" unicode="&#x148;" horiz-adv-x="616" 
d="M70 0v523h153v-82q52 95 162 95q79 0 122 -52t43 -146v-338h-153v318q0 99 -79 99q-45 0 -70 -28.5t-25 -80.5v-308h-153zM251 587l-110 166h106l63 -71l62 71h103l-110 -166h-114z" />
    <glyph glyph-name="napostrophe" unicode="&#x149;" horiz-adv-x="616" 
d="M70 0v523h153v-82q52 95 162 95q79 0 122 -52t43 -146v-338h-153v318q0 99 -79 99q-45 0 -70 -28.5t-25 -80.5v-308h-153zM-133 438v58q67 20 73 99l-8 1q-39 3 -60.5 23.5t-21.5 55.5t23.5 57.5t60.5 22.5q44 0 69.5 -33t25.5 -88q0 -90 -48 -144q-22 -24 -47 -35.5
t-67 -16.5z" />
    <glyph glyph-name="Eng" unicode="&#x14a;" horiz-adv-x="616" 
d="M223 715v-81q51 94 162 94q79 0 122 -51t43 -146v-602q0 -86 -41.5 -131t-121.5 -45q-21 0 -39 3v120q26 0 37.5 13t11.5 44v578q0 99 -79 99q-45 0 -70 -28.5t-25 -80.5v-501h-153v715h153z" />
    <glyph glyph-name="eng" unicode="&#x14b;" horiz-adv-x="616" 
d="M223 523v-82q52 95 162 95q79 0 122 -52t43 -146v-391q0 -86 -41.5 -131t-121.5 -45q-23 0 -39 4v119h5q44 0 44 57v269v98q0 99 -79 99q-45 0 -70 -28.5t-25 -80.5v-308h-153v523h153z" />
    <glyph glyph-name="Omacron" unicode="&#x14c;" horiz-adv-x="794" 
d="M401 726q150 0 246.5 -103t96.5 -263q0 -164 -97 -267.5t-252 -103.5q-153 0 -249 102t-96 265q0 162 98.5 266t252.5 104zM399 597q-86 0 -134 -63t-48 -177q0 -112 48 -175.5t133 -63.5t132 63t47 176q0 111 -48 175.5t-130 64.5zM268 790v106h259v-106h-259z" />
    <glyph glyph-name="omacron" unicode="&#x14d;" horiz-adv-x="615" 
d="M311 536q115 0 189.5 -77t74.5 -195q0 -121 -75 -198t-193 -77t-192.5 75.5t-74.5 194.5q0 122 75.5 199.5t195.5 77.5zM310 417q-114 0 -114 -155q0 -74 29 -114t82 -40q54 0 83 40t29 115q0 74 -28 114t-81 40zM178 626v106h259v-106h-259z" />
    <glyph glyph-name="Obreve" unicode="&#x14e;" horiz-adv-x="794" 
d="M401 726q150 0 246.5 -103t96.5 -263q0 -164 -97 -267.5t-252 -103.5q-153 0 -249 102t-96 265q0 162 98.5 266t252.5 104zM399 597q-86 0 -134 -63t-48 -177q0 -112 48 -175.5t133 -63.5t132 63t47 176q0 111 -48 175.5t-130 64.5zM234 922h100q6 -62 68 -62q61 0 67 62
h100q-7 -160 -167 -160q-161 0 -168 160z" />
    <glyph glyph-name="obreve" unicode="&#x14f;" horiz-adv-x="615" 
d="M311 536q115 0 189.5 -77t74.5 -195q0 -121 -75 -198t-193 -77t-192.5 75.5t-74.5 194.5q0 122 75.5 199.5t195.5 77.5zM310 417q-114 0 -114 -155q0 -74 29 -114t82 -40q54 0 83 40t29 115q0 74 -28 114t-81 40zM143 748h100q6 -62 65 -62q58 0 64 62h100
q-9 -160 -164 -160q-156 0 -165 160z" />
    <glyph glyph-name="Ohungarumlaut" unicode="&#x150;" horiz-adv-x="794" 
d="M401 726q150 0 246.5 -103t96.5 -263q0 -164 -97 -267.5t-252 -103.5q-153 0 -249 102t-96 265q0 162 98.5 266t252.5 104zM399 597q-86 0 -134 -63t-48 -177q0 -112 48 -175.5t133 -63.5t132 63t47 176q0 111 -48 175.5t-130 64.5zM246 771l28 174h153l-77 -174h-104z
M438 771l28 174h152l-76 -174h-104z" />
    <glyph glyph-name="ohungarumlaut" unicode="&#x151;" horiz-adv-x="615" 
d="M311 536q115 0 189.5 -77t74.5 -195q0 -121 -75 -198t-193 -77t-192.5 75.5t-74.5 194.5q0 122 75.5 199.5t195.5 77.5zM310 417q-114 0 -114 -155q0 -74 29 -114t82 -40q54 0 83 40t29 115q0 74 -28 114t-81 40zM154 587l28 166h153l-77 -166h-104zM346 587l28 166h152
l-76 -166h-104z" />
    <glyph glyph-name="OE" unicode="&#x152;" horiz-adv-x="1129" 
d="M586 0v47q-83 -58 -191 -58q-152 0 -248.5 103t-96.5 266q0 159 98.5 263.5t248.5 104.5q105 0 189 -58v47h481v-129h-339v-161h257v-119h-257v-177h355v-129h-497zM576 326v70q0 91 -49 146t-129 55q-85 0 -133 -62.5t-48 -174.5q0 -113 48 -177.5t133 -64.5
q81 0 129.5 56.5t48.5 151.5z" />
    <glyph glyph-name="oe" unicode="&#x153;" horiz-adv-x="965" 
d="M798 166l118 -59q-73 -118 -226 -118q-124 0 -196 88q-70 -88 -189 -88q-118 0 -191.5 75t-73.5 194q0 122 74.5 200t191.5 78q119 0 189 -89q69 89 186 89q115 0 180.5 -72t65.5 -200v-41h-355q9 -63 37 -91t81 -28q70 0 108 62zM308 421q-114 0 -114 -161
q0 -76 29 -116t83 -40t83 40.5t29 116.5t-28.5 118t-81.5 42zM575 316h203q-6 57 -29 82t-69 25q-44 0 -69 -25.5t-36 -81.5z" />
    <glyph glyph-name="Racute" unicode="&#x154;" horiz-adv-x="714" 
d="M283 771l42 174h175l-109 -174h-108zM82 0v715h314q115 0 180 -54.5t65 -150.5q0 -78 -39 -124q-32 -37 -96 -57q51 -15 76 -46.5t39 -96.5q36 -153 58 -182v-4h-164q-27 48 -54 172q-12 55 -37.5 78t-74.5 23h-109v-273h-158zM240 392h132q55 0 84 25.5t29 74.5
q0 98 -102 98h-143v-198z" />
    <glyph glyph-name="racute" unicode="&#x155;" horiz-adv-x="434" 
d="M70 0v523h153v-89q49 100 135 100q42 0 76 -21l-38 -138q-30 18 -63 18q-50 0 -80 -35t-30 -95v-263h-153zM173 587l42 166h175l-109 -166h-108z" />
    <glyph glyph-name="Rcommaaccent" unicode="&#x156;" horiz-adv-x="714" 
d="M300 -271v57q28 3 44.5 15.5t18.5 31.5q-66 7 -66 63q0 28 19.5 46t48.5 18q36 0 57.5 -25t21.5 -66q0 -61 -37 -98q-35 -36 -107 -42zM82 0v715h314q115 0 180 -54.5t65 -150.5q0 -78 -39 -124q-32 -37 -96 -57q51 -15 76 -46.5t39 -96.5q36 -153 58 -182v-4h-164
q-27 48 -54 172q-12 55 -37.5 78t-74.5 23h-109v-273h-158zM240 392h132q55 0 84 25.5t29 74.5q0 98 -102 98h-143v-198z" />
    <glyph glyph-name="rcommaaccent" unicode="&#x157;" horiz-adv-x="434" 
d="M70 0v523h153v-89q49 100 135 100q42 0 76 -21l-38 -138q-30 18 -63 18q-50 0 -80 -35t-30 -95v-263h-153zM78 -271v57q28 3 44.5 15.5t18.5 31.5q-66 7 -66 63q0 28 19.5 46t48.5 18q36 0 57.5 -25t21.5 -66q0 -61 -37 -98q-35 -36 -107 -42z" />
    <glyph glyph-name="Rcaron" unicode="&#x158;" horiz-adv-x="714" 
d="M283 775l-110 170h106l63 -71l62 71h103l-110 -170h-114zM82 0v715h314q115 0 180 -54.5t65 -150.5q0 -78 -39 -124q-32 -37 -96 -57q51 -15 76 -46.5t39 -96.5q36 -153 58 -182v-4h-164q-27 48 -54 172q-12 55 -37.5 78t-74.5 23h-109v-273h-158zM240 392h132
q55 0 84 25.5t29 74.5q0 98 -102 98h-143v-198z" />
    <glyph glyph-name="rcaron" unicode="&#x159;" horiz-adv-x="434" 
d="M70 0v523h153v-89q49 100 135 100q42 0 76 -21l-38 -138q-30 18 -63 18q-50 0 -80 -35t-30 -95v-263h-153zM172 587l-110 166h106l63 -71l62 71h103l-110 -166h-114z" />
    <glyph glyph-name="Sacute" unicode="&#x15a;" horiz-adv-x="651" 
d="M260 771l42 174h175l-108 -174h-109zM24 160l138 59q22 -55 60 -79.5t98 -24.5t94 23.5t34 64.5q0 36 -26 54.5t-104 36.5q-138 32 -181 59q-81 52 -81 153q0 102 68 160.5t186 58.5q195 0 276 -148l-129 -61q-26 46 -59 64.5t-87 18.5q-49 0 -75.5 -20t-26.5 -57
q0 -34 27 -52t97 -32q134 -28 188 -61q83 -55 83 -164q0 -108 -73 -166t-209 -58q-112 0 -184 41t-114 130z" />
    <glyph glyph-name="sacute" unicode="&#x15b;" horiz-adv-x="523" 
d="M468 474l-70 -97q-61 46 -138 46q-67 0 -67 -41q0 -23 19.5 -33.5t83.5 -22.5q82 -14 121 -38q68 -40 68 -126q0 -82 -60 -127.5t-170 -45.5q-76 0 -130 18t-101 58l71 99q68 -62 156 -62q86 0 86 50q0 22 -19 32q-17 9 -92 23q-92 17 -134 56.5t-42 107.5q0 77 56.5 121
t156.5 44q120 0 205 -62zM203 587l42 166h175l-109 -166h-108z" />
    <glyph glyph-name="Scircumflex" unicode="&#x15c;" horiz-adv-x="651" 
d="M152 775l109 170h116l109 -170h-106l-63 68l-61 -68h-104zM24 160l138 59q22 -55 60 -79.5t98 -24.5t94 23.5t34 64.5q0 36 -26 54.5t-104 36.5q-138 32 -181 59q-81 52 -81 153q0 102 68 160.5t186 58.5q195 0 276 -148l-129 -61q-26 46 -59 64.5t-87 18.5
q-49 0 -75.5 -20t-26.5 -57q0 -34 27 -52t97 -32q134 -28 188 -61q83 -55 83 -164q0 -108 -73 -166t-209 -58q-112 0 -184 41t-114 130z" />
    <glyph glyph-name="scircumflex" unicode="&#x15d;" horiz-adv-x="523" 
d="M468 474l-70 -97q-61 46 -138 46q-67 0 -67 -41q0 -23 19.5 -33.5t83.5 -22.5q82 -14 121 -38q68 -40 68 -126q0 -82 -60 -127.5t-170 -45.5q-76 0 -130 18t-101 58l71 99q68 -62 156 -62q86 0 86 50q0 22 -19 32q-17 9 -92 23q-92 17 -134 56.5t-42 107.5q0 77 56.5 121
t156.5 44q120 0 205 -62zM98 587l110 166h115l109 -166h-105l-63 67l-62 -67h-104z" />
    <glyph glyph-name="Scedilla" unicode="&#x15e;" horiz-adv-x="651" 
d="M237 -86l55 76q-198 9 -268 170l138 59q22 -55 60 -79.5t98 -24.5t94 23.5t34 64.5q0 36 -26 54.5t-104 36.5q-138 32 -181 59q-81 52 -81 153q0 102 68 160.5t186 58.5q195 0 276 -148l-129 -61q-26 46 -59 64.5t-87 18.5q-49 0 -75.5 -20t-26.5 -57q0 -34 27 -52
t97 -32q134 -28 188 -61q83 -55 83 -164q0 -100 -64 -157.5t-183 -65.5l-33 -43q20 2 21 2q32 0 54.5 -24t22.5 -58q0 -40 -30 -65.5t-78 -25.5q-72 0 -111 56l62 29q16 -22 43 -22q35 0 35 30q0 29 -31 29q-20 0 -31 -15z" />
    <glyph glyph-name="scedilla" unicode="&#x15f;" horiz-adv-x="523" 
d="M287 -10l-33 -44q14 3 23 3q32 0 53.5 -23.5t21.5 -58.5q0 -43 -29 -67t-80 -24q-72 0 -111 56l63 30q14 -23 42 -23q36 0 36 30t-32 30q-22 0 -31 -15l-44 29l55 77q-122 7 -197 75l71 99q68 -62 156 -62q86 0 86 50q0 22 -19 32q-17 9 -92 23q-92 17 -134 56.5
t-42 107.5q0 77 56.5 121t156.5 44q120 0 205 -62l-70 -97q-61 46 -138 46q-67 0 -67 -41q0 -23 19.5 -33.5t83.5 -22.5q82 -14 121 -38q68 -40 68 -126q0 -77 -50.5 -121t-147.5 -51z" />
    <glyph glyph-name="Scaron" unicode="&#x160;" horiz-adv-x="651" 
d="M260 775l-110 170h106l62 -70l62 70h104l-110 -170h-114zM24 160l138 59q22 -55 60 -79.5t98 -24.5t94 23.5t34 64.5q0 36 -26 54.5t-104 36.5q-138 32 -181 59q-81 52 -81 153q0 102 68 160.5t186 58.5q195 0 276 -148l-129 -61q-26 46 -59 64.5t-87 18.5
q-49 0 -75.5 -20t-26.5 -57q0 -34 27 -52t97 -32q134 -28 188 -61q83 -55 83 -164q0 -108 -73 -166t-209 -58q-112 0 -184 41t-114 130z" />
    <glyph glyph-name="scaron" unicode="&#x161;" horiz-adv-x="523" 
d="M468 474l-70 -97q-61 46 -138 46q-67 0 -67 -41q0 -23 19.5 -33.5t83.5 -22.5q82 -14 121 -38q68 -40 68 -126q0 -82 -60 -127.5t-170 -45.5q-76 0 -130 18t-101 58l71 99q68 -62 156 -62q86 0 86 50q0 22 -19 32q-17 9 -92 23q-92 17 -134 56.5t-42 107.5q0 77 56.5 121
t156.5 44q120 0 205 -62zM206 587l-110 166h106l63 -71l62 71h103l-110 -166h-114z" />
    <glyph glyph-name="Tcommaaccent" unicode="&#x162;" horiz-adv-x="596" 
d="M227 -271v57q28 3 44.5 15.5t18.5 31.5q-66 7 -66 63q0 28 19.5 46t48.5 18q36 0 57.5 -25t21.5 -66q0 -61 -37 -98q-35 -36 -107 -42zM218 0v586h-202v129h564v-129h-202v-586h-160z" />
    <glyph glyph-name="tcommaaccent" unicode="&#x163;" horiz-adv-x="408" 
d="M155 -271v57q28 3 44.5 15.5t18.5 31.5q-66 7 -66 63q0 28 19.5 46t48.5 18q36 0 57.5 -25t21.5 -66q0 -61 -37 -98q-35 -36 -107 -42zM27 404v119h72v105l153 53v-158h110v-119h-110v-231q0 -57 44 -57q25 0 53 16l37 -102q-53 -41 -125 -41q-77 0 -119.5 43t-42.5 122
v250h-72z" />
    <glyph glyph-name="Tcaron" unicode="&#x164;" horiz-adv-x="596" 
d="M241 775l-110 170h106l63 -71l62 71h103l-110 -170h-114zM218 0v586h-202v129h564v-129h-202v-586h-160z" />
    <glyph glyph-name="tcaron" unicode="&#x165;" horiz-adv-x="537" 
d="M407 529v57q28 3 44.5 15.5t18.5 31.5q-66 7 -66 63q0 28 19.5 46t48.5 18q36 0 57.5 -25t21.5 -66q0 -61 -37 -98q-35 -36 -107 -42zM27 404v119h72v105l153 53v-158h110v-119h-110v-231q0 -57 44 -57q25 0 53 16l37 -102q-53 -41 -125 -41q-77 0 -119.5 43t-42.5 122
v250h-72z" />
    <glyph glyph-name="Tbar" unicode="&#x166;" horiz-adv-x="596" 
d="M218 258h-131v139h131v189h-202v129h564v-129h-202v-189h127v-139h-127v-258h-160v258z" />
    <glyph glyph-name="tbar" unicode="&#x167;" horiz-adv-x="408" 
d="M252 352h109v-118h-109v-61q0 -57 44 -57q24 0 53 16l37 -102q-51 -41 -125 -41q-77 0 -119.5 43t-42.5 122v80h-72v118h72v52h-72v119h72v105l153 53v-158h110v-119h-110v-52z" />
    <glyph glyph-name="Utilde" unicode="&#x168;" horiz-adv-x="738" 
d="M662 715v-429q0 -145 -75 -221t-217 -76q-143 0 -218.5 75t-75.5 218v433h160v-425q0 -90 32 -130.5t103 -40.5q73 0 106 42.5t33 134.5v419h152zM458 920l90 -6q-20 -142 -117 -142q-33 0 -79 25q-28 15 -42 15q-28 0 -35 -38l-84 6q16 142 113 142q33 0 77 -24
q28 -16 44 -16q25 0 33 38z" />
    <glyph glyph-name="utilde" unicode="&#x169;" horiz-adv-x="607" 
d="M384 0v80q-49 -91 -156 -91q-77 0 -119.5 52t-42.5 146v336h153v-318q0 -96 71 -96q44 0 69 28.5t25 78.5v307h153v-523h-153zM390 750l90 -6q-20 -142 -116 -142q-33 0 -75 23q-33 17 -47 17q-26 0 -35 -38l-84 6q16 142 114 142q33 0 76 -24q28 -16 45 -16q24 0 32 38z
" />
    <glyph glyph-name="Umacron" unicode="&#x16a;" horiz-adv-x="738" 
d="M239 790v106h259v-106h-259zM662 715v-429q0 -145 -75 -221t-217 -76q-143 0 -218.5 75t-75.5 218v433h160v-425q0 -90 32 -130.5t103 -40.5q73 0 106 42.5t33 134.5v419h152z" />
    <glyph glyph-name="umacron" unicode="&#x16b;" horiz-adv-x="607" 
d="M384 0v80q-49 -91 -156 -91q-77 0 -119.5 52t-42.5 146v336h153v-318q0 -96 71 -96q44 0 69 28.5t25 78.5v307h153v-523h-153zM174 626v106h259v-106h-259z" />
    <glyph glyph-name="Ubreve" unicode="&#x16c;" horiz-adv-x="738" 
d="M426 919h101q-8 -70 -48 -107q-43 -40 -111 -40q-66 0 -110 39q-38 36 -48 108h101q10 -48 58 -48q50 0 57 48zM662 715v-429q0 -145 -75 -221t-217 -76q-143 0 -218.5 75t-75.5 218v433h160v-425q0 -90 32 -130.5t103 -40.5q73 0 106 42.5t33 134.5v419h152z" />
    <glyph glyph-name="ubreve" unicode="&#x16d;" horiz-adv-x="607" 
d="M384 0v80q-49 -91 -156 -91q-77 0 -119.5 52t-42.5 146v336h153v-318q0 -96 71 -96q44 0 69 28.5t25 78.5v307h153v-523h-153zM361 747h101q-8 -70 -48 -107q-43 -40 -111 -40t-110 39q-40 37 -48 108h101q10 -48 58 -48t57 48z" />
    <glyph glyph-name="Uring" unicode="&#x16e;" horiz-adv-x="738" 
d="M370 979q47 0 79.5 -31t32.5 -77t-32.5 -77.5t-80.5 -31.5q-49 0 -81.5 31t-32.5 78q0 46 32.5 77t82.5 31zM369 916q-20 0 -32.5 -13t-12.5 -33t13 -32.5t32 -12.5t31.5 13t12.5 32q0 20 -12.5 33t-31.5 13zM662 715v-429q0 -145 -75 -221t-217 -76q-143 0 -218.5 75
t-75.5 218v433h160v-425q0 -90 32 -130.5t103 -40.5q73 0 106 42.5t33 134.5v419h152z" />
    <glyph glyph-name="uring" unicode="&#x16f;" horiz-adv-x="607" 
d="M384 0v80q-49 -91 -156 -91q-77 0 -119.5 52t-42.5 146v336h153v-318q0 -96 71 -96q44 0 69 28.5t25 78.5v307h153v-523h-153zM305 787q47 0 79.5 -31t32.5 -77t-32.5 -77.5t-80.5 -31.5q-49 0 -81.5 31t-32.5 78q0 46 32.5 77t82.5 31zM304 724q-20 0 -32.5 -13
t-12.5 -33t12.5 -32.5t32.5 -12.5q19 0 31.5 13t12.5 32q0 20 -12.5 33t-31.5 13z" />
    <glyph glyph-name="Uhungarumlaut" unicode="&#x170;" horiz-adv-x="738" 
d="M222 771l28 174h153l-77 -174h-104zM414 771l28 174h152l-76 -174h-104zM662 715v-429q0 -145 -75 -221t-217 -76q-143 0 -218.5 75t-75.5 218v433h160v-425q0 -90 32 -130.5t103 -40.5q73 0 106 42.5t33 134.5v419h152z" />
    <glyph glyph-name="uhungarumlaut" unicode="&#x171;" horiz-adv-x="607" 
d="M384 0v80q-49 -91 -156 -91q-77 0 -119.5 52t-42.5 146v336h153v-318q0 -96 71 -96q44 0 69 28.5t25 78.5v307h153v-523h-153zM144 587l28 166h153l-77 -166h-104zM336 587l28 166h152l-76 -166h-104z" />
    <glyph glyph-name="Uogonek" unicode="&#x172;" horiz-adv-x="738" 
d="M662 715v-429q0 -244 -207 -289q-64 -54 -64 -100q0 -32 33 -32q20 0 41 17l41 -54q-39 -34 -95 -34q-49 0 -78.5 24t-29.5 65q0 58 63 106q-290 8 -290 293v433h160v-425q0 -90 32 -130.5t103 -40.5q73 0 106 42.5t33 134.5v419h152z" />
    <glyph glyph-name="uogonek" unicode="&#x173;" horiz-adv-x="607" 
d="M384 0v80q-49 -91 -156 -91q-77 0 -119.5 52t-42.5 146v336h153v-318q0 -96 71 -96q44 0 69 28.5t25 78.5v307h153v-506q-49 -37 -69.5 -64.5t-20.5 -56.5q0 -31 32 -31q20 0 42 17l41 -54q-23 -20 -43.5 -27t-51.5 -7q-49 0 -78.5 24t-29.5 65q0 66 79 117h-54z" />
    <glyph glyph-name="Wcircumflex" unicode="&#x174;" horiz-adv-x="1032" 
d="M212 0l-184 715h168l118 -503l139 503h133l140 -507l124 507h154l-185 -715h-165l-136 483l-139 -483h-167zM349 775l110 170h115l109 -170h-105l-63 67l-62 -67h-104z" />
    <glyph glyph-name="wcircumflex" unicode="&#x175;" horiz-adv-x="836" 
d="M174 0l-153 523h160l82 -335l97 335h131l87 -335l89 335h148l-158 -523h-151l-88 324l-92 -324h-152zM251 587l110 166h115l109 -166h-105l-63 67l-62 -67h-104z" />
    <glyph glyph-name="Ycircumflex" unicode="&#x176;" horiz-adv-x="606" 
d="M228 0v295l-248 420h179l154 -283l151 283h162l-238 -419v-296h-160zM136 775l110 170h115l109 -170h-105l-63 67l-62 -67h-104z" />
    <glyph glyph-name="ycircumflex" unicode="&#x177;" horiz-adv-x="558" 
d="M548 523l-205 -550q-31 -85 -79.5 -124t-119.5 -39q-65 0 -119 34l42 104q31 -19 64 -19q29 0 46.5 15.5t29.5 50.5l3 9l-200 519h163l115 -327l110 327h150zM112 587l110 166h115l109 -166h-105l-63 67l-62 -67h-104z" />
    <glyph glyph-name="Ydieresis" unicode="&#x178;" horiz-adv-x="646" 
d="M247 0v295l-248 420h179l154 -283l151 283h162l-238 -419v-296h-160zM230 912q31 0 53.5 -22.5t22.5 -53.5q0 -32 -22.5 -55t-54.5 -23t-54.5 23t-22.5 55q0 31 23 53.5t55 22.5zM436 911q31 0 53.5 -22.5t22.5 -53.5t-23 -54t-54 -23t-53.5 23t-22.5 54q0 32 22.5 54
t54.5 22z" />
    <glyph glyph-name="Zacute" unicode="&#x179;" horiz-adv-x="627" 
d="M261 771l42 174h175l-109 -174h-108zM46 0v136l339 450h-323v129h507v-140l-336 -446h345v-129h-532z" />
    <glyph glyph-name="zacute" unicode="&#x17a;" horiz-adv-x="514" 
d="M35 0v110l250 294h-237v119h421v-112l-245 -292h254v-119h-443zM208 587l42 166h175l-109 -166h-108z" />
    <glyph glyph-name="Zdotaccent" unicode="&#x17b;" horiz-adv-x="627" 
d="M320 921q32 0 55.5 -23.5t23.5 -55.5q0 -33 -24 -57t-56 -24q-33 0 -56.5 24t-23.5 57t23.5 56t57.5 23zM46 0v136l339 450h-323v129h507v-140l-336 -446h345v-129h-532z" />
    <glyph glyph-name="zdotaccent" unicode="&#x17c;" horiz-adv-x="514" 
d="M35 0v110l250 294h-237v119h421v-112l-245 -292h254v-119h-443zM268 755q32 0 55.5 -23.5t23.5 -55.5q0 -33 -24 -57t-56 -24q-33 0 -56.5 24t-23.5 57t23.5 56t57.5 23z" />
    <glyph glyph-name="Zcaron" unicode="&#x17d;" horiz-adv-x="627" 
d="M261 775l-110 170h106l63 -71l62 71h103l-110 -170h-114zM46 0v136l339 450h-323v129h507v-140l-336 -446h345v-129h-532z" />
    <glyph glyph-name="zcaron" unicode="&#x17e;" horiz-adv-x="514" 
d="M35 0v110l250 294h-237v119h421v-112l-245 -292h254v-119h-443zM215 587l-110 166h106l63 -71l62 71h103l-110 -166h-114z" />
    <glyph glyph-name="uni018F" unicode="&#x18f;" horiz-adv-x="804" 
d="M241 490l-147 48q43 89 124 138.5t185 49.5q155 0 253 -102.5t98 -263.5q0 -164 -98.5 -267.5t-255.5 -103.5q-154 0 -252 102t-98 261q0 23 3 65h530q-12 85 -60 132.5t-121 47.5q-111 0 -161 -107zM583 298h-362q12 -85 60 -132.5t122 -47.5q75 0 121.5 46t58.5 134z
" />
    <glyph glyph-name="florin" unicode="&#x192;" horiz-adv-x="457" 
d="M55 300v114h94l16 135q10 90 53 133t122 43q64 0 118 -26l-27 -106q-27 17 -56 17q-56 0 -63 -65l-15 -131h105v-114h-118l-36 -311q-19 -168 -169 -168q-57 0 -99 21l24 105q21 -11 43 -11q46 0 53 58l36 306h-81z" />
    <glyph glyph-name="uni01CD" unicode="&#x1cd;" horiz-adv-x="719" 
d="M711 0h-170l-46 136h-290l-47 -136h-150l262 715h184zM457 250l-106 314l-108 -314h214zM302 775l-109 170h105l63 -70l62 70h103l-109 -170h-115z" />
    <glyph glyph-name="uni01CE" unicode="&#x1ce;" horiz-adv-x="562" 
d="M511 0h-148q-7 19 -14 62q-55 -73 -149 -73q-74 0 -118.5 40.5t-44.5 107.5q0 90 75 134.5t231 45.5v14q0 43 -20 62.5t-64 19.5q-73 0 -148 -51l-65 98q98 76 235 76q121 0 176 -65q40 -48 40 -143v-237q0 -48 14 -85v-6zM344 179v46q-83 -2 -120 -19.5t-37 -54.5
q0 -25 16.5 -39t45.5 -14q43 0 69 22.5t26 58.5zM224 587l-110 166h106l63 -71l62 71h103l-110 -166h-114z" />
    <glyph glyph-name="uni01CF" unicode="&#x1cf;" horiz-adv-x="334" 
d="M87 0v715h160v-715h-160zM110 775l-110 170h106l62 -70l62 70h104l-110 -170h-114z" />
    <glyph glyph-name="uni01D0" unicode="&#x1d0;" horiz-adv-x="301" 
d="M74 0v523h153v-523h-153zM93 587l-110 166h106l63 -71l62 71h103l-110 -166h-114z" />
    <glyph glyph-name="uni01D1" unicode="&#x1d1;" horiz-adv-x="794" 
d="M401 726q150 0 246.5 -103t96.5 -263q0 -164 -97 -267.5t-252 -103.5q-153 0 -249 102t-96 265q0 162 98.5 266t252.5 104zM399 597q-86 0 -134 -63t-48 -177q0 -112 48 -175.5t133 -63.5t132 63t47 176q0 111 -48 175.5t-130 64.5zM340 775l-110 170h106l62 -70l62 70
h104l-110 -170h-114z" />
    <glyph glyph-name="uni01D2" unicode="&#x1d2;" horiz-adv-x="615" 
d="M311 536q115 0 189.5 -77t74.5 -195q0 -121 -75 -198t-193 -77t-192.5 75.5t-74.5 194.5q0 122 75.5 199.5t195.5 77.5zM310 417q-114 0 -114 -155q0 -74 29 -114t82 -40q54 0 83 40t29 115q0 74 -28 114t-81 40zM251 587l-110 166h106l63 -71l62 71h103l-110 -166h-114z
" />
    <glyph glyph-name="uni01D3" unicode="&#x1d3;" horiz-adv-x="738" 
d="M662 715v-429q0 -145 -75 -221t-217 -76q-143 0 -218.5 75t-75.5 218v433h160v-425q0 -90 32 -130.5t103 -40.5q73 0 106 42.5t33 134.5v419h152zM312 775l-110 170h106l62 -70l62 70h104l-110 -170h-114z" />
    <glyph glyph-name="uni01D4" unicode="&#x1d4;" horiz-adv-x="607" 
d="M384 0v80q-49 -91 -156 -91q-77 0 -119.5 52t-42.5 146v336h153v-318q0 -96 71 -96q44 0 69 28.5t25 78.5v307h153v-523h-153zM245 587l-110 166h106l63 -71l62 71h103l-110 -166h-114z" />
    <glyph glyph-name="Gcaron" unicode="&#x1e6;" horiz-adv-x="786" 
d="M630 0l-28 105q-42 -61 -94.5 -88.5t-126.5 -27.5q-148 0 -239.5 101t-91.5 264q0 164 96.5 268t250.5 104q133 0 217 -75q43 -39 77 -115l-146 -58q-24 64 -59 91.5t-92 27.5q-84 0 -130.5 -63.5t-46.5 -178.5q0 -113 47.5 -175t135.5 -62q72 0 117.5 41.5t45.5 106.5v6
h-151v119h307v-391h-89zM336 775l-110 170h106l62 -70l62 70h104l-110 -170h-114z" />
    <glyph glyph-name="gcaron" unicode="&#x1e7;" horiz-adv-x="576" 
d="M547 418h-67q12 -35 12 -62q0 -74 -60 -120t-158 -46q-50 0 -95 14q-21 -15 -21 -36t15.5 -29.5t55.5 -8.5h132q91 0 139.5 -37.5t48.5 -107.5q0 -88 -74 -136.5t-209 -48.5q-117 0 -182.5 35t-65.5 99q0 63 85 100q-59 35 -59 95q0 68 74 106q-63 50 -63 124
q0 77 61 127t155 50q69 0 135 -35l141 32v-115zM339 7h-121q-26 0 -35 2q-32 -22 -32 -51q0 -59 119 -59q141 0 141 66q0 42 -72 42zM274 440q-38 0 -59.5 -21.5t-21.5 -59.5t21.5 -60t59.5 -22q37 0 58.5 22t21.5 60t-21.5 59.5t-58.5 21.5zM221 587l-110 166h106l63 -71
l62 71h103l-110 -166h-114z" />
    <glyph glyph-name="uni01F4" unicode="&#x1f4;" horiz-adv-x="786" 
d="M630 0l-28 105q-42 -61 -94.5 -88.5t-126.5 -27.5q-148 0 -239.5 101t-91.5 264q0 164 96.5 268t250.5 104q133 0 217 -75q43 -39 77 -115l-146 -58q-24 64 -59 91.5t-92 27.5q-84 0 -130.5 -63.5t-46.5 -178.5q0 -113 47.5 -175t135.5 -62q72 0 117.5 41.5t45.5 106.5v6
h-151v119h307v-391h-89zM337 771l42 174h175l-109 -174h-108z" />
    <glyph glyph-name="uni01F5" unicode="&#x1f5;" horiz-adv-x="576" 
d="M547 418h-67q12 -35 12 -62q0 -74 -60 -120t-158 -46q-50 0 -95 14q-21 -15 -21 -36t15.5 -29.5t55.5 -8.5h132q91 0 139.5 -37.5t48.5 -107.5q0 -88 -74 -136.5t-209 -48.5q-117 0 -182.5 35t-65.5 99q0 63 85 100q-59 35 -59 95q0 68 74 106q-63 50 -63 124
q0 77 61 127t155 50q69 0 135 -35l141 32v-115zM339 7h-121q-26 0 -35 2q-32 -22 -32 -51q0 -59 119 -59q141 0 141 66q0 42 -72 42zM274 440q-38 0 -59.5 -21.5t-21.5 -59.5t21.5 -60t59.5 -22q37 0 58.5 22t21.5 60t-21.5 59.5t-58.5 21.5zM226 587l42 166h175l-109 -166
h-108z" />
    <glyph glyph-name="Aringacute" unicode="&#x1fa;" horiz-adv-x="719" 
d="M362 924q46 0 79 -32t33 -77q0 -46 -33 -77.5t-81 -31.5t-81 31.5t-33 77.5q0 47 33.5 78t82.5 31zM360 861q-20 0 -32.5 -12.5t-12.5 -32.5t13 -33.5t32 -13.5t32 13t13 33t-13 33t-32 13zM711 0h-170l-46 136h-290l-47 -136h-150l262 715h184zM457 250l-106 314
l-108 -314h214zM304 942l42 174h175l-109 -174h-108z" />
    <glyph glyph-name="AEacute" unicode="&#x1fc;" horiz-adv-x="1031" 
d="M474 136h-230l-71 -136h-165l394 715h567v-129h-338v-161h256v-119h-256v-177h354v-129h-511v136zM474 250v323l-170 -323h170zM441 771l42 174h175l-109 -174h-108z" />
    <glyph glyph-name="aeacute" unicode="&#x1fd;" horiz-adv-x="892" 
d="M111 362l-65 98q98 76 233 76q119 0 167 -70q67 70 166 70q112 0 177 -73t65 -198v-42h-347q8 -62 35 -90.5t79 -28.5q36 0 59.5 14.5t43.5 47.5l119 -59q-73 -118 -223 -118q-135 0 -212 95q-41 -50 -88.5 -72.5t-113.5 -22.5q-79 0 -124 39.5t-45 108.5
q0 90 77.5 134.5t238.5 45.5v14q0 43 -22 62.5t-70 19.5q-73 0 -150 -51zM510 316h195q-6 57 -28 82t-66 25q-43 0 -66.5 -25.5t-34.5 -81.5zM354 179v46q-88 -2 -127.5 -19.5t-39.5 -54.5q0 -25 17 -39t46 -14q46 0 75 22.5t29 58.5zM388 587l42 166h175l-109 -166h-108z
" />
    <glyph glyph-name="Oslashacute" unicode="&#x1fe;" horiz-adv-x="794" 
d="M16 0l107 119q-73 97 -73 237q0 161 98 265.5t250 104.5q118 0 210 -68l51 57h119l-107 -119q73 -98 73 -236q0 -164 -97 -267.5t-252 -103.5q-117 0 -209 67l-50 -56h-120zM232 240l281 313q-48 44 -116 44q-85 0 -134 -63.5t-49 -174.5q0 -71 18 -119zM562 475
l-281 -313q47 -44 116 -44q87 0 135 62.5t48 175.5q0 66 -18 119zM341 771l42 174h175l-109 -174h-108z" />
    <glyph glyph-name="oslashacute" unicode="&#x1ff;" horiz-adv-x="615" 
d="M11 0l82 88q-53 73 -53 171q0 122 75 199.5t193 77.5q89 0 158 -47l32 34h103l-81 -87q55 -73 55 -172q0 -122 -75 -198.5t-193 -76.5q-89 0 -159 47l-33 -36h-104zM198 206l181 190q-28 25 -71 25q-55 0 -85 -40.5t-30 -115.5q0 -30 5 -59zM416 324l-180 -194
q29 -26 71 -26q55 0 85 41t30 116q0 27 -6 63zM249 587l42 166h175l-109 -166h-108z" />
    <glyph glyph-name="Scommaaccent" unicode="&#x218;" horiz-adv-x="651" 
d="M255 -271v57q58 8 63 46q-67 8 -67 64q0 28 19.5 46t49.5 18q37 0 58 -25t21 -69q0 -71 -54 -110q-32 -23 -90 -27zM24 160l138 59q22 -55 60 -79.5t98 -24.5t94 23.5t34 64.5q0 36 -26 54.5t-104 36.5q-138 32 -181 59q-81 52 -81 153q0 102 68 160.5t186 58.5
q195 0 276 -148l-129 -61q-26 46 -59 64.5t-87 18.5q-49 0 -75.5 -20t-26.5 -57q0 -34 27 -52t97 -32q134 -28 188 -61q83 -55 83 -164q0 -108 -73 -166t-209 -58q-112 0 -184 41t-114 130z" />
    <glyph glyph-name="scommaaccent" unicode="&#x219;" horiz-adv-x="523" 
d="M468 474l-70 -97q-61 46 -138 46q-67 0 -67 -41q0 -23 19.5 -33.5t83.5 -22.5q82 -14 121 -38q68 -40 68 -126q0 -82 -60 -127.5t-170 -45.5q-76 0 -130 18t-101 58l71 99q68 -62 156 -62q86 0 86 50q0 22 -19 32q-17 9 -92 23q-92 17 -134 56.5t-42 107.5q0 77 56.5 121
t156.5 44q120 0 205 -62zM189 -271v57q28 3 44.5 15.5t18.5 31.5q-66 7 -66 63q0 28 19.5 46t48.5 18q36 0 57.5 -25t21.5 -66q0 -61 -37 -98q-35 -36 -107 -42z" />
    <glyph glyph-name="uni021A" unicode="&#x21a;" horiz-adv-x="596" 
d="M227 -271v57q28 3 44.5 15.5t18.5 31.5q-66 7 -66 63q0 28 19.5 46t48.5 18q36 0 57.5 -25t21.5 -66q0 -61 -37 -98q-35 -36 -107 -42zM218 0v586h-202v129h564v-129h-202v-586h-160z" />
    <glyph glyph-name="uni021B" unicode="&#x21b;" horiz-adv-x="408" 
d="M155 -271v57q28 3 44.5 15.5t18.5 31.5q-66 7 -66 63q0 28 19.5 46t48.5 18q36 0 57.5 -25t21.5 -66q0 -61 -37 -98q-35 -36 -107 -42zM27 404v119h72v105l153 53v-158h110v-119h-110v-231q0 -57 44 -57q25 0 53 16l37 -102q-53 -41 -125 -41q-77 0 -119.5 43t-42.5 122
v250h-72z" />
    <glyph glyph-name="uni0237" unicode="&#x237;" horiz-adv-x="309" 
d="M235 523v-538q0 -85 -41.5 -130.5t-119.5 -45.5q-56 0 -102 25l28 107q21 -9 37 -9q45 0 45 57v534h153z" />
    <glyph glyph-name="uni0259" unicode="&#x259;" horiz-adv-x="586" 
d="M169 359l-119 59q73 118 228 118q121 0 196 -74.5t75 -193.5q0 -123 -74 -201t-190 -78q-115 0 -180 72.5t-65 199.5v41h355q-9 60 -32 84q-31 35 -87 35q-37 0 -61.5 -14t-45.5 -48zM392 209h-203q6 -56 28.5 -81.5t68.5 -25.5q45 0 70 25.5t36 81.5z" />
    <glyph glyph-name="afii57929" unicode="&#x2bc;" horiz-adv-x="292" 
d="M73 438v58q67 20 73 99l-8 1q-39 3 -60.5 23.5t-21.5 55.5t23.5 57.5t60.5 22.5q44 0 69.5 -33t25.5 -88q0 -90 -48 -144q-22 -24 -47 -35.5t-67 -16.5z" />
    <glyph glyph-name="circumflex" unicode="&#x2c6;" 
d="M83 587l110 166h115l109 -166h-105l-63 67l-62 -67h-104z" />
    <glyph glyph-name="caron" unicode="&#x2c7;" 
d="M193 587l-110 166h106l63 -71l62 71h103l-110 -166h-114z" />
    <glyph glyph-name="uni02C9" unicode="&#x2c9;" 
d="M121 626v106h259v-106h-259z" />
    <glyph glyph-name="breve" unicode="&#x2d8;" 
d="M86 748h100q6 -62 64 -62q59 0 65 62h100q-9 -160 -165 -160q-157 0 -164 160z" />
    <glyph glyph-name="dotaccent" unicode="&#x2d9;" 
d="M251 755q32 0 55.5 -23.5t23.5 -55.5q0 -33 -24 -57t-56 -24q-33 0 -56.5 24t-23.5 57t23.5 56t57.5 23z" />
    <glyph glyph-name="ring" unicode="&#x2da;" 
d="M252 787q47 0 79.5 -31t32.5 -77t-32.5 -77.5t-80.5 -31.5q-49 0 -81.5 31t-32.5 78q0 46 32.5 77t82.5 31zM251 724q-20 0 -32.5 -13t-12.5 -33t13 -32.5t32 -12.5t31.5 13t12.5 32q0 20 -12.5 33t-31.5 13z" />
    <glyph glyph-name="ogonek" unicode="&#x2db;" 
d="M308 -118l41 -54q-39 -34 -95 -34q-49 0 -78.5 24t-29.5 65q0 65 79 117h77q-68 -56 -68 -104q0 -31 33 -31q20 0 41 17z" />
    <glyph glyph-name="tilde" unicode="&#x2dc;" 
d="M339 750l90 -6q-20 -142 -116 -142q-33 0 -75 23q-33 17 -47 17q-26 0 -35 -38l-84 6q16 142 114 142q33 0 76 -24q28 -16 45 -16q24 0 32 38z" />
    <glyph glyph-name="hungarumlaut" unicode="&#x2dd;" 
d="M91 587l28 166h153l-77 -166h-104zM283 587l28 166h152l-76 -166h-104z" />
    <glyph glyph-name="tonos" unicode="&#x384;" 
d="M187 587l-18 178h163l-19 -178h-126z" />
    <glyph glyph-name="dieresistonos" unicode="&#x385;" 
d="M97 740q29 0 49.5 -21t20.5 -51q0 -29 -21 -50t-50 -21t-50.5 21t-21.5 50q0 30 21.5 51t51.5 21zM199 587l-18 178h138l-19 -178h-101zM404 740q29 0 50.5 -21.5t21.5 -50.5t-21.5 -50t-50.5 -21t-50 21t-21 50q0 30 20.5 51t50.5 21z" />
    <glyph glyph-name="Alphatonos" unicode="&#x386;" horiz-adv-x="719" 
d="M711 0h-170l-46 136h-290l-47 -136h-150l261 715h184zM457 250l-106 314l-108 -314h214zM11 500l-18 215h163l-19 -215h-126z" />
    <glyph glyph-name="uni0387" unicode="&#x387;" horiz-adv-x="301" 
d="M152 421q38 0 65.5 -28t27.5 -67q0 -38 -27.5 -65.5t-66.5 -27.5t-66.5 27t-27.5 66q0 40 27.5 67.5t67.5 27.5z" />
    <glyph glyph-name="Epsilontonos" unicode="&#x388;" horiz-adv-x="781" 
d="M217 0v715h502v-129h-344v-161h262v-119h-262v-177h360v-129h-518zM18 500l-18 215h163l-19 -215h-126z" />
    <glyph glyph-name="Etatonos" unicode="&#x389;" horiz-adv-x="891" 
d="M217 0v715h160v-290h272v290h160v-715h-160v296h-272v-296h-160zM18 500l-18 215h163l-19 -215h-126z" />
    <glyph glyph-name="Iotatonos" unicode="&#x38a;" horiz-adv-x="464" 
d="M217 0v715h160v-715h-160zM18 500l-18 215h163l-19 -215h-126z" />
    <glyph glyph-name="Omicrontonos" unicode="&#x38c;" horiz-adv-x="914" 
d="M521 726q150 0 246.5 -103t96.5 -263q0 -164 -97 -267.5t-252 -103.5q-153 0 -249 102t-96 265q0 162 98.5 266t252.5 104zM519 597q-86 0 -134 -63t-48 -177q0 -112 48 -175.5t133 -63.5t132 63t47 176q0 111 -48 175.5t-130 64.5zM18 500l-18 215h163l-19 -215h-126z
" />
    <glyph glyph-name="Upsilontonos" unicode="&#x38e;" horiz-adv-x="815" 
d="M437 0v295l-248 420h179l154 -283l151 283h162l-238 -419v-296h-160zM18 500l-18 215h163l-19 -215h-126z" />
    <glyph glyph-name="Omegatonos" unicode="&#x38f;" horiz-adv-x="950" 
d="M150 0v113h123q-103 93 -103 253q0 161 100 260.5t262 99.5t262 -99.5t100 -260.5q0 -160 -103 -253h123v-113h-319v113q132 45 132 237q0 121 -50 184t-145 63t-145 -63t-50 -183q0 -193 132 -238v-113h-319zM18 500l-18 215h163l-19 -215h-126z" />
    <glyph glyph-name="iotadieresistonos" unicode="&#x390;" horiz-adv-x="322" 
d="M73 523h153v-328q0 -47 8.5 -61.5t36.5 -14.5q11 0 35 4v-123q-52 -5 -84 -5q-94 0 -127 59q-22 37 -22 129v340zM-19 740q29 0 49.5 -21t20.5 -51q0 -29 -21 -50t-50 -21t-50.5 21t-21.5 50q0 30 21.5 51t51.5 21zM103 587l-18 178h138l-19 -178h-101zM328 740
q29 0 50.5 -21.5t21.5 -50.5t-21.5 -50t-50.5 -21t-50 21t-21 50q0 30 20.5 51t50.5 21z" />
    <glyph glyph-name="Alpha" unicode="&#x391;" horiz-adv-x="719" 
d="M711 0h-170l-46 136h-290l-47 -136h-150l262 715h184zM457 250l-106 314l-108 -314h214z" />
    <glyph glyph-name="Beta" unicode="&#x392;" horiz-adv-x="705" 
d="M82 0v715h323q114 0 174 -48.5t60 -140.5q0 -58 -23 -93.5t-78 -60.5q68 -23 98 -63t30 -108q0 -98 -64 -149.5t-186 -51.5h-334zM239 122h165q50 0 77 25t27 71q0 94 -110 94h-159v-190zM239 426h157q88 0 88 84q0 83 -95 83h-150v-167z" />
    <glyph glyph-name="Gamma" unicode="&#x393;" horiz-adv-x="550" 
d="M82 0v715h448v-129h-288v-586h-160z" />
    <glyph glyph-name="uni0394" unicode="&#x394;" horiz-adv-x="725" 
d="M14 0l255 715h191l251 -715h-697zM201 119h303l-150 456z" />
    <glyph glyph-name="Epsilon" unicode="&#x395;" horiz-adv-x="646" 
d="M82 0v715h502v-129h-344v-161h262v-119h-262v-177h360v-129h-518z" />
    <glyph glyph-name="Zeta" unicode="&#x396;" horiz-adv-x="627" 
d="M46 0v136l339 450h-323v129h507v-140l-336 -446h345v-129h-532z" />
    <glyph glyph-name="Eta" unicode="&#x397;" horiz-adv-x="756" 
d="M82 0v715h160v-290h272v290h160v-715h-160v296h-272v-296h-160z" />
    <glyph glyph-name="Theta" unicode="&#x398;" horiz-adv-x="804" 
d="M275 303v119h253v-119h-253zM406 726q152 0 250 -103t98 -263q0 -164 -98.5 -267.5t-255.5 -103.5q-155 0 -252.5 102t-97.5 265q0 162 100 266t256 104zM405 597q-89 0 -138.5 -63t-49.5 -177q0 -112 49.5 -175.5t136.5 -63.5t135.5 63t48.5 176q0 111 -49 175.5
t-133 64.5z" />
    <glyph glyph-name="Iota" unicode="&#x399;" horiz-adv-x="334" 
d="M87 0v715h160v-715h-160z" />
    <glyph glyph-name="Kappa" unicode="&#x39a;" horiz-adv-x="703" 
d="M82 0v715h160v-308l243 308h178l-246 -303l263 -412h-179l-190 294l-69 -84v-210h-160z" />
    <glyph glyph-name="Lambda" unicode="&#x39b;" horiz-adv-x="689" 
d="M18 0l248 715h163l243 -715h-169l-167 533l-169 -533h-149z" />
    <glyph glyph-name="Mu" unicode="&#x39c;" horiz-adv-x="947" 
d="M82 715h230l162 -490l162 490h229v-715h-157v538l-182 -538h-118l-183 539v-539h-143v715z" />
    <glyph glyph-name="Nu" unicode="&#x39d;" horiz-adv-x="757" 
d="M82 0v715h182l265 -485v485h146v-715h-175l-272 496v-496h-146z" />
    <glyph glyph-name="Xi" unicode="&#x39e;" horiz-adv-x="630" 
d="M56 0v129h518v-129h-518zM56 586v129h518v-129h-518zM116 303v123h398v-123h-398z" />
    <glyph glyph-name="Omicron" unicode="&#x39f;" horiz-adv-x="794" 
d="M401 726q150 0 246.5 -103t96.5 -263q0 -164 -97 -267.5t-252 -103.5q-153 0 -249 102t-96 265q0 162 98.5 266t252.5 104zM399 597q-86 0 -134 -63t-48 -177q0 -112 48 -175.5t133 -63.5t132 63t47 176q0 111 -48 175.5t-130 64.5z" />
    <glyph glyph-name="Pi" unicode="&#x3a0;" horiz-adv-x="743" 
d="M87 0v586h-61v129h691v-129h-60v-586h-160v586h-250v-586h-160z" />
    <glyph glyph-name="Rho" unicode="&#x3a1;" horiz-adv-x="683" 
d="M82 0v715h304q121 0 189 -61t68 -171q0 -106 -66 -165.5t-184 -59.5h-151v-258h-160zM242 381h134q54 0 82.5 27t28.5 78q0 102 -110 102h-135v-207z" />
    <glyph glyph-name="Sigma" unicode="&#x3a3;" horiz-adv-x="639" 
d="M48 0v136l197 229l-182 214v136h520v-129h-350l185 -221l-199 -236h386v-129h-557z" />
    <glyph glyph-name="Tau" unicode="&#x3a4;" horiz-adv-x="596" 
d="M218 0v586h-202v129h564v-129h-202v-586h-160z" />
    <glyph glyph-name="Upsilon" unicode="&#x3a5;" horiz-adv-x="606" 
d="M228 0v295l-248 420h179l154 -283l151 283h162l-238 -419v-296h-160z" />
    <glyph glyph-name="Phi" unicode="&#x3a6;" horiz-adv-x="919" 
d="M388 -27v71q-154 17 -246 102.5t-92 210.5q0 126 92 211.5t246 102.5v71h143v-71q154 -17 246 -102.5t92 -211.5q0 -125 -92 -210.5t-246 -102.5v-71h-143zM531 553v-391q84 14 127.5 64t43.5 131q0 82 -43.5 132t-127.5 64zM388 162v391q-84 -14 -127.5 -64t-43.5 -131
q0 -165 171 -196z" />
    <glyph glyph-name="Chi" unicode="&#x3a7;" horiz-adv-x="718" 
d="M24 0l241 368l-223 347h190l133 -228l132 228h171l-216 -342l242 -373h-191l-153 257l-154 -257h-172z" />
    <glyph glyph-name="Psi" unicode="&#x3a8;" horiz-adv-x="942" 
d="M885 715v-260q0 -144 -55 -213q-71 -88 -232 -88h-49v-154h-156v154h-54q-156 0 -228 90q-54 68 -54 211v260h160v-270q0 -94 32 -133t108 -39h36v442h156v-442h36q76 0 108 39t32 133v270h160z" />
    <glyph glyph-name="uni03A9" unicode="&#x3a9;" horiz-adv-x="836" 
d="M36 0v113h123q-103 93 -103 253q0 161 100 260.5t262 99.5t262 -99.5t100 -260.5q0 -160 -103 -253h123v-113h-319v113q132 45 132 237q0 121 -50 184t-145 63t-145 -63t-50 -183q0 -193 132 -238v-113h-319z" />
    <glyph glyph-name="Iotadieresis" unicode="&#x3aa;" horiz-adv-x="334" 
d="M65 913q31 0 53.5 -22.5t22.5 -53.5q0 -32 -22.5 -55t-54.5 -23q-31 0 -54 23t-23 55q0 31 23 53.5t55 22.5zM271 912q31 0 53.5 -22.5t22.5 -53.5q0 -32 -22.5 -54.5t-54.5 -22.5q-31 0 -53.5 23t-22.5 54q0 32 22.5 54t54.5 22zM87 0v715h160v-715h-160z" />
    <glyph glyph-name="Upsilondieresis" unicode="&#x3ab;" horiz-adv-x="646" 
d="M247 0v295l-248 420h179l154 -283l151 283h162l-238 -419v-296h-160zM230 912q31 0 53.5 -22.5t22.5 -53.5q0 -32 -22.5 -55t-54.5 -23t-54.5 23t-22.5 55q0 31 23 53.5t55 22.5zM436 911q31 0 53.5 -22.5t22.5 -53.5t-23 -54t-54 -23t-53.5 23t-22.5 54q0 32 22.5 54
t54.5 22z" />
    <glyph glyph-name="alphatonos" unicode="&#x3ac;" horiz-adv-x="613" 
d="M543 0h-153v83q-49 -94 -150 -94q-93 0 -146.5 73t-53.5 199t55 200.5t148 74.5q99 0 147 -88v75h153v-523zM293 417q-97 0 -97 -156q0 -150 94 -150q50 0 77.5 39.5t27.5 109.5q0 74 -27 115.5t-75 41.5zM249 587l-18 178h163l-19 -178h-126z" />
    <glyph glyph-name="epsilontonos" unicode="&#x3ad;" horiz-adv-x="563" 
d="M531 434l-98 -82q-29 35 -55.5 49t-64.5 14q-95 0 -112 -103h199v-95h-199q13 -109 119 -109q36 0 62 13t54 46l107 -69q-41 -57 -96 -83t-134 -26q-129 0 -201 71t-72 199t71 202.5t195 74.5q147 0 225 -102zM236 587l-18 178h162l-18 -178h-126z" />
    <glyph glyph-name="etatonos" unicode="&#x3ae;" horiz-adv-x="618" 
d="M70 0v523h153v-82q52 95 162 95q79 0 122 -52t43 -146v-520h-153v500q0 99 -79 99q-45 0 -70 -28.5t-25 -80.5v-308h-153zM246 587l-18 178h162l-18 -178h-126z" />
    <glyph glyph-name="iotatonos" unicode="&#x3af;" horiz-adv-x="322" 
d="M73 523h153v-328q0 -47 8.5 -61.5t36.5 -14.5q11 0 35 4v-123q-52 -5 -84 -5q-94 0 -127 59q-22 37 -22 129v340zM88 587l-18 178h163l-19 -178h-126z" />
    <glyph glyph-name="upsilondieresistonos" unicode="&#x3b0;" horiz-adv-x="609" 
d="M72 523h153v-308q0 -107 79 -107q80 0 80 107v308h153v-302q0 -120 -56 -176t-177 -56q-120 0 -176 56t-56 176v302zM132 740q29 0 49.5 -21t20.5 -51q0 -29 -21 -50t-50 -21t-50.5 21t-21.5 50q0 30 21.5 51t51.5 21zM254 587l-18 178h138l-19 -178h-101zM479 740
q29 0 50.5 -21.5t21.5 -50.5t-21.5 -50t-50.5 -21t-50 21t-21 50q0 30 20.5 51t50.5 21z" />
    <glyph glyph-name="alpha" unicode="&#x3b1;" horiz-adv-x="613" 
d="M543 0h-153v83q-49 -94 -150 -94q-93 0 -146.5 73t-53.5 199t55 200.5t148 74.5q99 0 147 -88v75h153v-523zM293 417q-97 0 -97 -156q0 -150 94 -150q50 0 77.5 39.5t27.5 109.5q0 74 -27 115.5t-75 41.5z" />
    <glyph glyph-name="beta" unicode="&#x3b2;" horiz-adv-x="640" 
d="M74 -182v705q0 243 250 243q106 0 166.5 -48t60.5 -133q0 -101 -101 -139q150 -44 150 -219q0 -112 -55 -175t-153 -63q-54 0 -92 18v114q25 -13 55 -13q43 0 66 33t23 94q0 104 -60 134q-27 13 -77 13v106q52 2 74 22t22 64q0 84 -85 84q-48 0 -69.5 -29t-21.5 -96v-715
h-153z" />
    <glyph glyph-name="gamma" unicode="&#x3b3;" horiz-adv-x="550" 
d="M356 -182h-153v182l-197 523h164l115 -337l109 337h151l-189 -523v-182z" />
    <glyph glyph-name="delta" unicode="&#x3b4;" horiz-adv-x="609" 
d="M513 704l-67 -94q-55 43 -122 43q-68 0 -68 -50q0 -26 18 -41q14 -12 77 -32q73 -23 109.5 -44t60.5 -53q48 -61 48 -163q0 -125 -73.5 -203t-191.5 -78q-116 0 -190 75t-74 193q0 151 128 231q-55 42 -55 116t54.5 118t147.5 44q112 0 198 -62zM305 417
q-52 0 -80.5 -39.5t-28.5 -113.5q0 -76 28 -116t80 -40t80.5 40.5t28.5 114.5q0 75 -27.5 114.5t-80.5 39.5z" />
    <glyph glyph-name="epsilon" unicode="&#x3b5;" horiz-adv-x="563" 
d="M531 434l-98 -82q-29 35 -55.5 49t-64.5 14q-95 0 -112 -103h199v-95h-199q13 -109 119 -109q36 0 62 13t54 46l107 -69q-41 -57 -96 -83t-134 -26q-129 0 -201 71t-72 199t71 202.5t195 74.5q147 0 225 -102z" />
    <glyph glyph-name="zeta" unicode="&#x3b6;" horiz-adv-x="464" 
d="M79 634v119h359v-119q-87 -88 -122 -131q-114 -138 -114 -268q0 -65 21.5 -93.5t77.5 -38.5q52 -9 76 -20t44 -37q38 -49 38 -120q0 -51 -26 -119h-135q28 74 28 109q0 43 -24 61q-13 10 -71 18q-48 5 -78.5 19t-55.5 42q-51 57 -51 163q0 151 140 295q46 47 136 120
h-243z" />
    <glyph glyph-name="eta" unicode="&#x3b7;" horiz-adv-x="618" 
d="M70 0v523h153v-82q52 95 162 95q79 0 122 -52t43 -146v-520h-153v500q0 99 -79 99q-45 0 -70 -28.5t-25 -80.5v-308h-153z" />
    <glyph glyph-name="theta" unicode="&#x3b8;" horiz-adv-x="626" 
d="M315 766q118 0 193 -109t75 -281q0 -171 -75 -279t-194 -108t-195 109.5t-76 281.5q0 173 75 279.5t197 106.5zM200 442h226q-15 205 -113 205t-113 -205zM427 338h-229q4 -112 34 -171t82 -59q104 0 113 230z" />
    <glyph glyph-name="iota" unicode="&#x3b9;" horiz-adv-x="322" 
d="M73 523h153v-328q0 -47 8.5 -61.5t36.5 -14.5q11 0 35 4v-123q-52 -5 -84 -5q-94 0 -127 59q-22 37 -22 129v340z" />
    <glyph glyph-name="kappa" unicode="&#x3ba;" horiz-adv-x="589" 
d="M70 0v523h153v-217l178 217h166l-175 -204l192 -319h-169l-126 210l-66 -75v-135h-153z" />
    <glyph glyph-name="lambda" unicode="&#x3bb;" horiz-adv-x="582" 
d="M13 0l209 540l-73 213h156l262 -753h-161l-120 360l-122 -360h-151z" />
    <glyph glyph-name="uni03BC" unicode="&#x3bc;" horiz-adv-x="623" 
d="M74 -182v705h153v-311q0 -50 18 -72.5t59 -22.5q46 0 71 27.5t25 77.5v301h153v-523h-153v80q-49 -90 -140 -90q-19 0 -33 5v-177h-153z" />
    <glyph glyph-name="nu" unicode="&#x3bd;" horiz-adv-x="550" 
d="M191 0l-181 523h164l110 -358l108 358h148l-179 -523h-170z" />
    <glyph glyph-name="xi" unicode="&#x3be;" horiz-adv-x="488" 
d="M62 634v119h398v-119h-64q-75 0 -106 -20q-48 -28 -48 -80q0 -49 36 -74q23 -16 71 -16h83v-119h-83q-74 0 -104 -22q-43 -32 -43 -101q0 -55 33 -79q18 -12 71 -24q50 -12 73.5 -23.5t42.5 -33.5q36 -43 36 -113q0 -49 -26 -122h-134q27 75 27 110q0 39 -22 56
q-17 14 -65 19q-100 13 -146 59.5t-46 136.5q0 76 36 124t113 77q-53 21 -75 39q-37 30 -37 77q0 41 34 75t96 54h-151z" />
    <glyph glyph-name="omicron" unicode="&#x3bf;" horiz-adv-x="615" 
d="M311 536q115 0 189.5 -77t74.5 -195q0 -121 -75 -198t-193 -77t-192.5 75.5t-74.5 194.5q0 122 75.5 199.5t195.5 77.5zM310 417q-114 0 -114 -155q0 -74 29 -114t82 -40q54 0 83 40t29 115q0 74 -28 114t-81 40z" />
    <glyph glyph-name="pi" unicode="&#x3c0;" horiz-adv-x="607" 
d="M78 0v404h-58v119h567v-119h-59v-404h-153v404h-151v-404h-146z" />
    <glyph glyph-name="rho" unicode="&#x3c1;" horiz-adv-x="617" 
d="M273 -182h-152q-75 236 -75 416q0 148 78 228q72 74 189 74t190.5 -76t73.5 -197q0 -123 -71 -198.5t-186 -75.5q-62 0 -107 32q29 -115 60 -203zM314 417q-112 0 -112 -154q0 -74 28.5 -114.5t80.5 -40.5q53 0 81.5 40t28.5 115q0 154 -107 154z" />
    <glyph glyph-name="uni03C2" unicode="&#x3c2;" horiz-adv-x="511" 
d="M438 -193h-133q25 74 25 112q0 40 -18 58q-12 10 -58 16q-65 9 -95.5 21t-56.5 38q-62 64 -62 194q0 132 66.5 211t176.5 79q143 0 208 -140l-127 -60q-17 44 -33 60t-44 16q-91 0 -91 -152q0 -88 32 -125q11 -13 25.5 -18.5t45.5 -10.5q54 -8 80 -19.5t46 -35.5
q38 -46 38 -122q0 -54 -25 -122z" />
    <glyph glyph-name="sigma" unicode="&#x3c3;" horiz-adv-x="615" 
d="M595 523v-123l-106 7q38 -36 54 -73.5t16 -90.5q0 -113 -72 -183.5t-187 -70.5q-118 0 -189 74.5t-71 198.5t72.5 199t191.5 75q36 0 87 -6q55 -7 81 -7h123zM302 417q-52 0 -79 -39.5t-27 -114.5q0 -74 27.5 -114.5t76.5 -40.5t76 41t27 115q0 73 -26.5 113t-74.5 40z
" />
    <glyph glyph-name="tau" unicode="&#x3c4;" horiz-adv-x="471" 
d="M159 0v404h-144v119h441v-119h-144v-404h-153z" />
    <glyph glyph-name="upsilon" unicode="&#x3c5;" horiz-adv-x="609" 
d="M72 523h153v-308q0 -107 79 -107q80 0 80 107v308h153v-302q0 -120 -56 -176t-177 -56q-120 0 -176 56t-56 176v302z" />
    <glyph glyph-name="phi" unicode="&#x3c6;" horiz-adv-x="797" 
d="M326 -182v176q-83 10 -152 45q-134 71 -134 217q0 74 34.5 128t111.5 100l75 -97q-68 -45 -68 -127q0 -122 133 -153v422q50 7 83 7q136 0 235 -63q55 -34 84 -89t29 -122q0 -111 -76 -181t-216 -87v-176h-139zM465 416v-310q139 28 139 158q0 127 -139 152z" />
    <glyph glyph-name="chi" unicode="&#x3c7;" horiz-adv-x="574" 
d="M-3 -182l204 383l-173 322h167l102 -200l108 200h148l-179 -336l198 -369h-167l-127 250l-132 -250h-149z" />
    <glyph glyph-name="psi" unicode="&#x3c8;" horiz-adv-x="862" 
d="M794 523v-235q0 -135 -49 -203q-65 -88 -203 -88h-38v-179h-146v179h-40q-138 0 -201 88q-49 69 -49 203v235h153v-252q0 -85 26 -120t89 -35h22v407h146v-407h21q63 0 89.5 35t26.5 120v252h153z" />
    <glyph glyph-name="omega" unicode="&#x3c9;" horiz-adv-x="800" 
d="M191 539l96 -62q-49 -63 -70 -119t-21 -126q0 -59 21 -91.5t60 -32.5q32 0 44 29.5t12 110.5v139h134v-139q0 -81 12 -110.5t44 -29.5q39 0 60 32.5t21 91.5q0 70 -21 126t-70 119l96 62q82 -71 116.5 -140.5t34.5 -163.5q0 -115 -56.5 -180.5t-155.5 -65.5q-54 0 -88 21
t-60 71q-27 -50 -60.5 -71t-87.5 -21q-99 0 -155.5 65.5t-56.5 180.5q0 94 34.5 163.5t116.5 140.5z" />
    <glyph glyph-name="iotadieresis" unicode="&#x3ca;" horiz-adv-x="322" 
d="M73 523h153v-328q0 -47 8.5 -61.5t36.5 -14.5q11 0 35 4v-123q-52 -5 -84 -5q-94 0 -127 59q-22 37 -22 129v340zM54 755q32 0 55.5 -23.5t23.5 -56.5q0 -32 -23.5 -56t-55.5 -24q-33 0 -57 24t-24 56q0 33 24 56.5t57 23.5zM269 755q32 0 56 -23.5t24 -55.5
q0 -33 -24 -57t-57 -24q-32 0 -55.5 24t-23.5 56q0 33 23.5 56.5t56.5 23.5z" />
    <glyph glyph-name="upsilondieresis" unicode="&#x3cb;" horiz-adv-x="609" 
d="M72 523h153v-308q0 -107 79 -107q80 0 80 107v308h153v-302q0 -120 -56 -176t-177 -56q-120 0 -176 56t-56 176v302zM198 755q32 0 55.5 -23.5t23.5 -56.5q0 -32 -23.5 -56t-55.5 -24q-33 0 -57 24t-24 56q0 33 24 56.5t57 23.5zM413 755q32 0 56 -23.5t24 -55.5
q0 -33 -24 -57t-57 -24q-32 0 -55.5 24t-23.5 56q0 33 23.5 56.5t56.5 23.5z" />
    <glyph glyph-name="omicrontonos" unicode="&#x3cc;" horiz-adv-x="615" 
d="M311 536q115 0 189.5 -77t74.5 -195q0 -121 -75 -198t-193 -77t-192.5 75.5t-74.5 194.5q0 122 75.5 199.5t195.5 77.5zM310 417q-114 0 -114 -155q0 -74 29 -114t82 -40q54 0 83 40t29 115q0 74 -28 114t-81 40zM245 587l-19 178h163l-19 -178h-125z" />
    <glyph glyph-name="upsilontonos" unicode="&#x3cd;" horiz-adv-x="609" 
d="M72 523h153v-308q0 -107 79 -107q80 0 80 107v308h153v-302q0 -120 -56 -176t-177 -56q-120 0 -176 56t-56 176v302zM242 587l-19 178h163l-19 -178h-125z" />
    <glyph glyph-name="omegatonos" unicode="&#x3ce;" horiz-adv-x="800" 
d="M191 539l96 -62q-49 -63 -70 -119t-21 -126q0 -59 21 -91.5t60 -32.5q32 0 44 29.5t12 110.5v139h134v-139q0 -81 12 -110.5t44 -29.5q39 0 60 32.5t21 91.5q0 70 -21 126t-70 119l96 62q82 -71 116.5 -140.5t34.5 -163.5q0 -115 -56.5 -180.5t-155.5 -65.5q-54 0 -88 21
t-60 71q-27 -50 -60.5 -71t-87.5 -21q-99 0 -155.5 65.5t-56.5 180.5q0 94 34.5 163.5t116.5 140.5zM337 587l-18 178h162l-18 -178h-126z" />
    <glyph glyph-name="phi1" unicode="&#x3d5;" horiz-adv-x="797" 
d="M326 529v229h139v-225q78 -12 128 -33q164 -69 164 -238q0 -111 -76 -181t-216 -87v-176h-139v176q-83 10 -152 45q-134 71 -134 217q0 106 76 178.5t210 94.5zM326 107v302q-73 -23 -100 -54q-33 -37 -33 -95q0 -123 133 -153zM465 416v-310q139 28 139 158
q0 127 -139 152z" />
    <glyph glyph-name="uni0400" unicode="&#x400;" horiz-adv-x="646" 
d="M82 0v715h502v-129h-344v-161h262v-119h-262v-177h360v-129h-518zM289 771l-108 174h175l42 -174h-109z" />
    <glyph glyph-name="afii10023" unicode="&#x401;" horiz-adv-x="644" 
d="M80 0v715h504v-130h-343v-160h260v-124h-260v-171h358v-130h-519zM239 910q30 0 51.5 -22t21.5 -52q0 -31 -21.5 -52.5t-51.5 -21.5q-31 0 -53 22t-22 52q0 31 22 52.5t53 21.5zM438 910q30 0 52 -22t22 -52t-22 -52t-53 -22q-30 0 -51.5 21.5t-21.5 52.5t21.5 52.5
t52.5 21.5z" />
    <glyph glyph-name="afii10051" unicode="&#x402;" horiz-adv-x="804" 
d="M335 0h-163v583h-162v132h565v-132h-240v-194q44 40 89 57.5t104 17.5q104 0 154.5 -58.5t50.5 -180.5v-111q0 -114 -12.5 -167.5t-46.5 -81.5q-30 -25 -72 -35.5t-122 -11.5l-7 108q58 4 73.5 37.5t15.5 154.5v90q0 74 -19 102t-68 28q-42 0 -74 -18.5t-66 -61.5v-258z
" />
    <glyph glyph-name="afii10052" unicode="&#x403;" horiz-adv-x="570" 
d="M80 0v715h460v-132h-299v-583h-161zM252 771l42 174h177l-108 -174h-111z" />
    <glyph glyph-name="afii10053" unicode="&#x404;" horiz-adv-x="712" 
d="M680 559l-137 -59q-25 49 -59.5 71.5t-87.5 22.5q-103 0 -149 -93q-13 -25 -22 -80h285v-118h-287q11 -68 30 -100q48 -82 146 -82q103 0 148 93l137 -65q-86 -160 -290 -160q-160 0 -252.5 96.5t-92.5 262.5q0 173 94 275.5t252 102.5q205 0 285 -167z" />
    <glyph glyph-name="afii10054" unicode="&#x405;" horiz-adv-x="653" 
d="M23 159l140 60q40 -102 161 -102q57 0 90.5 22t33.5 60q0 40 -39 61q-20 11 -36.5 16t-96.5 23q-120 27 -171 75t-51 134q0 101 69 159t190 58q195 0 274 -148l-131 -61q-25 44 -58 62.5t-86 18.5q-106 0 -106 -71q0 -39 33 -56q29 -16 136 -38q124 -26 177 -76.5
t53 -140.5q0 -107 -73.5 -166.5t-204.5 -59.5q-115 0 -194 47q-39 22 -63.5 50t-46.5 73z" />
    <glyph glyph-name="afii10055" unicode="&#x406;" horiz-adv-x="340" 
d="M88 0v715h163v-715h-163z" />
    <glyph glyph-name="afii10056" unicode="&#x407;" horiz-adv-x="344" 
d="M90 0v715h163v-715h-163zM73 910q30 0 51.5 -22t21.5 -52q0 -31 -21.5 -52.5t-51.5 -21.5q-31 0 -53 22t-22 52q0 31 22 52.5t53 21.5zM272 910q30 0 52 -22t22 -52t-22 -52t-53 -22q-30 0 -51.5 21.5t-21.5 52.5q0 32 21 53t53 21z" />
    <glyph glyph-name="afii10057" unicode="&#x408;" horiz-adv-x="626" 
d="M550 715v-459q0 -132 -63 -199.5t-186 -67.5q-119 0 -186 64t-67 177v38h159v-28q0 -120 90 -120q47 0 68.5 32.5t21.5 104.5v458h163z" />
    <glyph glyph-name="afii10058" unicode="&#x409;" horiz-adv-x="1048" 
d="M459 0v583h-200v-127q0 -157 -28 -290q-20 -89 -57 -166h-179q60 97 80 189q28 128 28 353v173h520v-268h120q141 0 203 -48q73 -58 73 -176q0 -129 -86 -184q-60 -39 -190 -39h-284zM623 125h122q117 0 117 98q0 99 -117 99h-122v-197z" />
    <glyph glyph-name="afii10059" unicode="&#x40a;" horiz-adv-x="1084" 
d="M80 0v715h163v-268h252v268h163v-268h120q141 0 203 -48q73 -58 73 -176q0 -129 -86 -184q-60 -39 -190 -39h-283v314h-252v-314h-163zM658 125h122q117 0 117 98q0 99 -117 99h-122v-197z" />
    <glyph glyph-name="afii10060" unicode="&#x40b;" horiz-adv-x="804" 
d="M335 0h-163v583h-162v132h565v-132h-240v-194q46 41 90 58t104 17q205 0 205 -221v-243h-170v214q0 71 -19 97.5t-69 26.5q-42 0 -74.5 -18.5t-66.5 -61.5v-258z" />
    <glyph glyph-name="afii10061" unicode="&#x40c;" horiz-adv-x="678" 
d="M80 0v715h163v-295h15q33 0 51 21t51 98q47 111 91 145t141 34q22 0 57 -3v-121q-18 2 -41 2q-33 0 -50.5 -8t-31.5 -28q-10 -14 -38 -80q-21 -51 -34 -69.5t-41 -37.5q68 -26 138 -149l130 -224h-189l-95 173q-47 86 -72.5 111.5t-63.5 25.5h-18v-310h-163zM303 771
l42 174h177l-108 -174h-111z" />
    <glyph glyph-name="uni040D" unicode="&#x40d;" horiz-adv-x="736" 
d="M82 0v715h156v-433l260 370v63h156v-715h-156v438l-260 -370v-68h-156zM316 771l-108 174h175l42 -174h-109z" />
    <glyph glyph-name="afii10062" unicode="&#x40e;" horiz-adv-x="642" 
d="M163 923h102q6 -62 67 -62q62 0 66 62h102q-5 -82 -46 -121.5t-122 -39.5t-122.5 39.5t-46.5 121.5zM269 183l-267 532h180l156 -359l130 359h160l-200 -526q-43 -114 -94 -157.5t-141 -43.5q-53 0 -102 12l17 129q33 -8 62 -8q41 0 63 14t36 48z" />
    <glyph glyph-name="afii10145" unicode="&#x40f;" horiz-adv-x="721" 
d="M83 0v715h163v-585h230v585h163v-715h-204l-16 -173h-116l-16 173h-204z" />
    <glyph glyph-name="afii10017" unicode="&#x410;" horiz-adv-x="715" 
d="M707 0h-172l-46 138h-282l-47 -138h-152l258 715h188zM451 256l-102 307l-104 -307h206z" />
    <glyph glyph-name="afii10018" unicode="&#x411;" horiz-adv-x="691" 
d="M80 0v715h505v-125h-344v-155h136q142 0 203 -47q73 -55 73 -170q0 -126 -86 -180q-61 -38 -190 -38h-297zM241 125h138q117 0 117 93q0 92 -117 92h-138v-185z" />
    <glyph glyph-name="afii10019" unicode="&#x412;" horiz-adv-x="706" 
d="M80 0v715h323q112 0 173 -50t61 -142q0 -55 -23.5 -90.5t-77.5 -61.5q67 -24 97.5 -64.5t30.5 -104.5q0 -97 -65 -149.5t-186 -52.5h-333zM241 125h160q51 0 78.5 24.5t27.5 68.5q0 92 -112 92h-154v-185zM241 426h152q90 0 90 82t-97 82h-145v-164z" />
    <glyph glyph-name="afii10020" unicode="&#x413;" horiz-adv-x="570" 
d="M80 0v715h460v-132h-299v-583h-161z" />
    <glyph glyph-name="afii10021" unicode="&#x414;" horiz-adv-x="734" 
d="M590 0h-474l-16 -173h-116v305h68q40 74 57 188t17 300v95h517v-583h78v-305h-116zM481 128v455h-202v-54q0 -121 -20 -250q-12 -83 -37 -151h259z" />
    <glyph glyph-name="afii10022" unicode="&#x415;" horiz-adv-x="644" 
d="M80 0v715h504v-130h-343v-160h260v-124h-260v-171h358v-130h-519z" />
    <glyph glyph-name="afii10024" unicode="&#x416;" horiz-adv-x="977" 
d="M411 0v313q-48 -7 -74 -32t-71 -108l-88 -173h-182l124 224q38 68 68 101.5t64 47.5q-28 20 -40.5 41.5t-42.5 98.5q-20 50 -40 66.5t-60 16.5q-22 0 -41 -1v120q35 3 54 3q94 0 135.5 -31.5t83.5 -133.5q35 -87 53.5 -109.5t56.5 -23.5v295h156v-295q38 2 57 24t53 109
q42 102 84 133.5t135 31.5q19 0 54 -3v-120q-19 1 -41 1q-46 0 -64 -18.5t-49 -97.5q-20 -52 -32.5 -70.5t-37.5 -36.5q34 -14 63.5 -47t68.5 -102l124 -224h-182l-88 173q-45 83 -71 108t-74 32v-313h-156z" />
    <glyph glyph-name="afii10025" unicode="&#x417;" horiz-adv-x="678" 
d="M22 190l146 36q19 -56 56.5 -82.5t100.5 -26.5q62 0 97.5 25.5t35.5 70.5q0 94 -131 94h-75v119h70q62 0 95.5 23t33.5 65q0 39 -32 61.5t-87 22.5t-89 -22.5t-56 -73.5l-133 42q63 181 286 181q121 0 195.5 -55t74.5 -144q0 -103 -111 -149q129 -43 129 -168
q0 -101 -79.5 -160.5t-214.5 -59.5q-152 0 -238 73q-31 27 -47.5 55t-26.5 73z" />
    <glyph glyph-name="afii10026" unicode="&#x418;" horiz-adv-x="735" 
d="M80 0v715h159v-428l256 366v62h159v-715h-159v434l-256 -367v-67h-159z" />
    <glyph glyph-name="afii10027" unicode="&#x419;" horiz-adv-x="735" 
d="M80 0v715h159v-428l256 366v62h159v-715h-159v434l-256 -367v-67h-159zM205 923h101q7 -62 67 -62q61 0 67 62h101q-7 -161 -168 -161q-81 0 -122 39.5t-46 121.5z" />
    <glyph glyph-name="afii10028" unicode="&#x41a;" horiz-adv-x="678" 
d="M80 0v715h163v-295h15q33 0 51 21t51 98q47 111 91 145t141 34q22 0 57 -3v-121q-18 2 -41 2q-33 0 -50.5 -8t-31.5 -28q-10 -14 -38 -80q-21 -51 -34 -69.5t-41 -37.5q68 -26 138 -149l130 -224h-189l-95 173q-47 86 -72.5 111.5t-63.5 25.5h-18v-310h-163z" />
    <glyph glyph-name="afii10029" unicode="&#x41b;" horiz-adv-x="703" 
d="M459 0v583h-200v-127q0 -157 -28 -290q-20 -89 -57 -166h-179q60 97 80 189q28 128 28 353v173h520v-715h-164z" />
    <glyph glyph-name="afii10030" unicode="&#x41c;" horiz-adv-x="950" 
d="M80 0v715h232l161 -486l162 486h234v-715h-161v535l-181 -535h-121l-182 536v-536h-144z" />
    <glyph glyph-name="afii10031" unicode="&#x41d;" horiz-adv-x="756" 
d="M80 0v715h163v-289h269v289h163v-715h-163v293h-269v-293h-163z" />
    <glyph glyph-name="afii10032" unicode="&#x41e;" horiz-adv-x="794" 
d="M397 725q154 0 250.5 -102.5t96.5 -265.5t-96.5 -265.5t-250.5 -102.5q-155 0 -251.5 103t-96.5 268q0 160 97.5 262.5t250.5 102.5zM396 593q-83 0 -130 -62.5t-47 -171.5q0 -113 46.5 -175.5t130.5 -62.5t131 62.5t47 173.5t-47 173.5t-131 62.5z" />
    <glyph glyph-name="afii10033" unicode="&#x41f;" horiz-adv-x="740" 
d="M80 0v715h579v-715h-163v582h-253v-582h-163z" />
    <glyph glyph-name="afii10034" unicode="&#x420;" horiz-adv-x="683" 
d="M80 0v715h301q125 0 194 -60.5t69 -171.5q0 -105 -66.5 -164t-184.5 -59h-150v-260h-163zM243 381h127q116 0 116 106q0 103 -113 103h-130v-209z" />
    <glyph glyph-name="afii10035" unicode="&#x421;" horiz-adv-x="732" 
d="M550 255l146 -60q-22 -52 -46 -85t-60 -61q-81 -60 -198 -60q-156 0 -249.5 100t-93.5 266q0 164 95.5 267.5t246.5 103.5q133 0 214 -76q47 -43 82 -124l-144 -59q-25 68 -61 97.5t-93 29.5q-82 0 -126 -61.5t-44 -175.5t45 -175t128 -61q59 0 96 31.5t62 102.5z" />
    <glyph glyph-name="afii10036" unicode="&#x422;" horiz-adv-x="601" 
d="M583 715v-132h-201v-583h-163v583h-201v132h565z" />
    <glyph glyph-name="afii10037" unicode="&#x423;" horiz-adv-x="642" 
d="M269 183l-267 532h180l156 -359l130 359h160l-200 -526q-43 -114 -94 -157.5t-141 -43.5q-53 0 -102 12l17 129q33 -8 62 -8q41 0 63 14t36 48z" />
    <glyph glyph-name="afii10038" unicode="&#x424;" horiz-adv-x="926" 
d="M390 -37v110q-135 10 -212 56q-62 36 -95.5 96t-33.5 133t33.5 132.5t95.5 95.5q77 46 212 56v110h144v-110q135 -10 212 -56q62 -36 95.5 -95.5t33.5 -132.5t-33.5 -133t-95.5 -96q-77 -46 -212 -56v-110h-144zM390 191v333q-93 -11 -133.5 -50t-40.5 -116
q0 -78 40.5 -117t133.5 -50zM534 524v-333q93 11 133.5 50.5t40.5 116.5t-40.5 116t-133.5 50z" />
    <glyph glyph-name="afii10039" unicode="&#x425;" horiz-adv-x="720" 
d="M24 0l240 368l-223 347h194l132 -226l130 226h173l-215 -342l242 -373h-194l-152 256l-152 -256h-175z" />
    <glyph glyph-name="afii10040" unicode="&#x426;" horiz-adv-x="728" 
d="M80 0v715h163v-583h230v583h163v-583h79v-305h-116l-16 173h-503z" />
    <glyph glyph-name="afii10041" unicode="&#x427;" horiz-adv-x="689" 
d="M609 0h-163v257q-59 -72 -182 -72q-204 0 -204 212v318h163v-291q0 -60 23.5 -85t79.5 -25q58 0 89 30.5t31 86.5v284h163v-715z" />
    <glyph glyph-name="afii10042" unicode="&#x428;" horiz-adv-x="1071" 
d="M80 0v715h163v-583h211v583h163v-583h211v583h163v-715h-911z" />
    <glyph glyph-name="afii10043" unicode="&#x429;" horiz-adv-x="1083" 
d="M80 0v715h163v-583h211v583h163v-583h211v583h163v-583h78v-305h-115l-16 173h-858z" />
    <glyph glyph-name="afii10044" unicode="&#x42a;" horiz-adv-x="755" 
d="M167 0v583h-165v132h326v-249h122q142 0 203 -50q73 -61 73 -183q0 -135 -86 -192q-59 -41 -190 -41h-283zM328 125h125q116 0 116 108t-116 108h-125v-216z" />
    <glyph glyph-name="afii10045" unicode="&#x42b;" horiz-adv-x="980" 
d="M80 0v715h161v-249h122q142 0 203 -50q73 -61 73 -183q0 -135 -86 -192q-59 -41 -190 -41h-283zM241 125h124q117 0 117 108t-117 108h-124v-216zM736 0v715h163v-715h-163z" />
    <glyph glyph-name="afii10046" unicode="&#x42c;" horiz-adv-x="669" 
d="M80 0v715h161v-249h122q142 0 203 -50q73 -61 73 -183q0 -135 -86 -192q-59 -41 -190 -41h-283zM241 125h124q117 0 117 108t-117 108h-124v-216z" />
    <glyph glyph-name="afii10047" unicode="&#x42d;" horiz-adv-x="700" 
d="M188 303v118h287q-27 173 -168 173q-103 0 -155 -89l-119 72q80 149 275 149q157 0 249.5 -102.5t92.5 -276.5q0 -167 -92.5 -262.5t-254.5 -95.5q-131 0 -218 69q-34 27 -63 75l132 71q25 -44 60 -63.5t88 -19.5q152 0 174 182h-288z" />
    <glyph glyph-name="afii10048" unicode="&#x42e;" horiz-adv-x="1082" 
d="M80 0v715h163v-289h131q21 139 108.5 219t218.5 80q146 0 238.5 -102.5t92.5 -265.5t-92 -265.5t-239 -102.5q-131 0 -219 81.5t-109 222.5h-130v-293h-163zM700 593q-76 0 -119 -62.5t-43 -173.5q0 -110 43 -173t118 -63q78 0 120.5 61t42.5 173t-43 175t-119 63z" />
    <glyph glyph-name="afii10049" unicode="&#x42f;" horiz-adv-x="729" 
d="M649 0h-163v268h-122q-61 0 -88 -34q-19 -27 -35 -97q-20 -96 -46 -137h-160v1q24 32 52 158q18 83 41.5 115.5t78.5 49.5q-64 20 -93 56q-41 49 -41 129q0 110 84 165q34 23 77 32t118 9h297v-715zM486 387v202h-138q-63 0 -90.5 -23t-27.5 -75q0 -104 113 -104h143z
" />
    <glyph glyph-name="afii10065" unicode="&#x430;" horiz-adv-x="562" 
d="M511 0h-148q-7 19 -14 62q-55 -73 -149 -73q-74 0 -118.5 40.5t-44.5 107.5q0 90 75 134.5t231 45.5v14q0 43 -20 62.5t-64 19.5q-73 0 -148 -51l-65 98q98 76 235 76q121 0 176 -65q40 -48 40 -143v-237q0 -48 14 -85v-6zM344 179v46q-83 -2 -120 -19.5t-37 -54.5
q0 -25 16.5 -39t45.5 -14q43 0 69 22.5t26 58.5z" />
    <glyph glyph-name="afii10066" unicode="&#x431;" horiz-adv-x="620" 
d="M538 753l-21 -116h-139q-73 0 -107.5 -9.5t-54.5 -34.5q-38 -48 -41 -163q47 52 85.5 71.5t96.5 19.5q101 0 162 -71t61 -189q0 -124 -72 -198t-191 -74q-132 0 -201 88q-35 46 -49.5 104t-14.5 157q0 251 73 340q35 41 87 58t142 17h184zM316 414q-50 0 -78 -41.5
t-28 -115.5q0 -73 27.5 -112.5t79.5 -39.5q50 0 77 39.5t27 111.5q0 76 -27.5 117t-77.5 41z" />
    <glyph glyph-name="afii10067" unicode="&#x432;" horiz-adv-x="613" 
d="M80 0v523h283q186 0 186 -145q0 -39 -14 -63t-47 -43q44 -20 62 -47t18 -73q0 -152 -198 -152h-290zM229 107h122q67 0 67 58q0 55 -69 55h-120v-113zM231 315h114q58 0 58 50q0 27 -14.5 39t-47.5 12h-110v-101z" />
    <glyph glyph-name="afii10068" unicode="&#x433;" horiz-adv-x="477" 
d="M80 0v523h372v-121h-217v-402h-155z" />
    <glyph glyph-name="afii10069" unicode="&#x434;" horiz-adv-x="643" 
d="M495 0h-380l-15 -153h-111v274h56q37 45 58 114q29 98 29 232v56h422v-402h65v-274h-111zM403 118v284h-135v-17q0 -75 -20 -159q-14 -56 -39 -108h194z" />
    <glyph glyph-name="afii10070" unicode="&#x435;" horiz-adv-x="590" 
d="M420 169l120 -60q-72 -120 -227 -120q-122 0 -197.5 75t-75.5 196q0 122 74 199t191 77q115 0 180.5 -72t65.5 -199v-41h-353q7 -61 34.5 -90t80.5 -29q37 0 62 14.5t45 49.5zM200 316h200q-5 56 -28 81t-68 25q-44 0 -69 -25.5t-35 -80.5z" />
    <glyph glyph-name="afii10072" unicode="&#x436;" horiz-adv-x="823" 
d="M336 0v219h-10q-22 0 -38 -15t-36 -53l-77 -151h-171l98 165q28 48 46.5 68.5t48.5 36.5q-22 19 -31 32t-23 48q-18 47 -29 56.5t-47 9.5h-27v107h52q75 0 103.5 -20.5t59.5 -96.5q22 -56 35 -71.5t37 -15.5h9v204h149v-204h9q24 0 37 15.5t35 71.5q32 77 60 97t104 20
h52v-107h-27q-37 0 -47.5 -9.5t-28.5 -56.5q-13 -33 -22 -47t-27 -28l-5 -5q30 -16 49 -37t46 -68l98 -165h-172l-77 151q-20 38 -36 53t-37 15h-11v-219h-149z" />
    <glyph glyph-name="afii10073" unicode="&#x437;" horiz-adv-x="552" 
d="M17 148l132 34q15 -43 42.5 -61t76.5 -18q85 0 85 58q0 28 -20 43t-57 15h-72v97h69q35 0 56 14t21 37q0 26 -23 41t-62 15q-40 0 -66.5 -14t-50.5 -49l-113 50q35 67 91 96.5t148 29.5q107 0 166 -41.5t59 -116.5q0 -36 -15 -60t-49 -43q77 -36 77 -114
q0 -83 -63 -127.5t-182 -44.5q-138 0 -203 64q-19 18 -29 38t-18 57z" />
    <glyph glyph-name="afii10074" unicode="&#x438;" horiz-adv-x="627" 
d="M80 0v523h151v-284l164 232v52h151v-523h-151v287l-164 -232v-55h-151z" />
    <glyph glyph-name="afii10075" unicode="&#x439;" horiz-adv-x="627" 
d="M80 0v523h151v-282l164 230v52h151v-523h-151v286l-164 -231v-55h-151zM147 748h102q6 -62 64 -62q57 0 64 62h101q-7 -161 -165 -161q-156 0 -166 161z" />
    <glyph glyph-name="afii10076" unicode="&#x43a;" horiz-adv-x="594" 
d="M80 0v523h155v-206h14q25 0 38 14t36 63q40 88 68.5 108.5t109.5 20.5h52v-107h-27q-39 0 -50.5 -9.5t-31.5 -56.5q-14 -34 -24 -48t-28 -27q-3 -3 -6 -5q31 -16 51 -37t49 -68l103 -165h-178l-82 148q-37 68 -77 68h-17v-216h-155z" />
    <glyph glyph-name="afii10077" unicode="&#x43b;" horiz-adv-x="612" 
d="M378 0v402h-134v-66q0 -102 -17 -180t-56 -156h-160q53 89 74 181t21 238v104h426v-523h-154z" />
    <glyph glyph-name="afii10078" unicode="&#x43c;" horiz-adv-x="807" 
d="M80 0v523h206l115 -332l116 332h209v-523h-154v363l-126 -363h-99l-127 363v-363h-140z" />
    <glyph glyph-name="afii10079" unicode="&#x43d;" horiz-adv-x="632" 
d="M80 0v523h155v-198h161v198h155v-523h-155v204h-161v-204h-155z" />
    <glyph glyph-name="afii10080" unicode="&#x43e;" horiz-adv-x="617" 
d="M309 536q118 0 192.5 -76t74.5 -197t-75 -197.5t-194 -76.5t-193 75.5t-74 197.5q0 119 75.5 196.5t193.5 77.5zM309 418q-110 0 -110 -154q0 -76 28 -116.5t81 -40.5q109 0 109 158q0 75 -27.5 114t-80.5 39z" />
    <glyph glyph-name="afii10081" unicode="&#x43f;" horiz-adv-x="632" 
d="M80 0v523h471v-523h-155v402h-161v-402h-155z" />
    <glyph glyph-name="afii10082" unicode="&#x440;" horiz-adv-x="634" 
d="M69 -182v705h155v-79q56 92 157 92q96 0 154 -74.5t58 -198.5q0 -125 -58 -199.5t-155 -74.5q-106 0 -156 89v-260h-155zM329 418q-53 0 -81.5 -41t-28.5 -116q0 -74 28.5 -114t80.5 -40q106 0 106 152q0 159 -105 159z" />
    <glyph glyph-name="afii10083" unicode="&#x441;" horiz-adv-x="554" 
d="M409 189l123 -60q-70 -140 -230 -140q-119 0 -190.5 73.5t-71.5 196.5q0 124 72 200.5t188 76.5q154 0 226 -140l-129 -59q-20 47 -39.5 64t-53.5 17q-51 0 -78 -39.5t-27 -114.5q0 -76 27.5 -116.5t80.5 -40.5q37 0 61 19.5t41 62.5z" />
    <glyph glyph-name="afii10084" unicode="&#x442;" horiz-adv-x="474" 
d="M160 0v402h-144v121h442v-121h-143v-402h-155z" />
    <glyph glyph-name="afii10085" unicode="&#x443;" horiz-adv-x="549" 
d="M20 -156l42 106q32 -21 63 -21q54 0 72 53l7 23l-200 518h166l113 -323l109 323h153l-204 -549q-32 -83 -81 -123t-121 -40q-67 0 -119 33z" />
    <glyph glyph-name="afii10086" unicode="&#x444;" horiz-adv-x="875" 
d="M368 -182v258q-43 -87 -135 -87q-88 0 -140.5 74.5t-52.5 199.5q0 124 53 198.5t140 74.5q86 0 135 -83v300h140v-300q49 83 135 83q87 0 140 -74.5t53 -198.5q0 -125 -52.5 -199.5t-140.5 -74.5q-92 0 -135 87v-258h-140zM590 418q-41 0 -64 -41.5t-23 -115.5t23 -114
t66 -40q85 0 85 153q0 158 -87 158zM284 418q-85 0 -85 -156q0 -155 83 -155q44 0 67.5 40t23.5 114t-23.5 115.5t-65.5 41.5z" />
    <glyph glyph-name="afii10087" unicode="&#x445;" horiz-adv-x="588" 
d="M18 0l181 267l-170 256h180l91 -148l92 148h161l-171 -244l188 -279h-181l-104 167l-107 -167h-160z" />
    <glyph glyph-name="afii10088" unicode="&#x446;" horiz-adv-x="633" 
d="M80 0v523h155v-402h153v402h155v-402h65v-274h-111l-12 153h-405z" />
    <glyph glyph-name="afii10089" unicode="&#x447;" horiz-adv-x="597" 
d="M48 523h155v-188q0 -45 17 -65t55 -20t62 25.5t24 65.5v182h155v-523h-155v203q-51 -76 -149 -76q-79 0 -121.5 48t-42.5 137v211z" />
    <glyph glyph-name="afii10090" unicode="&#x448;" horiz-adv-x="901" 
d="M80 0v523h154v-402h143v402h145v-402h144v402h154v-523h-740z" />
    <glyph glyph-name="afii10091" unicode="&#x449;" horiz-adv-x="910" 
d="M80 0v523h154v-402h143v402h145v-402h144v402h154v-403h65v-273h-110l-11 153h-684z" />
    <glyph glyph-name="afii10092" unicode="&#x44a;" horiz-adv-x="623" 
d="M271 358h103q112 0 159 -36q56 -45 56 -143q0 -108 -67 -150q-46 -29 -148 -29h-252v412h-120v111h269v-165zM271 110h83q53 0 70 21q15 19 15 50q0 35 -18 53q-17 18 -67 18h-83v-142z" />
    <glyph glyph-name="afii10093" unicode="&#x44b;" horiz-adv-x="859" 
d="M80 0v523h149v-165h103q112 0 159 -36q56 -45 56 -143q0 -108 -67 -150q-46 -29 -148 -29h-252zM229 110h83q53 0 70 21q15 18 15 50q0 35 -18 53q-17 18 -67 18h-83v-142zM623 0v523h155v-523h-155z" />
    <glyph glyph-name="afii10094" unicode="&#x44c;" horiz-adv-x="583" 
d="M80 0v523h149v-165h103q112 0 159 -36q56 -45 56 -143q0 -108 -67 -150q-46 -29 -148 -29h-252zM229 110h83q53 0 70 21q15 18 15 50q0 35 -18 53q-17 18 -67 18h-83v-142z" />
    <glyph glyph-name="afii10095" unicode="&#x44d;" horiz-adv-x="566" 
d="M161 217v96h197q-18 104 -111 104q-35 0 -62.5 -14.5t-56.5 -48.5l-98 79q78 103 226 103q124 0 195 -73.5t71 -200.5q0 -120 -67 -193q-71 -80 -207 -80q-155 0 -230 109l107 68q29 -32 55.5 -45.5t63.5 -13.5q52 0 79.5 26.5t35.5 83.5h-198z" />
    <glyph glyph-name="afii10096" unicode="&#x44e;" horiz-adv-x="860" 
d="M80 0v523h155v-200h78q20 98 87.5 155.5t162.5 57.5q112 0 184 -76.5t72 -195.5q0 -121 -72 -198t-185 -77q-97 0 -165.5 58t-85.5 155h-76v-202h-155zM563 417q-48 0 -73.5 -39.5t-25.5 -114.5t25 -115.5t72 -40.5q99 0 99 157q0 153 -97 153z" />
    <glyph glyph-name="afii10097" unicode="&#x44f;" horiz-adv-x="609" 
d="M529 0h-149v191h-90q-32 0 -49 -27q-12 -15 -22 -60q-17 -74 -38 -104h-161v6q20 26 29 49t22 78q12 44 26 66t39 35q-40 20 -57.5 51.5t-17.5 82.5q0 89 67 128q46 27 157 27h244v-523zM380 288v128h-104q-66 0 -66 -61q0 -29 18 -48t45 -19h107z" />
    <glyph glyph-name="uni0450" unicode="&#x450;" horiz-adv-x="586" 
d="M420 166l119 -59q-73 -118 -228 -118q-121 0 -196 74.5t-75 193.5q0 123 74 201t190 78q115 0 180 -72.5t65 -199.5v-41h-355q9 -60 32 -84q31 -35 87 -35q37 0 61.5 14t45.5 48zM197 316h203q-6 56 -28.5 81.5t-68.5 25.5q-45 0 -70 -25.5t-36 -81.5zM243 587l-108 166
h175l42 -166h-109z" />
    <glyph glyph-name="afii10071" unicode="&#x451;" horiz-adv-x="590" 
d="M420 169l120 -60q-72 -120 -227 -120q-122 0 -197.5 75t-75.5 196q0 122 74 199t191 77q115 0 180.5 -72t65.5 -199v-41h-353q7 -61 34.5 -90t80.5 -29q37 0 62 14.5t45 49.5zM200 316h200q-5 56 -28 81t-68 25q-44 0 -69 -25.5t-35 -80.5zM410 747q31 0 54.5 -23
t23.5 -54q0 -32 -23 -55t-55 -23t-54.5 22.5t-22.5 54.5q0 33 22.5 55.5t54.5 22.5zM202 747q32 0 54.5 -23t22.5 -55q0 -31 -22.5 -54t-54.5 -23t-55 23t-23 54q0 32 23 55t55 23z" />
    <glyph glyph-name="afii10099" unicode="&#x452;" horiz-adv-x="647" 
d="M332 -184l-7 101q59 4 74.5 37t15.5 154v194q0 57 -19.5 81.5t-64.5 24.5q-44 0 -69.5 -28t-25.5 -78v-302h-155v578h-63v97h63v78h155v-78h110v-97h-110v-137q53 94 164 94q81 0 125.5 -51.5t44.5 -145.5v-229q0 -116 -11.5 -167t-43.5 -79q-28 -25 -68.5 -35
t-114.5 -12z" />
    <glyph glyph-name="afii10100" unicode="&#x453;" horiz-adv-x="477" 
d="M80 0v523h372v-121h-217v-402h-155zM201 579l42 174h177l-108 -174h-111z" />
    <glyph glyph-name="afii10101" unicode="&#x454;" horiz-adv-x="567" 
d="M537 434l-99 -80q-52 63 -117 63q-95 0 -113 -104h203v-96h-204q8 -58 36 -84t82 -26q67 0 116 59l108 -68q-41 -57 -96 -83t-133 -26q-144 0 -218 90q-58 72 -58 183q0 127 71.5 200.5t196.5 73.5q145 0 225 -102z" />
    <glyph glyph-name="afii10102" unicode="&#x455;" horiz-adv-x="528" 
d="M471 474l-68 -99q-58 49 -139 49q-68 0 -68 -42q0 -22 18.5 -31.5t84.5 -22.5q84 -15 123 -39q67 -40 67 -125q0 -84 -61 -129.5t-172 -45.5q-75 0 -125.5 17t-103.5 58l66 102q40 -35 75.5 -49.5t82.5 -14.5q85 0 85 48q0 27 -31 38q-17 5 -87 18q-166 30 -166 163
q0 80 56 123.5t158 43.5q128 0 205 -62z" />
    <glyph glyph-name="afii10103" unicode="&#x456;" horiz-adv-x="302" 
d="M73 0v523h155v-523h-155zM150 758q36 0 61 -25t25 -62t-25 -62t-61 -25q-37 0 -62.5 25t-25.5 62t25.5 62t62.5 25z" />
    <glyph glyph-name="afii10104" unicode="&#x457;" horiz-adv-x="302" 
d="M73 0v523h155v-523h-155zM47 747q32 0 54.5 -23t22.5 -55q0 -31 -23 -54t-54 -23q-32 0 -55 23t-23 54q0 32 23 55t55 23zM255 747q31 0 54.5 -23.5t23.5 -54.5t-23 -54t-55 -23t-54.5 22.5t-22.5 54.5q0 33 22.5 55.5t54.5 22.5z" />
    <glyph glyph-name="afii10105" unicode="&#x458;" horiz-adv-x="306" 
d="M232 523v-538q0 -86 -41.5 -131t-120.5 -45q-60 0 -103 25l29 109q19 -9 35 -9q22 0 34 12.5t12 35.5v541h155zM154 758q36 0 61 -25t25 -62t-25 -62t-61 -25q-37 0 -62.5 25t-25.5 62t25 62t63 25z" />
    <glyph glyph-name="afii10106" unicode="&#x459;" horiz-adv-x="872" 
d="M378 0v402h-134v-66q0 -190 -73 -336h-160q53 89 74 181.5t21 237.5v104h421v-173h96q114 0 159 -34q56 -44 56 -141q0 -92 -49 -133.5t-159 -41.5h-252zM527 111h86q41 0 58.5 15t17.5 51q0 33 -16 50t-60 17h-86v-133z" />
    <glyph glyph-name="afii10107" unicode="&#x45a;" horiz-adv-x="882" 
d="M388 0v221h-153v-221h-155v523h155v-191h153v191h149v-173h97q114 0 159 -34q56 -44 56 -140q0 -93 -49 -134.5t-159 -41.5h-253zM537 111h87q41 0 58.5 15t17.5 52q0 31 -16 50q-16 16 -60 16h-87v-133z" />
    <glyph glyph-name="afii10108" unicode="&#x45b;" horiz-adv-x="641" 
d="M81 0v578h-63v97h63v78h155v-78h110v-97h-110v-137q52 94 163 94q79 0 122 -51.5t43 -145.5v-338h-155v313q0 95 -79 95q-44 0 -69 -28t-25 -78v-302h-155z" />
    <glyph glyph-name="afii10109" unicode="&#x45c;" horiz-adv-x="594" 
d="M80 0v523h155v-206h14q25 0 38 14t36 63q40 88 68.5 108.5t109.5 20.5h52v-107h-27q-39 0 -50.5 -9.5t-31.5 -56.5q-14 -34 -24 -48t-28 -27q-3 -3 -6 -5q31 -16 51 -37t49 -68l103 -165h-178l-82 148q-37 68 -77 68h-17v-216h-155zM258 579l42 174h177l-108 -174h-111z
" />
    <glyph glyph-name="uni045D" unicode="&#x45d;" horiz-adv-x="604" 
d="M70 0v523h153v-276l158 224v52h153v-523h-153v279l-158 -224v-55h-153zM251 587l-108 166h175l42 -166h-109z" />
    <glyph glyph-name="afii10110" unicode="&#x45e;" horiz-adv-x="549" 
d="M20 -156l42 106q32 -21 63 -21q54 0 72 53l7 23l-200 518h166l113 -323l109 323h153l-204 -549q-32 -83 -81 -123t-121 -40q-67 0 -119 33zM115 748h102q4 -62 63 -62q58 0 64 62h102q-10 -161 -166 -161q-158 0 -165 161z" />
    <glyph glyph-name="afii10193" unicode="&#x45f;" horiz-adv-x="624" 
d="M80 0v523h155v-402h153v402h155v-523h-168l-12 -153h-103l-12 153h-168z" />
    <glyph glyph-name="afii10050" unicode="&#x490;" horiz-adv-x="570" 
d="M80 0v715h335l16 126h109v-258h-299v-583h-161z" />
    <glyph glyph-name="afii10098" unicode="&#x491;" horiz-adv-x="477" 
d="M80 0v523h250l11 107h105v-228h-212v-402h-154z" />
    <glyph glyph-name="uni0492" unicode="&#x492;" horiz-adv-x="556" 
d="M88 297h-76v128h76v290h448v-129h-288v-161h173v-128h-173v-297h-160v297z" />
    <glyph glyph-name="uni0493" unicode="&#x493;" horiz-adv-x="465" 
d="M85 204h-70v119h70v200h360v-119h-207v-81h140v-119h-140v-204h-153v204z" />
    <glyph glyph-name="uni0496" unicode="&#x496;" horiz-adv-x="977" 
d="M910 130h118v-305h-116l-15 175h-97l-88 173q-45 83 -71 108t-74 32v-313h-156v313q-48 -7 -74 -32t-71 -108l-88 -173h-182l124 224q38 68 68 101.5t64 47.5q-28 19 -40.5 40.5t-42.5 99.5q-20 50 -40 66.5t-60 16.5q-22 0 -41 -1v120q35 3 54 3q93 0 134.5 -31.5
t84.5 -133.5q35 -87 53.5 -109.5t56.5 -23.5v295h156v-295q38 1 56.5 23.5t53.5 109.5q42 102 83.5 133.5t135.5 31.5q19 0 54 -3v-120q-19 1 -41 1q-46 0 -64 -18.5t-49 -97.5q-20 -52 -32.5 -70.5t-37.5 -36.5q34 -13 63 -46.5t69 -102.5z" />
    <glyph glyph-name="uni0497" unicode="&#x497;" horiz-adv-x="855" 
d="M746 121h86v-274h-112l-11 153h-63l-77 151q-20 38 -36 53t-37 15h-11v-219h-149v219h-10q-22 0 -38.5 -15t-35.5 -53l-77 -151h-171l98 165q28 48 46.5 68.5t48.5 36.5q-22 19 -31 32t-23 48q-18 47 -29 56.5t-47 9.5h-27v107h52q75 0 103.5 -20.5t59.5 -96.5
q22 -56 35 -71.5t37 -15.5h9v204h149v-204h9q24 0 37 15.5t35 71.5q32 77 60 97t104 20h52v-107h-27q-37 0 -47.5 -9.5t-28.5 -56.5q-13 -33 -22 -47t-27 -28l-5 -5q30 -16 49 -37t46 -68z" />
    <glyph glyph-name="uni049A" unicode="&#x49a;" horiz-adv-x="678" 
d="M605 131h116v-304h-116l-16 173h-97l-95 173q-47 86 -72.5 111.5t-63.5 25.5h-18v-310h-163v715h163v-295h15q33 0 51 21t51 98q47 111 91 145t141 34q22 0 57 -3v-121q-18 2 -41 2q-33 0 -50.5 -8t-31.5 -28q-10 -14 -38 -80q-21 -51 -34 -69.5t-41 -37.5
q68 -25 138 -149z" />
    <glyph glyph-name="uni049B" unicode="&#x49b;" horiz-adv-x="594" 
d="M513 121h94v-274h-111l-11 153h-74l-82 148q-37 68 -77 68h-17v-216h-155v523h155v-206h14q25 0 38 14t36 63q40 88 68.5 108.5t109.5 20.5h52v-107h-27q-39 0 -50.5 -9.5t-31.5 -56.5q-14 -34 -24 -48t-28 -27q-3 -3 -6 -5q31 -16 51 -37t49 -68z" />
    <glyph glyph-name="uni049C" unicode="&#x49c;" horiz-adv-x="678" 
d="M261 420v184h91v-84q2 4 8 19q47 111 91 145t141 34q22 0 57 -3v-120q-19 1 -41 1q-33 0 -50.5 -8t-31.5 -28q-12 -18 -38 -80q-21 -51 -33.5 -69t-40.5 -38q66 -25 138 -149l129 -224h-189l-95 173q-32 58 -45 77v-141h-91v201h-18v-310h-163v715h163v-295h15h3z" />
    <glyph glyph-name="uni049D" unicode="&#x49d;" horiz-adv-x="594" 
d="M320 164v-104h-73v156h-12v-216h-155v523h155v-206h12v133h73v-64q16 35 26 54.5t22.5 37t22 25t27.5 13t35.5 6.5t47.5 1h52v-107h-27q-39 0 -50.5 -9t-31.5 -57q-14 -34 -24 -48t-27 -27q-1 -1 -7 -5q31 -16 50.5 -36.5t49.5 -68.5l103 -165h-177l-82 148l-2 4
t-3.5 5.5t-4.5 6.5z" />
    <glyph glyph-name="uni04A2" unicode="&#x4a2;" horiz-adv-x="762" 
d="M674 130h81v-304h-116l-16 174h-109v296h-272v-296h-160v715h160v-290h272v290h160v-585z" />
    <glyph glyph-name="uni04A3" unicode="&#x4a3;" horiz-adv-x="637" 
d="M540 121h89v-274h-111l-11 153h-120v204h-164v-204h-153v523h153v-200h164v200h153v-402z" />
    <glyph glyph-name="uni04AE" unicode="&#x4ae;" horiz-adv-x="606" 
d="M228 0v295l-248 420h179l154 -283l151 283h162l-238 -419v-296h-160z" />
    <glyph glyph-name="uni04AF" unicode="&#x4af;" horiz-adv-x="558" 
d="M354 2v-184h-142v183l-202 522h163l115 -327l110 327h150z" />
    <glyph glyph-name="uni04B0" unicode="&#x4b0;" horiz-adv-x="606" 
d="M228 109h-138v128h138v58l-248 420h179l154 -283l151 283h162l-238 -419v-59h142v-128h-142v-109h-160v109z" />
    <glyph glyph-name="uni04B1" unicode="&#x4b1;" horiz-adv-x="558" 
d="M212 0l-202 523h163l115 -327l110 327h150l-194 -523h126v-117h-126v-65h-142v65h-112v117h112z" />
    <glyph glyph-name="uni04B2" unicode="&#x4b2;" horiz-adv-x="743" 
d="M611 129h114v-304h-116l-16 175h-90l-153 257l-154 -257h-172l241 368l-223 347h190l133 -228l132 228h171l-216 -342z" />
    <glyph glyph-name="uni04B3" unicode="&#x4b3;" horiz-adv-x="586" 
d="M485 122h92v-273h-112l-11 151h-65l-105 168l-108 -168h-158l182 267l-170 256h176l93 -149l93 149h158l-170 -244z" />
    <glyph glyph-name="uni04B6" unicode="&#x4b6;" horiz-adv-x="688" 
d="M708 130v-306h-116l-16 176h-130v259q-58 -74 -181 -74q-203 0 -203 213v317h160v-292q0 -59 24 -84t79 -25q58 0 89.5 30t31.5 86v285h160v-585h102z" />
    <glyph glyph-name="uni04B7" unicode="&#x4b7;" horiz-adv-x="583" 
d="M513 130h97v-274h-111l-12 144h-127v203q-51 -76 -148 -76q-79 0 -121.5 48t-42.5 137v211h153v-188q0 -44 17 -64t55 -20t62.5 25t24.5 65v182h153v-393z" />
    <glyph glyph-name="uni04B8" unicode="&#x4b8;" horiz-adv-x="688" 
d="M271 323v206h91v-213l33 14q7 3 18 13.5t16 18.5q17 28 17 68v285h160v-715h-160v259q-20 -26 -51 -44l-33 -15v-165h-91v150h-2h-4q-203 0 -203 213v317h160v-292q0 -63 28 -87q12 -9 21 -13z" />
    <glyph glyph-name="uni04B9" unicode="&#x4b9;" horiz-adv-x="583" 
d="M236 258v125h86v-119q38 27 38 77v182h153v-523h-153v202q-17 -25 -38 -41v-117h-86v84q-9 -1 -24 -1q-79 0 -121.5 48t-42.5 137v211h153v-188q0 -62 35 -77z" />
    <glyph glyph-name="uni04BA" unicode="&#x4ba;" horiz-adv-x="689" 
d="M62 715h160v-258q58 73 181 73q203 0 203 -213v-317h-160v292q0 59 -24 84t-79 25q-58 0 -89.5 -30t-31.5 -86v-285h-160v715z" />
    <glyph glyph-name="uni04BB" unicode="&#x4bb;" horiz-adv-x="616" 
d="M70 0v753h153v-312q52 95 162 95q79 0 122 -52t43 -146v-338h-153v318q0 99 -78 99q-46 0 -71 -28.5t-25 -80.5v-308h-153z" />
    <glyph glyph-name="uni04C0" unicode="&#x4c0;" horiz-adv-x="340" 
d="M88 0v715h163v-715h-163z" />
    <glyph glyph-name="uni04CF" unicode="&#x4cf;" horiz-adv-x="340" 
d="M88 0v715h163v-715h-163z" />
    <glyph glyph-name="uni04D8" unicode="&#x4d8;" horiz-adv-x="804" 
d="M241 490l-147 48q43 89 124 138.5t185 49.5q155 0 253 -102.5t98 -263.5q0 -164 -98.5 -267.5t-255.5 -103.5q-154 0 -252 102t-98 261q0 23 3 65h530q-12 85 -60 132.5t-121 47.5q-111 0 -161 -107zM583 298h-362q12 -85 60 -132.5t122 -47.5q75 0 121.5 46t58.5 134z
" />
    <glyph glyph-name="afii10846" unicode="&#x4d9;" horiz-adv-x="586" 
d="M169 359l-119 59q73 118 228 118q121 0 196 -74.5t75 -193.5q0 -123 -74 -201t-190 -78q-115 0 -180 72.5t-65 199.5v41h355q-9 60 -32 84q-31 35 -87 35q-37 0 -61.5 -14t-45.5 -48zM392 209h-203q6 -56 28.5 -81.5t68.5 -25.5q45 0 70 25.5t36 81.5z" />
    <glyph glyph-name="uni04E2" unicode="&#x4e2;" horiz-adv-x="736" 
d="M82 0v715h156v-433l260 370v63h156v-715h-156v438l-260 -370v-68h-156zM239 790v106h259v-106h-259z" />
    <glyph glyph-name="uni04E3" unicode="&#x4e3;" horiz-adv-x="604" 
d="M70 0v523h153v-276l158 224v52h153v-523h-153v279l-158 -224v-55h-153zM173 626v106h259v-106h-259z" />
    <glyph glyph-name="uni04E8" unicode="&#x4e8;" horiz-adv-x="804" 
d="M400 726q157 0 255.5 -102t98.5 -264q0 -164 -98.5 -267.5t-255.5 -103.5q-155 0 -252.5 102t-97.5 265q0 160 99.5 265t250.5 105zM221 417h362q-12 85 -60 132.5t-121 47.5q-74 0 -121.5 -47t-59.5 -133zM583 298h-362q12 -85 60 -132.5t122 -47.5q75 0 121.5 46
t58.5 134z" />
    <glyph glyph-name="uni04E9" unicode="&#x4e9;" horiz-adv-x="615" 
d="M306 536q119 0 194 -76t75 -197t-75 -197.5t-193 -76.5q-119 0 -193 75t-74 195q0 121 75 199t191 78zM200 313h215q-17 104 -107 104q-91 0 -108 -104zM415 212h-215q8 -50 36 -77t71 -27q89 0 108 104z" />
    <glyph glyph-name="uni04EE" unicode="&#x4ee;" horiz-adv-x="549" 
d="M181 790v106h259v-106h-259zM20 -156l42 106q32 -21 63 -21q54 0 72 53l7 23l-200 518h166l113 -323l109 323h153l-204 -549q-32 -83 -81 -123t-121 -40q-67 0 -119 33z" />
    <glyph glyph-name="uni04EF" unicode="&#x4ef;" horiz-adv-x="558" 
d="M548 523l-205 -550q-31 -85 -79.5 -124t-119.5 -39q-65 0 -119 34l42 104q31 -19 64 -19q29 0 46.5 15.5t29.5 50.5l3 9l-200 519h163l115 -327l110 327h150zM150 626v106h259v-106h-259z" />
    <glyph glyph-name="Wgrave" unicode="&#x1e80;" horiz-adv-x="1032" 
d="M212 0l-184 715h168l118 -503l139 503h133l140 -507l124 507h154l-185 -715h-165l-136 483l-139 -483h-167zM464 771l-108 174h175l42 -174h-109z" />
    <glyph glyph-name="wgrave" unicode="&#x1e81;" horiz-adv-x="836" 
d="M174 0l-153 523h160l82 -335l97 335h131l87 -335l89 335h148l-158 -523h-151l-88 324l-92 -324h-152zM367 587l-108 166h175l42 -166h-109z" />
    <glyph glyph-name="Wacute" unicode="&#x1e82;" horiz-adv-x="1032" 
d="M212 0l-184 715h168l118 -503l139 503h133l140 -507l124 507h154l-185 -715h-165l-136 483l-139 -483h-167zM460 771l42 174h175l-109 -174h-108z" />
    <glyph glyph-name="wacute" unicode="&#x1e83;" horiz-adv-x="836" 
d="M174 0l-153 523h160l82 -335l97 335h131l87 -335l89 335h148l-158 -523h-151l-88 324l-92 -324h-152zM361 587l42 166h175l-109 -166h-108z" />
    <glyph glyph-name="Wdieresis" unicode="&#x1e84;" horiz-adv-x="1032" 
d="M212 0l-184 715h168l118 -503l139 503h133l140 -507l124 507h154l-185 -715h-165l-136 483l-139 -483h-167zM414 913q31 0 53.5 -22.5t22.5 -53.5q0 -32 -22.5 -55t-54.5 -23t-54.5 23t-22.5 55q0 31 23 53.5t55 22.5zM620 912q31 0 53.5 -22.5t22.5 -53.5
q0 -32 -23 -54.5t-54 -22.5t-53.5 23t-22.5 54q0 32 22.5 54t54.5 22z" />
    <glyph glyph-name="wdieresis" unicode="&#x1e85;" horiz-adv-x="836" 
d="M174 0l-153 523h160l82 -335l97 335h131l87 -335l89 335h148l-158 -523h-151l-88 324l-92 -324h-152zM311 755q32 0 55.5 -23.5t23.5 -56.5q0 -32 -23.5 -56t-55.5 -24q-33 0 -57 24t-24 56q0 33 24 56.5t57 23.5zM526 755q32 0 56 -23.5t24 -55.5q0 -33 -24 -57t-57 -24
q-32 0 -55.5 24t-23.5 56q0 33 23.5 56.5t56.5 23.5z" />
    <glyph glyph-name="Ygrave" unicode="&#x1ef2;" horiz-adv-x="606" 
d="M228 0v295l-248 420h179l154 -283l151 283h162l-238 -419v-296h-160zM251 771l-108 174h175l42 -174h-109z" />
    <glyph glyph-name="ygrave" unicode="&#x1ef3;" horiz-adv-x="558" 
d="M548 523l-205 -550q-31 -85 -79.5 -124t-119.5 -39q-65 0 -119 34l42 104q31 -19 64 -19q29 0 46.5 15.5t29.5 50.5l3 9l-200 519h163l115 -327l110 327h150zM228 587l-108 166h175l42 -166h-109z" />
    <glyph glyph-name="uni2002" unicode="&#x2002;" 
 />
    <glyph glyph-name="uni2003" unicode="&#x2003;" horiz-adv-x="1000" 
 />
    <glyph glyph-name="uni2004" unicode="&#x2004;" horiz-adv-x="333" 
 />
    <glyph glyph-name="uni2005" unicode="&#x2005;" horiz-adv-x="250" 
 />
    <glyph glyph-name="uni2006" unicode="&#x2006;" horiz-adv-x="167" 
 />
    <glyph glyph-name="uni2007" unicode="&#x2007;" horiz-adv-x="523" 
 />
    <glyph glyph-name="uni2008" unicode="&#x2008;" horiz-adv-x="255" 
 />
    <glyph glyph-name="uni2009" unicode="&#x2009;" horiz-adv-x="125" 
 />
    <glyph glyph-name="uni200A" unicode="&#x200a;" horiz-adv-x="42" 
 />
    <glyph glyph-name="uni2011" unicode="&#x2011;" horiz-adv-x="301" 
d="M34 258v139h233v-139h-233z" />
    <glyph glyph-name="figuredash" unicode="&#x2012;" horiz-adv-x="602" 
d="M58 265v125h485v-125h-485z" />
    <glyph glyph-name="endash" unicode="&#x2013;" horiz-adv-x="602" 
d="M58 265v125h485v-125h-485z" />
    <glyph glyph-name="emdash" unicode="&#x2014;" horiz-adv-x="602" 
d="M-40 265v125h682v-125h-682z" />
    <glyph glyph-name="afii00208" unicode="&#x2015;" horiz-adv-x="602" 
d="M-40 265v125h682v-125h-682z" />
    <glyph glyph-name="underscoredbl" unicode="&#x2017;" horiz-adv-x="440" 
d="M-20 -134v66h480v-66h-480zM-20 -246v66h480v-66h-480z" />
    <glyph glyph-name="quoteleft" unicode="&#x2018;" horiz-adv-x="292" 
d="M218 755v-58q-67 -20 -73 -99l8 -1q39 -3 60.5 -23.5t21.5 -55.5t-23.5 -57.5t-60.5 -22.5q-44 0 -69.5 33t-25.5 88q0 91 48 144q22 24 47 35.5t67 16.5z" />
    <glyph glyph-name="quoteright" unicode="&#x2019;" horiz-adv-x="292" 
d="M73 438v58q67 20 73 99l-8 1q-39 3 -60.5 23.5t-21.5 55.5t23.5 57.5t60.5 22.5q44 0 69.5 -33t25.5 -88q0 -90 -48 -144q-22 -24 -47 -35.5t-67 -16.5z" />
    <glyph glyph-name="quotesinglbase" unicode="&#x201a;" horiz-adv-x="292" 
d="M73 -159v58q67 20 73 99l-8 1q-39 3 -60.5 23.5t-21.5 55.5t23.5 57.5t60.5 22.5q44 0 69.5 -33t25.5 -88q0 -90 -48 -144q-22 -24 -47 -35.5t-67 -16.5z" />
    <glyph glyph-name="quotereversed" unicode="&#x201b;" horiz-adv-x="292" 
d="M218 755v-58q-67 -20 -73 -99l8 -1q39 -3 60.5 -23.5t21.5 -55.5t-23.5 -57.5t-60.5 -22.5q-44 0 -69.5 33t-25.5 88q0 91 48 144q22 24 47 35.5t67 16.5z" />
    <glyph glyph-name="quotedblleft" unicode="&#x201c;" horiz-adv-x="516" 
d="M442 755v-58q-67 -20 -73 -99l8 -1q39 -3 60.5 -23.5t21.5 -55.5t-23.5 -57.5t-60.5 -22.5q-44 0 -69.5 33t-25.5 88q0 91 48 144q22 24 47 35.5t67 16.5zM218 755v-58q-67 -20 -73 -99l8 -1q39 -3 60.5 -23.5t21.5 -55.5t-23.5 -57.5t-60.5 -22.5q-44 0 -69.5 33
t-25.5 88q0 91 48 144q22 24 47 35.5t67 16.5z" />
    <glyph glyph-name="quotedblright" unicode="&#x201d;" horiz-adv-x="516" 
d="M73 438v58q67 20 73 99l-8 1q-39 3 -60.5 23.5t-21.5 55.5t23.5 57.5t60.5 22.5q44 0 69.5 -33t25.5 -88q0 -90 -48 -144q-22 -24 -47 -35.5t-67 -16.5zM297 438v58q67 20 73 99l-8 1q-39 3 -60.5 23.5t-21.5 55.5t23.5 57.5t60.5 22.5q44 0 69.5 -33t25.5 -88
q0 -90 -48 -144q-22 -24 -47 -35.5t-67 -16.5z" />
    <glyph glyph-name="quotedblbase" unicode="&#x201e;" horiz-adv-x="516" 
d="M73 -159v58q67 20 73 99l-8 1q-39 3 -60.5 23.5t-21.5 55.5t23.5 57.5t60.5 22.5q44 0 69.5 -33t25.5 -88q0 -90 -48 -144q-22 -24 -47 -35.5t-67 -16.5zM297 -159v58q67 20 73 99l-8 1q-39 3 -60.5 23.5t-21.5 55.5t23.5 57.5t60.5 22.5q44 0 69.5 -33t25.5 -88
q0 -90 -48 -144q-22 -24 -47 -35.5t-67 -16.5z" />
    <glyph glyph-name="dagger" unicode="&#x2020;" horiz-adv-x="351" 
d="M228 307h-105v208h-87v100h87v100h105v-100h87v-100h-87v-208z" />
    <glyph glyph-name="daggerdbl" unicode="&#x2021;" horiz-adv-x="351" 
d="M228 307h-105v87h-87v88h87v57h-87v88h87v88h105v-88h87v-88h-87v-57h87v-88h-87v-87z" />
    <glyph glyph-name="bullet" unicode="&#x2022;" horiz-adv-x="400" 
d="M201 479q62 0 104 -42.5t42 -105.5t-42 -105t-105 -42t-105.5 42t-42.5 105q0 64 42.5 106t106.5 42z" />
    <glyph glyph-name="ellipsis" unicode="&#x2026;" horiz-adv-x="903" 
d="M152 178q38 0 65.5 -28t27.5 -66q0 -39 -27.5 -66.5t-66.5 -27.5t-66.5 27t-27.5 67t27.5 67t67.5 27zM453 178q38 0 65.5 -28t27.5 -66q0 -39 -27.5 -66.5t-66.5 -27.5t-66.5 27t-27.5 67t27.5 67t67.5 27zM754 178q38 0 65.5 -28t27.5 -66q0 -39 -27.5 -66.5
t-66.5 -27.5t-66.5 27t-27.5 67t27.5 67t67.5 27z" />
    <glyph glyph-name="perthousand" unicode="&#x2030;" horiz-adv-x="1436" 
d="M765 408q85 0 138.5 -57t53.5 -149q0 -95 -54 -153.5t-142 -58.5q-86 0 -138.5 57.5t-52.5 151.5t54 151.5t141 57.5zM1198 408q85 0 138.5 -57t53.5 -149q0 -95 -54 -153.5t-142 -58.5q-86 0 -138.5 57.5t-52.5 151.5t54 151.5t141 57.5zM241 723q85 0 138.5 -57.5
t53.5 -149.5q0 -95 -53.5 -153t-141.5 -58q-87 0 -139.5 57t-52.5 152q0 93 54 151t141 58zM244 0l400 715h114l-400 -715h-114zM240 621q-69 0 -69 -106t67 -106q70 0 70 106t-68 106zM763 306q-69 0 -69 -106t67 -106q70 0 70 106t-68 106zM1197 306q-69 0 -69 -106
t67 -106q69 0 69 106t-67 106z" />
    <glyph glyph-name="guilsinglleft" unicode="&#x2039;" horiz-adv-x="334" 
d="M161 37l-114 203l114 204h127l-116 -204l116 -203h-127z" />
    <glyph glyph-name="guilsinglright" unicode="&#x203a;" horiz-adv-x="334" 
d="M46 37l116 203l-116 204h126l115 -204l-115 -203h-126z" />
    <glyph glyph-name="uni203E" unicode="&#x203e;" horiz-adv-x="440" 
d="M-20 801v119h480v-119h-480z" />
    <glyph glyph-name="fraction" unicode="&#x2044;" horiz-adv-x="100" 
d="M-201 0l388 715h113l-387 -715h-114z" />
    <glyph glyph-name="uni205F" unicode="&#x205f;" horiz-adv-x="222" 
 />
    <glyph glyph-name="zerosuperior" unicode="&#x2070;" horiz-adv-x="451" 
d="M226 881q94 0 148 -61.5t54 -167.5t-54 -167.5t-148 -61.5q-95 0 -149 61.5t-54 170.5q0 97 52 162q52 64 151 64zM226 779q-57 0 -57 -125q0 -129 57 -129q56 0 56 127t-56 127z" />
    <glyph glyph-name="foursuperior" unicode="&#x2074;" horiz-adv-x="451" 
d="M219 431v75h-210v106l206 261h146v-270h57v-97h-57v-75h-142zM227 737l-108 -139h108v139z" />
    <glyph glyph-name="fivesuperior" unicode="&#x2075;" horiz-adv-x="451" 
d="M385 873v-101h-193l-7 -62q31 14 70 14q73 0 115 -38t42 -105q0 -76 -49.5 -117t-140.5 -41q-90 0 -139 34q-35 23 -55 75l113 42q22 -49 73 -49q26 0 41 15t15 41q0 24 -13 38t-35 14q-27 0 -47 -25h-124l31 265h303z" />
    <glyph glyph-name="sixsuperior" unicode="&#x2076;" horiz-adv-x="451" 
d="M413 810l-54 -69q-57 46 -106 46q-32 0 -50.5 -20t-26.5 -64q41 22 90 22q73 0 115 -39t42 -106q0 -73 -51 -115t-140 -42q-99 0 -151 56t-52 162q0 113 57 176.5t159 63.5q50 0 88 -16t80 -55zM229 631q-25 0 -40.5 -14.5t-15.5 -37.5q0 -24 15 -39t40 -15
q26 0 41.5 14.5t15.5 38.5t-15.5 38.5t-40.5 14.5z" />
    <glyph glyph-name="sevensuperior" unicode="&#x2077;" horiz-adv-x="451" 
d="M257 431h-154q8 104 46 185t111 154h-214v103h360v-89q-146 -146 -149 -353z" />
    <glyph glyph-name="eightsuperior" unicode="&#x2078;" horiz-adv-x="451" 
d="M103 666q-29 17 -41.5 36.5t-12.5 50.5q0 59 47.5 94t129.5 35q81 0 128.5 -35t47.5 -94q0 -31 -12.5 -50.5t-41.5 -36.5q41 -21 58 -44t17 -60q0 -66 -52 -102.5t-146 -36.5t-145.5 36.5t-51.5 103.5q0 36 17 59.5t58 43.5zM226 621q-27 0 -43 -13.5t-16 -36.5
q0 -24 15.5 -38.5t41.5 -14.5q28 0 44 14t16 38q0 23 -16 37t-42 14zM225 788q-21 0 -34.5 -11.5t-13.5 -30.5t13 -30.5t34 -11.5q23 0 36.5 11t13.5 31q0 19 -13.5 30.5t-35.5 11.5z" />
    <glyph glyph-name="ninesuperior" unicode="&#x2079;" horiz-adv-x="451" 
d="M34 494l54 69q55 -45 110 -45q36 0 54.5 20t22.5 64q-43 -22 -93 -22q-71 0 -112.5 38.5t-41.5 103.5q0 73 51 116t137 43q101 0 153.5 -55.5t52.5 -161.5q0 -114 -57 -177.5t-158 -63.5t-173 71zM222 779q-25 0 -40.5 -14.5t-15.5 -37.5q0 -24 15.5 -38.5t40.5 -14.5
t40.5 14.5t15.5 37.5q0 24 -15.5 38.5t-40.5 14.5z" />
    <glyph glyph-name="zeroinferior" unicode="&#x2080;" horiz-adv-x="451" 
d="M226 283q94 0 148 -61t54 -167t-54 -167.5t-148 -61.5q-95 0 -149 61.5t-54 169.5q0 97 52 162q52 64 151 64zM226 181q-57 0 -57 -125q0 -128 57 -128q56 0 56 127q0 126 -56 126z" />
    <glyph glyph-name="oneinferior" unicode="&#x2081;" horiz-adv-x="451" 
d="M82 -167v97h81v181q-28 -12 -83 -12v94q86 10 102 83h123v-346h73v-97h-296z" />
    <glyph glyph-name="twoinferior" unicode="&#x2082;" horiz-adv-x="451" 
d="M48 -167v101q112 57 161 102t49 91q0 47 -39 47q-20 0 -31.5 -12.5t-18.5 -40.5l-124 29q34 133 183 133q81 0 129 -40.5t48 -108.5q0 -120 -164 -195h165v-106h-358z" />
    <glyph glyph-name="threeinferior" unicode="&#x2083;" horiz-adv-x="451" 
d="M157 131l-113 30q44 123 189 123q80 0 127.5 -34.5t47.5 -92.5q0 -65 -73 -92q82 -24 82 -102q0 -63 -51 -100t-137 -37q-98 0 -153 47q-33 29 -46 83l119 28q14 -56 69 -56q53 0 53 44q0 41 -52 41h-36v87h36q54 0 54 42q0 40 -49 40q-50 0 -67 -51z" />
    <glyph glyph-name="fourinferior" unicode="&#x2084;" horiz-adv-x="451" 
d="M219 -167v75h-210v106l206 262h146v-271h57v-97h-57v-75h-142zM227 139l-108 -138h108v138z" />
    <glyph glyph-name="fiveinferior" unicode="&#x2085;" horiz-adv-x="451" 
d="M385 275v-101h-193l-7 -61q34 14 70 14q73 0 115 -38t42 -105q0 -77 -49.5 -118t-140.5 -41q-90 0 -139 34q-34 22 -55 75l113 42q22 -49 73 -49q26 0 41 15t15 42q0 24 -13 38t-35 14q-26 0 -47 -26h-124l31 265h303z" />
    <glyph glyph-name="sixinferior" unicode="&#x2086;" horiz-adv-x="451" 
d="M413 213l-54 -69q-58 45 -106 45q-32 0 -50.5 -20t-26.5 -64q43 23 90 23q73 0 115 -39t42 -106q0 -73 -51.5 -115t-140.5 -42q-98 0 -150 55.5t-52 161.5q0 113 57 176.5t158 63.5q51 0 89.5 -16t79.5 -54zM229 34q-25 0 -40.5 -14.5t-15.5 -37.5q0 -24 15 -39t40 -15
q26 0 41.5 14.5t15.5 38.5t-15.5 38.5t-40.5 14.5z" />
    <glyph glyph-name="seveninferior" unicode="&#x2087;" horiz-adv-x="451" 
d="M257 -167h-154q8 104 46 185t111 154h-214v103h360v-89q-146 -146 -149 -353z" />
    <glyph glyph-name="eightinferior" unicode="&#x2088;" horiz-adv-x="451" 
d="M103 69q-29 17 -41.5 36t-12.5 50q0 59 47.5 94t129.5 35q81 0 128.5 -35t47.5 -94q0 -31 -12.5 -50t-41.5 -36q41 -21 58 -44t17 -60q0 -66 -52 -102.5t-146 -36.5t-145.5 36.5t-51.5 102.5q0 37 17 60t58 44zM226 24q-27 0 -43 -13.5t-16 -36.5q0 -24 15.5 -38.5
t41.5 -14.5q28 0 44 14t16 38q0 23 -16 37t-42 14zM225 190q-21 0 -34.5 -11.5t-13.5 -29.5q0 -19 13 -30.5t34 -11.5q23 0 36.5 11t13.5 30t-13.5 30.5t-35.5 11.5z" />
    <glyph glyph-name="nineinferior" unicode="&#x2089;" horiz-adv-x="451" 
d="M34 -104l54 69q55 -45 111 -45q35 0 53 20.5t23 64.5q-42 -23 -93 -23q-70 0 -112 38t-42 103q0 73 51 116.5t137 43.5q101 0 153.5 -55t52.5 -161q0 -114 -57 -177.5t-159 -63.5q-101 0 -172 70zM222 181q-25 0 -40.5 -14.5t-15.5 -38.5q0 -23 15.5 -37.5t40.5 -14.5
t40.5 14.5t15.5 37.5q0 24 -15.5 38.5t-40.5 14.5z" />
    <glyph glyph-name="uni20A8" unicode="&#x20a8;" horiz-adv-x="653" 
d="M464 559h134l-74 -100h-61q-23 -102 -130 -130q51 -15 76.5 -47t38.5 -96q35 -151 58 -182v-4h-164q-27 49 -53 172q-12 55 -38 78t-75 23h-63v119h86q90 0 109 67h-252l74 100h169q-24 48 -79 48h-164l74 100h468l-74 -100h-78q11 -20 18 -48z" />
    <glyph glyph-name="Euro" unicode="&#x20ac;" horiz-adv-x="602" 
d="M-6 389v76h72q17 67 36 105.5t53 73.5q79 82 198 82q115 0 181 -76q35 -40 59 -112q2 -5 4 -13l-136 -43q-19 67 -44 94t-67 27q-95 0 -127 -138h155v-76h-164q-1 -10 -1 -31q0 -27 1 -38h164v-76h-153q18 -70 48 -101t80 -31q68 0 98 74q5 12 16 54l140 -40
q-27 -103 -93 -157t-166 -54q-124 0 -202 86q-30 35 -47 70t-33 99h-72v76h62q-1 11 -1 38q0 22 1 31h-62z" />
    <glyph glyph-name="uni20B4" unicode="&#x20b4;" horiz-adv-x="651" 
d="M596 243h-414q-11 -15 -11 -35q0 -41 38.5 -67t98.5 -26t98 24.5t60 78.5l138 -59q-42 -88 -114 -129t-184 -41q-136 0 -209 58t-73 166q0 10 2 30h-27v76h71q16 25 62 48h-132v76h325q28 1 60 22q34 23 34 57q0 37 -26.5 57t-75.5 20q-54 0 -87 -18.5t-59 -63.5l-129 60
q81 148 276 148q113 0 182 -55t69 -145q0 -52 -26 -82h53v-76h-112q-30 -14 -49 -22q-14 -5 -34 -11l-24 -6q-7 -2 -23 -9h242v-76z" />
    <glyph glyph-name="uni2103" unicode="&#x2103;" horiz-adv-x="941" 
d="M761 254l143 -58q-38 -97 -105 -147q-81 -60 -197 -60q-157 0 -250 99.5t-93 266.5q0 164 95 267.5t245 103.5q134 0 216 -76q46 -43 81 -124l-142 -58q-26 69 -61.5 99t-93.5 30q-83 0 -128 -62t-45 -177q0 -116 45.5 -178t130.5 -62q59 0 97 32.5t62 103.5zM126 699
q-29 0 -49 -20t-20 -50q0 -29 20 -49t49 -20q30 0 50 20t20 49q0 30 -20 50t-50 20zM126 749q49 0 83.5 -35t34.5 -84t-34.5 -83.5t-83.5 -34.5t-84 34.5t-35 83.5q0 50 34.5 84.5t84.5 34.5z" />
    <glyph glyph-name="uni2109" unicode="&#x2109;" horiz-adv-x="864" 
d="M329 0v715h493v-129h-333v-189h257v-125h-257v-272h-160zM126 688q-29 0 -49 -20t-20 -50q0 -29 20 -49t49 -20q30 0 50 20t20 49q0 30 -20 50t-50 20zM126 738q49 0 83.5 -35t34.5 -84t-34.5 -83.5t-83.5 -34.5t-84 34.5t-35 83.5t34.5 84t84.5 35z" />
    <glyph glyph-name="afii61352" unicode="&#x2116;" horiz-adv-x="1333" 
d="M80 0v715h184l263 -480v480h148v-715h-177l-270 492v-492h-148zM1027 695q113 0 185 -72.5t72 -186.5q0 -118 -73 -193t-188 -75t-187 73.5t-72 190.5t73 190t190 73zM1027 581q-108 0 -108 -144q0 -70 27.5 -108t77.5 -38q52 0 79 38t27 109q0 69 -26.5 106t-76.5 37z
M779 0v118h485v-118h-485z" />
    <glyph glyph-name="uni2117" unicode="&#x2117;" horiz-adv-x="827" 
d="M417 723q151 0 254.5 -106t103.5 -260q0 -155 -104.5 -260.5t-258.5 -105.5q-153 0 -257 105t-104 259q0 157 105 262.5t261 105.5zM416 669q-132 0 -217 -88.5t-85 -225.5q0 -134 84.5 -222t212.5 -88q130 0 215.5 89t85.5 223t-84.5 223t-211.5 89zM268 160v394h178
q73 0 113.5 -35t40.5 -99q0 -61 -39.5 -94.5t-110.5 -33.5h-71v-132h-111zM379 371h56q57 0 57 50q0 51 -57 51h-56v-101z" />
    <glyph glyph-name="uni2120" unicode="&#x2120;" horiz-adv-x="791" 
d="M371 394v321h118l68 -216l65 216h118v-321h-83v206l-67 -206h-71l-65 206v-206h-83zM309 655l-69 -32q-22 34 -61 34q-41 0 -41 -28q0 -13 12.5 -20.5t47.5 -14.5q71 -13 97 -35t26 -67q0 -49 -35 -76.5t-99 -27.5q-106 0 -145 75l72 32q20 -44 71 -44q48 0 48 33
q0 16 -14 22.5t-77 18.5q-88 19 -88 96q0 47 33.5 73t94.5 26q89 0 127 -65z" />
    <glyph glyph-name="uni2121" unicode="&#x2121;" horiz-adv-x="915" 
d="M657 392v324h88v-249h134v-75h-222zM368 397v325h233v-75h-146v-49h112v-71h-112v-55h153v-75h-240zM133 394v245h-98v76h283v-76h-92v-245h-93z" />
    <glyph glyph-name="trademark" unicode="&#x2122;" horiz-adv-x="787" 
d="M368 394v321h118l68 -217l64 217h119v-321h-83v205l-67 -205h-71l-65 205v-205h-83zM133 394v245h-98v76h283v-76h-92v-245h-93z" />
    <glyph glyph-name="uni2126" unicode="&#x2126;" horiz-adv-x="835" 
d="M35 0v111h123q-103 91 -103 249q0 163 100 264t262 101t262 -101t100 -264q0 -158 -103 -249h123v-111h-319v112q132 44 132 235q0 121 -50 184.5t-145 63.5t-145 -63.5t-50 -184.5q0 -192 132 -235v-112h-319z" />
    <glyph glyph-name="uni212A" unicode="&#x212a;" horiz-adv-x="703" 
d="M82 0v715h160v-308l243 308h178l-246 -303l263 -412h-179l-190 294l-69 -84v-210h-160z" />
    <glyph glyph-name="uni212B" unicode="&#x212b;" horiz-adv-x="719" 
d="M362 980q46 0 79 -32t33 -77q0 -46 -33 -77.5t-81 -31.5t-81 31.5t-33 77.5q0 47 33.5 78t82.5 31zM360 917q-20 0 -32.5 -12.5t-12.5 -32.5t13 -33.5t32 -13.5t32 13t13 33t-13 33t-32 13zM711 0h-170l-46 136h-290l-47 -136h-150l262 715h184zM457 250l-106 314
l-108 -314h214z" />
    <glyph glyph-name="estimated" unicode="&#x212e;" horiz-adv-x="556" 
d="M521 237h-386v-143q54 -64 150 -64q63 0 105 22.5t75 73.5l38 -23q-43 -61 -94 -88t-123 -27q-115 0 -183 73t-68 198t65.5 198t178.5 73t177.5 -72t64.5 -199v-22zM421 279v145q-16 27 -57 45.5t-87 18.5q-96 0 -142 -65v-144h286z" />
    <glyph glyph-name="onethird" unicode="&#x2153;" horiz-adv-x="920" 
d="M63 313v88h73v164q-24 -9 -75 -11v86q77 9 92 75h112v-314h67v-88h-269zM197 0l388 715h113l-387 -715h-114zM640 270l-102 27q40 112 172 112q72 0 115.5 -31.5t43.5 -83.5q0 -60 -67 -84q75 -23 75 -92q0 -58 -46 -91.5t-125 -33.5q-153 0 -181 118l108 26
q14 -51 63 -51q48 0 48 40q0 37 -47 37h-33v79h33q49 0 49 38q0 36 -45 36q-44 0 -61 -46z" />
    <glyph glyph-name="twothirds" unicode="&#x2154;" horiz-adv-x="920" 
d="M44 313v91q102 52 146.5 93.5t44.5 82.5q0 43 -36 43q-33 0 -45 -49l-113 27q34 121 167 121q73 0 116.5 -37t43.5 -98q0 -110 -149 -178h150v-96h-325zM222 0l388 715h113l-387 -715h-114zM653 270l-102 27q40 112 172 112q72 0 115.5 -31.5t43.5 -83.5q0 -60 -67 -84
q75 -23 75 -92q0 -58 -46 -91.5t-125 -33.5q-153 0 -181 118l108 26q14 -51 63 -51q48 0 48 40q0 37 -47 37h-33v79h33q49 0 49 38q0 36 -45 36q-44 0 -61 -46z" />
    <glyph glyph-name="oneeighth" unicode="&#x215b;" horiz-adv-x="920" 
d="M75 313v88h73v164q-24 -9 -75 -11v86q77 9 92 75h112v-314h67v-88h-269zM209 0l388 715h113l-387 -715h-114zM604 214q-50 28 -50 78q0 55 43.5 86.5t117.5 31.5t117.5 -31.5t43.5 -86.5q0 -50 -50 -78q37 -19 52.5 -40t15.5 -54q0 -61 -47 -94t-132 -33q-86 0 -133 33
t-47 94q0 33 15.5 54t53.5 40zM715 172q-25 0 -39.5 -12.5t-14.5 -33.5t14.5 -34t37.5 -13q25 0 40 12.5t15 34.5q0 21 -14.5 33.5t-38.5 12.5zM716 325q-21 0 -33.5 -10.5t-12.5 -27.5q0 -18 12 -28.5t32 -10.5q21 0 33.5 10.5t12.5 27.5t-12.5 28t-31.5 11z" />
    <glyph glyph-name="threeeighths" unicode="&#x215c;" horiz-adv-x="920" 
d="M143 583l-102 27q40 112 172 112q72 0 115.5 -31.5t43.5 -83.5q0 -60 -67 -84q75 -23 75 -92q0 -58 -46 -91.5t-125 -33.5q-153 0 -181 118l108 26q14 -51 63 -51q48 0 48 40q0 37 -47 37h-33v79h33q49 0 49 38q0 36 -45 36q-44 0 -61 -46zM210 0l388 715h113l-387 -715
h-114zM595 214q-49 27 -49 78q0 55 43.5 86.5t117.5 31.5t117 -31.5t43 -86.5q0 -27 -11 -44.5t-38 -33.5q37 -19 52.5 -40t15.5 -54q0 -61 -47 -94t-132 -33q-86 0 -133 33t-47 94q0 33 15.5 54t52.5 40zM707 172q-25 0 -39.5 -12.5t-14.5 -33.5t14.5 -34t37.5 -13
q25 0 40 12.5t15 34.5q0 21 -14.5 33.5t-38.5 12.5zM707 325q-20 0 -32.5 -10.5t-12.5 -27.5q0 -18 11.5 -28.5t31.5 -10.5q21 0 33.5 10.5t12.5 27.5t-12.5 28t-31.5 11z" />
    <glyph glyph-name="fiveeighths" unicode="&#x215d;" horiz-adv-x="920" 
d="M350 715v-92h-175l-7 -56q30 13 64 13q66 0 104 -34.5t38 -95.5q0 -69 -45 -106.5t-128 -37.5q-81 0 -126 31q-29 19 -50 68l103 38q21 -44 66 -44q24 0 37.5 13.5t13.5 37.5q0 22 -12 34.5t-32 12.5q-23 0 -42 -23h-113l28 241h276zM209 0l388 715h113l-387 -715h-114z
M604 214q-50 27 -50 78q0 55 43.5 86.5t117.5 31.5t117 -31.5t43 -86.5q0 -51 -49 -78q37 -19 52.5 -40t15.5 -54q0 -61 -47 -94t-132 -33q-86 0 -133 33t-47 94q0 33 15.5 54t53.5 40zM715 172q-25 0 -39.5 -12.5t-14.5 -33.5t14.5 -34t37.5 -13q25 0 40 12.5t15 34.5
q0 21 -14.5 33.5t-38.5 12.5zM715 325q-20 0 -32.5 -10.5t-12.5 -27.5q0 -18 11.5 -28.5t31.5 -10.5q21 0 33.5 10.5t12.5 27.5t-12.5 28t-31.5 11z" />
    <glyph glyph-name="seveneighths" unicode="&#x215e;" horiz-adv-x="920" 
d="M249 313h-140q14 182 142 308h-194v94h327v-81q-132 -133 -135 -321zM152 0l388 715h113l-387 -715h-114zM563 214q-50 28 -50 78q0 55 43.5 86.5t117.5 31.5t117.5 -31.5t43.5 -86.5q0 -50 -50 -78q38 -19 53.5 -40t15.5 -54q0 -61 -47 -94t-132 -33q-86 0 -133 33
t-47 94q0 33 15.5 54t52.5 40zM675 172q-25 0 -39.5 -12.5t-14.5 -33.5t14.5 -34t37.5 -13q25 0 40 12.5t15 34.5q0 21 -14.5 33.5t-38.5 12.5zM675 325q-21 0 -33.5 -10.5t-12.5 -27.5q0 -18 12 -28.5t32 -10.5q21 0 33.5 10.5t12.5 27.5t-12.5 28t-31.5 11z" />
    <glyph glyph-name="partialdiff" unicode="&#x2202;" horiz-adv-x="602" 
d="M162 692l63 95q178 -91 260.5 -209.5t82.5 -284.5q0 -145 -70 -224.5t-197 -79.5q-119 0 -193 74.5t-74 195.5q0 111 64 182.5t164 71.5q68 0 119 -43q-58 117 -219 222zM301 407q-53 0 -82 -39.5t-29 -110.5q0 -73 29 -113t81 -40q54 0 83 39.5t29 112.5q0 72 -29 111.5
t-82 39.5z" />
    <glyph glyph-name="Delta" unicode="&#x2206;" horiz-adv-x="602" 
d="M649 0h-697l255 715h192zM140 119h302l-150 455z" />
    <glyph glyph-name="product" unicode="&#x220f;" horiz-adv-x="602" 
d="M40 -182v137l185 330l-170 294v136h488v-130h-317l169 -300l-183 -337h365v-130h-537z" />
    <glyph glyph-name="summation" unicode="&#x2211;" horiz-adv-x="602" 
d="M639 718v-129h-69v-763h-160v763h-217v-763h-160v763h-69v129h675z" />
    <glyph glyph-name="minus" unicode="&#x2212;" horiz-adv-x="560" 
d="M46 275v133h469v-133h-469z" />
    <glyph glyph-name="radical" unicode="&#x221a;" horiz-adv-x="602" 
d="M200 0l-110 301h-85v97h202l86 -252l225 775h311v-116h-196l-240 -805h-193z" />
    <glyph glyph-name="infinity" unicode="&#x221e;" horiz-adv-x="829" 
d="M414 265q-44 -53 -88.5 -76.5t-102.5 -23.5q-83 0 -130 46.5t-47 128.5t47.5 128t130.5 46q58 0 102 -23.5t88 -76.5q44 53 88 76.5t102 23.5q83 0 130.5 -46t47.5 -128t-47.5 -128.5t-130.5 -46.5q-58 0 -102 23.5t-88 76.5zM360 339l-9 10q-68 69 -121 69
q-36 0 -57.5 -21.5t-21.5 -56.5q0 -36 21.5 -57.5t56.5 -21.5q31 0 55.5 14t64.5 54zM468 339l11 -10q40 -40 64.5 -54t54.5 -14q36 0 57.5 21.5t21.5 57.5q0 35 -21.5 56.5t-57.5 21.5q-52 0 -120 -69z" />
    <glyph glyph-name="integral" unicode="&#x222b;" horiz-adv-x="507" 
d="M53 -151l25 105q26 -13 48 -13q29 0 40 21q10 17 10 82v553q0 76 4 107t18 56q38 69 146 69q55 0 109 -17l-21 -108q-29 12 -50 12q-24 0 -37 -21q-9 -17 -9 -68v-575q0 -110 -15 -145q-36 -79 -153 -79q-56 0 -115 21z" />
    <glyph glyph-name="uni2243" unicode="&#x2243;" horiz-adv-x="560" 
d="M401 534l100 -7q-25 -173 -138 -173q-41 0 -97 35q-37 24 -58 24t-32.5 -14t-16.5 -47l-100 7q7 47 16 73t28 52q34 48 94 48q41 0 97 -35q37 -24 58 -24t32 13.5t17 47.5zM64 158v125h432v-125h-432z" />
    <glyph glyph-name="approxequal" unicode="&#x2248;" horiz-adv-x="560" 
d="M398 317l108 -8q-13 -87 -46 -131q-35 -49 -97 -49q-43 0 -98 36q-38 23 -57 23q-20 0 -30 -13.5t-15 -47.5l-108 7q7 50 16 77.5t29 54.5q36 49 97 49q44 0 99 -36q38 -23 57 -23t29 13t16 48zM398 538l108 -8q-13 -87 -46 -131q-35 -49 -97 -49q-43 0 -98 36
q-38 23 -57 23q-20 0 -30 -13.5t-15 -47.5l-108 7q7 50 16 77.5t29 54.5q36 49 97 49q44 0 99 -36q38 -23 57 -23t29 13t16 48z" />
    <glyph glyph-name="notequal" unicode="&#x2260;" horiz-adv-x="560" 
d="M423 502h73v-129h-135l-42 -90h177v-125h-237l-47 -99l-101 44l26 55h-73v125h133l42 90h-175v129h237l47 99l101 -43z" />
    <glyph glyph-name="lessequal" unicode="&#x2264;" horiz-adv-x="560" 
d="M477 167l-401 194v110l401 194v-150l-241 -97l241 -104v-147zM76 0v128h401v-128h-401z" />
    <glyph glyph-name="greaterequal" unicode="&#x2265;" horiz-adv-x="560" 
d="M84 665l401 -194v-109l-401 -195v151l241 97l-241 104v146zM485 0h-401v128h401v-128z" />
    <glyph glyph-name="dotmath" unicode="&#x22c5;" horiz-adv-x="301" 
d="M152 421q38 0 65.5 -28t27.5 -67q0 -38 -27.5 -65.5t-66.5 -27.5t-66.5 27t-27.5 66q0 40 27.5 67.5t67.5 27.5z" />
    <glyph glyph-name="uni2300" unicode="&#x2300;" horiz-adv-x="893" 
d="M636 632l117 118l90 -90l-119 -120q54 -83 54 -183q0 -137 -98 -235t-236 -98q-98 0 -177 51l-2 1l-2 1l-123 -122l-90 90l121 121q-61 86 -61 193q0 137 98 235t236 98q102 0 192 -60zM629 445l-271 -272q40 -19 85 -19q85 0 145 60t60 145q0 44 -19 86zM265 260
l276 277q-44 25 -97 25q-85 0 -144.5 -60t-59.5 -145q0 -53 25 -97z" />
    <glyph glyph-name="uni25B2" unicode="&#x25b2;" horiz-adv-x="707" 
d="M354 627l311 -539h-623z" />
    <glyph glyph-name="uni25B3" unicode="&#x25b3;" horiz-adv-x="707" 
d="M354 520l-219 -379h438zM354 627l311 -539h-623z" />
    <glyph glyph-name="uni25B6" unicode="&#x25b6;" horiz-adv-x="707" 
d="M631 357l-539 -311v623z" />
    <glyph glyph-name="uni25B7" unicode="&#x25b7;" horiz-adv-x="707" 
d="M524 357l-379 220v-439zM631 357l-539 -311v623z" />
    <glyph glyph-name="uni25BC" unicode="&#x25bc;" horiz-adv-x="707" 
d="M354 88l-312 539h623z" />
    <glyph glyph-name="uni25BD" unicode="&#x25bd;" horiz-adv-x="707" 
d="M354 194l219 379h-438zM354 88l-312 539h623z" />
    <glyph glyph-name="uni25C0" unicode="&#x25c0;" horiz-adv-x="707" 
d="M77 357l539 312v-623z" />
    <glyph glyph-name="uni25C1" unicode="&#x25c1;" horiz-adv-x="707" 
d="M183 357l379 -219v439zM77 357l539 312v-623z" />
    <glyph glyph-name="lozenge" unicode="&#x25ca;" horiz-adv-x="602" 
d="M301 -31l-319 388l319 389l319 -389zM301 171l150 186l-150 187l-150 -187z" />
    <glyph glyph-name="uni25CB" unicode="&#x25cb;" horiz-adv-x="655" 
d="M331 449q-80 0 -135.5 -54t-55.5 -132q0 -79 54.5 -134t133.5 -55q77 0 132 55t55 133q0 76 -54.5 131.5t-129.5 55.5zM332 529q107 0 185 -79t78 -188q0 -111 -78.5 -189.5t-188.5 -78.5q-112 0 -190 78.5t-78 191.5q0 110 79.5 187.5t192.5 77.5z" />
    <glyph glyph-name="uni25CF" unicode="&#x25cf;" horiz-adv-x="655" 
d="M332 529q107 0 185 -79t78 -188q0 -111 -78.5 -189.5t-188.5 -78.5q-112 0 -190 78.5t-78 191.5q0 110 79.5 187.5t192.5 77.5z" />
    <glyph glyph-name="commaaccent" unicode="&#xf6c3;" 
d="M180 -271v57q28 3 44.5 15.5t18.5 31.5q-66 7 -66 63q0 28 19.5 46t48.5 18q36 0 57.5 -25t21.5 -66q0 -61 -37 -98q-35 -36 -107 -42z" />
    <glyph glyph-name="Acute" unicode="&#xf6c9;" 
d="M194 771l42 174h175l-109 -174h-108z" />
    <glyph glyph-name="Caron" unicode="&#xf6ca;" 
d="M193 775l-110 170h106l62 -70l62 70h104l-110 -170h-114z" />
    <glyph glyph-name="Dieresis" unicode="&#xf6cb;" 
d="M148 913q31 0 53.5 -22.5t22.5 -53.5q0 -32 -22.5 -55t-54.5 -23t-54.5 23t-22.5 55q0 31 23 53.5t55 22.5zM354 912q31 0 53.5 -22.5t22.5 -53.5q0 -32 -23 -54.5t-54 -22.5t-53.5 23t-22.5 54q0 32 22.5 54t54.5 22z" />
    <glyph glyph-name="Grave" unicode="&#xf6ce;" 
d="M198 771l-108 174h175l42 -174h-109z" />
    <glyph glyph-name="Hungarumlaut" unicode="&#xf6cf;" 
d="M99 771l28 174h153l-77 -174h-104zM291 771l28 174h152l-76 -174h-104z" />
    <glyph glyph-name="Macron" unicode="&#xf6d0;" 
d="M121 790v106h259v-106h-259z" />
    <glyph glyph-name="Dbreve" horiz-adv-x="754" 
d="M82 0v715h265q170 0 263.5 -93t93.5 -262q0 -172 -94.5 -266t-267.5 -94h-260zM242 127h108q91 0 139 59t48 172q0 112 -48.5 171t-139.5 59h-107v-461zM402 919h101q-8 -70 -48 -107q-43 -40 -111 -40t-110 39q-40 37 -48 108h101q10 -48 58 -48t57 48z" />
    <glyph glyph-name="Adotaccent" horiz-adv-x="719" 
d="M711 0h-170l-46 136h-290l-47 -136h-150l262 715h184zM457 250l-106 314l-108 -314h214zM361 921q32 0 55.5 -23.5t23.5 -55.5q0 -33 -24 -57t-56 -24q-33 0 -56.5 24t-23.5 57t23.5 56t57.5 23z" />
    <glyph glyph-name="Fdotaccent" horiz-adv-x="617" 
d="M82 0v715h493v-129h-333v-189h257v-125h-257v-272h-160zM330 921q32 0 55.5 -23.5t23.5 -55.5q0 -33 -24 -57t-56 -24q-33 0 -56.5 24t-23.5 57t23.5 56t57.5 23z" />
    <glyph glyph-name="ahungarumlaut" horiz-adv-x="562" 
d="M511 0h-148q-7 19 -14 62q-55 -73 -149 -73q-74 0 -118.5 40.5t-44.5 107.5q0 90 75 134.5t231 45.5v14q0 43 -20 62.5t-64 19.5q-73 0 -148 -51l-65 98q98 76 235 76q121 0 176 -65q40 -48 40 -143v-237q0 -48 14 -85v-6zM344 179v46q-83 -2 -120 -19.5t-37 -54.5
q0 -25 16.5 -39t45.5 -14q43 0 69 22.5t26 58.5zM122 587l28 166h153l-77 -166h-104zM314 587l28 166h152l-76 -166h-104z" />
    <glyph glyph-name="adotaccent" horiz-adv-x="562" 
d="M511 0h-148q-7 19 -14 62q-55 -73 -149 -73q-74 0 -118.5 40.5t-44.5 107.5q0 90 75 134.5t231 45.5v14q0 43 -20 62.5t-64 19.5q-73 0 -148 -51l-65 98q98 76 235 76q121 0 176 -65q40 -48 40 -143v-237q0 -48 14 -85v-6zM344 179v46q-83 -2 -120 -19.5t-37 -54.5
q0 -25 16.5 -39t45.5 -14q43 0 69 22.5t26 58.5zM282 755q32 0 55.5 -23.5t23.5 -55.5q0 -33 -24 -57t-56 -24q-33 0 -56.5 24t-23.5 57t23.5 56t57.5 23z" />
    <glyph glyph-name="one.fitted" horiz-adv-x="507" 
d="M48 0v125h152v375q-56 -22 -148 -20v113q78 7 118.5 37.5t54.5 92.5h130v-598h136v-125h-443z" />
    <glyph glyph-name="two.fitted" horiz-adv-x="571" 
d="M20 0v122q86 56 122 82.5t78 64.5q130 119 130 234q0 48 -21.5 74t-61.5 26t-65 -26t-41 -82l-140 34q55 197 253 197q110 0 173.5 -60t63.5 -164q0 -136 -120 -255q-54 -53 -167 -124h295v-123h-499z" />
    <glyph glyph-name="three.fitted" horiz-adv-x="599" 
d="M162 503l-128 36q60 187 264 187q109 0 176.5 -55t67.5 -144q0 -104 -114 -151q132 -44 132 -171q0 -99 -73 -157.5t-197 -58.5q-132 0 -211 67q-56 47 -75 132l139 35q16 -58 50 -84.5t90 -26.5q55 0 85.5 27t30.5 74q0 46 -30.5 71t-85.5 25h-65v113h61q50 0 78.5 24
t28.5 67q0 42 -25 66t-69 24q-46 0 -77.5 -24t-52.5 -76z" />
    <glyph glyph-name="four.fitted" horiz-adv-x="597" 
d="M350 0v140h-345v125l323 458h168v-464h89v-119h-89v-140h-146zM357 568l-212 -309h212v309z" />
    <glyph glyph-name="five.fitted" horiz-adv-x="604" 
d="M212 592l-20 -173q48 54 140 54q103 0 163.5 -63.5t60.5 -170.5q0 -115 -71.5 -182.5t-193.5 -67.5q-133 0 -210 75q-22 22 -33 40t-22 51l-4 10l145 40q28 -93 117 -93q54 0 84.5 33t30.5 92q0 57 -30 90t-81 33q-70 0 -102 -60h-132l45 415h415v-123h-302z" />
    <glyph glyph-name="six.fitted" horiz-adv-x="642" 
d="M331 353q-49 0 -80 -33.5t-31 -86.5q0 -56 30.5 -90t80.5 -34t80.5 33.5t30.5 88.5t-30.5 88.5t-80.5 33.5zM568 598l-110 -71q-25 43 -48.5 59.5t-58.5 16.5q-130 0 -145 -224q56 87 165 87q98 0 159.5 -64t61.5 -167q0 -110 -71 -178t-186 -68q-129 0 -206 94
q-75 90 -75 258q0 175 81 280t217 105q144 0 216 -128z" />
    <glyph glyph-name="seven.fitted" horiz-adv-x="473" 
d="M247 0h-171q11 172 73.5 326t168.5 266h-317v123h469v-116q-100 -109 -159.5 -268.5t-63.5 -330.5z" />
    <glyph glyph-name="eight.fitted" horiz-adv-x="637" 
d="M319 327q-54 0 -87 -29.5t-33 -78.5q0 -52 32.5 -82t87.5 -30q54 0 86.5 30t32.5 80t-32.5 80t-86.5 30zM319 613q-44 0 -72 -26t-28 -67q0 -43 27.5 -69t72.5 -26q43 0 71 26.5t28 67.5t-28 67.5t-71 26.5zM473 379q124 -55 124 -176q0 -97 -76 -155.5t-202 -58.5
q-127 0 -203 58.5t-76 155.5q0 122 125 176q-93 52 -93 148q0 87 69 143t178 56q108 0 177 -56t69 -143q0 -95 -92 -148z" />
    <glyph glyph-name="nine.fitted" horiz-adv-x="632" 
d="M306 606q-46 0 -76.5 -32t-30.5 -81q0 -51 30 -83.5t77 -32.5q46 0 76 32.5t30 82.5q0 49 -30 81.5t-76 32.5zM46 128l123 63q20 -43 45 -61t67 -18q71 0 105 56.5t38 182.5q-53 -87 -160 -87q-96 0 -155.5 59.5t-59.5 154.5q0 111 71 179.5t185 68.5q132 0 202.5 -91.5
t70.5 -262.5q0 -184 -76.5 -283.5t-216.5 -99.5q-108 0 -178 59q-31 25 -61 80z" />
    <glyph glyph-name="zero.fitted" horiz-adv-x="630" 
d="M315 603q-51 0 -79.5 -63.5t-28.5 -178.5q0 -121 28 -185t81 -64q51 0 79 64t28 182q0 117 -28 181t-80 64zM315 726q124 0 196.5 -99.5t72.5 -268.5q0 -156 -68 -263q-32 -51 -84.5 -78.5t-115.5 -27.5q-125 0 -197.5 100t-72.5 273q0 155 68 258q69 106 201 106z" />
    <glyph glyph-name="sterling.fitted" horiz-adv-x="602" 
d="M191 112q-4 3 -10 8q-26 19 -52 19q-17 0 -27 -9.5t-10 -25.5q0 -33 40 -33q37 0 59 41zM38 299v95h70q-23 62 -23 120q0 100 62.5 156t173.5 56q124 0 195 -68q22 -22 34 -41t26 -58q3 -5 4 -12l-137 -47q-18 57 -43 80t-69 23q-41 0 -63 -26t-22 -73q0 -42 24 -110h171
v-95h-138q21 -70 21 -122q0 -17 -3 -36q38 -29 73 -29q30 0 46.5 18t23.5 61l131 -17q-9 -55 -16.5 -78.5t-23.5 -46.5q-42 -60 -129 -60q-78 0 -156 55q-57 -54 -136 -54q-61 0 -97.5 31t-36.5 84q0 50 33 81t86 31q36 0 74 -17q-15 56 -41 99h-114z" />
    <glyph glyph-name="dollar.fitted" horiz-adv-x="630" 
d="M278 -135v125q-96 7 -165 52.5t-99 119.5l127 58q23 -51 55 -77t82 -33v188q-97 20 -145 51q-87 53 -87 164q0 126 109 182q49 25 123 30v88h75v-90q78 -11 129.5 -45t88.5 -100l-118 -63q-22 39 -44.5 59t-55.5 29v-178q102 -22 147 -48q90 -52 90 -167q0 -116 -92 -176
q-54 -33 -145 -43v-126h-75zM353 283v-174q95 15 95 87q0 35 -21 54t-74 33zM278 440v169q-49 -7 -71.5 -27t-22.5 -57q0 -34 21 -53t73 -32z" />
    <glyph glyph-name="cent.fitted" horiz-adv-x="595" 
d="M284 -135v126q-59 9 -96.5 27.5t-69.5 54.5q-64 72 -64 185q0 118 68 194q32 36 68.5 54.5t93.5 27.5v95h73v-96q132 -17 190 -132l-119 -56q-31 58 -71 70v-313q53 15 82 81l113 -54q-52 -124 -195 -138v-126h-73zM284 103v312q-82 -31 -82 -155q0 -126 82 -157z" />
    <glyph glyph-name="florin.fitted" horiz-adv-x="423" 
d="M37 300v114h94l16 135q10 90 53 133t122 43q64 0 118 -26l-27 -106q-27 17 -56 17q-56 0 -63 -65l-15 -131h105v-114h-118l-36 -311q-19 -168 -169 -168q-57 0 -99 21l24 105q21 -11 43 -11q46 0 53 58l36 306h-81z" />
    <glyph glyph-name="Euro.fitted" horiz-adv-x="640" 
d="M7 389v76h72q17 67 36 105.5t53 73.5q79 82 198 82q115 0 181 -76q35 -40 59 -112q2 -5 4 -13l-136 -43q-19 67 -44 94t-67 27q-95 0 -127 -138h155v-76h-164q-1 -10 -1 -31q0 -27 1 -38h164v-76h-153q18 -70 48 -101t80 -31q68 0 98 74q5 12 16 54l140 -40
q-27 -103 -93 -157t-166 -54q-124 0 -202 86q-30 35 -47 70t-33 99h-72v76h62q-1 11 -1 38q0 22 1 31h-62z" />
    <glyph glyph-name="yen.fitted" horiz-adv-x="595" 
d="M54 308v76h126l-180 331h174l129 -271l132 271h160l-180 -331h129v-76h-169v-69h169v-76h-169v-163h-154v163h-167v76h167v69h-167z" />
    <glyph glyph-name="one.numerator" horiz-adv-x="410" 
d="M75 313v88h73v164q-24 -9 -75 -11v86q77 9 92 75h112v-314h67v-88h-269z" />
    <glyph glyph-name="two.numerator" horiz-adv-x="410" 
d="M44 313v91q102 52 146.5 93.5t44.5 82.5q0 43 -36 43q-33 0 -45 -49l-113 27q34 121 167 121q73 0 116.5 -37t43.5 -98q0 -110 -149 -178h150v-96h-325z" />
    <glyph glyph-name="three.numerator" horiz-adv-x="410" 
d="M143 583l-102 27q40 112 172 112q72 0 115.5 -31.5t43.5 -83.5q0 -60 -67 -84q75 -23 75 -92q0 -58 -46 -91.5t-125 -33.5q-153 0 -181 118l108 26q14 -51 63 -51q48 0 48 40q0 37 -47 37h-33v79h33q49 0 49 38q0 36 -45 36q-44 0 -61 -46z" />
    <glyph glyph-name="four.numerator" horiz-adv-x="410" 
d="M199 313v68h-191v96l187 238h133v-246h52v-88h-52v-68h-129zM206 591l-98 -126h98v126z" />
    <glyph glyph-name="five.numerator" horiz-adv-x="410" 
d="M350 715v-92h-175l-7 -56q30 13 64 13q66 0 104 -34.5t38 -95.5q0 -69 -45 -106.5t-128 -37.5q-81 0 -126 31q-29 19 -50 68l103 38q21 -44 66 -44q24 0 37.5 13.5t13.5 37.5q0 22 -12 34.5t-32 12.5q-23 0 -42 -23h-113l28 241h276z" />
    <glyph glyph-name="six.numerator" horiz-adv-x="410" 
d="M376 658l-49 -63q-51 41 -97 41q-55 0 -69 -76q39 21 82 21q65 0 103.5 -35.5t38.5 -96.5q0 -67 -46.5 -105t-127.5 -38q-89 0 -136.5 51t-47.5 147q0 103 52 160.5t144 57.5q85 0 153 -64zM209 496q-22 0 -36.5 -13.5t-14.5 -34.5q0 -23 14 -36.5t37 -13.5t37 13.5
t14 35.5t-14 35.5t-37 13.5z" />
    <glyph glyph-name="seven.numerator" horiz-adv-x="410" 
d="M234 313h-140q14 182 142 308h-194v94h327v-81q-132 -133 -135 -321z" />
    <glyph glyph-name="eight.numerator" horiz-adv-x="410" 
d="M94 527q-27 16 -38 33.5t-11 44.5q0 55 43.5 86.5t117.5 31.5t117 -31.5t43 -86.5q0 -27 -11 -44.5t-38 -33.5q37 -19 52.5 -40t15.5 -54q0 -61 -47 -94t-132 -33q-86 0 -133 33t-47 94q0 33 15.5 54t52.5 40zM206 485q-25 0 -39.5 -12.5t-14.5 -33.5t14.5 -34t37.5 -13
q25 0 40 12.5t15 34.5q0 21 -14.5 33.5t-38.5 12.5zM206 638q-20 0 -32.5 -10.5t-12.5 -27.5q0 -18 11.5 -28.5t31.5 -10.5q21 0 33.5 10.5t12.5 27.5t-12.5 28t-31.5 11z" />
    <glyph glyph-name="nine.numerator" horiz-adv-x="410" 
d="M30 370l50 63q50 -41 100 -41q32 0 48.5 18.5t20.5 58.5q-39 -21 -84 -21q-65 0 -102.5 35t-37.5 95q0 66 46.5 105t124.5 39q92 0 139.5 -50t47.5 -147q0 -104 -51.5 -161.5t-144.5 -57.5q-90 0 -157 64zM201 629q-23 0 -37 -13t-14 -35t14 -35t37 -13q22 0 36.5 13.5
t14.5 34.5q0 22 -14 35t-37 13z" />
    <glyph glyph-name="zero.numerator" horiz-adv-x="410" 
d="M205 722q86 0 135 -55.5t49 -152.5q0 -96 -49 -152t-134 -56q-87 0 -136 56t-49 155q0 89 47 147t137 58zM205 629q-51 0 -51 -113q0 -117 51 -117t51 115t-51 115z" />
    <glyph glyph-name="one.denominator" horiz-adv-x="410" 
d="M75 0v88h73v164q-24 -9 -75 -11v86q77 9 92 75h112v-314h67v-88h-269z" />
    <glyph glyph-name="two.denominator" horiz-adv-x="410" 
d="M44 0v91q102 52 146.5 93.5t44.5 82.5q0 43 -36 43q-33 0 -45 -49l-113 27q34 121 167 121q73 0 116.5 -37t43.5 -98q0 -110 -149 -178h150v-96h-325z" />
    <glyph glyph-name="three.denominator" horiz-adv-x="410" 
d="M143 270l-102 27q40 112 172 112q72 0 115.5 -31.5t43.5 -83.5q0 -60 -67 -84q75 -23 75 -92q0 -58 -46 -91.5t-125 -33.5q-153 0 -181 118l108 26q14 -51 63 -51q48 0 48 40q0 37 -47 37h-33v79h33q49 0 49 38q0 36 -45 36q-44 0 -61 -46z" />
    <glyph glyph-name="four.denominator" horiz-adv-x="410" 
d="M199 0v68h-191v96l187 238h133v-246h52v-88h-52v-68h-129zM206 278l-98 -126h98v126z" />
    <glyph glyph-name="five.denominator" horiz-adv-x="410" 
d="M350 402v-92h-175l-7 -56q30 13 64 13q66 0 104 -34.5t38 -95.5q0 -69 -45 -106.5t-128 -37.5q-81 0 -126 31q-30 21 -50 68l103 38q21 -44 66 -44q24 0 37.5 13.5t13.5 37.5q0 22 -12 34.5t-32 12.5q-23 0 -42 -23h-113l28 241h276z" />
    <glyph glyph-name="six.denominator" horiz-adv-x="410" 
d="M376 345l-49 -63q-51 41 -97 41q-55 0 -69 -76q39 21 82 21q65 0 103.5 -35.5t38.5 -96.5q0 -67 -46.5 -105t-127.5 -38q-89 0 -136.5 51t-47.5 147q0 103 52 160.5t144 57.5q85 0 153 -64zM209 183q-22 0 -36.5 -13.5t-14.5 -34.5q0 -23 14 -36.5t37 -13.5t37 13.5
t14 35.5t-14 35.5t-37 13.5z" />
    <glyph glyph-name="seven.denominator" horiz-adv-x="410" 
d="M234 0h-140q14 182 142 308h-194v94h327v-81q-132 -133 -135 -321z" />
    <glyph glyph-name="eight.denominator" horiz-adv-x="410" 
d="M94 214q-27 16 -38 33.5t-11 44.5q0 55 43.5 86.5t117.5 31.5t117 -31.5t43 -86.5q0 -27 -11 -44.5t-38 -33.5q37 -19 52.5 -40t15.5 -54q0 -61 -47 -94t-132 -33q-86 0 -133 33t-47 94q0 33 15.5 54t52.5 40zM206 172q-25 0 -39.5 -12.5t-14.5 -33.5t14.5 -34t37.5 -13
q25 0 40 12.5t15 34.5q0 21 -14.5 33.5t-38.5 12.5zM206 325q-20 0 -32.5 -10.5t-12.5 -27.5q0 -18 11.5 -28.5t31.5 -10.5q21 0 33.5 10.5t12.5 27.5t-12.5 28t-31.5 11z" />
    <glyph glyph-name="nine.denominator" horiz-adv-x="410" 
d="M30 57l50 63q50 -41 100 -41q32 0 48.5 18.5t20.5 58.5q-39 -21 -84 -21q-65 0 -102.5 35t-37.5 95q0 66 46.5 105t124.5 39q92 0 139.5 -50t47.5 -147q0 -104 -51.5 -161.5t-144.5 -57.5q-90 0 -157 64zM201 316q-23 0 -37 -13t-14 -35t14 -35t37 -13q22 0 36.5 13.5
t14.5 34.5q0 22 -14 35t-37 13z" />
    <glyph glyph-name="zero.denominator" horiz-adv-x="410" 
d="M205 409q86 0 135 -55.5t49 -152.5q0 -96 -49 -152t-134 -56q-87 0 -136 56t-49 155q0 89 47 147t137 58zM205 316q-51 0 -51 -113q0 -117 51 -117t51 115t-51 115z" />
    <glyph glyph-name="oneone" horiz-adv-x="920" 
d="M75 313v88h73v164q-24 -9 -75 -11v86q77 9 92 75h112v-314h67v-88h-269zM209 0l388 715h113l-387 -715h-114zM585 0v88h73v164q-24 -9 -75 -11v86q77 9 92 75h112v-314h67v-88h-269z" />
    <glyph glyph-name="onefifth" horiz-adv-x="920" 
d="M75 313v88h73v164q-24 -9 -75 -11v86q77 9 92 75h112v-314h67v-88h-269zM209 0l388 715h113l-387 -715h-114zM860 402v-92h-175l-7 -56q30 13 64 13q66 0 104 -34.5t38 -95.5q0 -69 -45 -106.5t-128 -37.5q-81 0 -126 31q-30 21 -50 68l103 38q21 -44 66 -44
q24 0 37.5 13.5t13.5 37.5q0 22 -12 34.5t-32 12.5q-23 0 -42 -23h-113l28 241h276z" />
    <glyph glyph-name="twofifth" horiz-adv-x="920" 
d="M44 313v91q102 52 146.5 93.5t44.5 82.5q0 43 -36 43q-33 0 -45 -49l-113 27q34 121 167 121q73 0 116.5 -37t43.5 -98q0 -110 -149 -178h150v-96h-325zM225 0l388 715h113l-387 -715h-114zM861 402v-92h-175l-7 -56q30 13 64 13q66 0 104 -34.5t38 -95.5
q0 -69 -45 -106.5t-128 -37.5q-81 0 -126 31q-30 21 -50 68l103 38q21 -44 66 -44q24 0 37.5 13.5t13.5 37.5q0 22 -12 34.5t-32 12.5q-23 0 -42 -23h-113l28 241h276z" />
    <glyph glyph-name="threefifth" horiz-adv-x="920" 
d="M143 583l-102 27q40 112 172 112q72 0 115.5 -31.5t43.5 -83.5q0 -60 -67 -84q75 -23 75 -92q0 -58 -46 -91.5t-125 -33.5q-153 0 -181 118l108 26q14 -51 63 -51q48 0 48 40q0 37 -47 37h-33v79h33q49 0 49 38q0 36 -45 36q-44 0 -61 -46zM210 0l388 715h113l-387 -715
h-114zM861 402v-92h-175l-7 -56q30 13 64 13q66 0 104 -34.5t38 -95.5q0 -69 -45 -106.5t-128 -37.5q-81 0 -126 31q-30 21 -50 68l103 38q21 -44 66 -44q24 0 37.5 13.5t13.5 37.5q0 22 -12 34.5t-32 12.5q-23 0 -42 -23h-113l28 241h276z" />
    <glyph glyph-name="fourfifth" horiz-adv-x="920" 
d="M199 313v68h-191v96l187 238h133v-246h52v-88h-52v-68h-129zM206 591l-98 -126h98v126zM209 0l388 715h113l-387 -715h-114zM860 402v-92h-175l-7 -56q30 13 64 13q66 0 104 -34.5t38 -95.5q0 -69 -45 -106.5t-128 -37.5q-81 0 -126 31q-30 21 -50 68l103 38
q21 -44 66 -44q24 0 37.5 13.5t13.5 37.5q0 22 -12 34.5t-32 12.5q-23 0 -42 -23h-113l28 241h276z" />
    <glyph glyph-name="onesixth" horiz-adv-x="920" 
d="M75 313v88h73v164q-24 -9 -75 -11v86q77 9 92 75h112v-314h67v-88h-269zM209 0l388 715h113l-387 -715h-114zM877 345l-49 -63q-51 41 -97 41q-28 0 -45 -18t-25 -58q39 21 83 21q65 0 103.5 -35.5t38.5 -96.5q0 -67 -46.5 -105t-127.5 -38q-89 0 -136.5 51t-47.5 147
q0 103 52 160.5t144 57.5q85 0 153 -64zM710 183q-22 0 -36.5 -13.5t-14.5 -34.5q0 -23 14 -36.5t37 -13.5t37 13.5t14 35.5t-14 35.5t-37 13.5z" />
    <glyph glyph-name="fivesixth" horiz-adv-x="920" 
d="M350 715v-92h-175l-7 -56q30 13 64 13q66 0 104 -34.5t38 -95.5q0 -69 -45 -106.5t-128 -37.5q-81 0 -126 31q-29 19 -50 68l103 38q21 -44 66 -44q24 0 37.5 13.5t13.5 37.5q0 22 -12 34.5t-32 12.5q-23 0 -42 -23h-113l28 241h276zM209 0l388 715h113l-387 -715h-114z
M877 345l-49 -63q-52 41 -97 41q-56 0 -70 -76q39 21 82 21q65 0 103.5 -35.5t38.5 -96.5q0 -67 -46.5 -105t-126.5 -38q-89 0 -136.5 51t-47.5 147q0 103 51.5 160.5t144.5 57.5q46 0 80.5 -14.5t72.5 -49.5zM709 183q-22 0 -36 -13.5t-14 -34.5q0 -23 13.5 -36.5
t36.5 -13.5t37 13.5t14 35.5t-14 35.5t-37 13.5z" />
    <glyph glyph-name="Dotaccent" 
d="M251 921q32 0 55.5 -23.5t23.5 -55.5q0 -33 -24 -57t-56 -24q-33 0 -56.5 24t-23.5 57t23.5 56t57.5 23z" />
    <glyph glyph-name="Ring" 
d="M252 979q47 0 79.5 -31t32.5 -77t-32.5 -77.5t-80.5 -31.5q-49 0 -81.5 31t-32.5 78q0 46 32.5 77t82.5 31zM251 916q-20 0 -32.5 -13t-12.5 -33t13 -32.5t32 -12.5t31.5 13t12.5 32q0 20 -12.5 33t-31.5 13z" />
    <glyph glyph-name="Circumflex" 
d="M83 775l110 170h115l109 -170h-105l-63 67l-62 -67h-104z" />
    <glyph glyph-name="Breve" 
d="M87 922h100q6 -62 68 -62q61 0 67 62h100q-7 -160 -167 -160q-159 0 -168 160z" />
    <glyph glyph-name="Tilde" 
d="M339 920l90 -6q-20 -142 -116 -142q-34 0 -79 25q-29 15 -42 15q-27 0 -36 -38l-84 6q16 142 114 142q33 0 76 -24q28 -16 44 -16q25 0 33 38z" />
    <glyph glyph-name="Cedilla" 
d="M164 -87l80 112l64 -4l-56 -75q15 3 23 3q32 0 53.5 -23.5t21.5 -58.5q0 -43 -29 -67t-80 -24q-72 0 -111 56l63 30q14 -23 42 -23q36 0 36 29q0 30 -32 30q-20 0 -31 -14z" />
    <glyph glyph-name="Ogonek" 
d="M512 7l81 2q-82 -52 -82 -115q0 -31 32 -31q20 0 42 19l41 -54q-41 -34 -92 -34q-52 0 -82 23.5t-30 64.5q0 37 20.5 65.5t69.5 59.5z" />
    <glyph glyph-name="commaaccent.sc" 
d="M180 -271v57q28 3 44.5 15.5t18.5 31.5q-66 7 -66 63q0 28 19.5 46t48.5 18q36 0 57.5 -25t21.5 -66q0 -61 -37 -98q-35 -36 -107 -42z" />
    <glyph glyph-name="commareversed" 
d="M308 807v-57q-28 -3 -44.5 -15.5t-18.5 -31.5q66 -7 66 -63q0 -28 -19.5 -46t-48.5 -18q-36 0 -57.5 25t-21.5 66q0 59 37 98q35 36 107 42z" />
    </font>
</defs>
</svg>
